<svg width="16" height="16" viewBox="0 0 16 16" fill="none" xmlns="http://www.w3.org/2000/svg">
<path fill-rule="evenodd" clip-rule="evenodd" d="M2.82143 13.7692C2.82143 13.4506 2.56159 13.1923 2.24107 13.1923C1.92055 13.1923 1.66071 13.4506 1.66071 13.7692C1.66071 14.0879 1.92055 14.3462 2.24107 14.3462C2.56159 14.3462 2.82143 14.0879 2.82143 13.7692ZM3.98214 13.7692C3.98214 12.8134 3.20264 12.0385 2.24107 12.0385C1.2795 12.0385 0.5 12.8134 0.5 13.7692C0.5 14.7251 1.2795 15.5 2.24107 15.5C3.20264 15.5 3.98214 14.7251 3.98214 13.7692ZM15.5 14.3462H5.14286V13.1923H15.5V14.3462ZM2.24107 7.42308C2.56159 7.42308 2.82143 7.68137 2.82143 8C2.82143 8.31863 2.56159 8.57692 2.24107 8.57692C1.92055 8.57692 1.66071 8.31863 1.66071 8C1.66071 7.68137 1.92055 7.42308 2.24107 7.42308ZM2.24107 6.26923C3.20264 6.26923 3.98214 7.04412 3.98214 8C3.98214 8.95588 3.20264 9.73077 2.24107 9.73077C1.2795 9.73077 0.5 8.95588 0.5 8C0.5 7.04412 1.2795 6.26923 2.24107 6.26923ZM15.5 8.57692H5.14286V7.42308H15.5V8.57692ZM2.24107 1.65385C2.56159 1.65385 2.82143 1.91214 2.82143 2.23077C2.82143 2.54939 2.56159 2.80769 2.24107 2.80769C1.92055 2.80769 1.66071 2.54939 1.66071 2.23077C1.66071 1.91214 1.92055 1.65385 2.24107 1.65385ZM2.24107 0.5C3.20264 0.5 3.98214 1.27489 3.98214 2.23077C3.98214 3.18665 3.20264 3.96154 2.24107 3.96154C1.2795 3.96154 0.5 3.18665 0.5 2.23077C0.5 1.27489 1.2795 0.5 2.24107 0.5ZM15.5 2.80769H5.14286V1.65385H15.5V2.80769Z" fill="#272F5A" fill-opacity="0.9"/>
</svg>
