<svg width="33" height="30" viewBox="0 0 28 30" fill="none" xmlns="http://www.w3.org/2000/svg">
<path fill-rule="evenodd" clip-rule="evenodd" d="M9 13.5C9 13.2239 9.22386 13 9.5 13H18.5C18.7761 13 19 13.2239 19 13.5V13.5C19 13.7761 18.7761 14 18.5 14H9.5C9.22386 14 9 13.7761 9 13.5V13.5ZM8 13C8 12.4477 8.44772 12 9 12H19C19.5523 12 20 12.4477 20 13V14C20 14.3785 19.7897 14.708 19.4795 14.8778C19.2034 15.0289 18.8889 15.1482 18.7 15.4L16 19L16 22.8604L12 24L12 19L9.3 15.4C9.11115 15.1482 8.79661 15.0289 8.52051 14.8778C8.21034 14.708 8 14.3785 8 14V13ZM10.375 15L13 18.5V22.5L15 22V18.5L17.625 15H10.375Z" fill="#189EE9"/>
<g filter="url(#filter0_dd_6137_391)">
<circle cx="20" cy="12" r="4" fill="#189EE9"/>
<circle cx="20" cy="12" r="3" stroke="white" stroke-width="2"/>
</g>
<defs>
<filter id="filter0_dd_6137_391" x="0" y="0" width="40" height="40" filterUnits="userSpaceOnUse" color-interpolation-filters="sRGB">
<feFlood flood-opacity="0" result="BackgroundImageFix"/>
<feColorMatrix in="SourceAlpha" type="matrix" values="0 0 0 0 0 0 0 0 0 0 0 0 0 0 0 0 0 0 127 0" result="hardAlpha"/>
<feOffset dy="8"/>
<feGaussianBlur stdDeviation="8"/>
<feColorMatrix type="matrix" values="0 0 0 0 0.306823 0 0 0 0 0.364905 0 0 0 0 0.570833 0 0 0 0.08 0"/>
<feBlend mode="normal" in2="BackgroundImageFix" result="effect1_dropShadow_6137_391"/>
<feColorMatrix in="SourceAlpha" type="matrix" values="0 0 0 0 0 0 0 0 0 0 0 0 0 0 0 0 0 0 127 0" result="hardAlpha"/>
<feOffset dy="4"/>
<feGaussianBlur stdDeviation="2"/>
<feColorMatrix type="matrix" values="0 0 0 0 0.306823 0 0 0 0 0.364905 0 0 0 0 0.570833 0 0 0 0.16 0"/>
<feBlend mode="normal" in2="effect1_dropShadow_6137_391" result="effect2_dropShadow_6137_391"/>
<feBlend mode="normal" in="SourceGraphic" in2="effect2_dropShadow_6137_391" result="shape"/>
</filter>
</defs>
</svg>
