<svg width="28" height="26" viewBox="0 0 28 26" fill="none" xmlns="http://www.w3.org/2000/svg">
<path fill-rule="evenodd" clip-rule="evenodd" d="M10 2H18V4H10V2ZM8 4V2C8 0.89543 8.89543 0 10 0H18C19.1046 0 20 0.895431 20 2V4H26C27.1046 4 28 4.89543 28 6V24C28 25.1046 27.1046 26 26 26H2C0.895431 26 0 25.1046 0 24V6C0 4.89543 0.895431 4 2 4H8ZM20 6H18H10H8H2V10.4947C3.32282 11.4533 5.32702 12.7588 7.45942 13.8618C9.86106 15.104 12.2589 16 14 16C15.7411 16 18.1389 15.104 20.5406 13.8618C22.673 12.7588 24.6772 11.4533 26 10.4947V6H20ZM21.4594 15.6382C23.1306 14.7738 24.7212 13.7945 26 12.933V24H2V12.933C3.27879 13.7945 4.86944 14.7738 6.54058 15.6382C8.97227 16.896 11.7411 18 14 18C16.2589 18 19.0277 16.896 21.4594 15.6382Z" fill="#272F5A"/>
</svg>
