<svg width="16" height="14" viewBox="0 0 16 14" fill="none" xmlns="http://www.w3.org/2000/svg">
<path d="M14.8211 6.10625C15.3729 6.10625 15.6032 5.39732 15.155 5.07054L8.33538 0.109821C8.23799 0.0384674 8.12039 0 7.99966 0C7.87893 0 7.76134 0.0384674 7.66395 0.109821L0.844304 5.07054C0.396089 5.39554 0.626447 6.10625 1.18002 6.10625H2.28538V12.7848H0.999661C0.921089 12.7848 0.856804 12.8491 0.856804 12.9277V13.8563C0.856804 13.9348 0.921089 13.9991 0.999661 13.9991H14.9997C15.0782 13.9991 15.1425 13.9348 15.1425 13.8563V12.9277C15.1425 12.8491 15.0782 12.7848 14.9997 12.7848H13.7139V6.10625H14.8211ZM7.99966 1.36875L12.8407 4.89018H3.15859L7.99966 1.36875ZM3.57109 6.10625H5.66038V12.7848H3.57109V6.10625ZM6.94609 6.10625H9.03538V12.7848H6.94609V6.10625ZM12.4282 12.7848H10.3211V6.10625H12.4282V12.7848Z" fill="#17B45A"/>
</svg>
