<svg width="12" height="11" viewBox="0 0 12 11" fill="none" xmlns="http://www.w3.org/2000/svg">
<path fill-rule="evenodd" clip-rule="evenodd" d="M4.5 1.5H7.5V2.25H4.5V1.5ZM3.75 2.25V1.5C3.75 1.08579 4.08579 0.75 4.5 0.75H7.5C7.91421 0.75 8.25 1.08579 8.25 1.5V2.25H10.5C10.9142 2.25 11.25 2.58579 11.25 3V9.75C11.25 10.1642 10.9142 10.5 10.5 10.5H1.5C1.08579 10.5 0.75 10.1642 0.75 9.75V3C0.75 2.58579 1.08579 2.25 1.5 2.25H3.75ZM8.25 3H7.5H4.5H3.75H1.5V4.68552C1.99606 5.04499 2.74763 5.53456 3.54728 5.94817C4.4479 6.414 5.34709 6.75 6 6.75C6.65291 6.75 7.5521 6.414 8.45272 5.94817C9.25237 5.53456 10.0039 5.04499 10.5 4.68552V3H8.25ZM8.79728 6.61433C9.42396 6.29019 10.0205 5.92292 10.5 5.59988V9.75H1.5V5.59988C1.97955 5.92292 2.57604 6.29019 3.20272 6.61433C4.1146 7.086 5.15291 7.5 6 7.5C6.84709 7.5 7.8854 7.086 8.79728 6.61433Z" fill="#272F5A" fill-opacity="0.7"/>
</svg>
