<svg width="7" height="10" viewBox="0 0 7 10" fill="none" xmlns="http://www.w3.org/2000/svg">
<path as="path" clip-rule="evenodd" fill-rule="evenodd" d="M1 8C1 4.13437 4.13437 1 8 1C11.8656 1 15 4.13437 15 8C15 11.8656 11.8656 15 8 15C4.13437 15 1 11.8656 1 8ZM2.1875 8C2.1875 11.2094 4.79063 13.8125 8 13.8125C11.2094 13.8125 13.8125 11.2094 13.8125 8C13.8125 4.79063 11.2094 2.1875 8 2.1875C4.79063 2.1875 2.1875 4.79063 2.1875 8ZM8 4.3125C8.65625 4.3125 9.275 4.5375 9.74375 4.94844C10.2313 5.375 10.5 5.94844 10.4984 6.5625C10.4984 7.46563 9.90313 8.27812 8.98125 8.63281C8.83975 8.68746 8.71799 8.78347 8.63187 8.90834C8.54574 9.03321 8.49925 9.18113 8.49844 9.33281V9.6875C8.49844 9.75625 8.44219 9.8125 8.37344 9.8125H7.62344C7.55469 9.8125 7.49844 9.75625 7.49844 9.6875V9.35156C7.49844 8.99063 7.60469 8.63438 7.80938 8.3375C8.01094 8.04688 8.29219 7.825 8.62344 7.69844C9.15625 7.49375 9.5 7.04844 9.5 6.5625C9.5 5.87344 8.82656 5.3125 8 5.3125C7.17344 5.3125 6.5 5.87344 6.5 6.5625V6.68125C6.5 6.75 6.44375 6.80625 6.375 6.80625H5.625C5.55625 6.80625 5.5 6.75 5.5 6.68125V6.5625C5.5 5.94844 5.76875 5.375 6.25625 4.94844C6.725 4.53906 7.34375 4.3125 8 4.3125ZM7.55806 11.8794C7.44085 11.7622 7.375 11.6033 7.375 11.4375C7.375 11.2717 7.44085 11.1128 7.55806 10.9956C7.67527 10.8783 7.83424 10.8125 8 10.8125C8.16576 10.8125 8.32473 10.8783 8.44194 10.9956C8.55915 11.1128 8.625 11.2717 8.625 11.4375C8.625 11.6033 8.55915 11.7622 8.44194 11.8794C8.32473 11.9967 8.16576 12.0625 8 12.0625C7.83424 12.0625 7.67527 11.9967 7.55806 11.8794Z"></path>
</svg>