<svg width="13" height="13" viewBox="0 0 13 13" fill="none" xmlns="http://www.w3.org/2000/svg">
<rect x="0.716034" y="1.35721" width="11" height="11" rx="5.5" stroke="#FC525B"/>
<path d="M5.76956 8.37375V8.31303C5.77382 7.91672 5.81324 7.60138 5.88781 7.36701C5.96452 7.13263 6.07318 6.943 6.21381 6.79811C6.35443 6.65323 6.52382 6.52113 6.72198 6.40181C6.84982 6.32084 6.96487 6.23029 7.06715 6.13014C7.16942 6.03 7.25039 5.91495 7.31004 5.78497C7.3697 5.655 7.39953 5.51118 7.39953 5.35351C7.39953 5.16388 7.35479 4.99982 7.2653 4.86132C7.17581 4.72283 7.05649 4.6163 6.90735 4.54172C6.76033 4.46502 6.59627 4.42666 6.41516 4.42666C6.2511 4.42666 6.09449 4.46076 5.94534 4.52894C5.7962 4.59712 5.67262 4.70365 5.5746 4.84854C5.47659 4.9913 5.42013 5.1756 5.40522 5.40145H4.43362C4.44854 5.01793 4.54549 4.69407 4.72446 4.42986C4.90344 4.16353 5.13995 3.96218 5.43398 3.82581C5.73014 3.68945 6.0572 3.62127 6.41516 3.62127C6.8072 3.62127 7.15024 3.69478 7.44428 3.84179C7.73831 3.98668 7.96629 4.19016 8.12823 4.45223C8.29229 4.71218 8.37432 5.0158 8.37432 5.3631C8.37432 5.60174 8.33703 5.81693 8.26246 6.0087C8.18789 6.19833 8.08135 6.36772 7.94286 6.51686C7.80649 6.66601 7.64243 6.79811 7.45067 6.91317C7.26956 7.0261 7.12254 7.14328 7.00962 7.26473C6.89882 7.38618 6.81786 7.53 6.76672 7.6962C6.71558 7.86239 6.68789 8.068 6.68362 8.31303V8.37375H5.76956ZM6.25216 10.3169C6.07745 10.3169 5.92723 10.2551 5.80152 10.1316C5.67581 10.0059 5.61296 9.85458 5.61296 9.67773C5.61296 9.50301 5.67581 9.35387 5.80152 9.23029C5.92723 9.10458 6.07745 9.04172 6.25216 9.04172C6.42475 9.04172 6.57389 9.10458 6.6996 9.23029C6.82745 9.35387 6.89137 9.50301 6.89137 9.67773C6.89137 9.79492 6.86154 9.90252 6.80188 10.0005C6.74435 10.0964 6.66764 10.1731 6.57176 10.2306C6.47588 10.2882 6.36935 10.3169 6.25216 10.3169Z" fill="#FC525B"/>
</svg>
