<svg width="14" height="13" viewBox="0 0 14 13" fill="none" xmlns="http://www.w3.org/2000/svg">
<path fill-rule="evenodd" clip-rule="evenodd" d="M6.99999 0C7.27613 0 7.49999 0.223858 7.49999 0.5V7.20711L2.70707 12H4.49997C4.77611 12 4.99997 12.2239 4.99997 12.5C4.99997 12.7762 4.77611 13 4.49997 13H1.06632L1.00535 12.5732L1.00474 12.5689L0.575707 9.56572C0.536654 9.29235 0.726604 9.03908 0.999971 9.00003C1.27334 8.96098 1.5266 9.15093 1.56566 9.4243L1.85352 11.4394L6.49999 6.79289V0.5C6.49999 0.223858 6.72385 0 6.99999 0ZM8.64645 8.64645C8.84171 8.45118 9.15829 8.45118 9.35355 8.64645L12.1465 11.4394L12.4343 9.4243C12.4734 9.15093 12.7267 8.96098 13 9.00003C13.2734 9.03908 13.4633 9.29235 13.4243 9.56572L12.9953 12.5689L12.9946 12.5733L12.9337 13H9.50002C9.22388 13 9.00002 12.7762 9.00002 12.5C9.00002 12.2239 9.22388 12 9.50002 12H11.2929L8.64645 9.35355C8.45118 9.15829 8.45118 8.84171 8.64645 8.64645Z" fill="#272F5A"/>
</svg>
