<svg width="14" height="13" viewBox="0 0 14 13" fill="none" xmlns="http://www.w3.org/2000/svg">
<path fill-rule="evenodd" clip-rule="evenodd" d="M4.375 0.875C3.89175 0.875 3.5 1.26675 3.5 1.75V6.125H1.75C1.26675 6.125 0.875 6.51675 0.875 7V12.25H13.125V4.8125C13.125 4.32925 12.7333 3.9375 12.25 3.9375H10.5V1.75C10.5 1.26675 10.1082 0.875 9.625 0.875H4.375ZM10.5 4.8125V11.375H12.25V4.8125H10.5ZM1.75 7H3.5V11.375H1.75V7ZM9.625 1.75H4.375V11.375H6.125V9.625H7.875V11.375H9.625V1.75ZM7.875 5.25H6.125V6.125H7.875V5.25ZM6.125 3.5H7.875V4.375H6.125V3.5ZM7.875 7H6.125V7.875H7.875V7Z" fill="#272F5A" fill-opacity="0.7"/>
</svg>
