<svg width="12" height="11" viewBox="0 0 12 11" fill="none" xmlns="http://www.w3.org/2000/svg">
<path fill-rule="evenodd" clip-rule="evenodd" d="M6.13616 0.150806C6.33467 0.351881 6.33467 0.677889 6.13616 0.878964L1.81533 5.25549C0.750501 6.33405 0.7505 8.08275 1.81533 9.16131C2.88017 10.2399 4.6066 10.2399 5.67143 9.16131L10.5006 4.26989C11.1443 3.61788 11.1443 2.56075 10.5006 1.90874C9.85687 1.25672 8.8132 1.25672 8.16949 1.90874L3.50004 6.6835C3.27744 6.90897 3.27744 7.27453 3.50004 7.5C3.72264 7.72547 4.08355 7.72547 4.30615 7.5L8.97559 2.72523C9.17411 2.52416 9.49597 2.52416 9.69448 2.72523C9.893 2.92631 9.893 3.25232 9.69448 3.45339L5.02504 8.22816C4.40541 8.85578 3.40079 8.85578 2.78115 8.22816C2.16152 7.60054 2.16152 6.58296 2.78115 5.95534L7.4506 1.18058C8.49135 0.126411 10.1787 0.126412 11.2195 1.18058C12.2602 2.23474 12.2602 3.94388 11.2195 4.99805L6.39032 9.88946C4.92846 11.3702 2.55831 11.3702 1.09644 9.88947C-0.365424 8.40875 -0.365421 6.00804 1.09644 4.52733L5.41727 0.150806C5.61578 -0.0502698 5.93764 -0.0502698 6.13616 0.150806Z" fill="#272F5A"/>
</svg>
