<svg width="16" height="16" viewBox="0 0 16 16" fill="none" xmlns="http://www.w3.org/2000/svg">
<path fill-rule="evenodd" clip-rule="evenodd" d="M8.13616 3.15081C8.33467 3.35188 8.33467 3.67789 8.13616 3.87896L3.81533 8.25549C2.7505 9.33405 2.7505 11.0827 3.81533 12.1613C4.88017 13.2399 6.6066 13.2399 7.67143 12.1613L12.5006 7.26989C13.1443 6.61788 13.1443 5.56075 12.5006 4.90874C11.8569 4.25672 10.8132 4.25672 10.1695 4.90874L5.50004 9.6835C5.27744 9.90897 5.27744 10.2745 5.50004 10.5C5.72264 10.7255 6.08355 10.7255 6.30615 10.5L10.9756 5.72523C11.1741 5.52416 11.496 5.52416 11.6945 5.72523C11.893 5.92631 11.893 6.25232 11.6945 6.45339L7.02504 11.2282C6.40541 11.8558 5.40079 11.8558 4.78115 11.2282C4.16152 10.6005 4.16152 9.58296 4.78115 8.95534L9.4506 4.18058C10.4913 3.12641 12.1787 3.12641 13.2195 4.18058C14.2602 5.23474 14.2602 6.94388 13.2195 7.99805L8.39032 12.8895C6.92846 14.3702 4.55831 14.3702 3.09644 12.8895C1.63458 11.4088 1.63458 9.00804 3.09644 7.52733L7.41727 3.15081C7.61578 2.94973 7.93764 2.94973 8.13616 3.15081Z" fill="#272F5A"/>
</svg>
