<svg width="15" height="14" viewBox="0 0 15 14" fill="none" xmlns="http://www.w3.org/2000/svg">
<path fill-rule="evenodd" clip-rule="evenodd" d="M4.55521 11.5055L3.03033 13.0304L1.96967 11.9697L12.9697 0.969727L14.0303 2.03039L11.9661 4.09465C13.2364 5.22745 14 6.49555 14 7.00006C14 8.00006 11 12.0001 7 12.0001C6.13104 12.0001 5.30928 11.8113 4.55521 11.5055ZM5.33445 10.7263C5.86602 10.8999 6.42442 11.0001 7 11.0001C8.66549 11.0001 10.1872 10.1612 11.331 9.13176C11.8964 8.62289 12.341 8.09202 12.6367 7.64848C12.7849 7.42619 12.8865 7.23963 12.9473 7.10073C12.9664 7.05729 12.979 7.02399 12.9873 7.00006C12.979 6.97613 12.9664 6.94282 12.9473 6.89938C12.8865 6.76048 12.7849 6.57392 12.6367 6.35163C12.341 5.9081 11.8964 5.37722 11.331 4.86835C11.3068 4.84649 11.2823 4.82472 11.2577 4.80304L8.99907 7.06165C8.96714 8.11727 8.11721 8.9672 7.06159 8.99913L5.33445 10.7263ZM0 7.00006C0 7.50456 0.763574 8.77264 2.03391 9.90543L2.7423 9.19704C2.71768 9.17537 2.69324 9.15361 2.66896 9.13176C2.10355 8.62289 1.65899 8.09202 1.3633 7.64848C1.21511 7.42619 1.11353 7.23963 1.05268 7.10073C1.03364 7.05729 1.02101 7.02399 1.01271 7.00006C1.02101 6.97613 1.03364 6.94282 1.05268 6.89938C1.11353 6.76048 1.21511 6.57392 1.3633 6.35163C1.65899 5.9081 2.10355 5.37722 2.66896 4.86835C3.81283 3.83887 5.33451 3.00006 7 3.00006C7.57556 3.00006 8.13395 3.10023 8.6655 3.27384L9.44475 2.49459C8.69069 2.18882 7.86894 2.00006 7 2.00006C3 2.00006 0 6.00006 0 7.00006Z" fill="#272F5A"/>
</svg>
