<svg width="14" height="18" viewBox="0 0 14 18" fill="none" xmlns="http://www.w3.org/2000/svg">
  <path fill-rule="evenodd" clip-rule="evenodd" d="M0.75 11.5C0.75 8.43122 3.21998 4.39704 6.84239 1.34365C7.29449 0.96256 7.76455 0.596748 8.25 0.25C8.11263 0.86817 8.06584 1.42595 8.09138 1.93579C8.19148 3.93421 9.40287 5.19602 10.6265 6.47058C11.9313 7.82969 13.25 9.2033 13.25 11.5C13.25 14.9518 10.4518 17.75 7 17.75C3.54822 17.75 0.75 14.9518 0.75 11.5Z" fill="#79AFFF"/>
  <path fill-rule="evenodd" clip-rule="evenodd" d="M4.5 10.875C4.5 10.5298 4.22018 10.25 3.875 10.25C3.52982 10.25 3.25 10.5298 3.25 10.875C3.25 13.7202 5.40482 15.25 7 15.25C7.34518 15.25 7.625 14.9702 7.625 14.625C7.625 14.2798 7.34518 14 7 14C6.09518 14 4.5 13.0298 4.5 10.875Z" fill="white"/>
  </svg>
  