<svg
  width="14"
  height="13"
  viewBox="0 0 14 13"
  fill="none"
  xmlns="http://www.w3.org/2000/svg"
>
    <path
    fill-rule="evenodd"
    clip-rule="evenodd"
    d="M5 1H9V2H5V1ZM4 2V1C4 0.447715 4.44772 0 5 0H9C9.55228 0 10 0.447715 10 1V2H13C13.5523 2 14 2.44772 14 3V12C14 12.5523 13.5523 13 13 13H1C0.447716 13 0 12.5523 0 12V3C0 2.44772 0.447715 2 1 2H4ZM10 3H9H5H4H1V5.24735C1.66141 5.72665 2.66351 6.37941 3.72971 6.93089C4.93053 7.552 6.12945 8 7 8C7.87055 8 9.06947 7.552 10.2703 6.93089C11.3365 6.37941 12.3386 5.72665 13 5.24735V3H10ZM10.7297 7.81911C11.5653 7.38692 12.3606 6.89723 13 6.4665V12H1V6.4665C1.63939 6.89723 2.43472 7.38692 3.27029 7.81911C4.48614 8.448 5.87055 9 7 9C8.12945 9 9.51386 8.448 10.7297 7.81911Z"
    fill="#272F5A"
  />
    </svg>
