<svg width="73" height="65" viewBox="0 0 73 65" fill="none" xmlns="http://www.w3.org/2000/svg">
<path d="M66 5V4.5H65.5H60.5H60V5V10V10.5H60.5H65.5H66V10V5ZM56 10V9.5H55.5H13C8.58172 9.5 5 13.0817 5 17.5V22.5C5 26.9183 8.58172 30.5 13 30.5H30.5H31V30V25.5H35.5H40.5H45V30V30.5H45.5H60.5C67.1274 30.5 72.5 35.8726 72.5 42.5V47.5C72.5 54.1274 67.1274 59.5 60.5 59.5H15.5H15V60V64.5H10.5H5.5H1V60V55V50.5H5.5H10.5H15V55V55.5H15.5H60.5C64.9183 55.5 68.5 51.9183 68.5 47.5V42.5C68.5 38.0817 64.9183 34.5 60.5 34.5H45.5H45V35V39.5H40.5H35.5H31V35V34.5H30.5H13C6.37258 34.5 1 29.1274 1 22.5V17.5C1 10.8726 6.37258 5.5 13 5.5H55.5H56V5V0.5H60.5H65.5H70V5V10V14.5H65.5H60.5H56V10ZM41 30V29.5H40.5H35.5H35V30V35V35.5H35.5H40.5H41V35V30ZM11 55V54.5H10.5H5.5H5V55V60V60.5H5.5H10.5H11V60V55Z" fill="#272F5A" fill-opacity="0.32" stroke="white"/>
</svg>
