<svg width="16" height="14" viewBox="0 0 16 14" fill="none" xmlns="http://www.w3.org/2000/svg">
<path d="M14.9213 2.79088L11.4463 4.93195L8.11412 0.487307C8.10071 0.469418 8.08332 0.454897 8.06333 0.444896C8.04334 0.434895 8.02129 0.429688 7.99894 0.429688C7.97658 0.429688 7.95454 0.434895 7.93455 0.444896C7.91455 0.454897 7.89717 0.469418 7.88376 0.487307L4.5534 4.93195L1.07662 2.79088C0.97483 2.72838 0.842687 2.81231 0.858759 2.93195L2.22304 13.2998C2.24269 13.4409 2.36412 13.5498 2.50876 13.5498H13.4927C13.6355 13.5498 13.7588 13.4427 13.7766 13.2998L15.1409 2.93195C15.1552 2.81231 15.0248 2.72838 14.9213 2.79088ZM12.6713 12.3284H3.32662L2.3659 5.01766L4.86233 6.55516L7.99983 2.36945L11.1373 6.55516L13.6338 5.01766L12.6713 12.3284ZM7.99983 6.94267C6.8909 6.94267 5.98912 7.84445 5.98912 8.95338C5.98912 10.0623 6.8909 10.9641 7.99983 10.9641C9.10876 10.9641 10.0105 10.0623 10.0105 8.95338C10.0105 7.84445 9.10876 6.94267 7.99983 6.94267ZM7.99983 9.81588C7.52483 9.81588 7.13912 9.43017 7.13912 8.95338C7.13912 8.47838 7.52483 8.09088 7.99983 8.09088C8.47483 8.09088 8.86055 8.47659 8.86055 8.95338C8.86055 9.42838 8.47483 9.81588 7.99983 9.81588Z" fill="#E2B104"/>
</svg>
