<svg width="13" height="12" viewBox="0 0 13 12" fill="none" xmlns="http://www.w3.org/2000/svg">
<path d="M8.1856 5.20605V6.20605H4.1856V5.20605H8.1856Z" fill="#272F5A"/>
<path d="M8.1856 8.20605V7.20605H4.1856V8.20605H8.1856Z" fill="#272F5A"/>
<path fill-rule="evenodd" clip-rule="evenodd" d="M3.77139 0C4.03661 0 4.29096 0.105357 4.4785 0.292893L5.89271 1.70711C6.08025 1.89464 6.3346 2 6.59982 2H11.1856C11.7379 2 12.1856 2.44772 12.1856 3V11C12.1856 11.5523 11.7379 12 11.1856 12H1.1856C0.633319 12 0.185604 11.5523 0.185604 11V1C0.185604 0.447715 0.633319 0 1.1856 0H3.77139ZM5.4785 2.70711C5.66603 2.89464 5.92039 3 6.1856 3H11.1856V11H1.1856V1H3.35718C3.62239 1 3.87675 1.10536 4.06428 1.29289L5.4785 2.70711Z" fill="#272F5A"/>
</svg>
