<svg width="14" height="12" viewBox="0 0 14 12" fill="none" xmlns="http://www.w3.org/2000/svg">
<path fill-rule="evenodd" clip-rule="evenodd" d="M3 0.5C3 0.223858 3.22386 0 3.5 0C3.77614 0 4 0.223858 4 0.5V1H9V2H4V2.5C4 2.77614 3.77614 3 3.5 3C3.22386 3 3 2.77614 3 2.5V0.5ZM10 0.5C10 0.223858 10.2239 0 10.5 0C10.7761 0 11 0.223858 11 0.5V1H13C13.5523 1 14 1.44772 14 2V11C14 11.5523 13.5523 12 13 12H1C0.447716 12 0 11.5523 0 11V2C0 1.44772 0.447715 1 1 1H2V2H1V11H13V2H11V2.5C11 2.77614 10.7761 3 10.5 3C10.2239 3 10 2.77614 10 2.5V0.5ZM4 5.5C4 5.77614 4.22386 6 4.5 6H9.5C9.77614 6 10 5.77614 10 5.5C10 5.22386 9.77614 5 9.5 5H4.5C4.22386 5 4 5.22386 4 5.5ZM4.5 8C4.22386 8 4 7.77614 4 7.5C4 7.22386 4.22386 7 4.5 7H9.5C9.77614 7 10 7.22386 10 7.5C10 7.77614 9.77614 8 9.5 8H4.5Z" fill="#272F5A" fill-opacity="0.7"/>
</svg>
