<svg width="20" height="16" viewBox="0 0 20 16" fill="none" xmlns="http://www.w3.org/2000/svg">
<path fill-rule="evenodd" clip-rule="evenodd" d="M10 14.25C13.4518 14.25 16.25 11.4518 16.25 8C16.25 4.54822 13.4518 1.75 10 1.75C6.54822 1.75 3.75 4.54822 3.75 8C3.75 11.4518 6.54822 14.25 10 14.25ZM10 15.5C12.7761 15.5 15.1998 13.9918 16.4966 11.75H18.75H20V10.5V5.5V4.25H18.75H16.4966C15.1998 2.00824 12.7761 0.5 10 0.5C7.22394 0.5 4.80015 2.00824 3.50337 4.25H1.25H0V5.5V10.5V11.75H1.25H3.50337C4.80015 13.9918 7.22394 15.5 10 15.5ZM18.75 10.5H17.0732C17.3496 9.71805 17.5 8.87659 17.5 8C17.5 7.12341 17.3496 6.28195 17.0732 5.5H18.75V10.5ZM1.25 5.5H2.92676C2.65039 6.28195 2.5 7.12341 2.5 8C2.5 8.87659 2.65039 9.71805 2.92676 10.5H1.25L1.25 5.5ZM7.5 6.75V5.5H12.5V6.75H7.5ZM6.25 5.5C6.25 4.80964 6.80964 4.25 7.5 4.25H12.5C13.1904 4.25 13.75 4.80964 13.75 5.5V6.75C13.75 7.44036 13.1904 8 12.5 8H7.5C6.80964 8 6.25 7.44036 6.25 6.75V5.5ZM7.5 9.25H8.75V10.5H7.5V9.25ZM12.5 9.25H11.25V10.5H12.5V9.25Z" fill="#272F5A"/>
</svg>
