<svg width="12" height="10" viewBox="0 0 12 10" fill="none" xmlns="http://www.w3.org/2000/svg">
<path fill-rule="evenodd" clip-rule="evenodd" d="M5 0.5C5.27614 0.223858 5.72386 0.223858 6 0.5C6.27614 0.776142 6.27614 1.22386 6 1.5L2.5 5L6 8.5C6.27614 8.77614 6.27614 9.22386 6 9.5C5.72386 9.77614 5.27614 9.77614 5 9.5L0.5 5L5 0.5Z" fill="#272F5A"/>
<path fill-rule="evenodd" clip-rule="evenodd" d="M10 0.5C10.2761 0.223858 10.7239 0.223858 11 0.5C11.2761 0.776142 11.2761 1.22386 11 1.5L7.5 5L11 8.5C11.2761 8.77614 11.2761 9.22386 11 9.5C10.7239 9.77614 10.2761 9.77614 10 9.5L5.5 5L10 0.5Z" fill="#272F5A"/>
</svg>
