<svg width="16" height="16" viewBox="0 0 16 16" fill="none" xmlns="http://www.w3.org/2000/svg">
<path d="M7.88736 10.6574C7.90072 10.6744 7.9178 10.6883 7.93729 10.6977C7.95678 10.7072 7.97818 10.7122 7.99986 10.7122C8.02154 10.7122 8.04294 10.7072 8.06243 10.6977C8.08192 10.6883 8.099 10.6744 8.11236 10.6574L10.1124 8.12701C10.1856 8.03415 10.1195 7.89665 9.99986 7.89665H8.67665V1.85379C8.67665 1.77522 8.61236 1.71094 8.53379 1.71094H7.46236C7.38379 1.71094 7.3195 1.77522 7.3195 1.85379V7.89487H5.99986C5.88022 7.89487 5.81415 8.03237 5.88736 8.12522L7.88736 10.6574ZM14.5356 10.0324H13.4641C13.3856 10.0324 13.3213 10.0967 13.3213 10.1752V12.9252H2.67843V10.1752C2.67843 10.0967 2.61415 10.0324 2.53557 10.0324H1.46415C1.38557 10.0324 1.32129 10.0967 1.32129 10.1752V13.7109C1.32129 14.027 1.57665 14.2824 1.89272 14.2824H14.107C14.4231 14.2824 14.6784 14.027 14.6784 13.7109V10.1752C14.6784 10.0967 14.6141 10.0324 14.5356 10.0324Z" fill="#189EE9"/>
</svg>
