<svg width="12" height="14" viewBox="0 0 12 14" fill="none" xmlns="http://www.w3.org/2000/svg">
    <path d="M11.3167 9.2421C11.2808 9.22378 11.2417 9.213 11.2018 9.21039C11.1619 9.20778 11.1218 9.21338 11.084 9.22687C11.0461 9.24037 11.0112 9.26149 10.9813 9.28903C10.9513 9.31658 10.9269 9.34999 10.9094 9.38737C10.3911 10.4717 9.53524 11.3422 8.48073 11.8576C7.42622 12.373 6.23498 12.503 5.10039 12.2265C3.9658 11.95 2.95448 11.2833 2.23062 10.3345C1.50675 9.38572 1.11285 8.21063 1.11285 7C1.11285 5.78937 1.50675 4.61428 2.23062 3.6655C2.95448 2.71673 3.9658 2.04997 5.10039 1.77347C6.23498 1.49698 7.42622 1.62698 8.48073 2.14238C9.53524 2.65777 10.3911 3.5283 10.9094 4.61263C10.9237 4.65475 10.9464 4.69323 10.9761 4.72554C11.0058 4.75785 11.0417 4.78325 11.0815 4.80007C11.1213 4.81689 11.1641 4.82475 11.2071 4.82312C11.2501 4.82149 11.2922 4.81041 11.3307 4.79062C11.3693 4.77083 11.4033 4.74277 11.4307 4.7083C11.458 4.67383 11.478 4.63373 11.4893 4.59065C11.5006 4.54757 11.503 4.50248 11.4963 4.45837C11.4896 4.41425 11.474 4.37212 11.4504 4.33474C10.8717 3.12225 9.91544 2.14861 8.73686 1.57195C7.55827 0.995291 6.22664 0.849483 4.95822 1.15821C3.6898 1.46693 2.5591 2.21205 1.74977 3.27256C0.940432 4.33306 0.5 5.64666 0.5 7C0.5 8.35334 0.940432 9.66694 1.74977 10.7274C2.5591 11.7879 3.6898 12.5331 4.95822 12.8418C6.22664 13.1505 7.55827 13.0047 8.73686 12.428C9.91544 11.8514 10.8717 10.8777 11.4504 9.66526C11.4865 9.59068 11.4927 9.50431 11.4676 9.42501C11.4426 9.34572 11.3883 9.27996 11.3167 9.2421Z" fill="#272F5A" stroke="#272F5A" stroke-width="0.4"/>
    <path d="M9.10114 8.40903C9.13107 8.43774 9.16723 8.46063 9.20737 8.47628C9.24751 8.49193 9.29079 8.5 9.33453 8.5C9.37828 8.5 9.42156 8.49193 9.4617 8.47628C9.50184 8.46063 9.538 8.43774 9.56793 8.40903L10.9016 7.20818C10.9354 7.18281 10.9608 7.14958 10.975 7.11212C11.0083 7.03903 11.0083 6.95705 10.975 6.88396C10.9608 6.84649 10.9354 6.81326 10.9016 6.78789L9.56793 5.58705C9.50603 5.53131 9.42208 5.5 9.33453 5.5C9.24699 5.5 9.16304 5.53131 9.10114 5.58705C9.03924 5.64278 9.00446 5.71837 9.00446 5.79719C9.00446 5.87601 9.03924 5.95161 9.10114 6.00734L9.86135 6.69783H5.33343C5.245 6.69783 5.16019 6.72945 5.09766 6.78575C5.03513 6.84205 5 6.91841 5 6.99804C5 7.07766 5.03513 7.15402 5.09766 7.21032C5.16019 7.26662 5.245 7.29825 5.33343 7.29825H9.86135L9.10114 7.98873C9.06924 8.01568 9.04382 8.04824 9.02644 8.08438C9.00906 8.12052 9.0001 8.15949 9.0001 8.19888C9.0001 8.23826 9.00906 8.27723 9.02644 8.31337C9.04382 8.34952 9.06924 8.38207 9.10114 8.40903Z" fill="#272F5A" stroke="#272F5A" stroke-width="0.2"/>
    </svg>
    