<svg width="14" height="10" viewBox="0 0 14 10" fill="none" xmlns="http://www.w3.org/2000/svg">
<path fill-rule="evenodd" clip-rule="evenodd" d="M12.9473 4.89932C12.9664 4.94277 12.979 4.97607 12.9873 5C12.979 5.02393 12.9664 5.05723 12.9473 5.10068C12.8865 5.23957 12.7849 5.42613 12.6367 5.64842C12.341 6.09196 11.8964 6.62283 11.331 7.13171C10.1872 8.16119 8.66549 9 7 9C5.33451 9 3.81283 8.16119 2.66896 7.13171C2.10355 6.62283 1.65899 6.09196 1.3633 5.64842C1.21511 5.42613 1.11353 5.23957 1.05268 5.10068C1.03364 5.05723 1.02101 5.02393 1.01271 5C1.02101 4.97607 1.03364 4.94277 1.05268 4.89932C1.11353 4.76043 1.21511 4.57387 1.3633 4.35158C1.65899 3.90804 2.10355 3.37717 2.66896 2.86829C3.81283 1.83881 5.33451 1 7 1C8.66549 1 10.1872 1.83881 11.331 2.86829C11.8964 3.37717 12.341 3.90804 12.6367 4.35158C12.7849 4.57387 12.8865 4.76043 12.9473 4.89932ZM14 5C14 6 11 10 7 10C3 10 0 6 0 5C0 4 3 0 7 0C11 0 14 4 14 5ZM7 5L6.10538 3.21075C6.37457 3.0759 6.67842 3 7 3C8.10457 3 9 3.89543 9 5C9 6.10457 8.10457 7 7 7C5.89543 7 5 6.10457 5 5H7ZM5.38604 3.81862C5.39461 3.80693 5.4033 3.79533 5.41212 3.78384L5.38604 3.81862Z" fill="#272F5A"/>
</svg>
