<svg width="624" height="296" viewBox="0 0 624 296" fill="none" xmlns="http://www.w3.org/2000/svg">
<path d="M4.32398 77.098C6.38198 77.098 7.54399 75.936 7.54399 74.27C7.54399 73.234 6.99798 72.366 6.00398 71.946C6.85798 71.526 7.33398 70.728 7.33398 69.776C7.33398 68.194 6.24198 67.102 4.32398 67.102C2.51798 67.102 1.39798 68.222 1.31398 69.93H2.32198C2.44798 68.754 3.16198 68.026 4.32398 68.026C5.62598 68.026 6.32598 68.726 6.32598 69.776C6.32598 70.798 5.61198 71.512 4.44998 71.512H3.13398V72.408H4.44998C5.76598 72.408 6.53598 73.178 6.53598 74.27C6.53598 75.404 5.76598 76.174 4.32398 76.174C2.96598 76.174 2.19598 75.39 2.11198 73.99H1.10398C1.18798 75.922 2.36398 77.098 4.32398 77.098ZM12.7251 77.098C14.6711 77.098 15.9451 75.824 15.9451 72.548V71.652C15.9451 68.348 14.6851 67.102 12.7251 67.102C10.7791 67.102 9.50508 68.376 9.50508 71.652V72.548C9.50508 75.852 10.7651 77.098 12.7251 77.098ZM12.7251 76.174C11.3811 76.174 10.5131 75.306 10.5131 72.548V71.652C10.5131 68.88 11.3671 68.026 12.7251 68.026C14.0691 68.026 14.9371 68.894 14.9371 71.652V72.548C14.9371 75.32 14.0831 76.174 12.7251 76.174Z" fill="#272F5A" fill-opacity="0.32"/>
<path d="M0.889063 10.648H5.71906V13H6.69906V10.648H8.02906V9.752H6.69906V3.2H5.48106L0.889063 9.752V10.648ZM1.96706 9.752L5.71906 4.334V9.752H1.96706ZM12.7251 13.098C14.6711 13.098 15.9451 11.824 15.9451 8.548V7.652C15.9451 4.348 14.6851 3.102 12.7251 3.102C10.7791 3.102 9.50508 4.376 9.50508 7.652V8.548C9.50508 11.852 10.7651 13.098 12.7251 13.098ZM12.7251 12.174C11.3811 12.174 10.5131 11.306 10.5131 8.548V7.652C10.5131 4.88 11.3671 4.026 12.7251 4.026C14.0691 4.026 14.9371 4.894 14.9371 7.652V8.548C14.9371 11.32 14.0831 12.174 12.7251 12.174Z" fill="#272F5A" fill-opacity="0.32"/>
<path d="M1.38781 141H7.68781V140.104H2.64781L5.60181 137.234C6.91781 135.96 7.68781 135.008 7.68781 133.93C7.68781 132.32 6.45581 131.102 4.53781 131.102C2.61981 131.102 1.38781 132.32 1.38781 133.93H2.39581C2.39581 132.838 3.22181 132.026 4.53781 132.026C5.85381 132.026 6.67981 132.838 6.67981 133.93C6.67981 134.784 6.06381 135.456 4.85981 136.66L1.38781 140.104V141ZM12.7251 141.098C14.6711 141.098 15.9451 139.824 15.9451 136.548V135.652C15.9451 132.348 14.6851 131.102 12.7251 131.102C10.7791 131.102 9.50508 132.376 9.50508 135.652V136.548C9.50508 139.852 10.7651 141.098 12.7251 141.098ZM12.7251 140.174C11.3811 140.174 10.5131 139.306 10.5131 136.548V135.652C10.5131 132.88 11.3671 132.026 12.7251 132.026C14.0691 132.026 14.9371 132.894 14.9371 135.652V136.548C14.9371 139.32 14.0831 140.174 12.7251 140.174Z" fill="#272F5A" fill-opacity="0.32"/>
<path d="M3.98055 197.734L6.08055 196.306V205H7.06055V195.2H6.08055L3.98055 196.642V197.734ZM12.7251 205.098C14.6711 205.098 15.9451 203.824 15.9451 200.548V199.652C15.9451 196.348 14.6851 195.102 12.7251 195.102C10.7791 195.102 9.50508 196.376 9.50508 199.652V200.548C9.50508 203.852 10.7651 205.098 12.7251 205.098ZM12.7251 204.174C11.3811 204.174 10.5131 203.306 10.5131 200.548V199.652C10.5131 196.88 11.3671 196.026 12.7251 196.026C14.0691 196.026 14.9371 196.894 14.9371 199.652V200.548C14.9371 203.32 14.0831 204.174 12.7251 204.174Z" fill="#272F5A" fill-opacity="0.32"/>
<path d="M12.7251 269.098C14.6711 269.098 15.9451 267.824 15.9451 264.548V263.652C15.9451 260.348 14.6851 259.102 12.7251 259.102C10.7791 259.102 9.50508 260.376 9.50508 263.652V264.548C9.50508 267.852 10.7651 269.098 12.7251 269.098ZM12.7251 268.174C11.3811 268.174 10.5131 267.306 10.5131 264.548V263.652C10.5131 260.88 11.3671 260.026 12.7251 260.026C14.0691 260.026 14.9371 260.894 14.9371 263.652V264.548C14.9371 267.32 14.0831 268.174 12.7251 268.174Z" fill="#272F5A" fill-opacity="0.32"/>
<line x1="33" y1="71.5" x2="624" y2="71.5" stroke="#DCDEE4"/>
<line x1="33" y1="7.5" x2="624" y2="7.5" stroke="#DCDEE4"/>
<line x1="33" y1="135.5" x2="624" y2="135.5" stroke="#DCDEE4"/>
<line x1="33" y1="199.5" x2="624" y2="199.5" stroke="#DCDEE4"/>
<line x1="33" y1="263.5" x2="624" y2="263.5" stroke="#DCDEE4"/>
<line x1="38.5" y1="264" x2="38.5" y2="258" stroke="#DCDEE4"/>
<line x1="138.5" y1="264" x2="138.5" y2="260" stroke="#DCDEE4"/>
<line x1="238.5" y1="264" x2="238.5" y2="260" stroke="#DCDEE4"/>
<line x1="338.5" y1="264" x2="338.5" y2="260" stroke="#DCDEE4"/>
<line x1="438.5" y1="264" x2="438.5" y2="260" stroke="#DCDEE4"/>
<line x1="58.5" y1="264" x2="58.5" y2="260" stroke="#DCDEE4"/>
<line x1="158.5" y1="264" x2="158.5" y2="260" stroke="#DCDEE4"/>
<line x1="258.5" y1="264" x2="258.5" y2="260" stroke="#DCDEE4"/>
<line x1="358.5" y1="264" x2="358.5" y2="260" stroke="#DCDEE4"/>
<line x1="458.5" y1="264" x2="458.5" y2="260" stroke="#DCDEE4"/>
<line x1="78.5" y1="264" x2="78.5" y2="260" stroke="#DCDEE4"/>
<line x1="178.5" y1="264" x2="178.5" y2="260" stroke="#DCDEE4"/>
<line x1="278.5" y1="264" x2="278.5" y2="260" stroke="#DCDEE4"/>
<line x1="378.5" y1="264" x2="378.5" y2="260" stroke="#DCDEE4"/>
<line x1="478.5" y1="264" x2="478.5" y2="260" stroke="#DCDEE4"/>
<line x1="98.5" y1="264" x2="98.5" y2="260" stroke="#DCDEE4"/>
<line x1="198.5" y1="264" x2="198.5" y2="260" stroke="#DCDEE4"/>
<line x1="298.5" y1="264" x2="298.5" y2="260" stroke="#DCDEE4"/>
<line x1="398.5" y1="264" x2="398.5" y2="260" stroke="#DCDEE4"/>
<line x1="498.5" y1="264" x2="498.5" y2="260" stroke="#DCDEE4"/>
<line x1="118.5" y1="264" x2="118.5" y2="258" stroke="#DCDEE4"/>
<line x1="218.5" y1="264" x2="218.5" y2="258" stroke="#DCDEE4"/>
<line x1="318.5" y1="264" x2="318.5" y2="258" stroke="#DCDEE4"/>
<line x1="418.5" y1="264" x2="418.5" y2="258" stroke="#DCDEE4"/>
<line x1="518.5" y1="264" x2="518.5" y2="258" stroke="#DCDEE4"/>
<line x1="538.5" y1="264" x2="538.5" y2="260" stroke="#DCDEE4"/>
<line x1="558.5" y1="264" x2="558.5" y2="260" stroke="#DCDEE4"/>
<line x1="578.5" y1="264" x2="578.5" y2="260" stroke="#DCDEE4"/>
<line x1="598.5" y1="264" x2="598.5" y2="260" stroke="#DCDEE4"/>
<line x1="618.5" y1="264" x2="618.5" y2="258" stroke="#DCDEE4"/>
<path d="M36.4727 285.734L38.5727 284.306V293H39.5527V283.2H38.5727L36.4727 284.642V285.734Z" fill="#272F5A" fill-opacity="0.32"/>
<path d="M115.661 288.52H116.627C116.963 287.974 117.663 287.47 118.601 287.47C119.945 287.47 120.813 288.338 120.813 289.822C120.813 291.292 119.931 292.174 118.601 292.174C117.523 292.174 116.753 291.698 116.417 290.732H115.381C115.745 292.272 116.991 293.098 118.601 293.098C120.519 293.098 121.821 291.796 121.821 289.822C121.821 287.834 120.533 286.546 118.741 286.546C117.915 286.546 117.201 286.84 116.711 287.344L116.977 284.096H121.191V283.2H116.081L115.661 288.52Z" fill="#272F5A" fill-opacity="0.32"/>
<path d="M212.644 285.734L214.744 284.306V293H215.724V283.2H214.744L212.644 284.642V285.734ZM221.388 293.098C223.334 293.098 224.608 291.824 224.608 288.548V287.652C224.608 284.348 223.348 283.102 221.388 283.102C219.442 283.102 218.168 284.376 218.168 287.652V288.548C218.168 291.852 219.428 293.098 221.388 293.098ZM221.388 292.174C220.044 292.174 219.176 291.306 219.176 288.548V287.652C219.176 284.88 220.03 284.026 221.388 284.026C222.732 284.026 223.6 284.894 223.6 287.652V288.548C223.6 291.32 222.746 292.174 221.388 292.174Z" fill="#272F5A" fill-opacity="0.32"/>
<path d="M312.958 285.734L315.058 284.306V293H316.038V283.2H315.058L312.958 284.642V285.734ZM318.483 288.52H319.449C319.785 287.974 320.485 287.47 321.423 287.47C322.767 287.47 323.635 288.338 323.635 289.822C323.635 291.292 322.753 292.174 321.423 292.174C320.345 292.174 319.575 291.698 319.239 290.732H318.203C318.567 292.272 319.813 293.098 321.423 293.098C323.341 293.098 324.643 291.796 324.643 289.822C324.643 287.834 323.355 286.546 321.563 286.546C320.737 286.546 320.023 286.84 319.533 287.344L319.799 284.096H324.013V283.2H318.903L318.483 288.52Z" fill="#272F5A" fill-opacity="0.32"/>
<path d="M411.049 293H417.349V292.104H412.309L415.263 289.234C416.579 287.96 417.349 287.008 417.349 285.93C417.349 284.32 416.117 283.102 414.199 283.102C412.281 283.102 411.049 284.32 411.049 285.93H412.057C412.057 284.838 412.883 284.026 414.199 284.026C415.515 284.026 416.341 284.838 416.341 285.93C416.341 286.784 415.725 287.456 414.521 288.66L411.049 292.104V293ZM422.387 293.098C424.333 293.098 425.607 291.824 425.607 288.548V287.652C425.607 284.348 424.347 283.102 422.387 283.102C420.441 283.102 419.167 284.376 419.167 287.652V288.548C419.167 291.852 420.427 293.098 422.387 293.098ZM422.387 292.174C421.043 292.174 420.175 291.306 420.175 288.548V287.652C420.175 284.88 421.029 284.026 422.387 284.026C423.731 284.026 424.599 284.894 424.599 287.652V288.548C424.599 291.32 423.745 292.174 422.387 292.174Z" fill="#272F5A" fill-opacity="0.32"/>
<path d="M511.767 293H518.067V292.104H513.027L515.981 289.234C517.297 287.96 518.067 287.008 518.067 285.93C518.067 284.32 516.835 283.102 514.917 283.102C512.999 283.102 511.767 284.32 511.767 285.93H512.775C512.775 284.838 513.601 284.026 514.917 284.026C516.233 284.026 517.059 284.838 517.059 285.93C517.059 286.784 516.443 287.456 515.239 288.66L511.767 292.104V293ZM519.884 288.52H520.85C521.186 287.974 521.886 287.47 522.824 287.47C524.168 287.47 525.036 288.338 525.036 289.822C525.036 291.292 524.154 292.174 522.824 292.174C521.746 292.174 520.976 291.698 520.64 290.732H519.604C519.968 292.272 521.214 293.098 522.824 293.098C524.742 293.098 526.044 291.796 526.044 289.822C526.044 287.834 524.756 286.546 522.964 286.546C522.138 286.546 521.424 286.84 520.934 287.344L521.2 284.096H525.414V283.2H520.304L519.884 288.52Z" fill="#272F5A" fill-opacity="0.32"/>
<path d="M610.324 293.098C612.382 293.098 613.544 291.936 613.544 290.27C613.544 289.234 612.998 288.366 612.004 287.946C612.858 287.526 613.334 286.728 613.334 285.776C613.334 284.194 612.242 283.102 610.324 283.102C608.518 283.102 607.398 284.222 607.314 285.93H608.322C608.448 284.754 609.162 284.026 610.324 284.026C611.626 284.026 612.326 284.726 612.326 285.776C612.326 286.798 611.612 287.512 610.45 287.512H609.134V288.408H610.45C611.766 288.408 612.536 289.178 612.536 290.27C612.536 291.404 611.766 292.174 610.324 292.174C608.966 292.174 608.196 291.39 608.112 289.99H607.104C607.188 291.922 608.364 293.098 610.324 293.098ZM618.725 293.098C620.671 293.098 621.945 291.824 621.945 288.548V287.652C621.945 284.348 620.685 283.102 618.725 283.102C616.779 283.102 615.505 284.376 615.505 287.652V288.548C615.505 291.852 616.765 293.098 618.725 293.098ZM618.725 292.174C617.381 292.174 616.513 291.306 616.513 288.548V287.652C616.513 284.88 617.367 284.026 618.725 284.026C620.069 284.026 620.937 284.894 620.937 287.652V288.548C620.937 291.32 620.083 292.174 618.725 292.174Z" fill="#272F5A" fill-opacity="0.32"/>
</svg>
