<svg width="13" height="14" viewBox="0 0 13 14" fill="none" xmlns="http://www.w3.org/2000/svg">
<path fill-rule="evenodd" clip-rule="evenodd" d="M0.175101 0.612837L4.00001 14H5L3.33334 8.16667L5 9V8H7V9L9 10V8H11V10H13V8H11V6H13V4H11V3L9 2V4H7V2H5V4H3.00001V2H1.57143L1.09963 0.348687C1.04066 0.142295 0.852016 0 0.637365 0C0.317957 0 0.0873531 0.305719 0.175101 0.612837ZM2.14286 4H3.00001V6H2.71429L2.14286 4ZM3.00001 7V6H5V8H3.28572L3.00001 7ZM7 6H5V4H7V6ZM9 6V8H7V6H9ZM9 6V4H11V6H9Z" fill="#272F5A"/>
</svg>
