<svg width="16" height="16" viewBox="0 0 16 16" fill="none" xmlns="http://www.w3.org/2000/svg">
<path d="M8 1C5.5 1 3.25 2.3125 2 4.4375V1.5C2 1.25 1.75 1 1.5 1C1.21875 1 1 1.25 1 1.5V5.5C1 5.78125 1.21875 6 1.5 6H5.5C5.75 6 6 5.78125 6 5.5C6 5.25 5.75 5 5.5 5H2.8125C3.875 3.15625 5.84375 2 8 2C11.2812 2 14 4.71875 14 8C14 11.3125 11.2812 14 8 14C6.125 14 4.40625 13.1875 3.25 11.7188C3.09375 11.5 2.78125 11.4375 2.5625 11.625C2.34375 11.7812 2.3125 12.0938 2.46875 12.3125C3.8125 14.0312 5.8125 15 8 15C11.8438 15 15 11.875 15 8C15 4.15625 11.8438 1 8 1ZM8 4C7.71875 4 7.5 4.25 7.5 4.5V8.5C7.5 8.6875 7.5625 8.8125 7.6875 8.90625L9.6875 10.4062C9.78125 10.4688 9.875 10.5 9.96875 10.5C10.0938 10.5 10.25 10.4375 10.3438 10.3125C10.5312 10.0938 10.4688 9.78125 10.25 9.625L8.5 8.25V4.5C8.5 4.25 8.25 4 8 4Z" fill="#272F5A" stroke="#272F5A" stroke-width="0.3"/>
</svg>
