<svg
  width="10"
  height="14"
  viewBox="0 0 10 14"
  fill="none"
  xmlns="http://www.w3.org/2000/svg"
>
    <path
    fill-rule="evenodd"
    clip-rule="evenodd"
    d="M9 9C9 11.2091 7.20914 13 5 13C2.79086 13 1 11.2091 1 9C1 7.89388 1.51405 6.46356 2.51932 4.95701C3.17027 3.98146 4.00218 3.01234 4.9644 2.12738C5.03619 2.48605 5.14623 2.82469 5.28852 3.14654C5.69186 4.05885 6.33027 4.77487 6.89905 5.37524C6.98143 5.46221 7.06235 5.54708 7.14163 5.63022L7.14173 5.63032C8.22433 6.76573 9 7.57924 9 9ZM0 9C0 6.54498 1.97598 3.31763 4.87391 0.874918C5.2356 0.570048 5.61164 0.277398 6 0C5.8901 0.494536 5.85267 0.940761 5.8731 1.34863C5.95319 2.94737 6.92229 3.95682 7.90119 4.97646C8.94503 6.06375 10 7.16264 10 9C10 11.7614 7.76142 14 5 14C2.23858 14 0 11.7614 0 9ZM3 8.5C3 8.22386 2.77614 8 2.5 8C2.22386 8 2 8.22386 2 8.5C2 10.7761 3.72386 12 5 12C5.27614 12 5.5 11.7761 5.5 11.5C5.5 11.2239 5.27614 11 5 11C4.27614 11 3 10.2239 3 8.5Z"
    fill="#FF8C68"
  />
    </svg>
