<svg width="12" height="12" viewBox="0 0 12 12" fill="none" xmlns="http://www.w3.org/2000/svg">
<path d="M11.8875 5.74219C12.025 5.8668 12.0375 6.0666 11.8979 6.22773C11.7958 6.36953 11.5833 6.38242 11.4458 6.23848L10.6667 5.52949V9.78125C10.6667 10.7309 9.92084 11.5 9 11.5H3C2.07959 11.5 1.33334 10.7309 1.33334 9.78125V5.52949L0.553963 6.23848C0.415838 6.38242 0.205192 6.36953 0.0834003 6.22773C-0.0384122 6.0666 -0.0252455 5.8668 0.112796 5.74219L5.77917 0.58598C5.90625 0.47134 6.09375 0.47134 6.22084 0.58598L11.8875 5.74219ZM3 10.8125H4.33334V7.375C4.33334 6.99473 4.63125 6.6875 5 6.6875H7C7.36875 6.6875 7.66667 6.99473 7.66667 7.375V10.8125H9C9.55209 10.8125 10 10.3506 10 9.78125V4.94082L6 1.30223L2 4.94082V9.78125C2 10.3506 2.44792 10.8125 3 10.8125ZM5 10.8125H7V7.375H5V10.8125Z" fill="#272F5A" fill-opacity="0.7"/>
</svg>
