<svg width="12" height="12" viewBox="0 0 12 12" fill="none" xmlns="http://www.w3.org/2000/svg">
<path d="M10.5 0H7.5C7.08586 0 6.75 0.335859 6.75 0.75V1.3125C6.75 1.72664 7.08586 2.0625 7.5 2.0625H7.875C8.08209 2.0625 8.25 2.23036 8.25 2.4375C8.25 2.64459 8.08209 2.8125 7.875 2.8125H7.5C7.08586 2.8125 6.75 3.14836 6.75 3.5625V4.125C6.75 4.53914 7.08586 4.875 7.5 4.875H8.25C8.25 5.49609 8.75391 6 9.375 6C9.99609 6 10.5 5.49609 10.5 4.875H11.25C11.6641 4.875 12 4.53914 12 4.125V1.5C12 0.671484 11.3273 0 10.5 0ZM11.25 4.125H10.125C9.91875 4.125 9.75 4.29375 9.75 4.5V4.875C9.75 5.08125 9.58125 5.25 9.375 5.25C9.16875 5.25 9 5.08125 9 4.875V4.5C9 4.29286 8.83209 4.125 8.625 4.125H7.5V3.5625H7.875C8.49633 3.5625 9 3.05883 9 2.4375C9 1.81617 8.49633 1.3125 7.875 1.3125H7.5V0.75H10.5C10.9141 0.75 11.25 1.08586 11.25 1.5V4.125ZM9.75 6.375H8.25C8.04291 6.375 7.875 6.54286 7.875 6.75V7.5C7.875 7.70705 7.70709 7.875 7.5 7.875C7.29291 7.875 7.125 7.70705 7.125 7.5V6.75C7.125 6.54286 6.95709 6.375 6.75 6.375H5.625V2.25C5.625 1.83586 5.28914 1.5 4.875 1.5H1.5C0.671484 1.5 0 2.17148 0 3V6.75V10.5C0 11.3285 0.671484 12 1.5 12H5.25H9C9.82852 12 10.5 11.3285 10.5 10.5V7.125C10.5 6.71016 10.1648 6.375 9.75 6.375ZM0.75 3C0.75 2.58586 1.08586 2.25 1.5 2.25H4.875V6.375H4.125V6C4.125 5.37867 3.62133 4.875 3 4.875C2.37867 4.875 1.875 5.37891 1.875 6V6.375H0.75V3ZM4.875 11.25H1.5C1.08586 11.25 0.75 10.9141 0.75 10.5V7.125H2.25C2.45709 7.125 2.625 6.95709 2.625 6.75V6C2.625 5.79286 2.79291 5.625 3 5.625C3.20709 5.625 3.375 5.79375 3.375 6V6.75C3.375 6.95709 3.54291 7.125 3.75 7.125H4.875V7.875H4.5C3.87867 7.875 3.375 8.37867 3.375 9C3.375 9.62133 3.87867 10.125 4.5 10.125H4.875V11.25ZM9.75 10.5C9.75 10.9141 9.41414 11.25 9 11.25H5.625V9.75C5.625 9.54291 5.45709 9.375 5.25 9.375H4.5C4.29291 9.375 4.125 9.20705 4.125 9C4.125 8.79291 4.29291 8.625 4.5 8.625H5.25C5.45709 8.625 5.625 8.45705 5.625 8.25V7.125H6.375V7.5C6.375 8.12133 6.87867 8.625 7.5 8.625C8.12133 8.625 8.625 8.12133 8.625 7.5V7.125H9.75V10.5Z" fill="#FC525B"/>
</svg>
