<svg width="15" height="12" viewBox="0 0 15 12" fill="none" xmlns="http://www.w3.org/2000/svg">
<path fill-rule="evenodd" clip-rule="evenodd" d="M7.33337 10.375C9.74962 10.375 11.7084 8.41625 11.7084 6C11.7084 3.58375 9.74962 1.625 7.33337 1.625C4.91713 1.625 2.95837 3.58375 2.95837 6C2.95837 8.41625 4.91713 10.375 7.33337 10.375ZM7.33337 11.25C9.27662 11.25 10.9733 10.1942 11.881 8.625H13.4584H14.3334V7.75V4.25V3.375H13.4584H11.881C10.9733 1.80577 9.27662 0.75 7.33337 0.75C5.39013 0.75 3.69348 1.80577 2.78573 3.375H1.20837H0.333374V4.25V7.75V8.625H1.20837H2.78573C3.69348 10.1942 5.39013 11.25 7.33337 11.25ZM13.4584 7.75H12.2846C12.4781 7.20264 12.5834 6.61361 12.5834 6C12.5834 5.38639 12.4781 4.79736 12.2846 4.25H13.4584V7.75ZM1.20837 4.25H2.38211C2.18864 4.79736 2.08337 5.38639 2.08337 6C2.08337 6.61361 2.18864 7.20264 2.38211 7.75H1.20837L1.20837 4.25ZM5.58337 5.125V4.25H9.08337V5.125H5.58337ZM4.70837 4.25C4.70837 3.76675 5.10013 3.375 5.58337 3.375H9.08337C9.56662 3.375 9.95837 3.76675 9.95837 4.25V5.125C9.95837 5.60825 9.56662 6 9.08337 6H5.58337C5.10013 6 4.70837 5.60825 4.70837 5.125V4.25ZM5.58337 6.875H6.45837V7.75H5.58337V6.875ZM9.08337 6.875H8.20837V7.75H9.08337V6.875Z" fill="#272F5A" fill-opacity="0.7"/>
</svg>
