<svg width="12" height="12" viewBox="0 0 12 12" fill="none" xmlns="http://www.w3.org/2000/svg">
<path fill-rule="evenodd" clip-rule="evenodd" d="M1.85714 1.38462C1.85714 1.63952 1.64927 1.84615 1.39286 1.84615C1.13644 1.84615 0.928571 1.63952 0.928571 1.38462C0.928571 1.12971 1.13644 0.923077 1.39286 0.923077C1.64927 0.923077 1.85714 1.12971 1.85714 1.38462ZM2.78571 1.38462C2.78571 2.14932 2.16211 2.76923 1.39286 2.76923C0.623603 2.76923 0 2.14932 0 1.38462C0 0.619914 0.623603 0 1.39286 0C2.16211 0 2.78571 0.619914 2.78571 1.38462ZM12 0.923077H3.71429V1.84615H12V0.923077ZM1.39286 6.46154C1.64927 6.46154 1.85714 6.2549 1.85714 6C1.85714 5.7451 1.64927 5.53846 1.39286 5.53846C1.13644 5.53846 0.928571 5.7451 0.928571 6C0.928571 6.2549 1.13644 6.46154 1.39286 6.46154ZM1.39286 7.38462C2.16211 7.38462 2.78571 6.7647 2.78571 6C2.78571 5.2353 2.16211 4.61538 1.39286 4.61538C0.623603 4.61538 0 5.2353 0 6C0 6.7647 0.623603 7.38462 1.39286 7.38462ZM12 5.53846H3.71429V6.46154H12V5.53846ZM1.39286 11.0769C1.64927 11.0769 1.85714 10.8703 1.85714 10.6154C1.85714 10.3605 1.64927 10.1538 1.39286 10.1538C1.13644 10.1538 0.928571 10.3605 0.928571 10.6154C0.928571 10.8703 1.13644 11.0769 1.39286 11.0769ZM1.39286 12C2.16211 12 2.78571 11.3801 2.78571 10.6154C2.78571 9.85068 2.16211 9.23077 1.39286 9.23077C0.623603 9.23077 0 9.85068 0 10.6154C0 11.3801 0.623603 12 1.39286 12ZM12 10.1538H3.71429V11.0769H12V10.1538Z" fill="#189EE9"/>
</svg>
