<svg width="16" height="16" viewBox="0 0 16 16" fill="none" xmlns="http://www.w3.org/2000/svg">
<path fill-rule="evenodd" clip-rule="evenodd" d="M11.75 6.75C11.75 9.51142 9.51142 11.75 6.75 11.75C3.98858 11.75 1.75 9.51142 1.75 6.75C1.75 3.98858 3.98858 1.75 6.75 1.75C9.51142 1.75 11.75 3.98858 11.75 6.75ZM10.8459 11.4709C9.749 12.4234 8.31683 13 6.75 13C3.29822 13 0.5 10.2018 0.5 6.75C0.5 3.29822 3.29822 0.5 6.75 0.5C10.2018 0.5 13 3.29822 13 6.75C13 8.31683 12.4234 9.749 11.4709 10.8459L12.375 11.75H13L15.5 14.25C15.8452 14.5952 15.8452 15.1548 15.5 15.5C15.1548 15.8452 14.5952 15.8452 14.25 15.5L11.75 13V12.375L10.8459 11.4709Z" fill="#272F5A" fill-opacity="0.32"/>
</svg>
