<svg width="10" height="14" viewBox="0 0 10 14" fill="none" xmlns="http://www.w3.org/2000/svg">
<path fill-rule="evenodd" clip-rule="evenodd" d="M9 5C9 6.06129 8.40634 7.34369 7.41296 8.86339C6.92954 9.60293 6.38225 10.3549 5.81801 11.1259L5.72926 11.2471L5.72904 11.2474C5.48652 11.5787 5.24132 11.9137 5 12.2496C4.75861 11.9136 4.51334 11.5785 4.27074 11.2471L4.18199 11.1259C3.61775 10.3549 3.07046 9.60293 2.58704 8.86339C1.59366 7.34369 1 6.06129 1 5C1 2.79086 2.79086 1 5 1C7.20914 1 9 2.79086 9 5ZM6.54023 11.8323C6.22543 12.2623 5.91161 12.6911 5.60974 13.1165C5.39946 13.4128 5.19498 13.7075 5 14C4.80502 13.7075 4.60054 13.4128 4.39026 13.1165C4.08839 12.6911 3.77457 12.2623 3.45977 11.8323C1.74449 9.48896 0 7.10575 0 5C0 2.23858 2.23858 0 5 0C7.76142 0 10 2.23858 10 5C10 7.10575 8.25551 9.48896 6.54024 11.8323L6.54023 11.8323ZM7 5C7 6.10457 6.10457 7 5 7C3.89543 7 3 6.10457 3 5C3 3.89543 3.89543 3 5 3C6.10457 3 7 3.89543 7 5ZM6 5C6 5.55228 5.55229 6 5 6C4.44772 6 4 5.55228 4 5C4 4.44772 4.44772 4 5 4C5.55229 4 6 4.44772 6 5Z" fill="#272F5A" fill-opacity="0.9"/>
</svg>
