<svg width="22" height="19" viewBox="0 0 22 19" fill="none" xmlns="http://www.w3.org/2000/svg">
<path d="M20.8438 4.85547C21.0195 4.96094 21.125 5.13672 21.125 5.3125V15.6133C21.125 15.8594 20.9492 16.0703 20.7383 16.1406L15.1484 18.2148C15.0781 18.25 15.0078 18.25 14.9375 18.25C14.9023 18.25 14.832 18.25 14.7969 18.25L6.99219 16L1.61328 18.2148C1.47266 18.2852 1.26172 18.2852 1.12109 18.1797C0.945312 18.0742 0.875 17.8984 0.875 17.6875V7.42188C0.875 7.17578 1.01562 6.96484 1.22656 6.89453L5.44531 5.3125C5.48047 5.66406 5.58594 6.01562 5.72656 6.40234L2 7.80859V16.8789L6.5 14.9805V10.9375C6.5 10.6562 6.74609 10.375 7.0625 10.375C7.34375 10.375 7.625 10.6562 7.625 10.9375V15.0156L14.375 16.9492V10.9375C14.375 10.6562 14.6211 10.375 14.9375 10.375C15.2188 10.375 15.5 10.6562 15.5 10.9375V16.9141L20 15.2266V6.15625L15.4648 7.94922C15.4648 7.94922 15.957 7 16.168 6.4375L20.3164 4.82031C20.4922 4.75 20.668 4.75 20.8438 4.85547ZM11 11.5C10.6484 11.5 10.332 11.3594 10.1211 11.1133C9.03125 9.77734 6.5 6.50781 6.5 4.67969C6.5 2.25391 8.50391 0.25 11 0.25C13.4609 0.25 15.5 2.25391 15.5 4.67969C15.5 6.50781 12.9336 9.77734 11.8438 11.1133C11.6328 11.3594 11.3164 11.5 11 11.5ZM11 1.375C9.13672 1.375 7.625 2.88672 7.625 4.67969C7.625 5.66406 8.96094 7.91406 11 10.375C13.0039 7.91406 14.375 5.66406 14.375 4.71484C14.375 2.88672 12.8281 1.375 11 1.375ZM11.8438 4.75C11.8438 5.24219 11.457 5.59375 11 5.59375C10.5078 5.59375 10.1562 5.24219 10.1562 4.75C10.1562 4.29297 10.5078 3.90625 11 3.90625C11.457 3.90625 11.8438 4.29297 11.8438 4.75Z" fill="#272F5A"/>
</svg>
