<svg
  width="14"
  height="14"
  viewBox="0 0 14 14"
  fill="none"
  xmlns="http://www.w3.org/2000/svg"
>
    <path
    d="M7 1C3.68827 1 1 3.68827 1 7C1 10.3117 3.68827 13 7 13C9.9595 13 12.4216 10.8527 12.9115 8.03125L12.5833 7.97396C12.1208 10.6381 9.79851 12.6667 7 12.6667C5.49586 12.6667 4.12869 12.0799 3.11458 11.125L11.125 3.11458C12.0799 4.12869 12.6667 5.49586 12.6667 7H13C13 3.68827 10.3117 1 7 1ZM7 1.33333C8.50414 1.33333 9.87132 1.92013 10.8854 2.875L2.875 10.8854C1.92013 9.87132 1.33333 8.50414 1.33333 7C1.33333 3.86841 3.86841 1.33333 7 1.33333Z"
    fill="#272F5A"
    fill-opacity="0.32"
    stroke="#272F5A"
    stroke-opacity="0.32"
    stroke-width="0.5"
  />
    </svg>
