<svg width="14" height="14" viewBox="0 0 14 14" fill="none" xmlns="http://www.w3.org/2000/svg">
<path d="M11.95 1H2.05C1.465 1 1 1.465 1 2.05V4.93C1 5.095 1.135 5.23 1.3 5.23C1.465 5.23 1.6 5.095 1.6 4.93V2.05C1.6 1.795 1.795 1.6 2.05 1.6H11.95C12.205 1.6 12.4 1.795 12.4 2.05V11.95C12.4 12.205 12.205 12.4 11.95 12.4H2.05C1.795 12.4 1.6 12.205 1.6 11.95V7.75C1.6 7.495 1.795 7.3 2.05 7.3H9.055L6.79 9.565C6.67 9.685 6.67 9.865 6.79 9.985C6.85 10.045 6.925 10.075 7 10.075C7.075 10.075 7.15 10.045 7.21 9.985L9.985 7.21C10.105 7.09 10.105 6.91 9.985 6.79L7.21 4.015C7.09 3.895 6.91 3.895 6.79 4.015C6.67 4.135 6.67 4.315 6.79 4.435L9.055 6.7H2.05C1.465 6.7 1 7.165 1 7.75V11.95C1 12.535 1.465 13 2.05 13H11.95C12.535 13 13 12.535 13 11.95V2.05C13 1.465 12.535 1 11.95 1Z" fill="#E2B104" stroke="#E2B104" stroke-width="0.5"/>
</svg>
