<svg width="12" height="12" viewBox="0 0 12 12" fill="none" xmlns="http://www.w3.org/2000/svg">
<path fill-rule="evenodd" clip-rule="evenodd" d="M7.87053 6.97173L8.08169 7.00672C9.34069 7.21537 10.3094 7.81443 10.965 8.4816C11.2922 8.81454 11.5458 9.16868 11.7197 9.50703C11.7782 9.62078 12.0017 10.098 11.9999 10.5015L11.9999 10.5031C11.9997 10.5342 11.9975 10.5653 11.9942 10.5962C11.9891 10.6434 11.9796 10.7055 11.9616 10.7775C11.9257 10.9211 11.8544 11.1107 11.7124 11.3C11.4111 11.7017 10.8719 12 9.99994 12H1.99994C1.12795 12 0.588755 11.7017 0.287443 11.3C0.145444 11.1107 0.0741952 10.9211 0.0383091 10.7775C0.0202978 10.7055 0.0107742 10.6434 0.00571802 10.5962C-2.03727e-10 10 0.104372 9.91265 0.280198 9.50703C0.454128 9.16868 0.707645 8.81454 1.03484 8.4816C1.6905 7.81443 2.65919 7.21537 3.91819 7.00672L4.12936 6.97173L4.30043 7.10036C4.4338 7.20064 4.55278 7.30021 4.6655 7.39454C5.06685 7.73041 5.38899 7.99999 5.99994 7.99999C6.61089 7.99999 6.93304 7.7304 7.33439 7.39454C7.44711 7.30021 7.56608 7.20065 7.69945 7.10036L7.87053 6.97173ZM1.00845 10.535C1.00313 10.5137 1.00091 10.4978 1.00007 10.4901C1.00268 10.3892 1.04498 10.2066 1.16957 9.96421C1.29419 9.72179 1.48643 9.44877 1.74807 9.18253C2.23276 8.68933 2.941 8.23392 3.86454 8.03464L3.92283 8.0847C4.33781 8.44175 4.98661 8.99999 5.99994 8.99999C7.01328 8.99999 7.66208 8.44175 8.07705 8.0847L8.13534 8.03464C9.05888 8.23392 9.76712 8.68933 10.2518 9.18253C10.5135 9.44877 10.7057 9.72179 10.8303 9.96421C10.9549 10.2066 10.9972 10.3892 10.9998 10.4901C10.999 10.4978 10.9968 10.5137 10.9914 10.535C10.9804 10.5789 10.9579 10.6393 10.9124 10.7C10.8388 10.7983 10.6279 11 9.99994 11H1.99994C1.37194 11 1.16113 10.7983 1.08744 10.7C1.04194 10.6393 1.01944 10.5789 1.00845 10.535Z" fill="#272F5A"/>
<path fill-rule="evenodd" clip-rule="evenodd" d="M7.30814 5.14279C7.73322 4.54898 7.99994 3.75142 7.99994 3C7.99994 2.27806 7.75647 1.80352 7.43774 1.50506C7.10861 1.19685 6.61638 1 5.99994 1C5.3835 1 4.89128 1.19685 4.56214 1.50506C4.24342 1.80352 3.99994 2.27806 3.99994 3C3.99994 3.75142 4.26667 4.54898 4.69175 5.14279C5.12523 5.74833 5.60856 6 5.99994 6C6.39133 6 6.87465 5.74833 7.30814 5.14279ZM5.99994 7C7.6568 7 8.99994 4.933 8.99994 3C8.99994 1.067 7.6568 0 5.99994 0C4.34309 0 2.99994 1.067 2.99994 3C2.99994 4.933 4.34309 7 5.99994 7Z" fill="#272F5A"/>
</svg>
