<svg width="18" height="15" viewBox="0 0 18 15" fill="none" xmlns="http://www.w3.org/2000/svg">
<path fill-rule="evenodd" clip-rule="evenodd" d="M4 1.75V0.500001L14 0.5V1.75L9.625 1.75V5.5H8.375V1.75H4ZM1.5 6.75H2.75V13H1.5V6.75ZM0.25 6.75C0.25 6.05964 0.809644 5.5 1.5 5.5H2.75C3.44036 5.5 4 6.05964 4 6.75V13C4 13.6904 3.44036 14.25 2.75 14.25H1.5C0.809644 14.25 0.25 13.6904 0.25 13V6.75ZM15.25 6.75H16.5V13H15.25V6.75ZM14 6.75C14 6.05964 14.5596 5.5 15.25 5.5H16.5C17.1904 5.5 17.75 6.05964 17.75 6.75V13C17.75 13.6904 17.1904 14.25 16.5 14.25H15.25C14.5596 14.25 14 13.6904 14 13V6.75ZM4 6.75H14V8H4V6.75ZM14 11.75H4V13H14V11.75Z" fill="#272F5A"/>
</svg>
