<svg width="20" height="20" viewBox="0 0 20 20" fill="none" xmlns="http://www.w3.org/2000/svg">
<rect width="20" height="20" rx="10" fill="#272F5A" fill-opacity="0.32"/>
<path d="M9.376 11.552C9.376 9.008 11.404 9.368 11.404 7.76C11.404 7.076 10.912 6.584 10 6.584C9.016 6.584 8.536 7.064 8.476 7.94H7.3C7.36 6.488 8.344 5.504 9.94 5.504C11.644 5.504 12.58 6.44 12.58 7.7C12.58 9.896 10.504 9.572 10.504 11.552H9.376ZM9.94 14.096C9.448 14.096 9.1 13.724 9.1 13.256C9.1 12.788 9.448 12.416 9.94 12.416C10.432 12.416 10.78 12.788 10.78 13.256C10.78 13.724 10.432 14.096 9.94 14.096Z" fill="white"/>
</svg>
