<svg width="12" height="14" viewBox="0 0 12 14" fill="none" xmlns="http://www.w3.org/2000/svg">
<path fill-rule="evenodd" clip-rule="evenodd" d="M4 0H8V1H6.5V2.02054C9.57977 2.27461 12 4.85467 12 8C12 11.3137 9.31371 14 6 14C2.68629 14 0 11.3137 0 8C0 4.85467 2.42023 2.27461 5.5 2.02054V1H4V0ZM11 8C11 10.7614 8.76142 13 6 13C3.23858 13 1 10.7614 1 8C1 5.23858 3.23858 3 6 3C8.76142 3 11 5.23858 11 8ZM5.5 4V8V8.23419L5.67991 8.38411L8.35982 10.7682L9 10L6.5 7.76581V4H5.5Z" fill="#FC525B"/>
</svg>
