<svg width="16" height="13" viewBox="0 0 16 13" fill="none" xmlns="http://www.w3.org/2000/svg">
<path d="M11.4122 11.1805L11.4124 11.1807C10.4977 11.9477 9.36799 12.3836 8.20726 12.4536C9.36783 12.3835 10.4974 11.9474 11.4122 11.1805ZM12.8961 8.9233L11.7666 6.5836L12.7782 6.65843L13.3894 6.70364L13.4105 6.7052L13.7989 6.73392L14.3576 6.77525L12.8961 8.9233ZM5.23469 2.13948C6.48846 1.45324 7.97844 1.27505 9.37139 1.66757C7.97793 1.27495 6.48797 1.45376 5.23491 2.13964L5.23469 2.13948ZM11.1542 2.54375C12.3495 3.428 13.0881 4.71375 13.3098 6.08725L13.3085 6.07938C13.0855 4.7105 12.3473 3.42649 11.1542 2.54375ZM1.95527 7.1431L1.39286 7.1015L2.85434 4.95345L3.98386 7.29314L2.97403 7.21845L2.36814 7.17364L2.34809 7.17215L1.95527 7.1431ZM2.44289 7.79261C2.65817 9.20169 3.41836 10.5255 4.65818 11.4207C3.41595 10.5239 2.65534 9.19802 2.44156 7.78391L2.44289 7.79261Z" fill="#189EE9" stroke="#189EE9"/>
</svg>
