<svg width="14" height="16" viewBox="0 0 14 16" fill="none" xmlns="http://www.w3.org/2000/svg">
    <path d="M12.7139 0H3.14244C3.06387 0 2.99958 0.0642857 2.99958 0.142857V1.14286C2.99958 1.22143 3.06387 1.28571 3.14244 1.28571H11.9996V13.5714C11.9996 13.65 12.0639 13.7143 12.1424 13.7143H13.1424C13.221 13.7143 13.2853 13.65 13.2853 13.5714V0.571429C13.2853 0.255357 13.0299 0 12.7139 0ZM10.4282 2.28571H1.2853C0.969224 2.28571 0.713867 2.54107 0.713867 2.85714V12.3339C0.713867 12.4857 0.774581 12.6304 0.881724 12.7375L3.97637 15.8321C4.01565 15.8714 4.0603 15.9036 4.10851 15.9304V15.9643H4.18351C4.24601 15.9875 4.31208 16 4.37994 16H10.4282C10.7442 16 10.9996 15.7446 10.9996 15.4286V2.85714C10.9996 2.54107 10.7442 2.28571 10.4282 2.28571ZM4.10672 14.1464L2.56922 12.6071H4.10672V14.1464ZM9.71387 14.7143H5.24958V12.1786C5.24958 11.7839 4.92994 11.4643 4.5353 11.4643H1.99958V3.57143H9.71387V14.7143Z" fill="#189EE9"/>
    </svg>
    