<svg width="18" height="16" viewBox="0 0 18 16" fill="none" xmlns="http://www.w3.org/2000/svg">
<path fill-rule="evenodd" clip-rule="evenodd" d="M15.875 8C15.875 11.4518 13.0768 14.25 9.625 14.25C7.83121 14.25 6.21391 13.4943 5.0741 12.2839L4.02177 12.9855C5.39546 14.5283 7.39675 15.5 9.625 15.5C13.7671 15.5 17.125 12.1421 17.125 8C17.125 3.85786 13.7671 0.5 9.625 0.5C5.48286 0.5 2.125 3.85786 2.125 8C2.125 8.13918 2.12879 8.27748 2.13628 8.41479L0.875 8.625L3.375 11.75L4.625 8L3.37839 8.20777C3.37614 8.13879 3.375 8.06953 3.375 8C3.375 4.54822 6.17322 1.75 9.625 1.75C13.0768 1.75 15.875 4.54822 15.875 8Z" fill="#272F5A"/>
</svg>
