<svg
  width="11"
  height="12"
  viewBox="0 0 11 12"
  fill="none"
  xmlns="http://www.w3.org/2000/svg"
>
<path
    fill-rule="evenodd"
    clip-rule="evenodd"
    d="M1 0H2V9.08535C2.5826 9.29127 3 9.84689 3 10.5C3 11.3284 2.32843 12 1.5 12C0.671573 12 0 11.3284 0 10.5C0 9.84689 0.417404 9.29127 1 9.08535V0ZM1 10.5C1 10.2239 1.22386 10 1.5 10C1.77614 10 2 10.2239 2 10.5C2 10.7761 1.77614 11 1.5 11C1.22386 11 1 10.7761 1 10.5ZM9 1.5C9 1.22386 9.22386 1 9.5 1C9.77614 1 10 1.22386 10 1.5C10 1.77598 9.77641 1.99973 9.50049 2L9.5 2L9.49951 2C9.22359 1.99973 9 1.77598 9 1.5ZM11 1.5C11 2.15311 10.5826 2.70873 10 2.91465L10 12H9L9 2.91465C8.4174 2.70873 8 2.15311 8 1.5C8 0.671573 8.67157 0 9.5 0C10.3284 0 11 0.671573 11 1.5ZM5 6.5C5 6.22386 5.22386 6 5.5 6C5.77614 6 6 6.22386 6 6.5C6 6.77614 5.77614 7 5.5 7C5.22386 7 5 6.77614 5 6.5ZM5 5.08535C4.4174 5.29127 4 5.84689 4 6.5C4 7.15311 4.4174 7.70873 5 7.91465L5 12H6L6 7.91465C6.5826 7.70873 7 7.15311 7 6.5C7 5.84689 6.5826 5.29127 6 5.08535L6 0H5L5 5.08535Z"
    fill="#272F5A"
  />
</svg>
