<svg width="16" height="16" viewBox="0 0 16 16" fill="none" xmlns="http://www.w3.org/2000/svg">
<g clip-path="url(#clip0_3725_11180)">
<path d="M15.1847 13.153C15.1173 14.4443 14.0155 15.437 12.7241 15.3695" stroke="#E2B104" stroke-miterlimit="10" stroke-linecap="round" stroke-linejoin="round"/>
<path d="M14.0279 12.6742C13.9824 13.5455 13.2396 14.2147 12.3687 14.1694" stroke="#E2B104" stroke-miterlimit="10" stroke-linecap="round" stroke-linejoin="round"/>
<path d="M8.381 10.3353L3.26337 4.65517L5.45923 2.67708L10.5973 8.38014" stroke="#E2B104" stroke-miterlimit="10" stroke-linecap="round" stroke-linejoin="round"/>
<path d="M7.17407 4.55728L11.1886 0.941177L13.0156 2.96906L9.00132 6.58548" stroke="#E2B104" stroke-miterlimit="10" stroke-linecap="round" stroke-linejoin="round"/>
<path d="M6.74836 8.61511L2.76801 12.2008L0.941162 10.1725L4.887 6.61784" stroke="#E2B104" stroke-miterlimit="10" stroke-linecap="round" stroke-linejoin="round"/>
<path d="M8.40804 10.4018C8.08399 11.3989 8.27821 12.5343 9.01164 13.3794L13.5922 9.2532C12.8046 8.41148 11.651 8.10653 10.601 8.36442" stroke="#E2B104" stroke-miterlimit="10" stroke-linecap="round" stroke-linejoin="round"/>
<path d="M10.6129 12.1506L12.5222 12.7235" stroke="#E2B104" stroke-miterlimit="10" stroke-linecap="round" stroke-linejoin="round"/>
<path d="M12.2026 10.7184L12.5741 12.6768" stroke="#E2B104" stroke-miterlimit="10" stroke-linecap="round" stroke-linejoin="round"/>
</g>
<defs>
<clipPath id="clip0_3725_11180">
<rect width="16" height="16" fill="white"/>
</clipPath>
</defs>
</svg>