<svg width="13" height="14" viewBox="0 0 13 14" fill="none" xmlns="http://www.w3.org/2000/svg">
<path d="M12.8864 10.5C12.7215 10.75 12.4577 10.875 12.1939 10.875C12.062 10.875 11.9301 10.8438 11.7982 10.7812L7.31355 8.3125V13.25C7.31355 13.6875 6.95082 14 6.52214 14C6.12643 14 5.73072 13.6875 5.73072 13.25V8.3125L1.1801 10.7812C1.08117 10.8438 0.916292 10.875 0.78439 10.875C0.520586 10.875 0.256781 10.75 0.124879 10.5C-0.10595 10.1562 0.0259523 9.6875 0.388683 9.5L4.93931 7L0.388683 4.53125C0.0259523 4.34375 -0.10595 3.875 0.0919035 3.5C0.322732 3.15625 0.817366 3.03125 1.1801 3.25L5.73072 5.71875V0.75C5.73072 0.34375 6.06048 0 6.52214 0C6.95082 0 7.31355 0.34375 7.31355 0.75V5.71875L11.8312 3.25C12.1939 3.03125 12.6886 3.15625 12.8864 3.5C13.0843 3.875 12.9524 4.34375 12.5896 4.53125L8.07199 7L12.5896 9.5C12.9853 9.6875 13.1172 10.1562 12.8864 10.5Z" fill="#272F5A"/>
</svg>
