<svg width="12" height="12" viewBox="0 0 12 12" fill="none" xmlns="http://www.w3.org/2000/svg">
    <path fill-rule="evenodd" clip-rule="evenodd" d="M3.58579 0C3.851 0 4.10536 0.105357 4.29289 0.292893L5.70711 1.70711C5.89464 1.89464 6.149 2 6.41421 2H11C11.5523 2 12 2.44772 12 3V11C12 11.5523 11.5523 12 11 12H1C0.447715 12 0 11.5523 0 11V1C0 0.447715 0.447715 0 1 0H3.58579ZM5.29289 2.70711C5.48043 2.89464 5.73478 3 6 3H11V11H1V1H3.17157C3.43679 1 3.69114 1.10536 3.87868 1.29289L5.29289 2.70711ZM6 5H5V9H6V5ZM4 7H3V9H4V7ZM7 6H8V9H7V6Z" fill="#272F5A"/>
    </svg>
    