<svg width="16" height="16" viewBox="0 0 16 16" fill="none" xmlns="http://www.w3.org/2000/svg">
<path d="M8 0.5C3.86033 0.5 0.5 3.86033 0.5 8C0.5 12.1397 3.86033 15.5 8 15.5C11.6994 15.5 14.777 12.8159 15.3893 9.28906L14.9792 9.21745C14.4009 12.5477 11.4981 15.0833 8 15.0833C6.11983 15.0833 4.41086 14.3498 3.14323 13.1562L13.1562 3.14323C14.3498 4.41086 15.0833 6.11983 15.0833 8H15.5C15.5 3.86033 12.1397 0.5 8 0.5ZM8 0.916667C9.88017 0.916667 11.5891 1.65016 12.8568 2.84375L2.84375 12.8568C1.65016 11.5891 0.916667 9.88017 0.916667 8C0.916667 4.08552 4.08552 0.916667 8 0.916667Z" fill="#C00F0C" stroke="#C00F0C"/>
</svg>
