<svg width="12" height="12" viewBox="0 0 12 12" fill="none" xmlns="http://www.w3.org/2000/svg">
<path d="M11.7653 0.100623C11.601 -0.0167283 11.3662 -0.0401985 11.1784 0.0771524L0.284709 6.27328C0.0968877 6.36716 -0.0205009 6.57839 0.0029768 6.78962C0.0029768 7.00085 0.143843 7.18861 0.331665 7.2825L3.94723 8.78459V11.4367C3.94723 11.6479 4.04114 11.8357 4.22897 11.9531C4.32288 11.9765 4.41679 12 4.48722 12C4.58113 12 4.69852 11.9765 4.79243 11.9296L7.39846 10.2397L9.69928 11.2255C9.76971 11.249 9.84014 11.2724 9.93405 11.2724C10.028 11.2724 10.1219 11.2255 10.1923 11.1785C10.3567 11.1081 10.4506 10.9438 10.474 10.7796L11.9766 0.640437C12.047 0.429205 11.9531 0.217973 11.7653 0.100623ZM8.66626 2.79969L4.27592 7.70496L1.83424 6.67227L8.66626 2.79969ZM5.05069 10.404V9.25399L6.13066 9.72339L5.05069 10.404ZM9.48798 9.88768L5.3559 8.15089L10.6149 2.30682L9.48798 9.88768Z" fill="#FF8A1F"/>
</svg>
