<svg xmlns="http://www.w3.org/2000/svg" width="16" height="16" viewBox="0 0 16 16" fill="none">
  <path d="M11.8571 1C10.6518 1 9.71429 1.98438 9.71429 3.1875C9.71429 4.41797 10.6518 5.375 11.8571 5.375C13.0357 5.375 14 4.41797 14 3.1875C14 1.98438 13.0357 1 11.8571 1ZM11.8571 4.0625C11.375 4.0625 11 3.67969 11 3.1875C11 2.72266 11.375 2.3125 11.8571 2.3125C12.3125 2.3125 12.7143 2.72266 12.7143 3.1875C12.7143 3.67969 12.3125 4.0625 11.8571 4.0625ZM8.85714 4.0625C8.85714 2.39453 7.49107 1 5.85714 1C4.19643 1 2.85714 2.39453 2.85714 4.0625V8.62891C2.32143 9.3125 2 10.1328 2 11.0625C2 13.25 3.71429 15 5.85714 15C7.97321 15 9.71429 13.25 9.71429 11.0625C9.71429 10.1602 9.36607 9.3125 8.85714 8.62891V4.0625ZM5.85714 13.6875C4.4375 13.6875 3.28571 12.5117 3.28571 11.0625C3.28571 10.3242 3.58036 9.77734 3.84821 9.44922L4.14286 9.09375V4.0625C4.14286 3.10547 4.89286 2.3125 5.85714 2.3125C6.79464 2.3125 7.57143 3.10547 7.57143 4.0625V9.09375L7.83929 9.44922C8.10714 9.77734 8.42857 10.3242 8.42857 11.0625C8.42857 12.5117 7.25 13.6875 5.85714 13.6875ZM6.28571 9.83203V4.0625C6.28571 3.84375 6.07143 3.625 5.85714 3.625C5.61607 3.625 5.42857 3.84375 5.42857 4.0625V9.83203C4.91964 10.0234 4.57143 10.5156 4.57143 11.0625C4.57143 11.8008 5.13393 12.375 5.85714 12.375C6.55357 12.375 7.14286 11.8008 7.14286 11.0625C7.14286 10.5156 6.76786 10.0234 6.28571 9.83203Z" fill="#272F5A" fill-opacity="0.9"/>
</svg>