<svg
  width="10"
  height="14"
  viewBox="0 0 10 14"
  fill="none"
  xmlns="http://www.w3.org/2000/svg"
>
<path
    fill-rule="evenodd"
    clip-rule="evenodd"
    d="M1 3.5C1 2.11929 2.11929 1 3.5 1H8.5C8.77614 1 9 1.22386 9 1.5V2.5C9 3.32843 8.32843 4 7.5 4H6H3.5C2.11929 4 1 5.11929 1 6.5V3.5ZM1 7.91465C0.417404 7.70873 0 7.15311 0 6.5V3.5C0 1.567 1.567 0 3.5 0H8.5C9.32843 0 10 0.671573 10 1.5V2.5V6.5C10 7.15311 9.5826 7.70873 9 7.91465V8C9 10.2091 7.20914 12 5 12C2.79086 12 1 10.2091 1 8V7.91465ZM8.5 7C8.77614 7 9 6.77614 9 6.5V4.50018C8.58217 4.81403 8.0628 5 7.5 5H6H3.5C2.67157 5 2 5.67157 2 6.5V8C2 9.65685 3.34315 11 5 11C6.65685 11 8 9.65685 8 8V7H8.5ZM1.83222 12.227C1.6682 12.3402 1.43436 12.4317 1.15043 12.5326C0.982407 12.5923 0.808415 12.6816 0.680186 12.8217C0.540033 12.9748 0.42904 13.2311 0.543725 13.5109C0.639771 13.7451 0.844198 13.8609 0.985621 13.9152C1.14163 13.9751 1.31882 14 1.49936 14H1.50353H1.5077H1.51188H1.51606H1.52025H1.52445H1.52865H1.53286H1.53707H1.54129H1.54551H1.54974H1.55398H1.55822H1.56247H1.56672H1.57098H1.57524H1.57951H1.58379H1.58807H1.59236H1.59665H1.60095H1.60525H1.60956H1.61387H1.61819H1.62252H1.62685H1.63118H1.63552H1.63987H1.64422H1.64858H1.65294H1.65731H1.66168H1.66606H1.67044H1.67483H1.67922H1.68362H1.68803H1.69244H1.69685H1.70127H1.70569H1.71012H1.71456H1.719H1.72344H1.72789H1.73234H1.7368H1.74127H1.74574H1.75021H1.75469H1.75917H1.76366H1.76816H1.77266H1.77716H1.78167H1.78618H1.7907H1.79522H1.79975H1.80428H1.80881H1.81335H1.8179H1.82245H1.827H1.83156H1.83613H1.84069H1.84527H1.84984H1.85443H1.85901H1.8636H1.8682H1.8728H1.8774H1.88201H1.88662H1.89124H1.89586H1.90048H1.90511H1.90975H1.91439H1.91903H1.92368H1.92833H1.93298H1.93764H1.9423H1.94697H1.95164H1.95632H1.961H1.96568H1.97037H1.97506H1.97976H1.98445H1.98916H1.99387H1.99858H2.00329H2.00801H2.01273H2.01746H2.02219H2.02693H2.03166H2.03641H2.04115H2.0459H2.05065H2.05541H2.06017H2.06493H2.0697H2.07447H2.07925H2.08403H2.08881H2.0936H2.09838H2.10318H2.10797H2.11277H2.11758H2.12238H2.12719H2.132H2.13682H2.14164H2.14647H2.15129H2.15612H2.16095H2.16579H2.17063H2.17547H2.18032H2.18517H2.19002H2.19488H2.19974H2.2046H2.20946H2.21433H2.2192H2.22408H2.22896H2.23384H2.23872H2.2436H2.24849H2.25339H2.25828H2.26318H2.26808H2.27298H2.27789H2.2828H2.28771H2.29263H2.29755H2.30247H2.30739H2.31232H2.31724H2.32218H2.32711H2.33205H2.33699H2.34193H2.34687H2.35182H2.35677H2.36172H2.36668H2.37163H2.37659H2.38156H2.38652H2.39149H2.39646H2.40143H2.4064H2.41138H2.41636H2.42134H2.42632H2.43131H2.4363H2.44129H2.44628H2.45127H2.45627H2.46127H2.46627H2.47127H2.47628H2.48129H2.4863H2.49131H2.49632H2.50134H2.50636H2.51138H2.5164H2.52142H2.52645H2.53148H2.5365H2.54154H2.54657H2.5516H2.55664H2.56168H2.56672H2.57176H2.57681H2.58185H2.5869H2.59195H2.597H2.60205H2.60711H2.61216H2.61722H2.62228H2.62734H2.6324H2.63746H2.64253H2.6476H2.65266H2.65773H2.6628H2.66788H2.67295H2.67803H2.6831H2.68818H2.69326H2.69834H2.70342H2.7085H2.71359H2.71867H2.72376H2.72885H2.73394H2.73903H2.74412H2.74921H2.75431H2.7594H2.7645H2.76959H2.77469H2.77979H2.78489H2.78999H2.79509H2.8002H2.8053H2.81041H2.81551H2.82062H2.82572H2.83083H2.83594H2.84105H2.84616H2.85127H2.85639H2.8615H2.86661H2.87173H2.87684H2.88196H2.88707H2.89219H2.89731H2.90242H2.90754H2.91266H2.91778H2.9229H2.92802H2.93314H2.93827H2.94339H2.94851H2.95363H2.95876H2.96388H2.969H2.97413H2.97925H2.98438H2.9895H2.99463H2.99975H3.00488H3.01H3.01513H3.02026H3.02538H3.03051H3.03564H3.04076H3.04589H3.05102H3.05614H3.06127H3.0664H3.07152H3.07665H3.08178H3.0869H3.09203H3.09716H3.10228H3.10741H3.11254H3.11766H3.12279H3.12791H3.13304H3.13816H3.14329H3.14841H3.15354H3.15866H3.16378H3.16891H3.17403H3.17915H3.18427H3.18939H3.19451H3.19963H3.20475H3.20987H3.21499H3.22011H3.22523H3.23035H3.23546H3.24058H3.24569H3.25081H3.25592H3.26103H3.26615H3.27126H3.27637H3.28148H3.28659H3.2917H3.29681H3.30191H3.30702H3.31212H3.31723H3.32233H3.32743H3.33254H3.33764H3.34274H3.34783H3.35293H3.35803H3.36312H3.36822H3.37331H3.3784H3.38349H3.38858H3.39367H3.39876H3.40385H3.40893H3.41401H3.4191H3.42418H3.42926H3.43434H3.43941H3.44449H3.44956H3.45464H3.45971H3.46478H3.46985H3.47492H3.47998H3.48504H3.49011H3.49517H3.50023H3.50529H3.51034H3.5154H3.52045H3.5255H3.53055H3.5356H3.54065H3.54569H3.55074H3.55578H3.56082H3.56586H3.57089H3.57592H3.58096H3.58599H3.59102H3.59604H3.60107H3.60609H3.61111H3.61613H3.62115H3.62616H3.63117H3.63619H3.64119H3.6462H3.6512H3.65621H3.66121H3.66621H3.6712H3.67619H3.68119H3.68618H3.69116H3.69615H3.70113H3.70611H3.71109H3.71606H3.72104H3.72601H3.73097H3.73594H3.7409H3.74586H3.75082H3.75578H3.76073H3.76568H3.77063H3.77558H3.78052H3.78546H3.7904H3.79534H3.80027H3.8052H3.81013H3.81505H3.81997H3.82489H3.82981H3.83472H3.83963H3.84454H3.84945H3.85435H3.85925H3.86414H3.86904H3.87393H3.87882H3.8837H3.88858H3.89346H3.89834H3.90321H3.90808H3.91295H3.91781H3.92267H3.92753H3.93238H3.93723H3.94208H3.94693H3.95177H3.95661H3.96144H3.96627H3.9711H3.97593H3.98075H3.98557H3.99038H3.99519H4H4.00323H4.00644H4.00965H4.01283H4.01601H4.01917H4.02232H4.02545H4.02857H4.03168H4.03477H4.03785H4.04092H4.04397H4.04701H4.05004H4.05306H4.05606H4.05905H4.06202H4.06499H4.06794H4.07087H4.0738H4.07671H4.07961H4.0825H4.08537H4.08824H4.09109H4.09393H4.09675H4.09956H4.10237H4.10516H4.10793H4.1107H4.11345H4.11619H4.11892H4.12164H4.12435H4.12704H4.12973H4.1324H4.13506H4.13771H4.14034H4.14297H4.14558H4.14819H4.15078H4.15336H4.15593H4.15849H4.16104H4.16357H4.1661H4.16861H4.17112H4.17361H4.17609H4.17857H4.18103H4.18348H4.18592H4.18835H4.19077H4.19318H4.19558H4.19797H4.20035H4.20271H4.20507H4.20742H4.20976H4.21209H4.21441H4.21672H4.21902H4.22131H4.22359H4.22586H4.22812H4.23037H4.23261H4.23484H4.23707H4.23928H4.24149H4.24368H4.24587H4.24804H4.25021H4.25237H4.25452H4.25666H4.2588H4.26092H4.26304H4.26514H4.26724H4.26933H4.27141H4.27348H4.27555H4.2776H4.27965H4.28169H4.28372H4.28574H4.28776H4.28976H4.29176H4.29375H4.29574H4.29771H4.29968H4.30164H4.30359H4.30553H4.30747H4.3094H4.31132H4.31323H4.31514H4.31704H4.31893H4.32082H4.3227H4.32457H4.32643H4.32829H4.33014H4.33198H4.33381H4.33564H4.33747H4.33928H4.34109H4.34289H4.34469H4.34648H4.34826H4.35004H4.35181H4.35357H4.35533H4.35708H4.35882H4.36056H4.3623H4.36402H4.36575H4.36746H4.36917H4.37087H4.37257H4.37426H4.37595H4.37763H4.37931H4.38098H4.38264H4.3843H4.38596H4.38761H4.38925H4.39089H4.39252H4.39415H4.39577H4.39739H4.39901H4.40061H4.40222H4.40382H4.40541H4.407H4.40859H4.41017H4.41175H4.41332H4.41488H4.41645H4.41801H4.41956H4.42111H4.42266H4.4242H4.42574H4.42727H4.4288H4.43033H4.43185H4.43337H4.43489H4.4364H4.43791H4.43941H4.44091H4.44241H4.44391H4.4454H4.44688H4.44837H4.44985H4.45133H4.4528H4.45428H4.45574H4.45721H4.45867H4.46013H4.46159H4.46305H4.4645H4.46595H4.4674H4.46884H4.47028H4.47172H4.47316H4.47459H4.47603H4.47746H4.47889H4.48031H4.48174H4.48316H4.48458H4.486H4.48741H4.48883H4.49024H4.49165H4.49306H4.49447H4.49588H4.49728H4.49869H4.50009H4.50149H4.50289H4.50429H4.50569H4.50708H4.50848H4.50987H4.51126H4.51266H4.51405H4.51544H4.51683H4.51822H4.51961H4.52099H4.52238H4.52377H4.52516H4.52654H4.52793H4.52931H4.5307H4.53208H4.53347H4.53485H4.53624H4.53762H4.53901H4.54039H4.54178H4.54316H4.54455H4.54593H4.54732H4.54871H4.5501H4.55148H4.55287H4.55426H4.55565H4.55704H4.55843H4.55982H4.56122H4.56261H4.56401H4.5654H4.5668H4.5682H4.5696H4.571H4.5724H4.5738H4.57521H4.57662H4.57802H4.57943H4.58084H4.58226H4.58367H4.58509H4.58651H4.58793H4.58935H4.59077H4.5922H4.59363H4.59506H4.59649H4.59792H4.59936H4.6008H4.60224H4.60369H4.60513H4.60658H4.60803H4.60949H4.61095H4.61241H4.61387H4.61533H4.6168H4.61828H4.61975H4.62123H4.62271H4.62419H4.62568H4.62717H4.62866H4.63016H4.63166H4.63317H4.63467H4.63618H4.6377H4.63922H4.64074H4.64227H4.6438H4.64533H4.64687H4.64841H4.64996H4.65151H4.65306H4.65462H4.65618H4.65775H4.65932H4.66089H4.66248H4.66406H4.66565H4.66724H4.66884H4.67044H4.67205H4.67367H4.67528H4.67691H4.67853H4.68017H4.6818H4.68345H4.6851H4.68675H4.68841H4.69007H4.69174H4.69342H4.6951H4.69678H4.69847H4.70017H4.70188H4.70358H4.7053H4.70702H4.70875H4.71048H4.71222H4.71396H4.71571H4.71747H4.71923H4.721H4.72278H4.72456H4.72635H4.72814H4.72994H4.73175H4.73356H4.73539H4.73721H4.73905H4.74089H4.74274H4.74459H4.74646H4.74833H4.7502H4.75209H4.75398H4.75588H4.75778H4.7597H4.76162H4.76354H4.76548H4.76742H4.76937H4.77133H4.7733H4.77527H4.77725H4.77924H4.78124H4.78325H4.78526H4.78728H4.78931H4.79135H4.79339H4.79545H4.79751H4.79958H4.80166H4.80375H4.80585H4.80795H4.81007H4.81219H4.81432H4.81646H4.81861H4.82077H4.82294H4.82511H4.8273H4.82949H4.83169H4.83391H4.83613H4.83836H4.8406H4.84285H4.84511H4.84738H4.84966H4.85195H4.85424H4.85655H4.85887H4.8612H4.86353H4.86588H4.86824H4.87061H4.87298H4.87537H4.87777H4.88018H4.8826H4.88502H4.88746H4.88991H4.89237H4.89484H4.89733H4.89982H4.90232H4.90483H4.90736H4.90989H4.91244H4.915H4.91756H4.92014H4.92273H4.92534H4.92795H4.93057H4.93321H4.93586H4.93851H4.94118H4.94387H4.94656H4.94926H4.95198H4.95471H4.95745H4.9602H4.96296H4.96574H4.96853H4.97133H4.97414H4.97696H4.9798H4.98265H4.98551H4.98838H4.99127H4.99417H4.99708H5H5.00292H5.00583H5.00873H5.01162H5.01449H5.01735H5.0202H5.02304H5.02586H5.02867H5.03147H5.03426H5.03704H5.0398H5.04255H5.04529H5.04802H5.05074H5.05344H5.05613H5.05882H5.06149H5.06414H5.06679H5.06943H5.07205H5.07466H5.07727H5.07986H5.08244H5.085H5.08756H5.09011H5.09264H5.09517H5.09768H5.10018H5.10267H5.10516H5.10763H5.11009H5.11254H5.11498H5.1174H5.11982H5.12223H5.12463H5.12702H5.12939H5.13176H5.13412H5.13647H5.1388H5.14113H5.14345H5.14576H5.14805H5.15034H5.15262H5.15489H5.15715H5.1594H5.16164H5.16387H5.16609H5.16831H5.17051H5.1727H5.17489H5.17706H5.17923H5.18139H5.18354H5.18568H5.18781H5.18993H5.19205H5.19415H5.19625H5.19834H5.20042H5.20249H5.20455H5.20661H5.20865H5.21069H5.21272H5.21474H5.21675H5.21876H5.22076H5.22275H5.22473H5.2267H5.22867H5.23063H5.23258H5.23452H5.23646H5.23838H5.2403H5.24222H5.24412H5.24602H5.24791H5.2498H5.25167H5.25354H5.25541H5.25726H5.25911H5.26095H5.26279H5.26461H5.26644H5.26825H5.27006H5.27186H5.27365H5.27544H5.27722H5.279H5.28077H5.28253H5.28429H5.28604H5.28778H5.28952H5.29125H5.29298H5.2947H5.29642H5.29812H5.29983H5.30153H5.30322H5.3049H5.30658H5.30826H5.30993H5.31159H5.31325H5.3149H5.31655H5.3182H5.31983H5.32147H5.32309H5.32472H5.32633H5.32795H5.32956H5.33116H5.33276H5.33435H5.33594H5.33752H5.33911H5.34068H5.34225H5.34382H5.34538H5.34694H5.34849H5.35004H5.35159H5.35313H5.35467H5.3562H5.35773H5.35926H5.36078H5.3623H5.36382H5.36533H5.36683H5.36834H5.36984H5.37134H5.37283H5.37432H5.37581H5.37729H5.37877H5.38025H5.38172H5.3832H5.38467H5.38613H5.38759H5.38905H5.39051H5.39197H5.39342H5.39487H5.39631H5.39776H5.3992H5.40064H5.40208H5.40351H5.40494H5.40637H5.4078H5.40923H5.41065H5.41207H5.41349H5.41491H5.41633H5.41774H5.41916H5.42057H5.42198H5.42338H5.42479H5.4262H5.4276H5.429H5.4304H5.4318H5.4332H5.4346H5.43599H5.43739H5.43878H5.44018H5.44157H5.44296H5.44435H5.44574H5.44713H5.44852H5.4499H5.45129H5.45268H5.45407H5.45545H5.45684H5.45822H5.45961H5.46099H5.46238H5.46376H5.46515H5.46653H5.46792H5.4693H5.47069H5.47207H5.47346H5.47484H5.47623H5.47762H5.47901H5.48039H5.48178H5.48317H5.48456H5.48595H5.48734H5.48874H5.49013H5.49152H5.49292H5.49431H5.49571H5.49711H5.49851H5.49991H5.50131H5.50272H5.50412H5.50553H5.50694H5.50835H5.50976H5.51117H5.51259H5.514H5.51542H5.51684H5.51826H5.51969H5.52111H5.52254H5.52397H5.52541H5.52684H5.52828H5.52972H5.53116H5.5326H5.53405H5.5355H5.53695H5.53841H5.53987H5.54133H5.54279H5.54426H5.54572H5.5472H5.54867H5.55015H5.55163H5.55312H5.5546H5.55609H5.55759H5.55909H5.56059H5.56209H5.5636H5.56511H5.56663H5.56815H5.56967H5.5712H5.57273H5.57426H5.5758H5.57734H5.57889H5.58044H5.58199H5.58355H5.58512H5.58668H5.58825H5.58983H5.59141H5.593H5.59459H5.59618H5.59778H5.59939H5.60099H5.60261H5.60423H5.60585H5.60748H5.60911H5.61075H5.61239H5.61404H5.6157H5.61736H5.61902H5.62069H5.62237H5.62405H5.62574H5.62743H5.62913H5.63083H5.63254H5.63425H5.63598H5.6377H5.63944H5.64118H5.64292H5.64467H5.64643H5.64819H5.64996H5.65174H5.65352H5.65531H5.65711H5.65891H5.66072H5.66253H5.66436H5.66619H5.66802H5.66986H5.67171H5.67357H5.67543H5.6773H5.67918H5.68107H5.68296H5.68486H5.68677H5.68868H5.6906H5.69253H5.69447H5.69641H5.69836H5.70032H5.70229H5.70426H5.70625H5.70824H5.71024H5.71224H5.71426H5.71628H5.71831H5.72035H5.7224H5.72445H5.72652H5.72859H5.73067H5.73276H5.73486H5.73696H5.73908H5.7412H5.74334H5.74548H5.74763H5.74979H5.75196H5.75413H5.75632H5.75851H5.76072H5.76293H5.76516H5.76739H5.76963H5.77188H5.77414H5.77641H5.77869H5.78098H5.78328H5.78559H5.78791H5.79024H5.79258H5.79493H5.79729H5.79965H5.80203H5.80442H5.80682H5.80923H5.81165H5.81408H5.81652H5.81897H5.82143H5.82391H5.82639H5.82888H5.83139H5.8339H5.83643H5.83896H5.84151H5.84407H5.84664H5.84922H5.85181H5.85442H5.85703H5.85966H5.86229H5.86494H5.8676H5.87027H5.87296H5.87565H5.87836H5.88108H5.88381H5.88655H5.8893H5.89207H5.89484H5.89763H5.90044H5.90325H5.90607H5.90891H5.91176H5.91463H5.9175H5.92039H5.92329H5.9262H5.92913H5.93206H5.93501H5.93798H5.94095H5.94394H5.94694H5.94996H5.95299H5.95603H5.95908H5.96215H5.96523H5.96832H5.97143H5.97455H5.97768H5.98083H5.98399H5.98717H5.99035H5.99356H5.99677H6H6.00481H6.00962H6.01443H6.01925H6.02407H6.0289H6.03373H6.03856H6.04339H6.04823H6.05307H6.05792H6.06277H6.06762H6.07247H6.07733H6.08219H6.08705H6.09192H6.09679H6.10166H6.10654H6.11142H6.1163H6.12118H6.12607H6.13096H6.13586H6.14075H6.14565H6.15055H6.15546H6.16037H6.16528H6.17019H6.17511H6.18003H6.18495H6.18987H6.1948H6.19973H6.20466H6.2096H6.21454H6.21948H6.22442H6.22937H6.23432H6.23927H6.24422H6.24918H6.25414H6.2591H6.26406H6.26903H6.27399H6.27896H6.28394H6.28891H6.29389H6.29887H6.30385H6.30884H6.31382H6.31881H6.32381H6.3288H6.33379H6.33879H6.34379H6.3488H6.3538H6.35881H6.36381H6.36883H6.37384H6.37885H6.38387H6.38889H6.39391H6.39893H6.40396H6.40898H6.41401H6.41904H6.42408H6.42911H6.43414H6.43918H6.44422H6.44926H6.45431H6.45935H6.4644H6.46945H6.4745H6.47955H6.4846H6.48966H6.49471H6.49977H6.50483H6.50989H6.51496H6.52002H6.52508H6.53015H6.53522H6.54029H6.54536H6.55044H6.55551H6.56059H6.56566H6.57074H6.57582H6.5809H6.58599H6.59107H6.59615H6.60124H6.60633H6.61142H6.61651H6.6216H6.62669H6.63178H6.63688H6.64197H6.64707H6.65217H6.65726H6.66236H6.66746H6.67257H6.67767H6.68277H6.68788H6.69298H6.69809H6.70319H6.7083H6.71341H6.71852H6.72363H6.72874H6.73385H6.73897H6.74408H6.74919H6.75431H6.75942H6.76454H6.76965H6.77477H6.77989H6.78501H6.79013H6.79525H6.80037H6.80549H6.81061H6.81573H6.82085H6.82597H6.83109H6.83622H6.84134H6.84646H6.85159H6.85671H6.86184H6.86696H6.87209H6.87721H6.88234H6.88746H6.89259H6.89772H6.90284H6.90797H6.9131H6.91822H6.92335H6.92848H6.9336H6.93873H6.94386H6.94898H6.95411H6.95924H6.96436H6.96949H6.97462H6.97974H6.98487H6.99H6.99512H7.00025H7.00537H7.0105H7.01562H7.02075H7.02587H7.031H7.03612H7.04124H7.04637H7.05149H7.05661H7.06173H7.06686H7.07198H7.0771H7.08222H7.08734H7.09246H7.09758H7.10269H7.10781H7.11293H7.11804H7.12316H7.12827H7.13339H7.1385H7.14361H7.14873H7.15384H7.15895H7.16406H7.16917H7.17428H7.17938H7.18449H7.1896H7.1947H7.1998H7.20491H7.21001H7.21511H7.22021H7.22531H7.23041H7.2355H7.2406H7.24569H7.25079H7.25588H7.26097H7.26606H7.27115H7.27624H7.28133H7.28641H7.2915H7.29658H7.30166H7.30674H7.31182H7.3169H7.32197H7.32705H7.33212H7.3372H7.34227H7.34734H7.3524H7.35747H7.36254H7.3676H7.37266H7.37772H7.38278H7.38784H7.39289H7.39795H7.403H7.40805H7.4131H7.41815H7.42319H7.42824H7.43328H7.43832H7.44336H7.4484H7.45343H7.45846H7.4635H7.46852H7.47355H7.47858H7.4836H7.48862H7.49364H7.49866H7.50368H7.50869H7.5137H7.51871H7.52372H7.52873H7.53373H7.53873H7.54373H7.54873H7.55372H7.55871H7.5637H7.56869H7.57368H7.57866H7.58364H7.58862H7.5936H7.59857H7.60354H7.60851H7.61348H7.61844H7.62341H7.62837H7.63332H7.63828H7.64323H7.64818H7.65313H7.65807H7.66301H7.66795H7.67289H7.67782H7.68276H7.68768H7.69261H7.69753H7.70245H7.70737H7.71229H7.7172H7.72211H7.72702H7.73192H7.73682H7.74172H7.74661H7.75151H7.7564H7.76128H7.76616H7.77104H7.77592H7.7808H7.78567H7.79054H7.7954H7.80026H7.80512H7.80998H7.81483H7.81968H7.82453H7.82937H7.83421H7.83905H7.84388H7.84871H7.85353H7.85836H7.86318H7.868H7.87281H7.87762H7.88242H7.88723H7.89203H7.89682H7.90162H7.9064H7.91119H7.91597H7.92075H7.92553H7.9303H7.93507H7.93983H7.94459H7.94935H7.9541H7.95885H7.96359H7.96834H7.97307H7.97781H7.98254H7.98727H7.99199H7.99671H8.00142H8.00613H8.01084H8.01554H8.02024H8.02494H8.02963H8.03432H8.039H8.04368H8.04836H8.05303H8.0577H8.06236H8.06702H8.07167H8.07632H8.08097H8.08561H8.09025H8.09489H8.09951H8.10414H8.10876H8.11338H8.11799H8.1226H8.1272H8.1318H8.1364H8.14099H8.14557H8.15016H8.15473H8.15931H8.16387H8.16844H8.173H8.17755H8.1821H8.18665H8.19119H8.19572H8.20025H8.20478H8.2093H8.21382H8.21833H8.22284H8.22734H8.23184H8.23634H8.24083H8.24531H8.24979H8.25426H8.25873H8.2632H8.26766H8.27211H8.27656H8.281H8.28544H8.28988H8.29431H8.29873H8.30315H8.30756H8.31197H8.31638H8.32078H8.32517H8.32956H8.33394H8.33832H8.34269H8.34706H8.35142H8.35578H8.36013H8.36448H8.36882H8.37315H8.37749H8.38181H8.38613H8.39044H8.39475H8.39905H8.40335H8.40764H8.41193H8.41621H8.42049H8.42476H8.42902H8.43328H8.43753H8.44178H8.44602H8.45026H8.45449H8.45871H8.46293H8.46714H8.47135H8.47555H8.47975H8.48394H8.48812H8.4923H8.49647H8.50064C8.68118 14 8.85837 13.9751 9.01438 13.9152C9.1558 13.8609 9.36023 13.7451 9.45628 13.5109C9.57096 13.2311 9.45997 12.9748 9.31981 12.8217C9.19159 12.6816 9.01759 12.5923 8.84957 12.5326C8.56564 12.4317 8.3318 12.3402 8.16778 12.227C8.01706 12.123 8 12.0551 8 12H7C7 12.4672 7.25386 12.7892 7.5307 13H7.52873H7.52372H7.51871H7.5137H7.50869H7.50368H7.49866H7.49364H7.48862H7.4836H7.47858H7.47355H7.46852H7.4635H7.45846H7.45343H7.4484H7.44336H7.43832H7.43328H7.42824H7.42319H7.41815H7.4131H7.40805H7.403H7.39795H7.39289H7.38784H7.38278H7.37772H7.37266H7.3676H7.36254H7.35747H7.3524H7.34734H7.34227H7.3372H7.33212H7.32705H7.32197H7.3169H7.31182H7.30674H7.30166H7.29658H7.2915H7.28641H7.28133H7.27624H7.27115H7.26606H7.26097H7.25588H7.25079H7.24569H7.2406H7.2355H7.23041H7.22531H7.22021H7.21511H7.21001H7.20491H7.1998H7.1947H7.1896H7.18449H7.17938H7.17428H7.16917H7.16406H7.15895H7.15384H7.14873H7.14361H7.1385H7.13339H7.12827H7.12316H7.11804H7.11293H7.10781H7.10269H7.09758H7.09246H7.08734H7.08222H7.0771H7.07198H7.06686H7.06173H7.05661H7.05149H7.04637H7.04124H7.03612H7.031H7.02587H7.02075H7.01562H7.0105H7.00537H7.00025H6.99512H6.99H6.98487H6.97974H6.97462H6.96949H6.96436H6.95924H6.95411H6.94898H6.94386H6.93873H6.9336H6.92848H6.92335H6.91822H6.9131H6.90797H6.90284H6.89772H6.89259H6.88746H6.88234H6.87721H6.87209H6.86696H6.86184H6.85671H6.85159H6.84646H6.84134H6.83622H6.83109H6.82597H6.82085H6.81573H6.81061H6.80549H6.80037H6.79525H6.79013H6.78501H6.77989H6.77477H6.76965H6.76454H6.75942H6.75431H6.74919H6.74408H6.73897H6.73385H6.72874H6.72363H6.71852H6.71341H6.7083H6.70319H6.69809H6.69298H6.68788H6.68277H6.67767H6.67257H6.66746H6.66236H6.65726H6.65217H6.64707H6.64197H6.63688H6.63178H6.62669H6.6216H6.61651H6.61142H6.60633H6.60124H6.59615H6.59107H6.58599H6.5809H6.57582H6.57074H6.56566H6.56059H6.55551H6.55044H6.54536H6.54029H6.53522H6.53015H6.52508H6.52002H6.51496H6.50989H6.50483H6.49977H6.49471H6.48966H6.4846H6.47955H6.4745H6.46945H6.4644H6.45935H6.45431H6.44926H6.44422H6.43918H6.43414H6.42911H6.42408H6.41904H6.41401H6.40898H6.40396H6.39893H6.39391H6.38889H6.38387H6.37885H6.37384H6.36883H6.36381H6.35881H6.3538H6.3488H6.34379H6.33879H6.33379H6.3288H6.32381H6.31881H6.31382H6.30884H6.30385H6.29887H6.29389H6.28891H6.28394H6.27896H6.27399H6.26903H6.26406H6.2591H6.25414H6.24918H6.24422H6.23927H6.23432H6.22937H6.22442H6.21948H6.21454H6.2096H6.20466H6.19973H6.1948H6.18987H6.18495H6.18003H6.17511H6.17019H6.16528H6.16037H6.15546H6.15055H6.14565H6.14075H6.13586H6.13096H6.12607H6.12118H6.1163H6.11142H6.10654H6.10166H6.09679H6.09192H6.08705H6.08219H6.07733H6.07247H6.06762H6.06277H6.05792H6.05307H6.04823H6.04339H6.03856H6.03373H6.0289H6.02407H6.01925H6.01443H6.00962H6.00481H6H5.99677H5.99356H5.99035H5.98717H5.98399H5.98083H5.97768H5.97455H5.97143H5.96832H5.96523H5.96215H5.95908H5.95603H5.95299H5.94996H5.94694H5.94394H5.94095H5.93798H5.93501H5.93206H5.92913H5.9262H5.92329H5.92039H5.9175H5.91463H5.91176H5.90891H5.90607H5.90325H5.90044H5.89763H5.89484H5.89207H5.8893H5.88655H5.88381H5.88108H5.87836H5.87565H5.87296H5.87027H5.8676H5.86494H5.86229H5.85966H5.85703H5.85442H5.85181H5.84922H5.84664H5.84407H5.84151H5.83896H5.83643H5.8339H5.83139H5.82888H5.82639H5.82391H5.82143H5.81897H5.81652H5.81408H5.81165H5.80923H5.80682H5.80442H5.80203H5.79965H5.79729H5.79493H5.79258H5.79024H5.78791H5.78559H5.78328H5.78098H5.77869H5.77641H5.77414H5.77188H5.76963H5.76739H5.76516H5.76293H5.76072H5.75851H5.75632H5.75413H5.75196H5.74979H5.74763H5.74548H5.74334H5.7412H5.73908H5.73696H5.73486H5.73276H5.73067H5.72859H5.72652H5.72445H5.7224H5.72035H5.71831H5.71628H5.71426H5.71224H5.71024H5.70824H5.70625H5.70426H5.70229H5.70032H5.69836H5.69641H5.69447H5.69253H5.6906H5.68868H5.68677H5.68486H5.68296H5.68107H5.67918H5.6773H5.67543H5.67357H5.67171H5.66986H5.66802H5.66619H5.66436H5.66253H5.66072H5.65891H5.65711H5.65531H5.65352H5.65174H5.64996H5.64819H5.64643H5.64467H5.64292H5.64118H5.63944H5.6377H5.63598H5.63425H5.63254H5.63083H5.62913H5.62743H5.62574H5.62405H5.62237H5.62069H5.61902H5.61736H5.6157H5.61404H5.61239H5.61075H5.60911H5.60748H5.60585H5.60423H5.60261H5.60099H5.59939H5.59778H5.59618H5.59459H5.593H5.59141H5.58983H5.58825H5.58668H5.58512H5.58355H5.58199H5.58044H5.57889H5.57734H5.5758H5.57426H5.57273H5.5712H5.56967H5.56815H5.56663H5.56511H5.5636H5.56209H5.56059H5.55909H5.55759H5.55609H5.5546H5.55312H5.55163H5.55015H5.54867H5.5472H5.54572H5.54426H5.54279H5.54133H5.53987H5.53841H5.53695H5.5355H5.53405H5.5326H5.53116H5.52972H5.52828H5.52684H5.52541H5.52397H5.52254H5.52111H5.51969H5.51826H5.51684H5.51542H5.514H5.51259H5.51117H5.50976H5.50835H5.50694H5.50553H5.50412H5.50272H5.50131H5.49991H5.49851H5.49711H5.49571H5.49431H5.49292H5.49152H5.49013H5.48874H5.48734H5.48595H5.48456H5.48317H5.48178H5.48039H5.47901H5.47762H5.47623H5.47484H5.47346H5.47207H5.47069H5.4693H5.46792H5.46653H5.46515H5.46376H5.46238H5.46099H5.45961H5.45822H5.45684H5.45545H5.45407H5.45268H5.45129H5.4499H5.44852H5.44713H5.44574H5.44435H5.44296H5.44157H5.44018H5.43878H5.43739H5.43599H5.4346H5.4332H5.4318H5.4304H5.429H5.4276H5.4262H5.42479H5.42338H5.42198H5.42057H5.41916H5.41774H5.41633H5.41491H5.41349H5.41207H5.41065H5.40923H5.4078H5.40637H5.40494H5.40351H5.40208H5.40064H5.3992H5.39776H5.39631H5.39487H5.39342H5.39197H5.39051H5.38905H5.38759H5.38613H5.38467H5.3832H5.38172H5.38025H5.37877H5.37729H5.37581H5.37432H5.37283H5.37134H5.36984H5.36834H5.36683H5.36533H5.36382H5.3623H5.36078H5.35926H5.35773H5.3562H5.35467H5.35313H5.35159H5.35004H5.34849H5.34694H5.34538H5.34382H5.34225H5.34068H5.33911H5.33752H5.33594H5.33435H5.33276H5.33116H5.32956H5.32795H5.32633H5.32472H5.32309H5.32147H5.31983H5.3182H5.31655H5.3149H5.31325H5.31159H5.30993H5.30826H5.30658H5.3049H5.30322H5.30153H5.29983H5.29812H5.29642H5.2947H5.29298H5.29125H5.28952H5.28778H5.28604H5.28429H5.28253H5.28077H5.279H5.27722H5.27544H5.27365H5.27186H5.27006H5.26825H5.26644H5.26461H5.26279H5.26095H5.25911H5.25726H5.25541H5.25354H5.25167H5.2498H5.24791H5.24602H5.24412H5.24222H5.2403H5.23838H5.23646H5.23452H5.23258H5.23063H5.22867H5.2267H5.22473H5.22275H5.22076H5.21876H5.21675H5.21474H5.21272H5.21069H5.20865H5.20661H5.20455H5.20249H5.20042H5.19834H5.19625H5.19415H5.19205H5.18993H5.18781H5.18568H5.18354H5.18139H5.17923H5.17706H5.17489H5.1727H5.17051H5.16831H5.16609H5.16387H5.16164H5.1594H5.15715H5.15489H5.15262H5.15034H5.14805H5.14576H5.14345H5.14113H5.1388H5.13647H5.13412H5.13176H5.12939H5.12702H5.12463H5.12223H5.11982H5.1174H5.11498H5.11254H5.11009H5.10763H5.10516H5.10267H5.10018H5.09768H5.09517H5.09264H5.09011H5.08756H5.085H5.08244H5.07986H5.07727H5.07466H5.07205H5.06943H5.06679H5.06414H5.06149H5.05882H5.05613H5.05344H5.05074H5.04802H5.04529H5.04255H5.0398H5.03704H5.03426H5.03147H5.02867H5.02586H5.02304H5.0202H5.01735H5.01449H5.01162H5.00873H5.00583H5.00292H5H4.99708H4.99417H4.99127H4.98838H4.98551H4.98265H4.9798H4.97696H4.97414H4.97133H4.96853H4.96574H4.96296H4.9602H4.95745H4.95471H4.95198H4.94926H4.94656H4.94387H4.94118H4.93851H4.93586H4.93321H4.93057H4.92795H4.92534H4.92273H4.92014H4.91756H4.915H4.91244H4.90989H4.90736H4.90483H4.90232H4.89982H4.89733H4.89484H4.89237H4.88991H4.88746H4.88502H4.8826H4.88018H4.87777H4.87537H4.87298H4.87061H4.86824H4.86588H4.86353H4.8612H4.85887H4.85655H4.85424H4.85195H4.84966H4.84738H4.84511H4.84285H4.8406H4.83836H4.83613H4.83391H4.83169H4.82949H4.8273H4.82511H4.82294H4.82077H4.81861H4.81646H4.81432H4.81219H4.81007H4.80795H4.80585H4.80375H4.80166H4.79958H4.79751H4.79545H4.79339H4.79135H4.78931H4.78728H4.78526H4.78325H4.78124H4.77924H4.77725H4.77527H4.7733H4.77133H4.76937H4.76742H4.76548H4.76354H4.76162H4.7597H4.75778H4.75588H4.75398H4.75209H4.7502H4.74833H4.74646H4.74459H4.74274H4.74089H4.73905H4.73721H4.73539H4.73356H4.73175H4.72994H4.72814H4.72635H4.72456H4.72278H4.721H4.71923H4.71747H4.71571H4.71396H4.71222H4.71048H4.70875H4.70702H4.7053H4.70358H4.70188H4.70017H4.69847H4.69678H4.6951H4.69342H4.69174H4.69007H4.68841H4.68675H4.6851H4.68345H4.6818H4.68017H4.67853H4.67691H4.67528H4.67367H4.67205H4.67044H4.66884H4.66724H4.66565H4.66406H4.66248H4.66089H4.65932H4.65775H4.65618H4.65462H4.65306H4.65151H4.64996H4.64841H4.64687H4.64533H4.6438H4.64227H4.64074H4.63922H4.6377H4.63618H4.63467H4.63317H4.63166H4.63016H4.62866H4.62717H4.62568H4.62419H4.62271H4.62123H4.61975H4.61828H4.6168H4.61533H4.61387H4.61241H4.61095H4.60949H4.60803H4.60658H4.60513H4.60369H4.60224H4.6008H4.59936H4.59792H4.59649H4.59506H4.59363H4.5922H4.59077H4.58935H4.58793H4.58651H4.58509H4.58367H4.58226H4.58084H4.57943H4.57802H4.57662H4.57521H4.5738H4.5724H4.571H4.5696H4.5682H4.5668H4.5654H4.56401H4.56261H4.56122H4.55982H4.55843H4.55704H4.55565H4.55426H4.55287H4.55148H4.5501H4.54871H4.54732H4.54593H4.54455H4.54316H4.54178H4.54039H4.53901H4.53762H4.53624H4.53485H4.53347H4.53208H4.5307H4.52931H4.52793H4.52654H4.52516H4.52377H4.52238H4.52099H4.51961H4.51822H4.51683H4.51544H4.51405H4.51266H4.51126H4.50987H4.50848H4.50708H4.50569H4.50429H4.50289H4.50149H4.50009H4.49869H4.49728H4.49588H4.49447H4.49306H4.49165H4.49024H4.48883H4.48741H4.486H4.48458H4.48316H4.48174H4.48031H4.47889H4.47746H4.47603H4.47459H4.47316H4.47172H4.47028H4.46884H4.4674H4.46595H4.4645H4.46305H4.46159H4.46013H4.45867H4.45721H4.45574H4.45428H4.4528H4.45133H4.44985H4.44837H4.44688H4.4454H4.44391H4.44241H4.44091H4.43941H4.43791H4.4364H4.43489H4.43337H4.43185H4.43033H4.4288H4.42727H4.42574H4.4242H4.42266H4.42111H4.41956H4.41801H4.41645H4.41488H4.41332H4.41175H4.41017H4.40859H4.407H4.40541H4.40382H4.40222H4.40061H4.39901H4.39739H4.39577H4.39415H4.39252H4.39089H4.38925H4.38761H4.38596H4.3843H4.38264H4.38098H4.37931H4.37763H4.37595H4.37426H4.37257H4.37087H4.36917H4.36746H4.36575H4.36402H4.3623H4.36056H4.35882H4.35708H4.35533H4.35357H4.35181H4.35004H4.34826H4.34648H4.34469H4.34289H4.34109H4.33928H4.33747H4.33564H4.33381H4.33198H4.33014H4.32829H4.32643H4.32457H4.3227H4.32082H4.31893H4.31704H4.31514H4.31323H4.31132H4.3094H4.30747H4.30553H4.30359H4.30164H4.29968H4.29771H4.29574H4.29375H4.29176H4.28976H4.28776H4.28574H4.28372H4.28169H4.27965H4.2776H4.27555H4.27348H4.27141H4.26933H4.26724H4.26514H4.26304H4.26092H4.2588H4.25666H4.25452H4.25237H4.25021H4.24804H4.24587H4.24368H4.24149H4.23928H4.23707H4.23484H4.23261H4.23037H4.22812H4.22586H4.22359H4.22131H4.21902H4.21672H4.21441H4.21209H4.20976H4.20742H4.20507H4.20271H4.20035H4.19797H4.19558H4.19318H4.19077H4.18835H4.18592H4.18348H4.18103H4.17857H4.17609H4.17361H4.17112H4.16861H4.1661H4.16357H4.16104H4.15849H4.15593H4.15336H4.15078H4.14819H4.14558H4.14297H4.14034H4.13771H4.13506H4.1324H4.12973H4.12704H4.12435H4.12164H4.11892H4.11619H4.11345H4.1107H4.10793H4.10516H4.10237H4.09956H4.09675H4.09393H4.09109H4.08824H4.08537H4.0825H4.07961H4.07671H4.0738H4.07087H4.06794H4.06499H4.06202H4.05905H4.05606H4.05306H4.05004H4.04701H4.04397H4.04092H4.03785H4.03477H4.03168H4.02857H4.02545H4.02232H4.01917H4.01601H4.01283H4.00965H4.00644H4.00323H4H3.99519H3.99038H3.98557H3.98075H3.97593H3.9711H3.96627H3.96144H3.95661H3.95177H3.94693H3.94208H3.93723H3.93238H3.92753H3.92267H3.91781H3.91295H3.90808H3.90321H3.89834H3.89346H3.88858H3.8837H3.87882H3.87393H3.86904H3.86414H3.85925H3.85435H3.84945H3.84454H3.83963H3.83472H3.82981H3.82489H3.81997H3.81505H3.81013H3.8052H3.80027H3.79534H3.7904H3.78546H3.78052H3.77558H3.77063H3.76568H3.76073H3.75578H3.75082H3.74586H3.7409H3.73594H3.73097H3.72601H3.72104H3.71606H3.71109H3.70611H3.70113H3.69615H3.69116H3.68618H3.68119H3.67619H3.6712H3.66621H3.66121H3.65621H3.6512H3.6462H3.64119H3.63619H3.63117H3.62616H3.62115H3.61613H3.61111H3.60609H3.60107H3.59604H3.59102H3.58599H3.58096H3.57592H3.57089H3.56586H3.56082H3.55578H3.55074H3.54569H3.54065H3.5356H3.53055H3.5255H3.52045H3.5154H3.51034H3.50529H3.50023H3.49517H3.49011H3.48504H3.47998H3.47492H3.46985H3.46478H3.45971H3.45464H3.44956H3.44449H3.43941H3.43434H3.42926H3.42418H3.4191H3.41401H3.40893H3.40385H3.39876H3.39367H3.38858H3.38349H3.3784H3.37331H3.36822H3.36312H3.35803H3.35293H3.34783H3.34274H3.33764H3.33254H3.32743H3.32233H3.31723H3.31212H3.30702H3.30191H3.29681H3.2917H3.28659H3.28148H3.27637H3.27126H3.26615H3.26103H3.25592H3.25081H3.24569H3.24058H3.23546H3.23035H3.22523H3.22011H3.21499H3.20987H3.20475H3.19963H3.19451H3.18939H3.18427H3.17915H3.17403H3.16891H3.16378H3.15866H3.15354H3.14841H3.14329H3.13816H3.13304H3.12791H3.12279H3.11766H3.11254H3.10741H3.10228H3.09716H3.09203H3.0869H3.08178H3.07665H3.07152H3.0664H3.06127H3.05614H3.05102H3.04589H3.04076H3.03564H3.03051H3.02538H3.02026H3.01513H3.01H3.00488H2.99975H2.99463H2.9895H2.98438H2.97925H2.97413H2.969H2.96388H2.95876H2.95363H2.94851H2.94339H2.93827H2.93314H2.92802H2.9229H2.91778H2.91266H2.90754H2.90242H2.89731H2.89219H2.88707H2.88196H2.87684H2.87173H2.86661H2.8615H2.85639H2.85127H2.84616H2.84105H2.83594H2.83083H2.82572H2.82062H2.81551H2.81041H2.8053H2.8002H2.79509H2.78999H2.78489H2.77979H2.77469H2.76959H2.7645H2.7594H2.75431H2.74921H2.74412H2.73903H2.73394H2.72885H2.72376H2.71867H2.71359H2.7085H2.70342H2.69834H2.69326H2.68818H2.6831H2.67803H2.67295H2.66788H2.6628H2.65773H2.65266H2.6476H2.64253H2.63746H2.6324H2.62734H2.62228H2.61722H2.61216H2.60711H2.60205H2.597H2.59195H2.5869H2.58185H2.57681H2.57176H2.56672H2.56168H2.55664H2.5516H2.54657H2.54154H2.5365H2.53148H2.52645H2.52142H2.5164H2.51138H2.50636H2.50134H2.49632H2.49131H2.4863H2.48129H2.47628H2.47127H2.4693C2.74614 12.7892 3 12.4672 3 12H2C2 12.0551 1.98294 12.123 1.83222 12.227Z"
    fill="#272F5A"
  />
</svg>
