<svg width="18" height="15" viewBox="0 0 18 15" fill="none" xmlns="http://www.w3.org/2000/svg">
<path fill-rule="evenodd" clip-rule="evenodd" d="M16.2594 13.8L8.75 1.2L1.24058 13.8L16.2594 13.8ZM9.82277 0.600001C9.34599 -0.199999 8.15402 -0.200001 7.67723 0.599999L0.167807 13.2C-0.308982 14 0.287003 15 1.24058 15H16.2594C17.213 15 17.809 14 17.3322 13.2L9.82277 0.600001ZM8.75 4.375C9.09518 4.375 9.375 4.65482 9.375 5V9.375C9.375 9.72018 9.09518 10 8.75 10C8.40482 10 8.125 9.72018 8.125 9.375V5C8.125 4.65482 8.40482 4.375 8.75 4.375ZM8.75 12.5C9.09518 12.5 9.375 12.2202 9.375 11.875C9.375 11.5298 9.09518 11.25 8.75 11.25C8.40482 11.25 8.125 11.5298 8.125 11.875C8.125 12.2202 8.40482 12.5 8.75 12.5Z" fill="#E8B931"/>
</svg>
