<svg width="12" height="12" viewBox="0 0 12 12" fill="none" xmlns="http://www.w3.org/2000/svg">
<path d="M11.8955 2.75801C11.8486 2.45307 11.614 2.24196 11.3324 2.14813C11.0274 2.07776 10.7224 2.17159 10.5347 2.35924L9.1504 3.7432L8.37614 3.62591L8.25883 2.85184L9.64312 1.49134C9.85428 1.28023 9.92467 0.975291 9.85428 0.693809C9.76043 0.412327 9.54927 0.177759 9.24425 0.107388C8.00074 -0.197551 6.73376 0.154302 5.81872 1.06912C4.92714 1.93702 4.5752 3.20369 4.85675 4.42344L0.539639 8.71604C0.187701 9.09135 0 9.58395 0 10.0765C0 10.5691 0.187701 11.0617 0.539639 11.437C0.868115 11.7889 1.40775 12 1.90047 12C2.39318 12 2.8859 11.8123 3.2613 11.437L7.55495 7.14444C8.775 7.42592 10.042 7.07407 10.9336 6.18271C11.8251 5.29135 12.2005 3.97776 11.8955 2.75801ZM10.1358 5.38517C9.47888 6.06542 8.49345 6.29999 7.60187 5.99505L7.2734 5.87777L2.48703 10.6395C2.20548 10.9444 1.66584 10.9444 1.38429 10.6395C1.24352 10.4988 1.14967 10.3111 1.14967 10.0765C1.14967 9.86543 1.24352 9.67777 1.38429 9.51358L6.17066 4.75184L6.07681 4.42344C5.72487 3.50863 5.93603 2.52344 6.61645 1.86665C7.0857 1.37406 7.71919 1.11603 8.35268 1.11603H8.37614L7.06223 2.47653L7.41417 4.58764L9.5258 4.96295L10.8866 3.60246C10.8866 4.25925 10.6285 4.91604 10.1358 5.38517ZM2.04124 9.56049C1.83008 9.56049 1.68931 9.72469 1.68931 9.9358C1.68931 10.1235 1.85354 10.3111 2.04124 10.3111C2.22894 10.3111 2.39318 10.1235 2.39318 9.9358C2.41665 9.74815 2.25241 9.56049 2.04124 9.56049Z" fill="#272F5A"/>
</svg>
