<svg width="32" height="44" viewBox="0 0 32 44" fill="none" xmlns="http://www.w3.org/2000/svg">
<path d="M31.5 16.5C31.5 18.6568 30.5452 21.4275 29.0526 24.418C27.5678 27.393 25.5828 30.5235 23.5899 33.3813C21.5982 36.2372 19.6056 38.811 18.1103 40.6714C17.3628 41.6013 16.7402 42.3523 16.3047 42.8704C16.1897 43.0073 16.0877 43.1279 16 43.2313C15.9123 43.1279 15.8103 43.0073 15.6953 42.8704C15.2598 42.3523 14.6372 41.6013 13.8897 40.6714C12.3944 38.811 10.4018 36.2372 8.41012 33.3813C6.41725 30.5235 4.43224 27.393 2.94737 24.418C1.45477 21.4275 0.5 18.6568 0.5 16.5C0.5 7.64883 7.45398 0.5 16 0.5C24.546 0.5 31.5 7.64883 31.5 16.5Z" fill="#28305C" stroke="white"/>
<path fill-rule="evenodd" clip-rule="evenodd" d="M22 13H10V21H22V13ZM10 12C9.44772 12 9 12.4477 9 13V21C9 21.5523 9.44772 22 10 22H22C22.5523 22 23 21.5523 23 21V13C23 12.4477 22.5523 12 22 12H10ZM20 14H12V17H20V14ZM19 15H13V16H19V15ZM13 18H14V19H13V18ZM15 18H16H17V19H16H15V18ZM18 18H19V19H18V18Z" fill="white"/>
</svg>
