<svg width="32" height="44" viewBox="0 0 32 44" fill="none" xmlns="http://www.w3.org/2000/svg">
<path d="M31.5 16.5C31.5 18.6568 30.5452 21.4275 29.0526 24.418C27.5678 27.393 25.5828 30.5235 23.5899 33.3813C21.5982 36.2372 19.6056 38.811 18.1103 40.6714C17.3628 41.6013 16.7402 42.3523 16.3047 42.8704C16.1897 43.0073 16.0877 43.1279 16 43.2313C15.9123 43.1279 15.8103 43.0073 15.6953 42.8704C15.2598 42.3523 14.6372 41.6013 13.8897 40.6714C12.3944 38.811 10.4018 36.2372 8.41012 33.3813C6.41725 30.5235 4.43224 27.393 2.94737 24.418C1.45477 21.4275 0.5 18.6568 0.5 16.5C0.5 7.64883 7.45398 0.5 16 0.5C24.546 0.5 31.5 7.64883 31.5 16.5Z" fill="#E2B104" stroke="white"/>
<path fill-rule="evenodd" clip-rule="evenodd" d="M14.015 11H21.0403L17.0403 16H22L15 25H13.9597L15.3596 19H10L14.015 11ZM15 12L12 18H17L16 22L19.5 17H14.9597L18.5 12H15Z" fill="white"/>
</svg>
