<svg width="32" height="44" viewBox="0 0 32 44" fill="none" xmlns="http://www.w3.org/2000/svg">
<path d="M31.5 16.5C31.5 18.6568 30.5452 21.4275 29.0526 24.418C27.5678 27.393 25.5828 30.5235 23.5899 33.3813C21.5982 36.2372 19.6056 38.811 18.1103 40.6714C17.3628 41.6013 16.7402 42.3523 16.3047 42.8704C16.1897 43.0073 16.0877 43.1279 16 43.2313C15.9123 43.1279 15.8103 43.0073 15.6953 42.8704C15.2598 42.3523 14.6372 41.6013 13.8897 40.6714C12.3944 38.811 10.4018 36.2372 8.41012 33.3813C6.41725 30.5235 4.43224 27.393 2.94737 24.418C1.45477 21.4275 0.5 18.6568 0.5 16.5C0.5 7.64883 7.45398 0.5 16 0.5C24.546 0.5 31.5 7.64883 31.5 16.5Z" fill="#A269E9" stroke="white"/>
<path fill-rule="evenodd" clip-rule="evenodd" d="M11 14C11.5523 14 12 14.4477 12 15V21C12 21.5523 11.5523 22 11 22C10.4477 22 10 21.5523 10 21V20V16V15C10 14.4477 10.4477 14 11 14ZM9 20V16H8V15H9C9 13.8954 9.89542 13 11 13C11.5974 13 12.1335 13.2619 12.5 13.6771C12.8665 13.2619 13.4026 13 14 13C14.5974 13 15.1335 13.2619 15.5 13.6771C15.8665 13.2619 16.4026 13 17 13C17.5974 13 18.1335 13.2619 18.5 13.6771C18.8665 13.2619 19.4026 13 20 13C21.1046 13 22 13.8954 22 15H22.5C23.3284 15 24 15.6716 24 16.5V18H23V16.5C23 16.2239 22.7762 16 22.5 16H22V20H24V21H22C22 22.1046 21.1046 23 20 23C19.4026 23 18.8665 22.7381 18.5 22.3229C18.1335 22.7381 17.5974 23 17 23C16.4026 23 15.8665 22.7381 15.5 22.3229C15.1335 22.7381 14.5974 23 14 23C13.4026 23 12.8665 22.7381 12.5 22.3229C12.1335 22.7381 11.5974 23 11 23C9.89542 23 9 22.1046 9 21H8V20H9ZM18 21V15C18 14.4477 17.5523 14 17 14C16.4477 14 16 14.4477 16 15V21C16 21.5523 16.4477 22 17 22C17.5523 22 18 21.5523 18 21ZM19 15V21C19 21.5523 19.4477 22 20 22C20.5523 22 21 21.5523 21 21V15C21 14.4477 20.5523 14 20 14C19.4477 14 19 14.4477 19 15ZM14 14C14.5523 14 15 14.4477 15 15V21C15 21.5523 14.5523 22 14 22C13.4477 22 13 21.5523 13 21V15C13 14.4477 13.4477 14 14 14Z" fill="white"/>
</svg>
