<svg width="32" height="44" viewBox="0 0 32 44" fill="none" xmlns="http://www.w3.org/2000/svg">
<path d="M31.5 16.5C31.5 18.6568 30.5452 21.4275 29.0526 24.418C27.5678 27.393 25.5828 30.5235 23.5899 33.3813C21.5982 36.2372 19.6056 38.811 18.1103 40.6714C17.3628 41.6013 16.7402 42.3523 16.3047 42.8704C16.1897 43.0073 16.0877 43.1279 16 43.2313C15.9123 43.1279 15.8103 43.0073 15.6953 42.8704C15.2598 42.3523 14.6372 41.6013 13.8897 40.6714C12.3944 38.811 10.4018 36.2372 8.41012 33.3813C6.41725 30.5235 4.43224 27.393 2.94737 24.418C1.45477 21.4275 0.5 18.6568 0.5 16.5C0.5 7.64883 7.45398 0.5 16 0.5C24.546 0.5 31.5 7.64883 31.5 16.5Z" fill="#FF8C68" stroke="white"/>
<path fill-rule="evenodd" clip-rule="evenodd" d="M20 20C20 22.2091 18.2091 24 16 24C13.7909 24 12 22.2091 12 20C12 18.8939 12.5141 17.4636 13.5193 15.957C14.1703 14.9815 15.0022 14.0123 15.9644 13.1274C16.0362 13.486 16.1462 13.8247 16.2885 14.1465C16.6919 15.0588 17.3303 15.7749 17.899 16.3752C17.9814 16.4622 18.0624 16.5471 18.1416 16.6302L18.1417 16.6303C19.2243 17.7657 20 18.5792 20 20ZM11 20C11 17.545 12.976 14.3176 15.8739 11.8749C16.2356 11.57 16.6116 11.2774 17 11C16.8901 11.4945 16.8527 11.9408 16.8731 12.3486C16.9532 13.9474 17.9223 14.9568 18.9012 15.9765C19.945 17.0638 21 18.1626 21 20C21 22.7614 18.7614 25 16 25C13.2386 25 11 22.7614 11 20ZM14 19.5C14 19.2239 13.7761 19 13.5 19C13.2239 19 13 19.2239 13 19.5C13 21.7761 14.7239 23 16 23C16.2761 23 16.5 22.7761 16.5 22.5C16.5 22.2239 16.2761 22 16 22C15.2761 22 14 21.2239 14 19.5Z" fill="white"/>
</svg>
