<svg width="12" height="12" viewBox="0 0 12 12" fill="none" xmlns="http://www.w3.org/2000/svg">
<path fill-rule="evenodd" clip-rule="evenodd" d="M6 11C8.76142 11 11 8.76142 11 6C11 3.23858 8.76142 1 6 1C3.23858 1 1 3.23858 1 6C1 8.76142 3.23858 11 6 11ZM6 12C9.31371 12 12 9.31371 12 6C12 2.68629 9.31371 0 6 0C2.68629 0 0 2.68629 0 6C0 9.31371 2.68629 12 6 12Z" fill="#189EE9"/>
<path d="M6 9C6.27614 9 6.5 8.77614 6.5 8.5V5.5C6.5 5.22386 6.27614 5 6 5C5.72386 5 5.5 5.22386 5.5 5.5V8.5C5.5 8.77614 5.72386 9 6 9Z" fill="#189EE9"/>
<path d="M6 3C6.27614 3 6.5 3.22386 6.5 3.5C6.5 3.77614 6.27614 4 6 4C5.72386 4 5.5 3.77614 5.5 3.5C5.5 3.22386 5.72386 3 6 3Z" fill="#189EE9"/>
</svg>
