<svg width="580" height="120" viewBox="0 0 580 120" fill="none" xmlns="http://www.w3.org/2000/svg">
    <path d="M2.16 113H7.8C11.76 113 13.44 111.32 13.44 108.296C13.44 106.4 12.552 104.96 10.656 104.264C12.216 103.544 12.96 102.248 12.96 100.664C12.96 97.88 11.28 96.2 7.32 96.2H2.16V113ZM7.8 105.128C10.608 105.128 11.712 106.232 11.712 108.296C11.712 110.36 10.608 111.464 7.8 111.464H3.84V105.128H7.8ZM7.32 97.736C10.128 97.736 11.232 98.84 11.232 100.664C11.232 102.488 10.128 103.592 7.32 103.592H3.84V97.736H7.32ZM16.9228 113H21.1708C24.5068 113 26.0428 111.464 26.0428 109.16C26.0428 106.808 24.5548 105.32 21.1708 105.32H18.5068V101H16.9228V113ZM21.1708 106.76C23.4988 106.76 24.4108 107.672 24.4108 109.16C24.4108 110.672 23.5468 111.56 21.1708 111.56H18.5068V106.76H21.1708ZM28.2988 113H29.8828V101H28.2988V113ZM38.5459 113.168C41.6659 113.168 43.8019 111.032 43.8019 107.648V106.592C43.8019 103.16 41.7139 101.072 38.8339 101.072C37.0099 101.072 35.5939 101.792 34.7539 103.184C34.9459 100.88 35.4979 99.56 36.6979 98.768C38.2339 97.784 40.4419 98.384 42.8419 97.496V96.032C39.7699 96.992 37.9699 96.32 35.9779 97.496C33.7699 98.816 33.2419 101.744 33.2419 105.032V106.568C33.2419 111.128 35.2819 113.168 38.5459 113.168ZM38.5459 102.56C40.7059 102.56 42.1699 104.024 42.1699 106.592V107.648C42.1699 110.24 40.7299 111.68 38.5459 111.68C36.3619 111.68 34.8739 110.192 34.8739 107.648V106.4C34.9459 103.928 36.3619 102.56 38.5459 102.56ZM51.5972 113.168C54.5492 113.168 56.1572 111.56 56.6372 109.496H55.0052C54.5252 110.744 53.5892 111.68 51.5972 111.68C49.4612 111.68 48.0692 110.288 48.0692 107.528V107.456H56.7572V106.472C56.7572 102.872 54.7172 100.832 51.5972 100.832C48.4772 100.832 46.4372 102.872 46.4372 106.472V107.528C46.4372 111.152 48.4532 113.168 51.5972 113.168ZM51.5972 102.32C53.6132 102.32 54.9812 103.568 55.1012 106.064H48.0692C48.2132 103.664 49.5332 102.32 51.5972 102.32ZM65.4941 113.168C68.2301 113.168 70.1981 111.2 70.1981 107.528V106.472C70.1981 102.776 68.2541 100.832 65.4941 100.832C63.7181 100.832 62.3501 101.552 61.5341 103.016L61.3421 101H60.1181V117.8H61.7021V111.248C62.5181 112.544 63.8381 113.168 65.4941 113.168ZM65.1341 111.68C63.1181 111.68 61.7021 110.192 61.7021 107.528V106.28C61.7741 103.712 63.2141 102.32 65.1341 102.32C67.1741 102.32 68.5661 103.712 68.5661 106.472V107.528C68.5661 110.312 67.1981 111.68 65.1341 111.68ZM81.8038 113H83.3878V101H81.4198L76.6198 108.68L75.1318 111.2V101H73.5478V113H75.5158L80.3158 105.32L81.8038 102.824V113ZM86.0297 102.44H90.0377V113H91.6217V102.44H95.6297V101H86.0297V102.44ZM102.246 113.168C105.198 113.168 106.806 111.56 107.286 109.496H105.654C105.174 110.744 104.238 111.68 102.246 111.68C100.11 111.68 98.7176 110.288 98.7176 107.528V107.456H107.406V106.472C107.406 102.872 105.366 100.832 102.246 100.832C99.1256 100.832 97.0856 102.872 97.0856 106.472V107.528C97.0856 111.152 99.1016 113.168 102.246 113.168ZM102.246 102.32C104.262 102.32 105.63 103.568 105.75 106.064H98.7176C98.8616 103.664 100.182 102.32 102.246 102.32ZM124.543 113H126.127V101H116.767V113H118.351V102.44H124.543V113ZM134.636 113.168C137.588 113.168 139.196 111.56 139.676 109.496H138.044C137.564 110.744 136.628 111.68 134.636 111.68C132.5 111.68 131.108 110.288 131.108 107.528V107.456H139.796V106.472C139.796 102.872 137.756 100.832 134.636 100.832C131.516 100.832 129.476 102.872 129.476 106.472V107.528C129.476 111.152 131.492 113.168 134.636 113.168ZM134.636 102.32C136.652 102.32 138.02 103.568 138.14 106.064H131.108C131.252 103.664 132.572 102.32 134.636 102.32ZM148.533 113.168C151.269 113.168 153.237 111.2 153.237 107.528V106.472C153.237 102.776 151.293 100.832 148.533 100.832C146.757 100.832 145.389 101.552 144.573 103.016L144.381 101H143.157V117.8H144.741V111.248C145.557 112.544 146.877 113.168 148.533 113.168ZM148.173 111.68C146.157 111.68 144.741 110.192 144.741 107.528V106.28C144.813 103.712 146.253 102.32 148.173 102.32C150.213 102.32 151.605 103.712 151.605 106.472V107.528C151.605 110.312 150.237 111.68 148.173 111.68ZM164.843 113H166.427V101H164.459L159.659 108.68L158.171 111.2V101H156.587V113H158.555L163.355 105.32L164.843 102.824V113ZM175.069 113.168C178.237 113.168 180.349 111.056 180.349 107.528V106.472C180.349 102.92 178.261 100.832 175.069 100.832C171.901 100.832 169.789 102.944 169.789 106.472V107.528C169.789 111.08 171.877 113.168 175.069 113.168ZM175.069 111.68C172.933 111.68 171.421 110.168 171.421 107.528V106.472C171.421 103.808 172.909 102.32 175.069 102.32C177.205 102.32 178.717 103.832 178.717 106.472V107.528C178.717 110.192 177.229 111.68 175.069 111.68ZM192.566 116.12H194.15V111.56H192.47V101H184.43V104.6C184.43 108.584 184.19 109.856 183.062 111.56H181.79V116.12H183.374V113H192.566V116.12ZM186.014 104.6V102.44H190.886V111.56H184.91C185.702 110.048 186.014 108.584 186.014 104.6ZM210.921 113H212.505V101H210.537L205.737 108.68L204.249 111.2V101H202.665V113H204.633L209.433 105.32L210.921 102.824V113ZM231.683 116.12H233.267V111.56H231.587V101H223.547V104.6C223.547 108.584 223.307 109.856 222.179 111.56H220.907V116.12H222.491V113H231.683V116.12ZM225.131 104.6V102.44H230.003V111.56H224.027C224.819 110.048 225.131 108.584 225.131 104.6ZM240.222 113.168C243.174 113.168 244.782 111.56 245.262 109.496H243.63C243.15 110.744 242.214 111.68 240.222 111.68C238.086 111.68 236.694 110.288 236.694 107.528V107.456H245.382V106.472C245.382 102.872 243.342 100.832 240.222 100.832C237.102 100.832 235.062 102.872 235.062 106.472V107.528C235.062 111.152 237.078 113.168 240.222 113.168ZM240.222 102.32C242.238 102.32 243.606 103.568 243.726 106.064H236.694C236.838 103.664 238.158 102.32 240.222 102.32ZM246.834 102.44H250.842V113H252.426V102.44H256.434V101H246.834V102.44ZM261.725 113.168C263.525 113.168 265.061 112.256 265.901 110.744L266.141 113H267.365V104.84C267.365 102.32 265.877 100.832 263.045 100.832C260.165 100.832 258.725 102.272 258.605 104.24H260.309C260.429 103.064 261.293 102.32 263.045 102.32C264.989 102.32 265.781 103.112 265.781 104.84V105.92H263.045C259.445 105.92 258.005 107.36 258.005 109.688C258.005 111.848 259.325 113.168 261.725 113.168ZM261.845 111.68C260.405 111.68 259.637 110.912 259.637 109.688C259.637 108.296 260.573 107.36 263.045 107.36H265.781V107.912C265.781 109.952 264.053 111.68 261.845 111.68ZM269.753 113.168H270.113C272.321 113.168 273.737 111.752 273.737 106.76V102.44H278.729V113H280.313V101H272.153V106.76C272.153 110.768 271.241 111.68 270.113 111.68H269.753V113.168ZM292.648 113H294.232V101H292.264L287.464 108.68L285.976 111.2V101H284.392V113H286.36L291.16 105.32L292.648 102.824V113ZM302.033 100.832C299.249 100.832 297.833 102.248 297.593 104.24H299.225C299.465 103.088 300.233 102.32 302.033 102.32C303.833 102.32 304.601 103.088 304.601 104.24C304.601 105.392 303.833 106.16 302.033 106.16H300.713V107.6H302.033C304.145 107.6 304.961 108.416 304.961 109.64C304.961 110.864 304.145 111.68 302.033 111.68C299.921 111.68 299.105 110.864 298.865 109.52H297.233C297.473 111.704 298.937 113.168 302.033 113.168C305.129 113.168 306.593 111.704 306.593 109.64C306.593 108.392 305.993 107.384 304.673 106.832C305.729 106.304 306.233 105.368 306.233 104.24C306.233 102.248 304.817 100.832 302.033 100.832ZM312.842 113.168C314.642 113.168 316.178 112.256 317.018 110.744L317.258 113H318.482V104.84C318.482 102.32 316.994 100.832 314.162 100.832C311.282 100.832 309.842 102.272 309.722 104.24H311.426C311.546 103.064 312.41 102.32 314.162 102.32C316.106 102.32 316.898 103.112 316.898 104.84V105.92H314.162C310.562 105.92 309.122 107.36 309.122 109.688C309.122 111.848 310.442 113.168 312.842 113.168ZM312.962 111.68C311.522 111.68 310.754 110.912 310.754 109.688C310.754 108.296 311.69 107.36 314.162 107.36H316.898V107.912C316.898 109.952 315.17 111.68 312.962 111.68ZM322.431 113H331.887V116.12H333.471V111.56H331.671V101H330.087V111.56H324.015V101H322.431V113ZM344.257 113H345.841V101H343.873L339.073 108.68L337.585 111.2V101H336.001V113H337.969L342.769 105.32L344.257 102.824V113ZM359.259 113.168C362.235 113.168 364.323 111.08 364.323 107.528V106.472C364.323 102.896 362.259 100.832 359.259 100.832C356.355 100.832 354.315 102.8 354.195 106.16H351.507V101H349.923V113H351.507V107.6H354.195C354.219 111.152 356.283 113.168 359.259 113.168ZM359.259 111.68C357.291 111.68 355.827 110.216 355.827 107.528V106.472C355.827 103.76 357.267 102.32 359.259 102.32C361.227 102.32 362.691 103.784 362.691 106.472V107.528C362.691 110.24 361.251 111.68 359.259 111.68ZM382.784 116.12H384.368V111.56H382.688V101H374.648V104.6C374.648 108.584 374.408 109.856 373.28 111.56H372.008V116.12H373.592V113H382.784V116.12ZM376.232 104.6V102.44H381.104V111.56H375.128C375.92 110.048 376.232 108.584 376.232 104.6ZM385.793 113.168H386.153C388.361 113.168 389.777 111.752 389.777 106.76V102.44H394.769V113H396.353V101H388.193V106.76C388.193 110.768 387.281 111.68 386.153 111.68H385.793V113.168ZM399.711 104.768C399.711 106.4 400.359 107.576 401.919 108.152L399.231 113H401.055L403.479 108.488C403.839 108.536 404.223 108.536 404.631 108.536H407.007V113H408.591V101H404.631C401.103 101 399.711 102.392 399.711 104.768ZM401.343 104.768C401.343 103.256 402.159 102.44 404.631 102.44H407.007V107.096H404.631C402.159 107.096 401.343 106.28 401.343 104.768ZM426.921 113H428.505V101H426.921V106.16H420.249V101H418.665V113H420.249V107.6H426.921V113ZM435.467 113.168C437.267 113.168 438.803 112.256 439.643 110.744L439.883 113H441.107V104.84C441.107 102.32 439.619 100.832 436.787 100.832C433.907 100.832 432.467 102.272 432.347 104.24H434.051C434.171 103.064 435.035 102.32 436.787 102.32C438.731 102.32 439.523 103.112 439.523 104.84V105.92H436.787C433.187 105.92 431.747 107.36 431.747 109.688C431.747 111.848 433.067 113.168 435.467 113.168ZM435.587 111.68C434.147 111.68 433.379 110.912 433.379 109.688C433.379 108.296 434.315 107.36 436.787 107.36H439.523V107.912C439.523 109.952 437.795 111.68 435.587 111.68ZM451.872 113H453.456V101H451.872V107.12C451.176 107.288 450.096 107.48 448.896 107.48C446.688 107.48 445.92 106.712 445.92 104.6V101H444.336V104.6C444.336 107.552 445.704 108.92 448.896 108.92C450.12 108.92 451.176 108.728 451.872 108.56V113ZM460.404 113.168C462.204 113.168 463.74 112.256 464.58 110.744L464.82 113H466.044V104.84C466.044 102.32 464.556 100.832 461.724 100.832C458.844 100.832 457.404 102.272 457.284 104.24H458.988C459.108 103.064 459.972 102.32 461.724 102.32C463.668 102.32 464.46 103.112 464.46 104.84V105.92H461.724C458.124 105.92 456.684 107.36 456.684 109.688C456.684 111.848 458.004 113.168 460.404 113.168ZM460.524 111.68C459.084 111.68 458.316 110.912 458.316 109.688C458.316 108.296 459.252 107.36 461.724 107.36H464.46V107.912C464.46 109.952 462.732 111.68 460.524 111.68ZM468.433 113.168H468.793C471.001 113.168 472.417 111.752 472.417 106.76V102.44H477.409V113H478.993V101H470.833V106.76C470.833 110.768 469.921 111.68 468.793 111.68H468.433V113.168ZM485.951 113.168C487.751 113.168 489.287 112.256 490.127 110.744L490.367 113H491.591V104.84C491.591 102.32 490.103 100.832 487.271 100.832C484.391 100.832 482.951 102.272 482.831 104.24H484.535C484.655 103.064 485.519 102.32 487.271 102.32C489.215 102.32 490.007 103.112 490.007 104.84V105.92H487.271C483.671 105.92 482.231 107.36 482.231 109.688C482.231 111.848 483.551 113.168 485.951 113.168ZM486.071 111.68C484.631 111.68 483.863 110.912 483.863 109.688C483.863 108.296 484.799 107.36 487.271 107.36H490.007V107.912C490.007 109.952 488.279 111.68 486.071 111.68ZM506.916 113.168C509.652 113.168 511.62 111.2 511.62 107.528V106.472C511.62 102.776 509.676 100.832 506.916 100.832C505.14 100.832 503.772 101.552 502.956 103.016L502.764 101H501.54V117.8H503.124V111.248C503.94 112.544 505.26 113.168 506.916 113.168ZM506.556 111.68C504.54 111.68 503.124 110.192 503.124 107.528V106.28C503.196 103.712 504.636 102.32 506.556 102.32C508.596 102.32 509.988 103.712 509.988 106.472V107.528C509.988 110.312 508.62 111.68 506.556 111.68ZM517.85 113.168C519.65 113.168 521.186 112.256 522.026 110.744L522.266 113H523.49V104.84C523.49 102.32 522.002 100.832 519.17 100.832C516.29 100.832 514.85 102.272 514.73 104.24H516.434C516.554 103.064 517.418 102.32 519.17 102.32C521.114 102.32 521.906 103.112 521.906 104.84V105.92H519.17C515.57 105.92 514.13 107.36 514.13 109.688C514.13 111.848 515.45 113.168 517.85 113.168ZM517.97 111.68C516.53 111.68 515.762 110.912 515.762 109.688C515.762 108.296 516.698 107.36 519.17 107.36H521.906V107.912C521.906 109.952 520.178 111.68 517.97 111.68ZM532.022 113.168C535.142 113.168 537.278 111.032 537.278 107.648V106.592C537.278 103.16 535.19 101.072 532.31 101.072C530.486 101.072 529.07 101.792 528.23 103.184C528.422 100.88 528.974 99.56 530.174 98.768C531.71 97.784 533.918 98.384 536.318 97.496V96.032C533.246 96.992 531.446 96.32 529.454 97.496C527.246 98.816 526.718 101.744 526.718 105.032V106.568C526.718 111.128 528.758 113.168 532.022 113.168ZM532.022 102.56C534.182 102.56 535.646 104.024 535.646 106.592V107.648C535.646 110.24 534.206 111.68 532.022 111.68C529.838 111.68 528.35 110.192 528.35 107.648V106.4C528.422 103.928 529.838 102.56 532.022 102.56ZM545.194 113.168C548.362 113.168 550.474 111.056 550.474 107.528V106.472C550.474 102.92 548.386 100.832 545.194 100.832C542.026 100.832 539.914 102.944 539.914 106.472V107.528C539.914 111.08 542.002 113.168 545.194 113.168ZM545.194 111.68C543.058 111.68 541.546 110.168 541.546 107.528V106.472C541.546 103.808 543.034 102.32 545.194 102.32C547.33 102.32 548.842 103.832 548.842 106.472V107.528C548.842 110.192 547.354 111.68 545.194 111.68ZM551.92 102.44H555.928V113H557.512V102.44H561.52V101H551.92V102.44ZM564.165 113H568.413C571.749 113 573.285 111.464 573.285 109.16C573.285 106.808 571.797 105.32 568.413 105.32H565.749V101H564.165V113ZM568.413 106.76C570.741 106.76 571.653 107.672 571.653 109.16C571.653 110.672 570.789 111.56 568.413 111.56H565.749V106.76H568.413ZM575.541 113H577.125V101H575.541V113Z" fill="#272F5A" fill-opacity="0.32"/>
    <path fill-rule="evenodd" clip-rule="evenodd" d="M290.379 30.5L286.5 26.6213V30.5H290.379ZM285 26H279V44H291V32H285.75H285V31.25V26ZM292.5 30.5L286.5 24.5H279H277.5V26V44V45.5H279H291H292.5V44V30.5ZM288 35V36.5H282V35H288ZM288 39.5V38H282V39.5H288Z" fill="#272F5A" fill-opacity="0.32"/>
    <path d="M301.737 53.5301L301.408 53.2006L301.056 53.5062C296.756 57.2403 291.142 59.5 285 59.5C271.469 59.5 260.5 48.531 260.5 35C260.5 21.469 271.469 10.5 285 10.5C298.531 10.5 309.5 21.469 309.5 35C309.5 41.1423 307.24 46.7556 303.506 51.0559L303.201 51.4077L303.53 51.7372L307.146 55.3536L307.293 55.5H307.5H309.793L319.646 65.3536C320.832 66.539 320.832 68.461 319.646 69.6464C318.461 70.8319 316.539 70.8319 315.354 69.6464L305.5 59.7929V57.5V57.2929L305.354 57.1464L301.737 53.5301ZM285 55.5C296.322 55.5 305.5 46.3218 305.5 35C305.5 23.6782 296.322 14.5 285 14.5C273.678 14.5 264.5 23.6782 264.5 35C264.5 46.3218 273.678 55.5 285 55.5Z" fill="#272F5A" fill-opacity="0.32" stroke="white"/>
    </svg>
    