<svg width="13" height="13" viewBox="0 0 13 13" fill="none" xmlns="http://www.w3.org/2000/svg">
<path fill-rule="evenodd" clip-rule="evenodd" d="M9 5C9 7.20914 7.20914 9 5 9C2.79086 9 1 7.20914 1 5C1 2.79086 2.79086 1 5 1C7.20914 1 9 2.79086 9 5ZM8.27674 8.77674C7.3992 9.53876 6.25346 10 5 10C2.23858 10 0 7.76142 0 5C0 2.23858 2.23858 0 5 0C7.76142 0 10 2.23858 10 5C10 6.25346 9.53876 7.3992 8.77674 8.27674L9.5 9H10L12 11C12.2761 11.2761 12.2761 11.7239 12 12C11.7239 12.2761 11.2761 12.2761 11 12L9 10V9.5L8.27674 8.77674Z" fill="#272F5A"/>
</svg>
