<svg width="275" height="152" viewBox="0 0 275 152" fill="none" xmlns="http://www.w3.org/2000/svg">
<path d="M43.864 113V105.392H35.176V113H32.92V96.2H35.176V103.328H43.864V96.2H46.12V113H43.864ZM57.9991 113V103.568L56.6791 106.04L52.6231 113H49.8391V101H51.9991V110.432L53.3191 107.96L57.3751 101H60.1591V113H57.9991ZM70.4809 113V108.896C69.7849 109.04 68.8969 109.184 67.8409 109.184C64.4809 109.184 63.0409 107.744 63.0409 104.6V101H65.2009V104.6C65.2009 106.568 65.8489 107.216 67.8409 107.216C68.8729 107.216 69.8089 107.072 70.4809 106.928V101H72.6409V113H70.4809ZM80.9097 113.192C77.6937 113.192 75.5097 111.008 75.5097 107.456V106.544C75.5097 103.04 77.7417 100.808 80.9097 100.808C84.1017 100.808 86.3097 103.016 86.3097 106.544V107.696H77.7657C77.8377 110.024 79.1097 111.224 80.9097 111.224C82.8057 111.224 83.5017 110.528 83.9817 109.28H86.1897C85.7097 111.632 84.1497 113.192 80.9097 113.192ZM80.9097 102.776C79.2057 102.776 78.0057 103.784 77.7897 105.824H84.0057C83.8137 103.712 82.7097 102.776 80.9097 102.776ZM89.1906 113V101H97.2306V102.968H91.3506V113H89.1906ZM103.834 113.192C100.474 113.192 98.3144 111.032 98.3144 107.456V106.544C98.3144 102.992 100.498 100.808 103.834 100.808C107.194 100.808 109.354 102.968 109.354 106.544V107.456C109.354 111.008 107.17 113.192 103.834 113.192ZM103.834 111.128C105.85 111.128 107.098 109.88 107.098 107.456V106.544C107.098 104.144 105.826 102.872 103.834 102.872C101.818 102.872 100.57 104.12 100.57 106.544V107.456C100.57 109.856 101.842 111.128 103.834 111.128ZM126.39 113V107.864H120.39V113H118.23V101H120.39V105.896H126.39V101H128.55V113H126.39ZM136.832 113.192C133.616 113.192 131.432 111.008 131.432 107.456V106.544C131.432 103.04 133.664 100.808 136.832 100.808C140.024 100.808 142.232 103.016 142.232 106.544V107.696H133.688C133.76 110.024 135.032 111.224 136.832 111.224C138.728 111.224 139.424 110.528 139.904 109.28H142.112C141.632 111.632 140.072 113.192 136.832 113.192ZM136.832 102.776C135.128 102.776 133.928 103.784 133.712 105.824H139.928C139.736 103.712 138.632 102.776 136.832 102.776ZM159.273 113V107.864H153.273V113H151.113V101H153.273V105.896H159.273V101H161.432V113H159.273ZM168.034 113.192C165.538 113.192 164.194 111.848 164.194 109.64C164.194 107.192 165.658 105.728 169.474 105.728H171.874V104.84C171.874 103.496 171.106 102.728 169.474 102.728C167.866 102.728 167.194 103.4 167.074 104.36H164.674C164.794 102.32 166.306 100.808 169.474 100.808C172.474 100.808 174.034 102.368 174.034 104.84V113H172.354L172.09 111.032C171.226 112.4 169.786 113.192 168.034 113.192ZM168.274 111.272C170.362 111.272 171.874 109.76 171.874 107.984V107.552H169.474C167.266 107.552 166.45 108.368 166.45 109.592C166.45 110.6 167.122 111.272 168.274 111.272ZM185.663 113V103.568L184.343 106.04L180.287 113H177.503V101H179.663V110.432L180.983 107.96L185.039 101H187.823V113H185.663ZM182.663 99.512C180.551 99.512 179.303 98.264 179.303 96.2H181.175C181.175 97.448 181.751 98.024 182.663 98.024C183.623 98.024 184.199 97.448 184.199 96.2H186.023C186.023 98.264 184.775 99.512 182.663 99.512ZM200.305 116.12V113H192.025V116.12H189.865V111.032H191.161C192.169 109.64 192.457 108.152 192.457 104.6V101H200.905V111.032H202.465V116.12H200.305ZM194.569 104.6C194.569 108.44 194.137 109.928 193.489 111.032H198.745V102.968H194.569V104.6ZM209.3 113.192C206.084 113.192 203.9 111.008 203.9 107.456V106.544C203.9 103.04 206.132 100.808 209.3 100.808C212.492 100.808 214.7 103.016 214.7 106.544V107.696H206.156C206.228 110.024 207.5 111.224 209.3 111.224C211.196 111.224 211.892 110.528 212.372 109.28H214.58C214.1 111.632 212.54 113.192 209.3 113.192ZM209.3 102.776C207.596 102.776 206.396 103.784 206.18 105.824H212.396C212.204 103.712 211.1 102.776 209.3 102.776ZM225.741 113V107.864H219.741V113H217.581V101H219.741V105.896H225.741V101H227.901V113H225.741ZM236.303 113.192C232.943 113.192 230.783 111.032 230.783 107.456V106.544C230.783 102.992 232.967 100.808 236.303 100.808C239.663 100.808 241.823 102.968 241.823 106.544V107.456C241.823 111.008 239.639 113.192 236.303 113.192ZM236.303 111.128C238.319 111.128 239.567 109.88 239.567 107.456V106.544C239.567 104.144 238.295 102.872 236.303 102.872C234.287 102.872 233.039 104.12 233.039 106.544V107.456C233.039 109.856 234.311 111.128 236.303 111.128Z" fill="#272F5A" fill-opacity="0.32"/>
<path d="M8.64 142V131.824H2.56V142H1.44V130.8H9.76V142H8.64ZM16.1471 142.112C15.0431 142.112 14.1631 141.696 13.6191 140.832V145.2H12.5631V134H13.3791L13.5071 135.344C14.0511 134.368 14.9631 133.888 16.1471 133.888C17.9871 133.888 19.2831 135.184 19.2831 137.648V138.352C19.2831 140.8 17.9711 142.112 16.1471 142.112ZM15.9071 141.12C17.2831 141.12 18.1951 140.208 18.1951 138.352V137.648C18.1951 135.808 17.2671 134.88 15.9071 134.88C14.6271 134.88 13.6671 135.808 13.6191 137.52V138.352C13.6191 140.128 14.5631 141.12 15.9071 141.12ZM24.5563 142.112C22.4283 142.112 21.0363 140.72 21.0363 138.352V137.648C21.0363 135.296 22.4443 133.888 24.5563 133.888C26.6843 133.888 28.0763 135.28 28.0763 137.648V138.352C28.0763 140.704 26.6683 142.112 24.5563 142.112ZM24.5563 141.12C25.9963 141.12 26.9883 140.128 26.9883 138.352V137.648C26.9883 135.888 25.9803 134.88 24.5563 134.88C23.1163 134.88 22.1243 135.872 22.1243 137.648V138.352C22.1243 140.112 23.1323 141.12 24.5563 141.12ZM30.3131 142V134H33.2731C35.2091 134 36.0731 134.864 36.0731 136.192C36.0731 136.88 35.7371 137.472 35.0491 137.856C35.9451 138.208 36.3931 138.896 36.3931 139.712C36.3931 141.136 35.5291 142 33.5931 142H30.3131ZM33.5931 138.4H31.3691V141.04H33.5931C34.8411 141.04 35.3051 140.576 35.3051 139.712C35.3051 138.864 34.8411 138.4 33.5931 138.4ZM33.2731 134.96H31.3691V137.44H33.2731C34.5211 137.44 34.9851 136.976 34.9851 136.192C34.9851 135.424 34.5211 134.96 33.2731 134.96ZM41.5856 142.112C39.4896 142.112 38.1456 140.768 38.1456 138.352V137.648C38.1456 135.248 39.5056 133.888 41.5856 133.888C43.6656 133.888 45.0256 135.248 45.0256 137.648V138.304H39.2336V138.352C39.2336 140.192 40.1616 141.12 41.5856 141.12C42.9136 141.12 43.5376 140.496 43.8576 139.664H44.9456C44.6256 141.04 43.5536 142.112 41.5856 142.112ZM41.5856 134.88C40.2096 134.88 39.3296 135.776 39.2336 137.376H43.9216C43.8416 135.712 42.9296 134.88 41.5856 134.88ZM50.8503 142.112C49.7463 142.112 48.8663 141.696 48.3223 140.832V145.2H47.2663V134H48.0823L48.2103 135.344C48.7543 134.368 49.6663 133.888 50.8503 133.888C52.6903 133.888 53.9862 135.184 53.9862 137.648V138.352C53.9862 140.8 52.6743 142.112 50.8503 142.112ZM50.6102 141.12C51.9863 141.12 52.8983 140.208 52.8983 138.352V137.648C52.8983 135.808 51.9703 134.88 50.6102 134.88C49.3303 134.88 48.3703 135.808 48.3223 137.52V138.352C48.3223 140.128 49.2663 141.12 50.6102 141.12ZM56.2194 142V134H57.2754V136.88H59.0514C61.3234 136.88 62.2994 137.856 62.2994 139.44C62.2994 140.992 61.2914 142 59.0514 142H56.2194ZM59.0514 137.84H57.2754V141.04H59.0514C60.6354 141.04 61.2114 140.448 61.2114 139.44C61.2114 138.432 60.6194 137.84 59.0514 137.84ZM62.4625 134.96V134H68.8625V134.96H66.1905V142H65.1345V134.96H62.4625ZM73.2731 142.112C71.1771 142.112 69.8331 140.768 69.8331 138.352V137.648C69.8331 135.248 71.1931 133.888 73.2731 133.888C75.3531 133.888 76.7131 135.248 76.7131 137.648V138.304H70.9211V138.352C70.9211 140.192 71.8491 141.12 73.2731 141.12C74.6011 141.12 75.2251 140.496 75.5451 139.664H76.6331C76.3131 141.04 75.2411 142.112 73.2731 142.112ZM73.2731 134.88C71.8971 134.88 71.0171 135.776 70.9211 137.376H75.6091C75.5291 135.712 74.6171 134.88 73.2731 134.88ZM84.8738 142.112C83.2738 142.112 82.3938 141.232 82.3938 139.792C82.3938 138.24 83.3538 137.28 85.7538 137.28H87.5778V136.56C87.5778 135.408 87.0498 134.88 85.7538 134.88C84.5858 134.88 84.0098 135.376 83.9298 136.16H82.7938C82.8738 134.848 83.8338 133.888 85.7538 133.888C87.6418 133.888 88.6338 134.88 88.6338 136.56V142H87.8178L87.6578 140.496C87.0978 141.504 86.0738 142.112 84.8738 142.112ZM84.9538 141.12C86.4258 141.12 87.5778 139.968 87.5778 138.608V138.24H85.7538C84.1058 138.24 83.4818 138.864 83.4818 139.792C83.4818 140.608 83.9938 141.12 84.9538 141.12ZM97.3303 144.08V142H91.2023V144.08H90.1463V141.04H90.9943C91.7463 139.904 91.9062 139.056 91.9062 136.4V134H97.2663V141.04H98.3863V144.08H97.3303ZM92.9623 136.4C92.9623 139.056 92.7543 140.032 92.2263 141.04H96.2103V134.96H92.9623V136.4ZM103.647 142.112C102.543 142.112 101.663 141.696 101.119 140.832V145.2H100.063V134H100.879L101.007 135.344C101.551 134.368 102.463 133.888 103.647 133.888C105.487 133.888 106.783 135.184 106.783 137.648V138.352C106.783 140.8 105.471 142.112 103.647 142.112ZM103.407 141.12C104.783 141.12 105.695 140.208 105.695 138.352V137.648C105.695 135.808 104.767 134.88 103.407 134.88C102.127 134.88 101.167 135.808 101.119 137.52V138.352C101.119 140.128 102.063 141.12 103.407 141.12ZM111.976 142.112C109.88 142.112 108.536 140.768 108.536 138.352V137.648C108.536 135.248 109.896 133.888 111.976 133.888C114.056 133.888 115.416 135.248 115.416 137.648V138.304H109.624V138.352C109.624 140.192 110.552 141.12 111.976 141.12C113.304 141.12 113.928 140.496 114.248 139.664H115.336C115.016 141.04 113.944 142.112 111.976 142.112ZM111.976 134.88C110.6 134.88 109.72 135.776 109.624 137.376H114.312C114.232 135.712 113.32 134.88 111.976 134.88ZM120.617 142.112C118.569 142.112 117.177 140.72 117.177 138.352V137.648C117.177 135.296 118.585 133.888 120.617 133.888C122.393 133.888 123.417 134.912 123.737 136.16H122.617C122.297 135.424 121.753 134.88 120.617 134.88C119.257 134.88 118.265 135.872 118.265 137.648V138.352C118.265 140.112 119.273 141.12 120.617 141.12C121.753 141.12 122.297 140.576 122.617 139.68H123.737C123.417 141.088 122.393 142.112 120.617 142.112ZM135.239 142V135.216L134.247 136.88L131.047 142H129.735V134H130.791V140.8L131.783 139.12L134.983 134H136.295V142H135.239ZM148.2 142V134.96H144.072V142H143.016V134H149.256V142H148.2ZM155.009 142.112C152.881 142.112 151.489 140.72 151.489 138.352V137.648C151.489 135.296 152.897 133.888 155.009 133.888C157.137 133.888 158.529 135.28 158.529 137.648V138.352C158.529 140.704 157.121 142.112 155.009 142.112ZM155.009 141.12C156.449 141.12 157.441 140.128 157.441 138.352V137.648C157.441 135.888 156.433 134.88 155.009 134.88C153.569 134.88 152.577 135.872 152.577 137.648V138.352C152.577 140.112 153.585 141.12 155.009 141.12ZM165.95 142V134.96H161.822V142H160.766V134H167.006V142H165.95ZM173.303 142.112C172.199 142.112 171.319 141.696 170.775 140.832V145.2H169.719V134H170.535L170.663 135.344C171.207 134.368 172.119 133.888 173.303 133.888C175.143 133.888 176.439 135.184 176.439 137.648V138.352C176.439 140.8 175.127 142.112 173.303 142.112ZM173.063 141.12C174.439 141.12 175.351 140.208 175.351 138.352V137.648C175.351 135.808 174.423 134.88 173.063 134.88C171.783 134.88 170.823 135.808 170.775 137.52V138.352C170.775 140.128 171.719 141.12 173.063 141.12ZM181.713 142.112C179.585 142.112 178.193 140.72 178.193 138.352V137.648C178.193 135.296 179.601 133.888 181.713 133.888C183.841 133.888 185.233 135.28 185.233 137.648V138.352C185.233 140.704 183.825 142.112 181.713 142.112ZM181.713 141.12C183.153 141.12 184.145 140.128 184.145 138.352V137.648C184.145 135.888 183.137 134.88 181.713 134.88C180.273 134.88 179.281 135.872 179.281 137.648V138.352C179.281 140.112 180.289 141.12 181.713 141.12ZM190.525 142.112C188.349 142.112 186.989 140.752 186.989 137.712V136.688C186.989 134.496 187.341 132.544 188.813 131.664C190.141 130.88 191.341 131.328 193.389 130.688V131.664C191.789 132.256 190.317 131.856 189.293 132.512C188.493 133.04 188.125 133.92 187.997 135.456C188.557 134.528 189.501 134.048 190.717 134.048C192.637 134.048 194.029 135.44 194.029 137.728V138.432C194.029 140.688 192.605 142.112 190.525 142.112ZM190.525 135.04C189.069 135.04 188.125 135.952 188.077 137.6V138.432C188.077 140.128 189.069 141.12 190.525 141.12C191.981 141.12 192.941 140.16 192.941 138.432V137.728C192.941 136.016 191.965 135.04 190.525 135.04ZM197.074 145.2L198.306 142L194.994 134H196.178L198.882 140.688L201.394 134H202.514L198.194 145.2H197.074ZM209.77 142V135.216L208.778 136.88L205.578 142H204.266V134H205.322V140.8L206.314 139.12L209.514 134H210.826V142H209.77ZM207.546 132.992C206.218 132.992 205.386 132.176 205.386 130.8H206.41C206.41 131.744 206.826 132.16 207.546 132.16C208.298 132.16 208.714 131.744 208.714 130.8H209.706C209.706 132.176 208.874 132.992 207.546 132.992ZM212.588 134.96V134H218.988V134.96H216.316V142H215.26V134.96H212.588ZM223.398 142.112C221.302 142.112 219.958 140.768 219.958 138.352V137.648C219.958 135.248 221.318 133.888 223.398 133.888C225.478 133.888 226.838 135.248 226.838 137.648V138.304H221.046V138.352C221.046 140.192 221.974 141.12 223.398 141.12C224.726 141.12 225.35 140.496 225.67 139.664H226.758C226.438 141.04 225.366 142.112 223.398 142.112ZM223.398 134.88C222.022 134.88 221.142 135.776 221.046 137.376H225.734C225.654 135.712 224.742 134.88 223.398 134.88ZM236.039 142.112C233.991 142.112 232.599 140.72 232.599 138.352V137.648C232.599 135.296 234.007 133.888 236.039 133.888C237.815 133.888 238.839 134.912 239.159 136.16H238.039C237.719 135.424 237.175 134.88 236.039 134.88C234.679 134.88 233.687 135.872 233.687 137.648V138.352C233.687 140.112 234.695 141.12 236.039 141.12C237.175 141.12 237.719 140.576 238.039 139.68H239.159C238.839 141.088 237.815 142.112 236.039 142.112ZM246.661 142V138.4H242.213V142H241.157V134H242.213V137.44H246.661V134H247.717V142H246.661ZM253.478 142.112C251.35 142.112 249.958 140.72 249.958 138.352V137.648C249.958 135.296 251.366 133.888 253.478 133.888C255.606 133.888 256.998 135.28 256.998 137.648V138.352C256.998 140.704 255.59 142.112 253.478 142.112ZM253.478 141.12C254.918 141.12 255.91 140.128 255.91 138.352V137.648C255.91 135.888 254.902 134.88 253.478 134.88C252.038 134.88 251.046 135.872 251.046 137.648V138.352C251.046 140.112 252.054 141.12 253.478 141.12ZM259.235 142V134H262.195C264.131 134 264.995 134.864 264.995 136.192C264.995 136.88 264.659 137.472 263.971 137.856C264.867 138.208 265.315 138.896 265.315 139.712C265.315 141.136 264.451 142 262.515 142H259.235ZM262.515 138.4H260.291V141.04H262.515C263.763 141.04 264.227 140.576 264.227 139.712C264.227 138.864 263.763 138.4 262.515 138.4ZM262.195 134.96H260.291V137.44H262.195C263.443 137.44 263.907 136.976 263.907 136.192C263.907 135.424 263.443 134.96 262.195 134.96ZM269.468 142.112C267.868 142.112 266.988 141.232 266.988 139.792C266.988 138.24 267.948 137.28 270.348 137.28H272.172V136.56C272.172 135.408 271.644 134.88 270.348 134.88C269.18 134.88 268.604 135.376 268.524 136.16H267.388C267.468 134.848 268.428 133.888 270.348 133.888C272.236 133.888 273.228 134.88 273.228 136.56V142H272.412L272.252 140.496C271.692 141.504 270.668 142.112 269.468 142.112ZM269.548 141.12C271.02 141.12 272.172 139.968 272.172 138.608V138.24H270.348C268.7 138.24 268.076 138.864 268.076 139.792C268.076 140.608 268.588 141.12 269.548 141.12Z" fill="#272F5A" fill-opacity="0.32"/>
<path fill-rule="evenodd" clip-rule="evenodd" d="M127.5 24.5C126.672 24.5 126 25.1716 126 26V33.5H123C122.172 33.5 121.5 34.1716 121.5 35V44H142.5V31.25C142.5 30.4216 141.828 29.75 141 29.75H138V26C138 25.1716 137.328 24.5 136.5 24.5H127.5ZM138 31.25V42.5H141V31.25H138ZM123 35H126V42.5H123V35ZM136.5 26H127.5V42.5H130.5V39.5H133.5V42.5H136.5V26ZM133.5 32H130.5V33.5H133.5V32ZM130.5 29H133.5V30.5H130.5V29ZM133.5 35H130.5V36.5H133.5V35Z" fill="#272F5A" fill-opacity="0.32"/>
<path d="M148.737 53.5301L148.408 53.2006L148.056 53.5062C143.756 57.2403 138.142 59.5 132 59.5C118.469 59.5 107.5 48.531 107.5 35C107.5 21.469 118.469 10.5 132 10.5C145.531 10.5 156.5 21.469 156.5 35C156.5 41.1423 154.24 46.7556 150.506 51.0559L150.201 51.4077L150.53 51.7372L154.146 55.3536L154.293 55.5H154.5H156.793L166.646 65.3536C167.832 66.539 167.832 68.461 166.646 69.6464C165.461 70.8319 163.539 70.8319 162.354 69.6464L152.5 59.7929V57.5V57.2929L152.354 57.1464L148.737 53.5301ZM132 55.5C143.322 55.5 152.5 46.3218 152.5 35C152.5 23.6782 143.322 14.5 132 14.5C120.678 14.5 111.5 23.6782 111.5 35C111.5 46.3218 120.678 55.5 132 55.5Z" fill="#272F5A" fill-opacity="0.32" stroke="white"/>
</svg>
