<svg width="16" height="16" viewBox="0 0 16 16" fill="none" xmlns="http://www.w3.org/2000/svg">
<path fill-rule="evenodd" clip-rule="evenodd" d="M14.0075 13.04L8 2.96L1.99246 13.04L14.0075 13.04ZM8.85822 2.48C8.47679 1.84 7.52321 1.84 7.14178 2.48L1.13425 12.56C0.752815 13.2 1.2296 14 1.99246 14H14.0075C14.7704 14 15.2472 13.2 14.8658 12.56L8.85822 2.48ZM8 5.5C8.27614 5.5 8.5 5.72386 8.5 6V9.5C8.5 9.77614 8.27614 10 8 10C7.72386 10 7.5 9.77614 7.5 9.5V6C7.5 5.72386 7.72386 5.5 8 5.5ZM8 12C8.27614 12 8.5 11.7761 8.5 11.5C8.5 11.2239 8.27614 11 8 11C7.72386 11 7.5 11.2239 7.5 11.5C7.5 11.7761 7.72386 12 8 12Z" fill="#FC525B"/>
</svg>
