<svg width="16" height="16" viewBox="0 0 16 16" fill="none" xmlns="http://www.w3.org/2000/svg">
<path d="M8 2C4.68827 2 2 4.68827 2 8C2 11.3117 4.68827 14 8 14C10.9595 14 13.4216 11.8527 13.9115 9.03125L13.5833 8.97396C13.1208 11.6381 10.7985 13.6667 8 13.6667C6.49586 13.6667 5.12869 13.0799 4.11458 12.125L12.125 4.11458C13.0799 5.12869 13.6667 6.49586 13.6667 8H14C14 4.68827 11.3117 2 8 2ZM8 2.33333C9.50414 2.33333 10.8713 2.92013 11.8854 3.875L3.875 11.8854C2.92013 10.8713 2.33333 9.50414 2.33333 8C2.33333 4.86841 4.86841 2.33333 8 2.33333Z" fill="#272F5A" stroke="#272F5A" stroke-width="0.5"/>
</svg>
