<svg width="16" height="16" viewBox="0 0 16 16" fill="none" xmlns="http://www.w3.org/2000/svg">
<path fill-rule="evenodd" clip-rule="evenodd" d="M3 4C3.55228 4 4 4.44772 4 5V11C4 11.5523 3.55228 12 3 12C2.44772 12 2 11.5523 2 11V10V6V5C2 4.44772 2.44772 4 3 4ZM1 10V6H0V5H1C1 3.89543 1.89542 3 3 3C3.59735 3 4.13354 3.26188 4.5 3.67709C4.86646 3.26188 5.40265 3 6 3C6.59735 3 7.13354 3.26188 7.5 3.67709C7.86646 3.26188 8.40265 3 9 3C9.59735 3 10.1335 3.26188 10.5 3.67709C10.8665 3.26188 11.4026 3 12 3C13.1046 3 14 3.89543 14 5H14.5C15.3284 5 16 5.67157 16 6.5V8H15V6.5C15 6.22385 14.7762 6 14.5 6H14V10H16V11H14C14 12.1046 13.1046 13 12 13C11.4026 13 10.8665 12.7381 10.5 12.3229C10.1335 12.7381 9.59735 13 9 13C8.40265 13 7.86646 12.7381 7.5 12.3229C7.13354 12.7381 6.59735 13 6 13C5.40265 13 4.86646 12.7381 4.5 12.3229C4.13354 12.7381 3.59735 13 3 13C1.89542 13 1 12.1046 1 11H0V10H1ZM10 11V5C10 4.44772 9.55228 4 9 4C8.44772 4 8 4.44772 8 5V11C8 11.5523 8.44772 12 9 12C9.55228 12 10 11.5523 10 11ZM11 5V11C11 11.5523 11.4477 12 12 12C12.5523 12 13 11.5523 13 11V5C13 4.44772 12.5523 4 12 4C11.4477 4 11 4.44772 11 5ZM6 4C6.55228 4 7 4.44772 7 5V11C7 11.5523 6.55228 12 6 12C5.44772 12 5 11.5523 5 11V5C5 4.44772 5.44772 4 6 4Z" fill="#272F5A"/>
</svg>
