<svg width="16" height="16" viewBox="0 0 16 16" fill="none" xmlns="http://www.w3.org/2000/svg">
<path d="M12.4839 1C11.0967 1 9.96774 2.10856 9.96774 3.47059C9.96774 3.79882 10.0323 4.11023 10.1512 4.39706L6.48841 6.47518C6.02723 5.90085 5.31687 5.52941 4.51613 5.52941C3.12899 5.52941 2 6.63797 2 8C2 9.36203 3.12899 10.4706 4.51613 10.4706C5.31687 10.4706 6.02723 10.0991 6.48841 9.52482L10.1643 11.6094C10.0465 11.8955 9.96774 12.2026 9.96774 12.5294C9.96774 13.8914 11.0967 15 12.4839 15C13.871 15 15 13.8914 15 12.5294C15 11.1674 13.871 10.0588 12.4839 10.0588C12.2494 10.0588 12.0248 10.0897 11.809 10.1489L11.9204 10.5478C12.1 10.4986 12.2877 10.4706 12.4839 10.4706C13.6444 10.4706 14.5806 11.3899 14.5806 12.5294C14.5806 13.6689 13.6444 14.5882 12.4839 14.5882C11.3234 14.5882 10.3871 13.6689 10.3871 12.5294C10.3871 12.1999 10.4638 11.8914 10.6033 11.6158L10.6951 11.4421L10.5247 11.3456L6.73085 9.18382V9.17739C6.92478 8.82736 7.03226 8.42563 7.03226 8C7.03226 7.57245 6.9264 7.16732 6.73085 6.81618L10.3412 4.76379C10.7846 5.4703 11.5787 5.94118 12.4839 5.94118C13.871 5.94118 15 4.83262 15 3.47059C15 2.10856 13.871 1 12.4839 1ZM12.4839 1.41176C13.6444 1.41176 14.5806 2.33109 14.5806 3.47059C14.5806 4.61008 13.6444 5.52941 12.4839 5.52941C11.3234 5.52941 10.3871 4.61008 10.3871 3.47059C10.3871 2.33109 11.3234 1.41176 12.4839 1.41176ZM4.51613 5.94118C5.67663 5.94118 6.6129 6.8605 6.6129 8C6.6129 9.1395 5.67663 10.0588 4.51613 10.0588C3.35563 10.0588 2.41935 9.1395 2.41935 8C2.41935 6.8605 3.35563 5.94118 4.51613 5.94118Z" fill="#17B45A" stroke="#17B45A" stroke-width="0.5"/>
</svg>
