<svg width="16" height="16" viewBox="0 0 16 16" fill="none" xmlns="http://www.w3.org/2000/svg">
<path fill-rule="evenodd" clip-rule="evenodd" d="M5.55521 12.5055L4.03033 14.0304L2.96967 12.9697L13.9697 1.96973L15.0303 3.03039L12.9661 5.09465C14.2364 6.22745 15 7.49555 15 8.00006C15 9.00006 12 13.0001 8 13.0001C7.13104 13.0001 6.30928 12.8113 5.55521 12.5055ZM6.33445 11.7263C6.86602 11.8999 7.42442 12.0001 8 12.0001C9.66549 12.0001 11.1872 11.1612 12.331 10.1318C12.8964 9.62289 13.341 9.09202 13.6367 8.64848C13.7849 8.42619 13.8865 8.23963 13.9473 8.10073C13.9664 8.05729 13.979 8.02399 13.9873 8.00006C13.979 7.97613 13.9664 7.94282 13.9473 7.89938C13.8865 7.76048 13.7849 7.57392 13.6367 7.35163C13.341 6.9081 12.8964 6.37722 12.331 5.86835C12.3068 5.84649 12.2823 5.82472 12.2577 5.80304L9.99907 8.06165C9.96714 9.11727 9.11721 9.9672 8.06159 9.99913L6.33445 11.7263ZM1 8.00006C1 8.50456 1.76357 9.77264 3.03391 10.9054L3.7423 10.197C3.71768 10.1754 3.69324 10.1536 3.66896 10.1318C3.10355 9.62289 2.65899 9.09202 2.3633 8.64848C2.21511 8.42619 2.11353 8.23963 2.05268 8.10073C2.03364 8.05729 2.02101 8.02399 2.01271 8.00006C2.02101 7.97613 2.03364 7.94282 2.05268 7.89938C2.11353 7.76048 2.21511 7.57392 2.3633 7.35163C2.65899 6.9081 3.10355 6.37722 3.66896 5.86835C4.81283 4.83887 6.33451 4.00006 8 4.00006C8.57556 4.00006 9.13395 4.10023 9.6655 4.27384L10.4447 3.49459C9.69069 3.18882 8.86894 3.00006 8 3.00006C4 3.00006 1 7.00006 1 8.00006Z" fill="#272F5A"/>
</svg>
