<svg width="16" height="16" viewBox="0 0 16 16" fill="none" xmlns="http://www.w3.org/2000/svg">
<path fill-rule="evenodd" clip-rule="evenodd" d="M13.9473 7.89932C13.9664 7.94277 13.979 7.97607 13.9873 8C13.979 8.02393 13.9664 8.05723 13.9473 8.10068C13.8865 8.23957 13.7849 8.42613 13.6367 8.64842C13.341 9.09196 12.8964 9.62283 12.331 10.1317C11.1872 11.1612 9.66549 12 8 12C6.33451 12 4.81283 11.1612 3.66896 10.1317C3.10355 9.62283 2.65899 9.09196 2.3633 8.64842C2.21511 8.42613 2.11353 8.23957 2.05268 8.10068C2.03364 8.05723 2.02101 8.02393 2.01271 8C2.02101 7.97607 2.03364 7.94277 2.05268 7.89932C2.11353 7.76043 2.21511 7.57387 2.3633 7.35158C2.65899 6.90804 3.10355 6.37717 3.66896 5.86829C4.81283 4.83881 6.33451 4 8 4C9.66549 4 11.1872 4.83881 12.331 5.86829C12.8964 6.37717 13.341 6.90804 13.6367 7.35158C13.7849 7.57387 13.8865 7.76043 13.9473 7.89932ZM15 8C15 9 12 13 8 13C4 13 1 9 1 8C1 7 4 3 8 3C12 3 15 7 15 8ZM8 8L7.10538 6.21075C7.37457 6.0759 7.67842 6 8 6C9.10457 6 10 6.89543 10 8C10 9.10457 9.10457 10 8 10C6.89543 10 6 9.10457 6 8H8ZM6.38604 6.81862C6.39461 6.80693 6.4033 6.79533 6.41212 6.78384L6.38604 6.81862Z" fill="#272F5A"/>
</svg>
