<svg width="375" height="120" viewBox="0 0 375 120" fill="none" xmlns="http://www.w3.org/2000/svg">
<path d="M2.16 113H7.8C11.76 113 13.44 111.32 13.44 108.296C13.44 106.4 12.552 104.96 10.656 104.264C12.216 103.544 12.96 102.248 12.96 100.664C12.96 97.88 11.28 96.2 7.32 96.2H2.16V113ZM7.8 105.128C10.608 105.128 11.712 106.232 11.712 108.296C11.712 110.36 10.608 111.464 7.8 111.464H3.84V105.128H7.8ZM7.32 97.736C10.128 97.736 11.232 98.84 11.232 100.664C11.232 102.488 10.128 103.592 7.32 103.592H3.84V97.736H7.32ZM16.9228 113H21.8428C24.7468 113 26.0428 111.704 26.0428 109.568C26.0428 108.344 25.3708 107.312 24.0268 106.784C25.0588 106.208 25.5628 105.32 25.5628 104.288C25.5628 102.296 24.2668 101 21.3628 101H16.9228V113ZM21.8428 107.6C23.7148 107.6 24.4108 108.296 24.4108 109.568C24.4108 110.864 23.7148 111.56 21.8428 111.56H18.5068V107.6H21.8428ZM21.3628 102.44C23.2348 102.44 23.9308 103.136 23.9308 104.288C23.9308 105.464 23.2348 106.16 21.3628 106.16H18.5068V102.44H21.3628ZM33.8316 113.168C36.7836 113.168 38.3916 111.56 38.8716 109.496H37.2396C36.7596 110.744 35.8236 111.68 33.8316 111.68C31.6956 111.68 30.3036 110.288 30.3036 107.528V107.456H38.9916V106.472C38.9916 102.872 36.9516 100.832 33.8316 100.832C30.7116 100.832 28.6716 102.872 28.6716 106.472V107.528C28.6716 111.152 30.6876 113.168 33.8316 113.168ZM33.8316 102.32C35.8476 102.32 37.2156 103.568 37.3356 106.064H30.3036C30.4476 103.664 31.7676 102.32 33.8316 102.32ZM51.2141 116.12H52.7981V111.56H51.1181V101H43.0781V104.6C43.0781 108.584 42.8381 109.856 41.7101 111.56H40.4381V116.12H42.0221V113H51.2141V116.12ZM44.6621 104.6V102.44H49.5341V111.56H43.5581C44.3501 110.048 44.6621 108.584 44.6621 104.6ZM63.5694 113H65.1534V101H63.1854L58.3854 108.68L56.8974 111.2V101H55.3134V113H57.2814L62.0814 105.32L63.5694 102.824V113ZM67.7953 102.44H71.8033V113H73.3873V102.44H77.3953V101H67.7953V102.44ZM84.0113 113.168C86.9633 113.168 88.5713 111.56 89.0513 109.496H87.4193C86.9393 110.744 86.0033 111.68 84.0113 111.68C81.8753 111.68 80.4833 110.288 80.4833 107.528V107.456H89.1713V106.472C89.1713 102.872 87.1313 100.832 84.0113 100.832C80.8913 100.832 78.8513 102.872 78.8513 106.472V107.528C78.8513 111.152 80.8673 113.168 84.0113 113.168ZM84.0113 102.32C86.0273 102.32 87.3953 103.568 87.5153 106.064H80.4833C80.6273 103.664 81.9473 102.32 84.0113 102.32ZM101.412 113.168C103.212 113.168 104.748 112.256 105.588 110.744L105.828 113H107.052V104.84C107.052 102.32 105.564 100.832 102.732 100.832C99.8522 100.832 98.4122 102.272 98.2922 104.24H99.9962C100.116 103.064 100.98 102.32 102.732 102.32C104.676 102.32 105.468 103.112 105.468 104.84V105.92H102.732C99.1322 105.92 97.6922 107.36 97.6922 109.688C97.6922 111.848 99.0122 113.168 101.412 113.168ZM101.532 111.68C100.092 111.68 99.3242 110.912 99.3242 109.688C99.3242 108.296 100.26 107.36 102.732 107.36H105.468V107.912C105.468 109.952 103.74 111.68 101.532 111.68ZM120.097 116.12H121.681V111.56H120.001V101H111.961V104.6C111.961 108.584 111.721 109.856 110.593 111.56H109.321V116.12H110.905V113H120.097V116.12ZM113.545 104.6V102.44H118.417V111.56H112.441C113.233 110.048 113.545 108.584 113.545 104.6ZM129.572 113.168C132.308 113.168 134.276 111.2 134.276 107.528V106.472C134.276 102.776 132.332 100.832 129.572 100.832C127.796 100.832 126.428 101.552 125.612 103.016L125.42 101H124.196V117.8H125.78V111.248C126.596 112.544 127.916 113.168 129.572 113.168ZM129.212 111.68C127.196 111.68 125.78 110.192 125.78 107.528V106.28C125.852 103.712 127.292 102.32 129.212 102.32C131.252 102.32 132.644 103.712 132.644 106.472V107.528C132.644 110.312 131.276 111.68 129.212 111.68ZM142.066 113.168C145.018 113.168 146.626 111.56 147.106 109.496H145.474C144.994 110.744 144.058 111.68 142.066 111.68C139.93 111.68 138.538 110.288 138.538 107.528V107.456H147.226V106.472C147.226 102.872 145.186 100.832 142.066 100.832C138.946 100.832 136.906 102.872 136.906 106.472V107.528C136.906 111.152 138.922 113.168 142.066 113.168ZM142.066 102.32C144.082 102.32 145.45 103.568 145.57 106.064H138.538C138.682 103.664 140.002 102.32 142.066 102.32ZM155.027 113.168C157.691 113.168 159.227 111.632 159.707 109.52H158.027C157.547 110.864 156.731 111.68 155.027 111.68C153.011 111.68 151.499 110.168 151.499 107.528V106.472C151.499 103.808 152.987 102.32 155.027 102.32C156.731 102.32 157.547 103.136 158.027 104.24H159.707C159.227 102.368 157.691 100.832 155.027 100.832C151.979 100.832 149.867 102.944 149.867 106.472V107.528C149.867 111.08 151.955 113.168 155.027 113.168ZM177.8 116.12H179.384V111.56H177.704V101H169.664V104.6C169.664 108.584 169.424 109.856 168.296 111.56H167.024V116.12H168.608V113H177.8V116.12ZM171.248 104.6V102.44H176.12V111.56H170.144C170.936 110.048 171.248 108.584 171.248 104.6ZM180.808 113.168H181.168C183.376 113.168 184.792 111.752 184.792 106.76V102.44H189.784V113H191.368V101H183.208V106.76C183.208 110.768 182.296 111.68 181.168 111.68H180.808V113.168ZM194.726 104.768C194.726 106.4 195.374 107.576 196.934 108.152L194.246 113H196.07L198.494 108.488C198.854 108.536 199.238 108.536 199.646 108.536H202.022V113H203.606V101H199.646C196.118 101 194.726 102.392 194.726 104.768ZM196.358 104.768C196.358 103.256 197.174 102.44 199.646 102.44H202.022V107.096H199.646C197.174 107.096 196.358 106.28 196.358 104.768ZM221.937 113H223.521V101H221.937V106.16H215.265V101H213.681V113H215.265V107.6H221.937V113ZM230.483 113.168C232.283 113.168 233.819 112.256 234.659 110.744L234.899 113H236.123V104.84C236.123 102.32 234.635 100.832 231.803 100.832C228.923 100.832 227.483 102.272 227.363 104.24H229.067C229.187 103.064 230.051 102.32 231.803 102.32C233.747 102.32 234.539 103.112 234.539 104.84V105.92H231.803C228.203 105.92 226.763 107.36 226.763 109.688C226.763 111.848 228.083 113.168 230.483 113.168ZM230.603 111.68C229.163 111.68 228.395 110.912 228.395 109.688C228.395 108.296 229.331 107.36 231.803 107.36H234.539V107.912C234.539 109.952 232.811 111.68 230.603 111.68ZM246.887 113H248.471V101H246.887V107.12C246.191 107.288 245.111 107.48 243.911 107.48C241.703 107.48 240.935 106.712 240.935 104.6V101H239.351V104.6C239.351 107.552 240.719 108.92 243.911 108.92C245.135 108.92 246.191 108.728 246.887 108.56V113ZM255.42 113.168C257.22 113.168 258.756 112.256 259.596 110.744L259.836 113H261.06V104.84C261.06 102.32 259.572 100.832 256.74 100.832C253.86 100.832 252.42 102.272 252.3 104.24H254.004C254.124 103.064 254.988 102.32 256.74 102.32C258.684 102.32 259.476 103.112 259.476 104.84V105.92H256.74C253.14 105.92 251.7 107.36 251.7 109.688C251.7 111.848 253.02 113.168 255.42 113.168ZM255.54 111.68C254.1 111.68 253.332 110.912 253.332 109.688C253.332 108.296 254.268 107.36 256.74 107.36H259.476V107.912C259.476 109.952 257.748 111.68 255.54 111.68ZM263.449 113.168H263.809C266.017 113.168 267.433 111.752 267.433 106.76V102.44H272.425V113H274.009V101H265.849V106.76C265.849 110.768 264.937 111.68 263.809 111.68H263.449V113.168ZM280.967 113.168C282.767 113.168 284.303 112.256 285.143 110.744L285.383 113H286.607V104.84C286.607 102.32 285.119 100.832 282.287 100.832C279.407 100.832 277.967 102.272 277.847 104.24H279.551C279.671 103.064 280.535 102.32 282.287 102.32C284.231 102.32 285.023 103.112 285.023 104.84V105.92H282.287C278.687 105.92 277.247 107.36 277.247 109.688C277.247 111.848 278.567 113.168 280.967 113.168ZM281.087 111.68C279.647 111.68 278.879 110.912 278.879 109.688C278.879 108.296 279.815 107.36 282.287 107.36H285.023V107.912C285.023 109.952 283.295 111.68 281.087 111.68ZM301.932 113.168C304.668 113.168 306.636 111.2 306.636 107.528V106.472C306.636 102.776 304.692 100.832 301.932 100.832C300.156 100.832 298.788 101.552 297.972 103.016L297.78 101H296.556V117.8H298.14V111.248C298.956 112.544 300.276 113.168 301.932 113.168ZM301.572 111.68C299.556 111.68 298.14 110.192 298.14 107.528V106.28C298.212 103.712 299.652 102.32 301.572 102.32C303.612 102.32 305.004 103.712 305.004 106.472V107.528C305.004 110.312 303.636 111.68 301.572 111.68ZM312.865 113.168C314.665 113.168 316.201 112.256 317.041 110.744L317.281 113H318.505V104.84C318.505 102.32 317.017 100.832 314.185 100.832C311.305 100.832 309.865 102.272 309.745 104.24H311.449C311.569 103.064 312.433 102.32 314.185 102.32C316.129 102.32 316.921 103.112 316.921 104.84V105.92H314.185C310.585 105.92 309.145 107.36 309.145 109.688C309.145 111.848 310.465 113.168 312.865 113.168ZM312.985 111.68C311.545 111.68 310.777 110.912 310.777 109.688C310.777 108.296 311.713 107.36 314.185 107.36H316.921V107.912C316.921 109.952 315.193 111.68 312.985 111.68ZM327.038 113.168C330.158 113.168 332.294 111.032 332.294 107.648V106.592C332.294 103.16 330.206 101.072 327.326 101.072C325.502 101.072 324.086 101.792 323.246 103.184C323.438 100.88 323.99 99.56 325.19 98.768C326.726 97.784 328.934 98.384 331.334 97.496V96.032C328.262 96.992 326.462 96.32 324.47 97.496C322.262 98.816 321.734 101.744 321.734 105.032V106.568C321.734 111.128 323.774 113.168 327.038 113.168ZM327.038 102.56C329.198 102.56 330.662 104.024 330.662 106.592V107.648C330.662 110.24 329.222 111.68 327.038 111.68C324.854 111.68 323.366 110.192 323.366 107.648V106.4C323.438 103.928 324.854 102.56 327.038 102.56ZM340.209 113.168C343.377 113.168 345.489 111.056 345.489 107.528V106.472C345.489 102.92 343.401 100.832 340.209 100.832C337.041 100.832 334.929 102.944 334.929 106.472V107.528C334.929 111.08 337.017 113.168 340.209 113.168ZM340.209 111.68C338.073 111.68 336.561 110.168 336.561 107.528V106.472C336.561 103.808 338.049 102.32 340.209 102.32C342.345 102.32 343.857 103.832 343.857 106.472V107.528C343.857 110.192 342.369 111.68 340.209 111.68ZM346.936 102.44H350.944V113H352.528V102.44H356.536V101H346.936V102.44ZM359.181 113H363.429C366.765 113 368.301 111.464 368.301 109.16C368.301 106.808 366.813 105.32 363.429 105.32H360.765V101H359.181V113ZM363.429 106.76C365.757 106.76 366.669 107.672 366.669 109.16C366.669 110.672 365.805 111.56 363.429 111.56H360.765V106.76H363.429ZM370.557 113H372.141V101H370.557V113Z" fill="#272F5A" fill-opacity="0.32"/>
<path fill-rule="evenodd" clip-rule="evenodd" d="M178.5 24.5C177.672 24.5 177 25.1716 177 26V33.5H174C173.172 33.5 172.5 34.1716 172.5 35V44H193.5V31.25C193.5 30.4216 192.828 29.75 192 29.75H189V26C189 25.1716 188.328 24.5 187.5 24.5H178.5ZM189 31.25V42.5H192V31.25H189ZM174 35H177V42.5H174V35ZM187.5 26H178.5V42.5H181.5V39.5H184.5V42.5H187.5V26ZM184.5 32H181.5V33.5H184.5V32ZM181.5 29H184.5V30.5H181.5V29ZM184.5 35H181.5V36.5H184.5V35Z" fill="#272F5A" fill-opacity="0.32"/>
<path d="M199.737 53.5301L199.408 53.2006L199.056 53.5062C194.756 57.2403 189.142 59.5 183 59.5C169.469 59.5 158.5 48.531 158.5 35C158.5 21.469 169.469 10.5 183 10.5C196.531 10.5 207.5 21.469 207.5 35C207.5 41.1423 205.24 46.7556 201.506 51.0559L201.201 51.4077L201.53 51.7372L205.146 55.3536L205.293 55.5H205.5H207.793L217.646 65.3536C218.832 66.539 218.832 68.461 217.646 69.6464C216.461 70.8319 214.539 70.8319 213.354 69.6464L203.5 59.7929V57.5V57.2929L203.354 57.1464L199.737 53.5301ZM183 55.5C194.322 55.5 203.5 46.3218 203.5 35C203.5 23.6782 194.322 14.5 183 14.5C171.678 14.5 162.5 23.6782 162.5 35C162.5 46.3218 171.678 55.5 183 55.5Z" fill="#272F5A" fill-opacity="0.32" stroke="white"/>
</svg>
