<svg width="28" height="24" viewBox="0 0 28 24" fill="none" xmlns="http://www.w3.org/2000/svg">
<path fill-rule="evenodd" clip-rule="evenodd" d="M13.154 0.217739C13.4173 0.0725791 13.7086 0 14 0C14.2914 0 14.5827 0.0725803 14.846 0.217739L27.0947 7.8917C28.3396 8.57801 28.2904 10.3823 27.01 10.9999L14.7614 17.826C14.5209 17.942 14.2604 18 14 18C13.7396 18 13.4791 17.942 13.2386 17.826L0.989968 10.9999C-0.290435 10.3823 -0.33956 8.57801 0.90533 7.89171L13.154 0.217739ZM14.1209 1.53111C14.0456 1.48963 13.9544 1.48963 13.8791 1.53111L11.2039 3.2072L18.7709 7.65235L21.3207 6.04194L14.1209 1.53111ZM1.6305 9.20507L9.7731 4.1036L17.3664 8.53941L14.5995 10.2869L16 11.1765L22.7309 6.92543L26.3695 9.20507C26.5473 9.30312 26.5403 9.56087 26.3574 9.6491L18.2164 14.186L10.1336 9.8287L12.9005 8.08118L11.5 7.19158L4.81217 11.4155L1.64259 9.6491C1.45968 9.56087 1.45266 9.30312 1.6305 9.20507ZM8.72908 10.7158L16.6706 15.0474L14.1088 16.4751C14.0401 16.5083 13.9599 16.5083 13.8912 16.4751L6.30445 12.2471L8.72908 10.7158Z" fill="white"/>
<path d="M0.90533 13.8917L1.93737 13.2451L3.43061 14.0773L1.6305 15.2051C1.45266 15.3031 1.45968 15.5609 1.64259 15.6491L13.8912 22.4751C13.9599 22.5083 14.0401 22.5083 14.1088 22.4751L26.3574 15.6491C26.5403 15.5609 26.5473 15.3031 26.3695 15.2051L24.5694 14.0773L26.0626 13.2451L27.0947 13.8917C28.3396 14.578 28.2904 16.3823 27.01 16.9999L14.7614 23.826C14.5209 23.942 14.2604 24 14 24C13.7396 24 13.4791 23.942 13.2386 23.826L0.989968 16.9999C-0.290435 16.3823 -0.33956 14.578 0.90533 13.8917Z" fill="white"/>
</svg>

