<svg width="12" height="14" viewBox="0 0 12 14" fill="none" xmlns="http://www.w3.org/2000/svg">
<path d="M8.75 3.875V3.125C8.75 3.05625 8.69375 3 8.625 3H2.625C2.55625 3 2.5 3.05625 2.5 3.125V3.875C2.5 3.94375 2.55625 4 2.625 4H8.625C8.69375 4 8.75 3.94375 8.75 3.875ZM2.625 5.25C2.55625 5.25 2.5 5.30625 2.5 5.375V6.125C2.5 6.19375 2.55625 6.25 2.625 6.25H5.5C5.56875 6.25 5.625 6.19375 5.625 6.125V5.375C5.625 5.30625 5.56875 5.25 5.5 5.25H2.625ZM4.875 12.3125H1.25V1.3125H10V6.6875C10 6.75625 10.0562 6.8125 10.125 6.8125H11C11.0688 6.8125 11.125 6.75625 11.125 6.6875V0.6875C11.125 0.410937 10.9016 0.1875 10.625 0.1875H0.625C0.348437 0.1875 0.125 0.410937 0.125 0.6875V12.9375C0.125 13.2141 0.348437 13.4375 0.625 13.4375H4.875C4.94375 13.4375 5 13.3813 5 13.3125V12.4375C5 12.3687 4.94375 12.3125 4.875 12.3125ZM11.8391 13.1172L10.3813 11.6594C10.7297 11.1984 10.9375 10.6234 10.9375 10C10.9375 8.48125 9.70625 7.25 8.1875 7.25C6.66875 7.25 5.4375 8.48125 5.4375 10C5.4375 11.5188 6.66875 12.75 8.1875 12.75C8.74687 12.75 9.26562 12.5828 9.7 12.2969L11.1797 13.7766C11.2047 13.8016 11.2359 13.8125 11.2672 13.8125C11.2984 13.8125 11.3313 13.8 11.3547 13.7766L11.8391 13.2922C11.8506 13.2807 11.8597 13.2671 11.866 13.2521C11.8722 13.2371 11.8754 13.2209 11.8754 13.2047C11.8754 13.1884 11.8722 13.1723 11.866 13.1573C11.8597 13.1423 11.8506 13.1287 11.8391 13.1172ZM8.1875 11.75C7.22031 11.75 6.4375 10.9672 6.4375 10C6.4375 9.03281 7.22031 8.25 8.1875 8.25C9.15469 8.25 9.9375 9.03281 9.9375 10C9.9375 10.9672 9.15469 11.75 8.1875 11.75Z" fill="#272F5A" fill-opacity="0.32"/>
</svg>
