<svg width="12" height="16" viewBox="0 0 12 16" fill="none" xmlns="http://www.w3.org/2000/svg">
<path d="M11.4545 0.5H0.545455C0.24375 0.5 0 0.739397 0 1.03571V14.9643C0 15.2606 0.24375 15.5 0.545455 15.5H11.4545C11.7563 15.5 12 15.2606 12 14.9643V1.03571C12 0.739397 11.7563 0.5 11.4545 0.5ZM1.22727 1.70536H10.7727V5.1875H1.22727V1.70536ZM10.7727 9.74107H1.22727V6.25893H10.7727V9.74107ZM10.7727 14.2946H1.22727V10.8125H10.7727V14.2946ZM5.72727 2.91071H2.59091C2.51591 2.91071 2.45455 2.97098 2.45455 3.04464V3.84821C2.45455 3.92188 2.51591 3.98214 2.59091 3.98214H5.72727C5.80227 3.98214 5.86364 3.92188 5.86364 3.84821V3.04464C5.86364 2.97098 5.80227 2.91071 5.72727 2.91071ZM2.59091 8.53571H5.72727C5.80227 8.53571 5.86364 8.47545 5.86364 8.40179V7.59821C5.86364 7.52455 5.80227 7.46429 5.72727 7.46429H2.59091C2.51591 7.46429 2.45455 7.52455 2.45455 7.59821V8.40179C2.45455 8.47545 2.51591 8.53571 2.59091 8.53571ZM8.18182 12.6205C8.18182 12.7981 8.25365 12.9685 8.38152 13.094C8.50938 13.2196 8.68281 13.2902 8.86364 13.2902C9.04447 13.2902 9.21789 13.2196 9.34576 13.094C9.47362 12.9685 9.54545 12.7981 9.54545 12.6205C9.54545 12.4429 9.47362 12.2726 9.34576 12.147C9.21789 12.0214 9.04447 11.9509 8.86364 11.9509C8.68281 11.9509 8.50938 12.0214 8.38152 12.147C8.25365 12.2726 8.18182 12.4429 8.18182 12.6205Z" fill="#189EE9"/>
</svg>
