<svg width="14" height="14" viewBox="0 0 14 14" fill="none" xmlns="http://www.w3.org/2000/svg">
<path d="M6.143 0.429626H0.714425C0.557282 0.429626 0.428711 0.558198 0.428711 0.715341V6.14391C0.428711 6.30106 0.557282 6.42963 0.714425 6.42963H6.143C6.30014 6.42963 6.42871 6.30106 6.42871 6.14391V0.715341C6.42871 0.558198 6.30014 0.429626 6.143 0.429626ZM5.21443 5.21534H1.643V1.64391H5.21443V5.21534ZM13.2859 0.429626H7.85728C7.70014 0.429626 7.57157 0.558198 7.57157 0.715341V6.14391C7.57157 6.30106 7.70014 6.42963 7.85728 6.42963H13.2859C13.443 6.42963 13.5716 6.30106 13.5716 6.14391V0.715341C13.5716 0.558198 13.443 0.429626 13.2859 0.429626ZM12.3573 5.21534H8.78586V1.64391H12.3573V5.21534ZM6.143 7.57249H0.714425C0.557282 7.57249 0.428711 7.70106 0.428711 7.8582V13.2868C0.428711 13.4439 0.557282 13.5725 0.714425 13.5725H6.143C6.30014 13.5725 6.42871 13.4439 6.42871 13.2868V7.8582C6.42871 7.70106 6.30014 7.57249 6.143 7.57249ZM5.21443 12.3582H1.643V8.78677H5.21443V12.3582ZM13.2859 7.57249H7.85728C7.70014 7.57249 7.57157 7.70106 7.57157 7.8582V13.2868C7.57157 13.4439 7.70014 13.5725 7.85728 13.5725H13.2859C13.443 13.5725 13.5716 13.4439 13.5716 13.2868V7.8582C13.5716 7.70106 13.443 7.57249 13.2859 7.57249ZM12.3573 12.3582H8.78586V8.78677H12.3573V12.3582Z" fill="#9254DE"/>
</svg>
