<svg width="12" height="12" viewBox="0 0 12 12" fill="none" xmlns="http://www.w3.org/2000/svg">
<path fill-rule="evenodd" clip-rule="evenodd" d="M7.87089 6.97173L8.08206 7.00672C9.34106 7.21537 10.3098 7.81443 10.9654 8.4816C11.2926 8.81454 11.5461 9.16868 11.7201 9.50703C11.7785 9.62078 12.002 10.098 12.0003 10.5015L12.0003 10.5031C12 10.5342 11.9978 10.5653 11.9945 10.5962C11.9895 10.6434 11.98 10.7055 11.9619 10.7775C11.9261 10.9211 11.8548 11.1107 11.7128 11.3C11.4115 11.7017 10.8723 12 10.0003 12H2.00031C1.12831 12 0.589121 11.7017 0.287809 11.3C0.14581 11.1107 0.0745614 10.9211 0.0386753 10.7775C0.020664 10.7055 0.0111404 10.6434 0.00608423 10.5962C0.000366211 10 0.104739 9.91265 0.280565 9.50703C0.454494 9.16868 0.708011 8.81454 1.0352 8.4816C1.69086 7.81443 2.65956 7.21537 3.91856 7.00672L4.12972 6.97173L4.3008 7.10036C4.43417 7.20064 4.55315 7.30021 4.66587 7.39454C5.06722 7.73041 5.38936 7.99999 6.00031 7.99999C6.61126 7.99999 6.93341 7.7304 7.33476 7.39454C7.44748 7.30021 7.56645 7.20065 7.69982 7.10036L7.87089 6.97173ZM1.00882 10.535C1.00349 10.5137 1.00128 10.4978 1.00044 10.4901C1.00305 10.3892 1.04534 10.2066 1.16994 9.96421C1.29455 9.72179 1.48679 9.44877 1.74844 9.18253C2.23313 8.68933 2.94137 8.23392 3.86491 8.03464L3.9232 8.0847C4.33817 8.44175 4.98698 8.99999 6.00031 8.99999C7.01364 8.99999 7.66245 8.44175 8.07742 8.0847L8.13571 8.03464C9.05925 8.23392 9.76749 8.68933 10.2522 9.18253C10.5138 9.44877 10.7061 9.72179 10.8307 9.96421C10.9553 10.2066 10.9976 10.3892 11.0002 10.4901C10.9993 10.4978 10.9971 10.5137 10.9918 10.535C10.9808 10.5789 10.9583 10.6393 10.9128 10.7C10.8391 10.7983 10.6283 11 10.0003 11H2.00031C1.3723 11 1.1615 10.7983 1.08781 10.7C1.04231 10.6393 1.01981 10.5789 1.00882 10.535Z" fill="#272F5A" fill-opacity="0.9"/>
<path fill-rule="evenodd" clip-rule="evenodd" d="M7.3085 5.14279C7.73359 4.54898 8.00031 3.75142 8.00031 3C8.00031 2.27806 7.75684 1.80352 7.43811 1.50506C7.10897 1.19685 6.61675 1 6.00031 1C5.38387 1 4.89164 1.19685 4.56251 1.50506C4.24378 1.80352 4.00031 2.27806 4.00031 3C4.00031 3.75142 4.26703 4.54898 4.69212 5.14279C5.1256 5.74833 5.60892 6 6.00031 6C6.3917 6 6.87502 5.74833 7.3085 5.14279ZM6.00031 7C7.65716 7 9.00031 4.933 9.00031 3C9.00031 1.067 7.65716 0 6.00031 0C4.34346 0 3.00031 1.067 3.00031 3C3.00031 4.933 4.34346 7 6.00031 7Z" fill="#272F5A" fill-opacity="0.9"/>
</svg>
