<svg width="16" height="16" viewBox="0 0 16 16" fill="none" xmlns="http://www.w3.org/2000/svg">
<path fill-rule="evenodd" clip-rule="evenodd" d="M13.2929 5.70711C13.6834 5.31658 13.6834 4.68342 13.2929 4.29289L11.7071 2.70711C11.3166 2.31658 10.6834 2.31658 10.2929 2.70711L2 11V14H5L13.2929 5.70711ZM3 13V11.4142L9.35355 5.06066L10.9393 6.64645L4.58579 13H3ZM11.6464 5.93934L10.0607 4.35355L11 3.41421L12.5858 5L11.6464 5.93934ZM10 13H9V14H10V13ZM12 13H11V14H12V13ZM13 13H14V14H13V13Z" fill="#272F5A"/>
</svg>
