<svg width="32" height="32" viewBox="0 0 32 32" fill="none" xmlns="http://www.w3.org/2000/svg">
<path fill-rule="evenodd" clip-rule="evenodd" d="M15.154 4.21774C15.4173 4.07258 15.7086 4 16 4C16.2914 4 16.5827 4.07258 16.846 4.21774L29.0947 11.8917C30.3396 12.578 30.2904 14.3823 29.01 14.9999L16.7614 21.826C16.5209 21.942 16.2604 22 16 22C15.7396 22 15.4791 21.942 15.2386 21.826L2.98997 14.9999C1.70957 14.3823 1.66044 12.578 2.90533 11.8917L15.154 4.21774ZM16.1209 5.53111C16.0456 5.48963 15.9544 5.48963 15.8791 5.53111L13.2039 7.2072L20.7709 11.6523L23.3207 10.0419L16.1209 5.53111ZM3.6305 13.2051L11.7731 8.1036L19.3664 12.5394L16.5995 14.2869L18 15.1765L24.7309 10.9254L28.3695 13.2051C28.5473 13.3031 28.5403 13.5609 28.3574 13.6491L20.2164 18.186L12.1336 13.8287L14.9005 12.0812L13.5 11.1916L6.81217 15.4155L3.64259 13.6491C3.45968 13.5609 3.45266 13.3031 3.6305 13.2051ZM10.7291 14.7158L18.6706 19.0474L16.1088 20.4751C16.0401 20.5083 15.9599 20.5083 15.8912 20.4751L8.30445 16.2471L10.7291 14.7158Z" fill="white"/>
<path d="M2.90533 17.8917L3.93737 17.2451L5.43061 18.0773L3.6305 19.2051C3.45266 19.3031 3.45968 19.5609 3.64259 19.6491L15.8912 26.4751C15.9599 26.5083 16.0401 26.5083 16.1088 26.4751L28.3574 19.6491C28.5403 19.5609 28.5473 19.3031 28.3695 19.2051L26.5694 18.0773L28.0626 17.2451L29.0947 17.8917C30.3396 18.578 30.2904 20.3823 29.01 20.9999L16.7614 27.826C16.5209 27.942 16.2604 28 16 28C15.7396 28 15.4791 27.942 15.2386 27.826L2.98997 20.9999C1.70957 20.3823 1.66044 18.578 2.90533 17.8917Z" fill="white"/>
</svg>
