<svg width="32" height="32" viewBox="0 0 32 32" fill="none" xmlns="http://www.w3.org/2000/svg">
<rect width="32" height="32" rx="16" fill="#F3F5F6"/>
<path fill-rule="evenodd" clip-rule="evenodd" d="M10 8V24H22V12H18.5H18V11.5V8H10ZM19 8.41421L21.5858 11H19V8.41421ZM19 7H10C9.44772 7 9 7.44772 9 8V24C9 24.5523 9.44772 25 10 25H22C22.5523 25 23 24.5523 23 24V11L19 7ZM16.3536 14.6464L16 14.2929L15.6464 14.6464L13.1464 17.1464L13.8536 17.8536L15.5 16.2071V22H16.5V16.2071L18.1464 17.8536L18.8536 17.1464L16.3536 14.6464Z" fill="#272F5A" fill-opacity="0.6"/>
</svg>
