<svg width="24" height="24" viewBox="0 0 24 24" fill="none" xmlns="http://www.w3.org/2000/svg">
<path fill-rule="evenodd" clip-rule="evenodd" d="M21.168 16C19.6249 19.5318 16.1007 22 12.0001 22C9.14294 22 6.56565 20.8018 4.74333 18.8804L8.00017 17L0.500171 12.6699L0.500171 21.3302L2.97057 19.9039C5.17008 22.4146 8.39994 24 12.0001 24C17.225 24 21.6699 20.6608 23.3173 16H21.168ZM19.3251 5.19224C17.4991 3.22848 14.8931 2 12.0001 2C7.16218 2 3.12668 5.43552 2.20013 10H0.166016C1.11817 4.32457 6.05411 0 12.0001 0C15.6358 0 18.8938 1.61683 21.0944 4.17069L23.5712 2.74072V11.401L16.0712 7.07085L19.3251 5.19224Z" fill="#272F5A"/>
</svg>
