<svg width="224" height="32" viewBox="0 0 224 32" fill="none" xmlns="http://www.w3.org/2000/svg">
<path fill-rule="evenodd" clip-rule="evenodd" d="M15.154 4.21774C15.4173 4.07258 15.7086 4 16 4C16.2914 4 16.5827 4.07258 16.846 4.21774L29.0947 11.8917C30.3396 12.578 30.2904 14.3823 29.01 14.9999L16.7614 21.826C16.5209 21.942 16.2604 22 16 22C15.7396 22 15.4791 21.942 15.2386 21.826L2.98997 14.9999C1.70957 14.3823 1.66044 12.578 2.90533 11.8917L15.154 4.21774ZM16.1209 5.53111C16.0456 5.48963 15.9544 5.48963 15.8791 5.53111L13.2039 7.2072L20.7709 11.6523L23.3207 10.0419L16.1209 5.53111ZM3.6305 13.2051L11.7731 8.1036L19.3664 12.5394L16.5995 14.2869L18 15.1765L24.7309 10.9254L28.3695 13.2051C28.5473 13.3031 28.5403 13.5609 28.3574 13.6491L20.2164 18.186L12.1336 13.8287L14.9005 12.0812L13.5 11.1916L6.81217 15.4155L3.64259 13.6491C3.45968 13.5609 3.45266 13.3031 3.6305 13.2051ZM10.7291 14.7158L18.6706 19.0474L16.1088 20.4751C16.0401 20.5083 15.9599 20.5083 15.8912 20.4751L8.30445 16.2471L10.7291 14.7158Z" fill="white"/>
<path d="M2.90533 17.8917L3.93737 17.2451L5.43061 18.0773L3.6305 19.2051C3.45266 19.3031 3.45968 19.5609 3.64259 19.6491L15.8912 26.4751C15.9599 26.5083 16.0401 26.5083 16.1088 26.4751L28.3574 19.6491C28.5403 19.5609 28.5473 19.3031 28.3695 19.2051L26.5694 18.0773L28.0626 17.2451L29.0947 17.8917C30.3396 18.578 30.2904 20.3823 29.01 20.9999L16.7614 27.826C16.5209 27.942 16.2604 28 16 28C15.7396 28 15.4791 27.942 15.2386 27.826L2.98997 20.9999C1.70957 20.3823 1.66044 18.578 2.90533 17.8917Z" fill="white"/>
<path d="M48.72 9.208H54.432V25H55.488V9.208H61.2V8.2H48.72V9.208ZM63.1106 9.208H68.8226V25H69.8786V9.208H75.5906V8.2H63.1106V9.208ZM91.4805 19.84H92.5845L97.0485 11.8L98.2485 9.616V25H99.3525V8.2H97.8645L92.0565 18.64L86.2485 8.2H84.7125V25H85.8165V9.616L87.0165 11.8L91.4805 19.84ZM106.782 25.144C108.63 25.144 110.238 24.136 111.054 22.48L111.198 25H112.062V16.84C112.062 14.224 110.694 12.856 107.982 12.856C105.342 12.856 104.022 14.176 103.902 16.12H104.958C105.078 14.752 105.966 13.864 107.982 13.864C110.07 13.864 111.006 14.8 111.006 16.84V18.16H107.982C104.598 18.16 103.182 19.576 103.182 21.784C103.182 23.848 104.478 25.144 106.782 25.144ZM106.782 24.136C105.198 24.136 104.286 23.224 104.286 21.784C104.286 20.152 105.318 19.12 107.982 19.12H111.006V20.032C110.91 22.336 109.038 24.136 106.782 24.136ZM116.491 25H117.547V17.512C117.619 15.376 119.179 13.864 121.411 13.864C123.523 13.864 124.795 15.136 124.795 17.68V25H125.851V17.68C125.851 14.512 124.195 12.856 121.531 12.856C119.683 12.856 118.243 13.672 117.451 15.064L117.355 13H116.491V25ZM133.056 25.144C134.904 25.144 136.512 24.136 137.328 22.48L137.472 25H138.336V16.84C138.336 14.224 136.968 12.856 134.256 12.856C131.616 12.856 130.296 14.176 130.176 16.12H131.232C131.352 14.752 132.24 13.864 134.256 13.864C136.344 13.864 137.28 14.8 137.28 16.84V18.16H134.256C130.872 18.16 129.456 19.576 129.456 21.784C129.456 23.848 130.752 25.144 133.056 25.144ZM133.056 24.136C131.472 24.136 130.56 23.224 130.56 21.784C130.56 20.152 131.592 19.12 134.256 19.12H137.28V20.032C137.184 22.336 135.312 24.136 133.056 24.136ZM146.7 24.664C148.38 24.664 149.772 23.896 150.588 22.48V25C150.588 27.568 149.364 28.936 147.036 28.936C144.924 28.936 143.94 28 143.7 26.44H142.644C142.884 28.576 144.252 29.944 147.036 29.944C149.94 29.944 151.644 28.12 151.644 25V13H150.78L150.66 15.184C149.868 13.672 148.476 12.856 146.748 12.856C143.964 12.856 142.044 14.776 142.044 18.16V19.36C142.044 22.744 143.964 24.664 146.7 24.664ZM146.868 23.656C144.684 23.656 143.148 22.12 143.148 19.36V18.16C143.148 15.4 144.684 13.864 146.844 13.864C148.956 13.864 150.588 15.496 150.588 18.16V19.552C150.492 22.096 148.908 23.656 146.868 23.656ZM160.394 25.144C163.202 25.144 164.642 23.704 165.122 21.64H164.018C163.538 23.2 162.602 24.136 160.394 24.136C158.138 24.136 156.578 22.576 156.578 19.6V19.24H165.314V18.4C165.314 14.848 163.322 12.856 160.394 12.856C157.466 12.856 155.474 14.848 155.474 18.4V19.6C155.474 23.152 157.466 25.144 160.394 25.144ZM160.394 13.864C162.602 13.864 164.162 15.4 164.21 18.28H156.578C156.626 15.4 158.162 13.864 160.394 13.864ZM169.155 25H170.211V17.512C170.283 15.4 171.867 13.864 173.667 13.864C175.635 13.864 176.907 15.136 176.907 17.68V25H177.963V17.68C177.963 15.472 179.571 13.864 181.419 13.864C183.387 13.864 184.659 15.136 184.659 17.68V25H185.715V17.68C185.715 14.512 184.059 12.856 181.659 12.856C179.811 12.856 178.323 13.84 177.627 15.472C177.027 13.744 175.659 12.856 173.907 12.856C172.251 12.856 170.883 13.672 170.115 15.04L170.019 13H169.155V25ZM194.355 25.144C197.163 25.144 198.603 23.704 199.083 21.64H197.979C197.499 23.2 196.563 24.136 194.355 24.136C192.099 24.136 190.539 22.576 190.539 19.6V19.24H199.275V18.4C199.275 14.848 197.283 12.856 194.355 12.856C191.427 12.856 189.435 14.848 189.435 18.4V19.6C189.435 23.152 191.427 25.144 194.355 25.144ZM194.355 13.864C196.563 13.864 198.123 15.4 198.171 18.28H190.539C190.587 15.4 192.123 13.864 194.355 13.864ZM203.116 25H204.172V17.512C204.244 15.376 205.804 13.864 208.036 13.864C210.148 13.864 211.42 15.136 211.42 17.68V25H212.476V17.68C212.476 14.512 210.82 12.856 208.156 12.856C206.308 12.856 204.868 13.672 204.076 15.064L203.98 13H203.116V25ZM215.246 13.96H217.406V22.144C217.406 24.04 218.366 25 220.286 25H221.966V24.04H220.382C219.062 24.04 218.462 23.44 218.462 22.024V13.96H221.726V13H218.462V9.64H217.406V13H215.246V13.96Z" fill="white"/>
</svg>
