<svg width="40" height="32" viewBox="0 0 40 32" fill="none" xmlns="http://www.w3.org/2000/svg">
<path d="M3.88398 20.479L18.5263 29.6201C18.9781 29.8694 19.4845 30 19.9992 30C20.5138 30 21.0203 29.8694 21.4721 29.6201L36.1149 20.479C36.3575 20.3452 36.5599 20.1478 36.7009 19.9075C36.842 19.6672 36.9164 19.3929 36.9164 19.1134C36.9164 18.834 36.842 18.5597 36.7009 18.3194C36.5599 18.0791 36.3575 17.8816 36.1149 17.7478L21.4721 8.60134C21.0203 8.35206 20.5138 8.22144 19.9992 8.22144C19.4845 8.22144 18.9781 8.35206 18.5263 8.60134L3.88398 17.7451C3.64078 17.8787 3.43773 18.0762 3.29625 18.3168C3.15476 18.5574 3.08008 18.8321 3.08008 19.1121C3.08008 19.392 3.15476 19.6667 3.29625 19.9073C3.43773 20.1479 3.64078 20.3454 3.88398 20.479Z" fill="#38437A"/>
<path d="M3.88362 14.2543L18.5259 23.3981C18.9778 23.6471 19.4842 23.7776 19.9988 23.7776C20.5134 23.7776 21.0198 23.6471 21.4717 23.3981L36.1146 14.2543C37.1834 13.6646 37.1834 12.1123 36.1146 11.5231L21.4717 2.3799C21.0199 2.13062 20.5135 2 19.9988 2C19.4842 2 18.9777 2.13062 18.5259 2.3799L3.88362 11.5231C2.81321 12.1123 2.81321 13.6646 3.88362 14.2543Z" fill="#00C2FF"/>
<path d="M18.5262 8.60134L6.6792 15.9993L18.5262 23.3978C18.9781 23.6468 19.4845 23.7773 19.9991 23.7773C20.5137 23.7773 21.0201 23.6468 21.472 23.3978L33.3195 15.9993L21.472 8.60134C21.0202 8.35206 20.5137 8.22144 19.9991 8.22144C19.4844 8.22144 18.978 8.35206 18.5262 8.60134Z" fill="#269EE1"/>
<path d="M23.4215 16.0068L33.3705 9.79702L32.2539 9.10728L27.2678 12.219L15.0221 4.5672L13.8738 5.28411L26.1115 12.9305L22.3038 15.3171L23.4215 16.0068Z" fill="white"/>
<path d="M25.9026 20.6448L13.6289 13.0941L17.4006 10.7384L16.2469 10.0264L6.68311 16.0003L7.8368 16.7124L12.4811 13.811L24.7478 21.3573L25.9026 20.6448Z" fill="white"/>
</svg>
