<svg width="16" height="12" viewBox="0 0 16 12" fill="none" xmlns="http://www.w3.org/2000/svg">
<path fill-rule="evenodd" clip-rule="evenodd" d="M8 11C10.7614 11 13 8.76142 13 6C13 3.23858 10.7614 1 8 1C5.23858 1 3 3.23858 3 6C3 8.76142 5.23858 11 8 11ZM8 12C10.2208 12 12.1599 10.7934 13.1973 9H15H16V8V4V3H15H13.1973C12.1599 1.2066 10.2208 0 8 0C5.77915 0 3.84012 1.2066 2.80269 3H1H0V4V8V9H1H2.80269C3.84012 10.7934 5.77915 12 8 12ZM15 8H13.6586C13.8797 7.37444 14 6.70127 14 6C14 5.29873 13.8797 4.62556 13.6586 4H15V8ZM1 4H2.34141C2.12031 4.62556 2 5.29873 2 6C2 6.70127 2.12031 7.37444 2.34141 8H1L1 4ZM6 5V4H10V5H6ZM5 4C5 3.44772 5.44772 3 6 3H10C10.5523 3 11 3.44772 11 4V5C11 5.55228 10.5523 6 10 6H6C5.44772 6 5 5.55228 5 5V4ZM6 7H7V8H6V7ZM10 7H9V8H10V7Z" fill="#272F5A"/>
</svg>
