<svg width="12" height="10" viewBox="0 0 12 10" fill="none" xmlns="http://www.w3.org/2000/svg">
<path d="M11.191 1.84334L8.5847 3.44915L6.0856 0.115663C6.07554 0.102246 6.0625 0.091356 6.04751 0.083855C6.03251 0.0763541 6.01598 0.0724487 5.99921 0.0724487C5.98245 0.0724487 5.96591 0.0763541 5.95092 0.083855C5.93592 0.091356 5.92288 0.102246 5.91283 0.115663L3.41506 3.44915L0.80747 1.84334C0.73113 1.79647 0.632023 1.85941 0.644077 1.94915L1.66729 9.72504C1.68202 9.83084 1.77309 9.91254 1.88158 9.91254H10.1195C10.2267 9.91254 10.3191 9.83218 10.3325 9.72504L11.3557 1.94915C11.3664 1.85941 11.2686 1.79647 11.191 1.84334ZM9.50345 8.99647H2.49497L1.77443 3.51343L3.64676 4.66656L5.99988 1.52727L8.35301 4.66656L10.2253 3.51343L9.50345 8.99647ZM5.99988 4.95718C5.16818 4.95718 4.49185 5.63352 4.49185 6.46522C4.49185 7.29691 5.16818 7.97325 5.99988 7.97325C6.83158 7.97325 7.50792 7.29691 7.50792 6.46522C7.50792 5.63352 6.83158 4.95718 5.99988 4.95718ZM5.99988 7.11209C5.64363 7.11209 5.35435 6.82281 5.35435 6.46522C5.35435 6.10897 5.64363 5.81834 5.99988 5.81834C6.35613 5.81834 6.64542 6.10763 6.64542 6.46522C6.64542 6.82147 6.35613 7.11209 5.99988 7.11209Z" fill="white"/>
</svg>
