<svg width="16" height="16" viewBox="0 0 16 16" fill="none" xmlns="http://www.w3.org/2000/svg">
<path fill-rule="evenodd" clip-rule="evenodd" d="M2 12L7.05833 6.94167C6.8917 6.52704 6.8 6.07423 6.8 5.6C6.8 3.61177 8.41178 2 10.4 2C12.3882 2 14 3.61177 14 5.6C14 7.58822 12.3882 9.2 10.4 9.2C9.92577 9.2 9.47296 9.1083 9.05832 8.94168L7 11H6V12L5 13H4L3 14H2V12ZM4.41421 14L3.41421 15H1V11.5858L5.9235 6.66229C5.84267 6.32067 5.8 5.96487 5.8 5.6C5.8 3.05949 7.85949 1 10.4 1C12.9405 1 15 3.05949 15 5.6C15 8.14051 12.9405 10.2 10.4 10.2C10.0351 10.2 9.67933 10.1573 9.33771 10.0765L7.41421 12H7V12.4142L5.41421 14H4.41421ZM13 5C13 5.55228 12.5523 6 12 6C11.4477 6 11 5.55228 11 5C11 4.44772 11.4477 4 12 4C12.5523 4 13 4.44772 13 5ZM8.17531 13.5933L8 14L6 15L6.61096 14.0125L7 14L8 12.5H8.5L9 11.5L10 11H11L10 12L9 13.5L8.17531 13.5933Z" fill="#272F5A"/>
</svg>
