<svg width="600" height="364" viewBox="0 0 600 364" fill="none" xmlns="http://www.w3.org/2000/svg">
<path d="M300 14.38L600 187.38L300 360.38L-1.47622e-06 187.38L300 14.38Z" fill="#189EE9" fill-opacity="0.05"/>
<path d="M300 0.190012L600 173.19L300 346.19L-1.47622e-06 173.19L300 0.190012Z" fill="url(#paint0_linear_4478_4389)"/>
<mask id="mask0_4478_4389" style="mask-type:alpha" maskUnits="userSpaceOnUse" x="0" y="0" width="600" height="347">
<path d="M300 0.379954L600 173.38L300 346.38L-1.47622e-06 173.38L300 0.379954Z" fill="#192250"/>
</mask>
<g mask="url(#mask0_4478_4389)">
<path opacity="0.3" fill-rule="evenodd" clip-rule="evenodd" d="M299.5 -117.81L-164.59 150.961L-165 151.199L-164.589 151.436L299.5 419.19L763.589 151.436L764 151.199L763.59 150.961L299.5 -117.81ZM-133.381 168.806L-163.905 151.198L-132.881 133.246L-102.309 150.885L-133.23 168.73L-133.381 168.806ZM-132.823 169.128L-102.604 186.561L-102.008 186.263L-71.5041 168.658L-101.761 151.202L-132.823 169.128ZM-102.003 186.907L-71.5718 204.462L-71.3333 204.343L-40.4984 186.547L-70.956 168.975L-101.734 186.737L-102.003 186.907ZM-71.0078 204.787L-40.7943 222.216L-40.111 221.875L-9.69363 204.32L-39.9504 186.863L-71.0078 204.787ZM-40.1834 222.569L-9.76234 240.118L-9.43646 239.955L21.312 222.209L-9.14554 204.637L-39.8373 222.349L-40.1834 222.569ZM-9.20337 240.44L21.0152 257.872L21.7858 257.487L52.1168 239.982L21.8601 222.525L-9.16272 240.429L-9.20337 240.44ZM21.6357 258.23L52.0471 275.773L52.4604 275.567L83.1224 257.871L52.6649 240.299L22.0596 257.961L21.6357 258.23ZM52.6281 276.109L82.5739 293.383L83.1349 293.099L113.653 275.486L83.6705 258.187L52.7341 276.041L52.6281 276.109ZM83.168 293.726L113.89 311.449L114.357 311.179L144.933 293.533L114.201 275.802L83.4087 293.573L83.168 293.726ZM114.447 311.77L144.888 329.331L145.032 329.259L175.938 311.422L145.481 293.849L114.631 311.653L114.447 311.77ZM145.446 329.652L175.395 346.929L206.469 329.037L176.487 311.738L145.446 329.652ZM175.978 347.265L206.166 364.679L237.238 346.789L207.017 329.353L175.98 347.266L175.978 347.265ZM206.75 365.017L237.209 382.587L268.04 364.561L237.786 347.105L206.75 365.017ZM237.755 382.902L267.807 400.238L298.952 382.396L268.588 364.877L237.755 382.902ZM268.356 400.555L299.5 418.642L330.472 400.654L299.5 382.712L268.356 400.555ZM331.02 400.338L361.428 382.797L361.123 382.604L330.412 364.877L300.048 382.396L331.02 400.338ZM362.029 382.45L392.25 365.017L361.214 347.105L330.96 364.561L361.397 382.129L362.029 382.45ZM392.811 364.693L423.02 347.266L391.982 329.353L361.762 346.789L392.619 364.597L392.811 364.693ZM423.588 346.938L453.554 329.652L422.513 311.738L392.531 329.037L423.294 346.791L423.588 346.938ZM454.112 329.331L484.553 311.77L484.369 311.653L453.519 293.849L423.061 311.422L453.968 329.259L454.112 329.331ZM485.143 311.429L515.832 293.726L515.591 293.573L484.798 275.802L454.067 293.533L484.643 311.179L485.143 311.429ZM516.409 293.393L546.372 276.109L546.266 276.041L515.329 258.187L485.347 275.486L515.865 293.099L516.409 293.393ZM546.953 275.773L577.364 258.23L576.94 257.961L546.335 240.299L515.877 257.871L546.539 275.567L546.953 275.773ZM577.985 257.872L608.203 240.44L608.163 240.429L577.14 222.525L546.883 239.982L577.214 257.487L577.985 257.872ZM608.762 240.118L639.183 222.569L638.837 222.349L608.145 204.637L577.688 222.209L608.436 239.955L608.762 240.118ZM639.794 222.216L670.008 204.787L638.95 186.863L608.693 204.32L639.111 221.875L639.794 222.216ZM670.572 204.462L701.003 186.907L700.734 186.737L669.956 168.975L639.498 186.547L670.333 204.343L670.572 204.462ZM701.604 186.561L731.823 169.128L700.761 151.202L670.504 168.658L701.008 186.263L701.604 186.561ZM732.381 168.806L762.905 151.198L731.881 133.246L701.309 150.885L732.23 168.73L732.381 168.806ZM731.334 132.93L700.921 115.332L670.314 132.998L700.761 150.569L731.334 132.93ZM700.373 115.015L670.197 97.5537L639.548 115.242L669.766 132.682L700.373 115.015ZM669.65 97.237L639.473 79.7759L608.784 97.4875L639 114.926L669.65 97.237ZM638.926 79.4592L608.987 62.1352L578.257 79.8701L608.236 97.1712L638.926 79.4592ZM608.44 61.8186L578.026 44.2203L547.256 61.9787L577.709 79.5538L608.44 61.8186ZM577.479 43.9036L546.792 26.1471L515.98 43.9292L546.708 61.6624L577.479 43.9036ZM546.245 25.8304L516.306 8.50645L485.454 26.3118L515.432 43.613L546.245 25.8304ZM515.759 8.18975L485.345 -9.40849L454.452 8.42039L484.906 25.9955L515.759 8.18975ZM484.798 -9.72518L454.585 -27.2074L423.652 -9.35512L453.904 8.10412L484.798 -9.72518ZM454.038 -27.5241L423.625 -45.1223L392.65 -27.2465L423.104 -9.67139L454.038 -27.5241ZM423.078 -45.439L392.865 -62.9212L361.85 -45.022L392.102 -27.5628L423.078 -45.439ZM392.318 -63.2379L361.904 -80.8362L330.848 -62.9134L361.302 -45.3383L392.318 -63.2379ZM361.357 -81.1529L331.144 -98.6351L300.048 -80.6889L330.301 -63.2297L361.357 -81.1529ZM330.597 -98.9518L299.5 -117.262L268.403 -98.9518L299.5 -81.0052L330.597 -98.9518ZM267.856 -98.6351L237.643 -81.1529L268.699 -63.2297L298.952 -80.6889L267.856 -98.6351ZM237.096 -80.8362L206.682 -63.2379L237.698 -45.3383L268.151 -62.9134L237.096 -80.8362ZM206.135 -62.9212L175.922 -45.439L206.897 -27.5628L237.15 -45.022L206.135 -62.9212ZM175.375 -45.1223L144.962 -27.5241L175.896 -9.67138L206.349 -27.2465L175.375 -45.1223ZM144.415 -27.2074L114.202 -9.72514L145.096 8.10413L175.348 -9.35511L144.415 -27.2074ZM113.655 -9.40846L83.2413 8.1898L114.094 25.9955L144.548 8.42039L113.655 -9.40846ZM82.694 8.50648L52.7548 25.8304L83.5675 43.613L113.546 26.3118L82.694 8.50648ZM52.2075 26.1471L21.5208 43.9037L52.2923 61.6624L83.0195 43.9292L52.2075 26.1471ZM20.9735 44.2203L-9.43977 61.8186L21.291 79.5538L51.7443 61.9787L20.9735 44.2203ZM-9.98706 62.1353L-39.9263 79.4592L-9.23573 97.1712L20.743 79.8701L-9.98706 62.1353ZM-40.4735 79.7759L-70.6498 97.237L-39.9997 114.926L-9.78374 97.4875L-40.4735 79.7759ZM-71.1971 97.5537L-101.373 115.015L-70.7662 132.682L-40.5477 115.242L-71.1971 97.5537ZM-101.921 115.332L-132.334 132.93L-101.761 150.569L-71.3142 132.998L-101.921 115.332ZM269.247 -62.9134L299.5 -80.3726L329.752 -62.9134L299.5 -45.4541L269.247 -62.9134ZM300.048 -45.1379L330.301 -62.5971L360.754 -45.022L330.501 -27.5628L300.048 -45.1379ZM331.049 -27.2465L361.302 -44.7057L391.554 -27.2465L361.302 -9.78725L331.049 -27.2465ZM361.85 -9.47099L392.102 -26.9302L422.556 -9.35512L392.303 8.10412L361.85 -9.47099ZM392.851 8.42039L423.104 -9.03886L453.356 8.42039L423.104 25.8796L392.851 8.42039ZM423.652 26.1959L453.904 8.73666L484.358 26.3118L454.105 43.771L423.652 26.1959ZM454.653 44.0873L484.906 26.628L514.884 43.9292L484.632 61.3885L454.653 44.0873ZM485.18 61.7047L515.432 44.2455L546.16 61.9787L515.907 79.4379L485.18 61.7047ZM516.455 79.7542L546.708 62.2949L577.161 79.8701L546.908 97.3293L516.455 79.7542ZM547.456 97.6456L577.709 80.1863L607.688 97.4875L577.435 114.947L547.456 97.6456ZM577.983 115.263L608.236 97.8038L638.452 115.242L608.199 132.701L577.983 115.263ZM608.747 133.017L639 115.558L669.218 132.998L638.968 150.458L608.747 133.017ZM639.516 150.775L669.766 133.314L700.213 150.885L669.956 168.342L639.516 150.775ZM638.968 151.091L669.408 168.658L638.95 186.231L608.517 168.667L638.968 151.091ZM607.969 168.984L638.402 186.547L608.145 204.004L577.719 186.444L607.969 168.984ZM577.171 186.761L607.597 204.32L577.14 221.893L546.72 204.337L577.171 186.761ZM546.172 204.654L576.592 222.209L546.335 239.666L515.922 222.114L546.172 204.654ZM515.374 222.43L545.787 239.982L515.329 257.555L484.923 240.007L515.374 222.43ZM484.375 240.323L514.781 257.871L484.799 275.17L454.399 257.626L484.375 240.323ZM453.851 257.942L484.25 275.486L453.519 293.217L423.126 275.677L453.851 257.942ZM422.578 275.993L452.971 293.533L422.513 311.106L392.127 293.569L422.578 275.993ZM391.579 293.886L421.965 311.422L391.982 328.721L361.603 311.188L391.579 293.886ZM361.055 311.505L391.434 329.037L361.214 346.473L330.841 328.944L361.055 311.505ZM330.293 329.26L360.666 346.789L330.412 364.245L300.048 346.718L330.293 329.26ZM299.5 347.034L329.864 364.561L299.5 382.079L269.136 364.561L299.5 347.034ZM298.952 346.718L268.588 364.245L238.334 346.789L268.707 329.26L298.952 346.718ZM268.159 328.944L237.786 346.473L207.565 329.037L237.945 311.505L268.159 328.944ZM237.397 311.188L207.017 328.721L177.035 311.422L207.421 293.886L237.397 311.188ZM206.873 293.569L176.486 311.106L146.029 293.533L176.422 275.993L206.873 293.569ZM175.874 275.677L145.481 293.217L114.749 275.486L145.149 257.942L175.874 275.677ZM144.601 257.626L114.201 275.17L84.2185 257.871L114.625 240.323L144.601 257.626ZM114.077 240.007L83.6704 257.555L53.2129 239.982L83.6259 222.43L114.077 240.007ZM83.078 222.114L52.6648 239.666L22.4081 222.209L52.8278 204.654L83.078 222.114ZM52.2798 204.337L21.86 221.893L-8.5975 204.32L21.8289 186.761L52.2798 204.337ZM21.2809 186.444L-9.14558 204.004L-39.4023 186.547L-8.96924 168.984L21.2809 186.444ZM-9.5172 168.667L-39.9504 186.231L-70.4079 168.658L-39.9681 151.091L-9.5172 168.667ZM-40.5161 150.775L-70.956 168.342L-101.213 150.885L-70.7663 133.314L-40.5161 150.775ZM-39.9681 150.458L-70.2183 132.998L-39.9997 115.558L-9.74719 133.017L-39.9681 150.458ZM-9.19919 132.701L-39.4517 115.242L-9.23573 97.8038L21.0168 115.263L-9.19919 132.701ZM21.5648 114.947L-8.68771 97.4875L21.291 80.1863L51.5435 97.6456L21.5648 114.947ZM52.0915 97.3293L21.8389 79.8701L52.2923 62.2949L82.5449 79.7542L52.0915 97.3293ZM83.0929 79.4379L52.8403 61.9787L83.5675 44.2455L113.82 61.7047L83.0929 79.4379ZM114.368 61.3885L84.1155 43.9292L114.094 26.6281L144.347 44.0873L114.368 61.3885ZM144.895 43.771L114.642 26.3118L145.096 8.73666L175.348 26.1959L144.895 43.771ZM175.896 25.8796L145.644 8.42039L175.896 -9.03885L206.149 8.42039L175.896 25.8796ZM206.697 8.10413L176.444 -9.35511L206.897 -26.9302L237.15 -9.47099L206.697 8.10413ZM237.698 -9.78725L207.445 -27.2465L237.698 -44.7057L267.951 -27.2465L237.698 -9.78725ZM268.499 -27.5628L238.246 -45.022L268.699 -62.5971L298.952 -45.1379L268.499 -27.5628ZM269.047 -27.2465L299.5 -44.8216L329.953 -27.2465L299.5 -9.67138L269.047 -27.2465ZM300.048 -9.35511L330.501 -26.9302L360.754 -9.47099L330.301 8.10413L300.048 -9.35511ZM330.848 8.42039L361.302 -9.15472L391.755 8.42039L361.302 25.9955L330.848 8.42039ZM361.85 26.3118L392.303 8.73666L422.556 26.1959L392.102 43.771L361.85 26.3118ZM392.65 44.0873L423.104 26.5121L453.557 44.0873L423.104 61.6624L392.65 44.0873ZM423.652 61.9787L454.105 44.4035L484.084 61.7047L453.63 79.2799L423.652 61.9787ZM454.178 79.5961L484.632 62.021L515.359 79.7542L484.906 97.3293L454.178 79.5961ZM485.454 97.6456L515.907 80.0704L546.36 97.6456L515.907 115.221L485.454 97.6456ZM516.455 115.537L546.908 97.9618L576.887 115.263L546.434 132.838L516.455 115.537ZM546.982 133.154L577.435 115.579L607.651 133.017L577.198 150.593L546.982 133.154ZM577.746 150.909L608.199 133.334L638.42 150.775L607.969 168.351L577.746 150.909ZM577.198 151.225L607.421 168.668L577.171 186.128L546.945 168.684L577.198 151.225ZM546.397 169.001L576.623 186.444L546.172 204.021L515.944 186.576L546.397 169.001ZM515.396 186.892L545.624 204.337L515.374 221.798L485.143 204.351L515.396 186.892ZM484.595 204.668L514.826 222.114L484.375 239.691L454.142 222.243L484.595 204.668ZM453.594 222.559L483.827 240.007L453.851 257.31L423.615 239.86L453.594 222.559ZM423.067 240.176L453.303 257.626L422.578 275.36L392.34 257.91L423.067 240.176ZM391.792 258.226L422.03 275.677L391.579 293.253L361.339 275.801L391.792 258.226ZM360.791 276.117L391.031 293.569L361.055 310.872L330.812 293.418L360.791 276.117ZM330.264 293.735L360.507 311.188L330.293 328.628L300.048 311.173L330.264 293.735ZM299.5 311.489L329.745 328.944L299.5 346.402L269.255 328.944L299.5 311.489ZM298.952 311.173L268.707 328.628L238.493 311.188L268.736 293.735L298.952 311.173ZM268.188 293.418L237.945 310.872L207.969 293.569L238.209 276.117L268.188 293.418ZM237.661 275.801L207.421 293.253L176.97 275.677L207.208 258.226L237.661 275.801ZM206.66 257.91L176.422 275.36L145.697 257.626L175.933 240.176L206.66 257.91ZM175.385 239.86L145.149 257.309L115.173 240.007L145.406 222.559L175.385 239.86ZM144.858 222.243L114.625 239.691L84.1739 222.114L114.405 204.668L144.858 222.243ZM113.857 204.351L83.626 221.798L53.3758 204.337L83.6041 186.892L113.857 204.351ZM83.0561 186.576L52.8278 204.021L22.3769 186.444L52.6027 169.001L83.0561 186.576ZM52.0547 168.684L21.8289 186.128L-8.42123 168.668L21.8022 151.225L52.0547 168.684ZM21.2542 150.909L-8.96919 168.351L-39.4201 150.775L-9.19919 133.334L21.2542 150.909ZM21.8022 150.593L-8.65118 133.017L21.5648 115.579L52.0182 133.154L21.8022 150.593ZM52.5662 132.838L22.1128 115.263L52.0915 97.9618L82.5449 115.537L52.5662 132.838ZM83.0928 115.221L52.6395 97.6456L83.0929 80.0704L113.546 97.6456L83.0928 115.221ZM114.094 97.3293L83.6409 79.7542L114.368 62.021L144.821 79.5961L114.094 97.3293ZM145.369 79.2799L114.916 61.7047L144.895 44.4036L175.348 61.9787L145.369 79.2799ZM175.896 61.6624L145.443 44.0873L175.896 26.5122L206.349 44.0873L175.896 61.6624ZM206.897 43.771L176.444 26.1959L206.697 8.73666L237.15 26.3118L206.897 43.771ZM237.698 25.9955L207.245 8.42039L237.698 -9.15472L268.151 8.42039L237.698 25.9955ZM268.699 8.10413L238.246 -9.47099L268.499 -26.9302L298.952 -9.35511L268.699 8.10413ZM269.247 8.42039L299.5 -9.03885L329.752 8.42039L299.5 25.8796L269.247 8.42039ZM300.048 26.1959L330.301 8.73667L360.754 26.3118L330.501 43.771L300.048 26.1959ZM331.049 44.0873L361.302 26.6281L391.554 44.0873L361.302 61.5465L331.049 44.0873ZM361.85 61.8628L392.102 44.4035L422.556 61.9787L392.303 79.4379L361.85 61.8628ZM392.851 79.7542L423.104 62.2949L453.082 79.5961L422.83 97.0554L392.851 79.7542ZM423.378 97.3716L453.63 79.9124L484.358 97.6456L454.105 115.105L423.378 97.3716ZM454.653 115.421L484.906 97.9618L515.359 115.537L485.106 132.996L454.653 115.421ZM485.654 133.312L515.907 115.853L545.886 133.154L515.633 150.614L485.654 133.312ZM516.181 150.93L546.434 133.471L576.65 150.909L546.397 168.368L516.181 150.93ZM515.633 151.246L545.849 168.684L515.396 186.259L485.18 168.821L515.633 151.246ZM484.632 169.138L514.848 186.576L484.595 204.035L454.379 186.597L484.632 169.138ZM453.831 186.913L484.047 204.351L453.594 221.926L423.378 204.488L453.831 186.913ZM422.83 204.804L453.046 222.243L423.067 239.544L392.851 222.106L422.83 204.804ZM392.303 222.422L422.519 239.86L391.792 257.593L361.576 240.155L392.303 222.422ZM361.028 240.471L391.244 257.91L360.791 275.485L330.575 258.047L361.028 240.471ZM330.027 258.363L360.243 275.801L330.264 293.102L300.048 275.664L330.027 258.363ZM299.5 275.98L329.716 293.418L299.5 310.857L269.284 293.418L299.5 275.98ZM298.952 275.664L268.736 293.102L238.757 275.801L268.973 258.363L298.952 275.664ZM268.425 258.046L238.209 275.485L207.756 257.91L237.972 240.471L268.425 258.046ZM237.424 240.155L207.208 257.593L176.481 239.86L206.697 222.422L237.424 240.155ZM206.149 222.106L175.933 239.544L145.954 222.243L176.17 204.804L206.149 222.106ZM175.622 204.488L145.406 221.926L114.953 204.351L145.169 186.913L175.622 204.488ZM144.621 186.597L114.405 204.035L84.1521 186.576L114.368 169.138L144.621 186.597ZM113.82 168.821L83.6041 186.259L53.1507 168.684L83.3667 151.246L113.82 168.821ZM82.8187 150.93L52.6027 168.368L22.3502 150.909L52.5662 133.471L82.8187 150.93ZM83.3667 150.614L53.1142 133.154L83.0929 115.853L113.345 133.312L83.3667 150.614ZM113.893 132.996L83.6409 115.537L114.094 97.9618L144.347 115.421L113.893 132.996ZM144.895 115.105L114.642 97.6456L145.369 79.9124L175.622 97.3716L144.895 115.105ZM176.17 97.0554L145.917 79.5961L175.896 62.2949L206.149 79.7542L176.17 97.0554ZM206.697 79.4379L176.444 61.9787L206.897 44.4036L237.15 61.8628L206.697 79.4379ZM237.698 61.5465L207.445 44.0873L237.698 26.6281L267.951 44.0873L237.698 61.5465ZM268.499 43.771L238.246 26.3118L268.699 8.73667L298.952 26.1959L268.499 43.771ZM269.047 44.0873L299.5 26.5122L329.953 44.0873L299.5 61.6624L269.047 44.0873ZM300.048 61.9787L330.501 44.4035L360.754 61.8628L330.3 79.4379L300.048 61.9787ZM330.848 79.7542L361.302 62.1791L391.755 79.7542L361.302 97.3293L330.848 79.7542ZM361.85 97.6456L392.303 80.0704L422.282 97.3716L391.828 114.947L361.85 97.6456ZM392.377 115.263L422.83 97.6879L453.557 115.421L423.104 132.996L392.377 115.263ZM423.652 133.312L454.105 115.737L484.558 133.312L454.105 150.888L423.652 133.312ZM454.653 151.204L485.106 133.629L515.085 150.93L484.632 168.505L454.653 151.204ZM454.105 151.52L484.084 168.821L453.831 186.281L423.853 168.979L454.105 151.52ZM423.305 169.296L453.283 186.597L422.83 204.172L392.851 186.871L423.305 169.296ZM392.303 187.187L422.282 204.488L392.303 221.789L362.325 204.488L392.303 187.187ZM361.776 204.804L391.755 222.106L361.028 239.839L331.049 222.538L361.776 204.804ZM330.501 222.854L360.48 240.155L330.027 257.73L300.048 240.429L330.501 222.854ZM299.5 240.745L329.479 258.047L299.5 275.348L269.521 258.046L299.5 240.745ZM298.952 240.429L268.973 257.73L238.52 240.155L268.499 222.854L298.952 240.429ZM267.951 222.538L237.972 239.839L207.245 222.106L237.223 204.804L267.951 222.538ZM236.675 204.488L206.697 221.789L176.718 204.488L206.697 187.187L236.675 204.488ZM206.149 186.871L176.17 204.172L145.717 186.597L175.695 169.296L206.149 186.871ZM175.147 168.979L145.169 186.281L114.916 168.821L144.895 151.52L175.147 168.979ZM144.347 151.204L114.368 168.505L83.9147 150.93L113.893 133.629L144.347 151.204ZM144.895 150.888L114.441 133.312L144.895 115.737L175.348 133.312L144.895 150.888ZM175.896 132.996L145.443 115.421L176.17 97.6879L206.623 115.263L175.896 132.996ZM207.171 114.947L176.718 97.3716L206.697 80.0705L237.15 97.6456L207.171 114.947ZM237.698 97.3293L207.245 79.7542L237.698 62.1791L268.151 79.7542L237.698 97.3293ZM268.699 79.4379L238.246 61.8628L268.499 44.4036L298.952 61.9787L268.699 79.4379ZM269.247 79.7542L299.5 62.2949L329.752 79.7542L299.5 97.2134L269.247 79.7542ZM300.048 97.5297L330.3 80.0704L360.754 97.6456L330.501 115.105L300.048 97.5297ZM331.049 115.421L361.302 97.9618L391.28 115.263L361.028 132.722L331.049 115.421ZM361.576 133.039L391.828 115.579L422.556 133.312L392.303 150.772L361.576 133.039ZM392.851 151.088L423.104 133.629L453.557 151.204L423.305 168.663L392.851 151.088ZM392.303 151.404L422.757 168.979L392.303 186.555L361.85 168.979L392.303 151.404ZM361.302 169.296L391.755 186.871L361.776 204.172L331.323 186.597L361.302 169.296ZM330.775 186.913L361.229 204.488L330.501 222.221L300.048 204.646L330.775 186.913ZM299.5 204.963L329.953 222.538L299.5 240.113L269.047 222.538L299.5 204.963ZM298.952 204.646L268.499 222.221L237.771 204.488L268.225 186.913L298.952 204.646ZM267.677 186.597L237.223 204.172L207.245 186.871L237.698 169.296L267.677 186.597ZM237.15 168.979L206.697 186.555L176.243 168.979L206.697 151.404L237.15 168.979ZM206.149 151.088L175.695 168.663L145.443 151.204L175.896 133.629L206.149 151.088ZM206.697 150.772L176.444 133.312L207.171 115.579L237.424 133.039L206.697 150.772ZM237.972 132.722L207.719 115.263L237.698 97.9618L267.951 115.421L237.972 132.722ZM268.499 115.105L238.246 97.6456L268.699 80.0704L298.952 97.5297L268.499 115.105ZM269.047 115.421L299.5 97.846L329.953 115.421L299.5 132.996L269.047 115.421ZM300.048 133.312L330.501 115.737L360.48 133.039L330.027 150.614L300.048 133.312ZM330.575 150.93L361.028 133.355L391.755 151.088L361.302 168.663L330.575 150.93ZM330.027 151.246L360.754 168.979L330.775 186.281L300.048 168.547L330.027 151.246ZM299.5 168.864L330.227 186.597L299.5 204.33L268.773 186.597L299.5 168.864ZM298.952 168.547L268.225 186.281L238.246 168.979L268.973 151.246L298.952 168.547ZM268.425 150.93L237.698 168.663L207.245 151.088L237.972 133.355L268.425 150.93ZM268.973 150.614L238.52 133.039L268.499 115.737L298.952 133.312L268.973 150.614ZM269.521 150.93L299.5 133.629L329.479 150.93L299.5 168.231L269.521 150.93Z" fill="url(#paint1_linear_4478_4389)"/>
</g>
<path d="M600 173.19L300 346.19V347.19L600 174.19V173.19Z" fill="#189EE9"/>
<path d="M0 173.19L300 346.19V347.19L0 174.19V173.19Z" fill="#0C51A2"/>
<g filter="url(#filter0_i_4478_4389)">
<path fill-rule="evenodd" clip-rule="evenodd" d="M411.962 211.12L412.213 211.265L539.138 137.991L517.924 125.745L411.962 186.917L239.213 87.1897L238.713 87.4785L238.71 87.4768L45 199.306L66.2132 211.552L239.21 111.681L411.71 211.265L411.962 211.12Z" fill="#2A3260"/>
</g>
<path d="M56 205.69L239.5 99.1899L411.5 199.69L527 133.19" stroke="#4D547E" stroke-dasharray="6 6"/>
<g filter="url(#filter1_i_4478_4389)">
<rect width="26.1273" height="26.1273" rx="4" transform="matrix(0.866044 0.499967 -0.866044 0.499967 102.627 197.19)" fill="#283267" fill-opacity="0.8"/>
</g>
<path d="M102.5 210.69V196.69" stroke="#1D1B3A"/>
<g filter="url(#filter2_i_4478_4389)">
<path fill-rule="evenodd" clip-rule="evenodd" d="M112.648 184.389C112.876 183.698 113 182.958 113 182.19C113 178.324 109.866 175.19 106 175.19C104.217 175.19 102.589 175.857 101.353 176.955C100.693 176.474 99.8795 176.19 99 176.19C96.7909 176.19 95 177.981 95 180.19C95 180.657 95.0801 181.106 95.2273 181.522C92.0622 183.79 90 187.499 90 191.69C90 198.594 95.5964 204.19 102.5 204.19C109.404 204.19 115 198.594 115 191.69C115 188.965 114.128 186.443 112.648 184.389Z" fill="#1D1B3A"/>
</g>
<g filter="url(#filter3_i_4478_4389)">
<rect width="26.1273" height="26.1273" rx="4" transform="matrix(0.866044 0.499967 -0.866044 0.499967 282.627 25.1899)" fill="#283267" fill-opacity="0.8"/>
</g>
<path d="M282.5 38.6899V24.6899" stroke="#1D1B3A"/>
<g filter="url(#filter4_i_4478_4389)">
<path fill-rule="evenodd" clip-rule="evenodd" d="M292.648 12.3892C292.876 11.6976 293 10.9582 293 10.1899C293 6.32395 289.866 3.18994 286 3.18994C284.217 3.18994 282.589 3.85684 281.353 4.95486C280.693 4.47378 279.879 4.18994 279 4.18994C276.791 4.18994 275 5.9808 275 8.18994C275 8.65709 275.08 9.10553 275.227 9.52229C272.062 11.7902 270 15.4992 270 19.6899C270 26.5935 275.596 32.1899 282.5 32.1899C289.404 32.1899 295 26.5935 295 19.6899C295 16.9647 294.128 14.4432 292.648 12.3892Z" fill="#1D1B3A"/>
</g>
<g filter="url(#filter5_i_4478_4389)">
<rect width="26.1273" height="26.1273" rx="4" transform="matrix(0.866044 0.499967 -0.866044 0.499967 258.627 40.1899)" fill="#283267" fill-opacity="0.8"/>
</g>
<path d="M258.5 53.6899V39.6899" stroke="#1D1B3A"/>
<g filter="url(#filter6_i_4478_4389)">
<path fill-rule="evenodd" clip-rule="evenodd" d="M268.648 27.3892C268.876 26.6976 269 25.9582 269 25.1899C269 21.3239 265.866 18.1899 262 18.1899C260.217 18.1899 258.589 18.8568 257.353 19.9549C256.693 19.4738 255.879 19.1899 255 19.1899C252.791 19.1899 251 20.9808 251 23.1899C251 23.6571 251.08 24.1055 251.227 24.5223C248.062 26.7902 246 30.4992 246 34.6899C246 41.5935 251.596 47.1899 258.5 47.1899C265.404 47.1899 271 41.5935 271 34.6899C271 31.9647 270.128 29.4432 268.648 27.3892Z" fill="#1D1B3A"/>
</g>
<g filter="url(#filter7_i_4478_4389)">
<rect width="26.1273" height="26.1273" rx="4" transform="matrix(0.866044 0.499967 -0.866044 0.499967 157.627 96.1899)" fill="#283267" fill-opacity="0.8"/>
</g>
<path d="M157.5 109.69V95.6899" stroke="#1D1B3A"/>
<g filter="url(#filter8_i_4478_4389)">
<path fill-rule="evenodd" clip-rule="evenodd" d="M167.648 83.3892C167.876 82.6976 168 81.9582 168 81.1899C168 77.3239 164.866 74.1899 161 74.1899C159.217 74.1899 157.589 74.8568 156.353 75.9549C155.693 75.4738 154.879 75.1899 154 75.1899C151.791 75.1899 150 76.9808 150 79.1899C150 79.6571 150.08 80.1055 150.227 80.5223C147.062 82.7902 145 86.4992 145 90.6899C145 97.5935 150.596 103.19 157.5 103.19C164.404 103.19 170 97.5935 170 90.6899C170 87.9647 169.128 85.4432 167.648 83.3892Z" fill="#1D1B3A"/>
</g>
<g filter="url(#filter9_i_4478_4389)">
<rect width="26.1273" height="26.1273" rx="4" transform="matrix(0.866044 0.499967 -0.866044 0.499967 127.627 109.19)" fill="#283267" fill-opacity="0.8"/>
</g>
<path d="M127.5 122.69V108.69" stroke="#1D1B3A"/>
<g filter="url(#filter10_i_4478_4389)">
<path fill-rule="evenodd" clip-rule="evenodd" d="M137.648 96.3892C137.876 95.6976 138 94.9582 138 94.1899C138 90.3239 134.866 87.1899 131 87.1899C129.217 87.1899 127.589 87.8568 126.353 88.9549C125.693 88.4738 124.879 88.1899 124 88.1899C121.791 88.1899 120 89.9808 120 92.1899C120 92.6571 120.08 93.1055 120.227 93.5223C117.062 95.7902 115 99.4992 115 103.69C115 110.594 120.596 116.19 127.5 116.19C134.404 116.19 140 110.594 140 103.69C140 100.965 139.128 98.4432 137.648 96.3892Z" fill="#1D1B3A"/>
</g>
<g filter="url(#filter11_i_4478_4389)">
<rect width="26.1273" height="26.1273" rx="4" transform="matrix(0.866044 0.499967 -0.866044 0.499967 460.627 123.19)" fill="#283267" fill-opacity="0.8"/>
</g>
<path d="M460.5 136.69V122.69" stroke="#1D1B3A"/>
<g filter="url(#filter12_i_4478_4389)">
<path fill-rule="evenodd" clip-rule="evenodd" d="M460.235 102.19L465 111.19H463.353L466 116.19H464.353L467 121.19H465.353L468 126.19H466.353L469 131.19H452L454.353 126.19H453L455.353 121.19H454L456.353 116.19H455L457.353 111.19H456L460.235 102.19Z" fill="#1D1B3A"/>
</g>
<g filter="url(#filter13_i_4478_4389)">
<rect width="26.1273" height="26.1273" rx="4" transform="matrix(0.866044 0.499967 -0.866044 0.499967 541.627 145.19)" fill="#283267" fill-opacity="0.8"/>
</g>
<path d="M541.5 158.69V144.69" stroke="#1D1B3A"/>
<g filter="url(#filter14_i_4478_4389)">
<path fill-rule="evenodd" clip-rule="evenodd" d="M551.648 132.389C551.876 131.698 552 130.958 552 130.19C552 126.324 548.866 123.19 545 123.19C543.217 123.19 541.589 123.857 540.353 124.955C539.693 124.474 538.879 124.19 538 124.19C535.791 124.19 534 125.981 534 128.19C534 128.657 534.08 129.106 534.227 129.522C531.062 131.79 529 135.499 529 139.69C529 146.594 534.596 152.19 541.5 152.19C548.404 152.19 554 146.594 554 139.69C554 136.965 553.128 134.443 551.648 132.389Z" fill="#1D1B3A"/>
</g>
<g filter="url(#filter15_i_4478_4389)">
<rect width="26.1273" height="26.1273" rx="4" transform="matrix(0.866044 0.499967 -0.866044 0.499967 408.627 151.19)" fill="#283267" fill-opacity="0.8"/>
</g>
<path d="M408.5 164.69V150.69" stroke="#1D1B3A"/>
<g filter="url(#filter16_i_4478_4389)">
<path fill-rule="evenodd" clip-rule="evenodd" d="M408.235 130.19L413 139.19H411.353L414 144.19H412.353L415 149.19H413.353L416 154.19H414.353L417 159.19H400L402.353 154.19H401L403.353 149.19H402L404.353 144.19H403L405.353 139.19H404L408.235 130.19Z" fill="#1D1B3A"/>
</g>
<g filter="url(#filter17_i_4478_4389)">
<rect width="26.1273" height="26.1273" rx="4" transform="matrix(0.866044 0.499967 -0.866044 0.499967 101.627 123.19)" fill="#283267" fill-opacity="0.8"/>
</g>
<path d="M101.5 136.69V122.69" stroke="#1D1B3A"/>
<g filter="url(#filter18_i_4478_4389)">
<path fill-rule="evenodd" clip-rule="evenodd" d="M101.235 102.19L106 111.19H104.353L107 116.19H105.353L108 121.19H106.353L109 126.19H107.353L110 131.19H93L95.3529 126.19H94L96.3529 121.19H95L97.3529 116.19H96L98.3529 111.19H97L101.235 102.19Z" fill="#1D1B3A"/>
</g>
<g filter="url(#filter19_i_4478_4389)">
<rect width="26.1273" height="26.1273" rx="4" transform="matrix(0.866044 0.499967 -0.866044 0.499967 516.627 161.19)" fill="#283267" fill-opacity="0.8"/>
</g>
<path d="M516.5 174.69V160.69" stroke="#1D1B3A"/>
<g filter="url(#filter20_i_4478_4389)">
<path fill-rule="evenodd" clip-rule="evenodd" d="M526.648 148.389C526.876 147.698 527 146.958 527 146.19C527 142.324 523.866 139.19 520 139.19C518.217 139.19 516.589 139.857 515.353 140.955C514.693 140.474 513.879 140.19 513 140.19C510.791 140.19 509 141.981 509 144.19C509 144.657 509.08 145.106 509.227 145.522C506.062 147.79 504 151.499 504 155.69C504 162.594 509.596 168.19 516.5 168.19C523.404 168.19 529 162.594 529 155.69C529 152.965 528.128 150.443 526.648 148.389Z" fill="#1D1B3A"/>
</g>
<g filter="url(#filter21_i_4478_4389)">
<rect width="26.1273" height="26.1273" rx="4" transform="matrix(0.866044 0.499967 -0.866044 0.499967 434.627 137.19)" fill="#283267" fill-opacity="0.8"/>
</g>
<path d="M434.5 150.69V136.69" stroke="#1D1B3A"/>
<g filter="url(#filter22_i_4478_4389)">
<path fill-rule="evenodd" clip-rule="evenodd" d="M444.648 124.389C444.876 123.698 445 122.958 445 122.19C445 118.324 441.866 115.19 438 115.19C436.217 115.19 434.589 115.857 433.353 116.955C432.693 116.474 431.879 116.19 431 116.19C428.791 116.19 427 117.981 427 120.19C427 120.657 427.08 121.106 427.227 121.522C424.062 123.79 422 127.499 422 131.69C422 138.594 427.596 144.19 434.5 144.19C441.404 144.19 447 138.594 447 131.69C447 128.965 446.128 126.443 444.648 124.389Z" fill="#1D1B3A"/>
</g>
<g opacity="0.6">
<path d="M272 104.591L344.261 146.563V120.601L272 79.0619V104.591Z" fill="url(#paint2_linear_4478_4389)"/>
<path d="M323.059 75.6L395.319 117.572V91.3935L323.059 49.8544V75.6Z" fill="url(#paint3_linear_4478_4389)"/>
<path d="M403.541 69.326V43.1477L368.492 23V48.9684L403.541 69.326Z" fill="url(#paint4_linear_4478_4389)"/>
<path d="M395.103 117.139L344.261 146.563V120.601L395.103 91.61V117.139Z" fill="url(#paint5_linear_4478_4389)"/>
<path d="M403.757 68.6767L352.915 98.1003V72.1383L403.757 43.1475V68.6767Z" fill="url(#paint6_linear_4478_4389)"/>
<path d="M272.216 105.024V79.2779L368.492 23.5394V48.8628L272.216 105.024Z" fill="url(#paint7_linear_4478_4389)"/>
<path d="M272 79.0615L344.261 120.601L395.319 91.6098L323.059 50.0707L272 79.0615Z" fill="#222B56"/>
<path d="M323.059 49.611L357.242 69.5151L403.757 43.1205L369.574 23.2163L323.059 49.611Z" fill="#222B56"/>
</g>
<g filter="url(#filter23_i_4478_4389)">
<rect width="26.1273" height="26.1273" rx="4" transform="matrix(0.866044 0.499967 -0.866044 0.499967 487.627 176.19)" fill="#283267" fill-opacity="0.8"/>
</g>
<path d="M487.5 189.69V175.69" stroke="#1D1B3A"/>
<g filter="url(#filter24_i_4478_4389)">
<path fill-rule="evenodd" clip-rule="evenodd" d="M487.235 155.19L492 164.19H490.353L493 169.19H491.353L494 174.19H492.353L495 179.19H493.353L496 184.19H479L481.353 179.19H480L482.353 174.19H481L483.353 169.19H482L484.353 164.19H483L487.235 155.19Z" fill="#1D1B3A"/>
</g>
<path d="M351.5 245.69V270.69L469 202.19L510 225.69" stroke="#42A4F5"/>
<path d="M509.5 225.69V363.19" stroke="url(#paint8_linear_4478_4389)"/>
<path d="M174.699 169.567L175.132 169.817L175.565 169.567L175.132 169.317L174.699 169.567ZM145 186.712L144.567 186.462L144.134 186.712L144.567 186.962L145 186.712ZM174.699 169.567L174.266 169.317L173.832 169.567L174.266 169.817L174.699 169.567ZM237.71 133.191L238.143 132.941L237.71 132.691L237.277 132.941L237.71 133.191ZM237.71 133.191L237.277 133.441L237.71 133.691L238.143 133.441L237.71 133.191ZM237.711 133.19L238.144 132.94L237.711 132.69L237.278 132.94L237.711 133.19ZM298.995 168.569L299.428 168.819L299.861 168.569L299.428 168.319L298.995 168.569ZM298.994 168.57L298.561 168.32L298.128 168.57L298.561 168.82L298.994 168.57ZM422.401 239.813L422.834 240.063L423.267 239.813L422.834 239.563L422.401 239.813ZM422.328 239.855L421.895 239.605L421.462 239.855L421.895 240.105L422.328 239.855ZM422.393 239.892L422.826 240.142L423.259 239.892L422.826 239.642L422.393 239.892ZM330.397 293.002L329.964 293.252L330.397 293.502L330.83 293.252L330.397 293.002ZM269.345 257.757L268.912 257.507L268.479 257.757L268.912 258.007L269.345 257.757ZM298.403 240.982L298.836 241.232L299.269 240.982L298.836 240.732L298.403 240.982ZM235.983 204.946L236.416 204.696L235.983 204.446L235.55 204.696L235.983 204.946ZM206.284 222.091L205.851 222.341L206.284 222.591L206.717 222.341L206.284 222.091ZM174.266 169.317L144.567 186.462L145.433 186.962L175.132 169.817L174.266 169.317ZM174.266 169.817L174.266 169.817L175.132 169.317L175.132 169.317L174.266 169.817ZM237.277 132.941L174.266 169.317L175.132 169.817L238.143 133.441L237.277 132.941ZM238.143 132.941L238.143 132.941L237.277 133.441L237.277 133.441L238.143 132.941ZM237.278 132.94L237.277 132.941L238.143 133.441L238.144 133.44L237.278 132.94ZM299.428 168.319L238.144 132.94L237.278 133.44L298.562 168.819L299.428 168.319ZM299.427 168.82L299.428 168.819L298.562 168.319L298.561 168.32L299.427 168.82ZM422.834 239.563L299.427 168.32L298.561 168.82L421.968 240.063L422.834 239.563ZM422.761 240.105L422.834 240.063L421.968 239.563L421.895 239.605L422.761 240.105ZM421.895 240.105L421.96 240.142L422.826 239.642L422.761 239.605L421.895 240.105ZM421.96 239.642L329.964 292.752L330.83 293.252L422.826 240.142L421.96 239.642ZM330.83 292.752L269.778 257.507L268.912 258.007L329.964 293.252L330.83 292.752ZM269.778 258.007L298.836 241.232L297.97 240.732L268.912 257.507L269.778 258.007ZM235.55 205.196L297.97 241.232L298.836 240.732L236.416 204.696L235.55 205.196ZM206.717 222.341L236.416 205.196L235.55 204.696L205.851 221.841L206.717 222.341ZM144.567 186.962L205.851 222.341L206.717 221.841L145.433 186.462L144.567 186.962Z" fill="white" fill-opacity="0.3"/>
<g clip-path="url(#clip0_4478_4389)">
<path d="M351.035 222.344L348.865 221.11L348.88 221.102L351.043 222.344H351.035Z" fill="#7EB3D2"/>
<path d="M351.043 222.344L348.872 221.102C348.93 221.073 348.984 221.038 349.034 220.996L351.235 222.238C351.185 222.279 351.131 222.315 351.073 222.344" fill="#80B5D3"/>
<path d="M351.043 222.344L348.872 221.102C348.93 221.073 348.984 221.038 349.034 220.996L351.235 222.238C351.185 222.279 351.131 222.315 351.073 222.344" fill="#80B5D3"/>
<path d="M351.235 222.238L349.034 220.997C349.202 220.875 349.345 220.723 349.457 220.55L351.627 221.791C351.516 221.965 351.372 222.116 351.204 222.238" fill="#81B6D4"/>
<path d="M351.627 221.791L349.457 220.55L349.527 220.429L351.697 221.67L351.627 221.791Z" fill="#80B5D3"/>
<path d="M351.697 221.67L349.527 220.429C349.549 220.399 349.567 220.365 349.58 220.33L351.751 221.572C351.736 221.606 351.718 221.639 351.697 221.67Z" fill="#7EB3D2"/>
<path d="M351.751 221.572L349.58 220.33V220.255L351.751 221.488C351.751 221.488 351.751 221.541 351.751 221.572Z" fill="#7CB1D1"/>
<path d="M351.781 221.489L349.611 220.255V220.172L351.805 221.413V221.489" fill="#7AB0D0"/>
<path d="M351.805 221.413L349.634 220.171C349.639 220.146 349.639 220.121 349.634 220.096L351.805 221.337V221.413Z" fill="#78AECF"/>
<path d="M351.828 221.337L349.696 220.096C349.7 220.071 349.7 220.045 349.696 220.02L351.866 221.261C351.87 221.286 351.87 221.312 351.866 221.337" fill="#76ADCD"/>
<path d="M351.843 221.261L349.696 220.02C349.696 220.02 349.696 219.974 349.696 219.944L351.851 221.186C351.855 221.211 351.855 221.236 351.851 221.261" fill="#75ABCC"/>
<path d="M351.851 221.186L349.696 219.944V219.899L351.866 221.14C351.87 221.168 351.87 221.196 351.866 221.223" fill="#73AACB"/>
<path d="M351.858 221.103L349.696 219.899C349.7 219.869 349.7 219.838 349.696 219.808L351.866 221.05C351.87 221.08 351.87 221.11 351.866 221.14" fill="#71A8CA"/>
<path d="M351.851 221.012L349.696 219.77C349.692 219.703 349.672 219.637 349.638 219.579C349.603 219.521 349.554 219.473 349.496 219.437L351.651 220.656C351.709 220.691 351.758 220.74 351.792 220.798C351.827 220.856 351.847 220.922 351.851 220.989" fill="#70A7C9"/>
<path d="M347.641 222.677L345.471 221.413C345.577 221.473 345.688 221.526 345.802 221.572L347.972 222.813C347.858 222.768 347.747 222.715 347.641 222.654" fill="#71A8CA"/>
<path d="M347.972 222.836L345.802 221.594C345.938 221.647 346.08 221.685 346.225 221.708L348.395 222.927C348.252 222.897 348.111 222.859 347.972 222.813" fill="#73AACB"/>
<path d="M348.395 222.927L346.225 221.708C346.36 221.731 346.496 221.746 346.633 221.753L348.803 222.995C348.666 222.98 348.53 222.957 348.395 222.927Z" fill="#75ABCC"/>
<path d="M348.803 222.995L346.617 221.753C346.751 221.761 346.884 221.761 347.018 221.753L349.188 222.995H348.788" fill="#76ADCD"/>
<path d="M349.203 222.98L347.033 221.738L347.448 221.67L349.619 222.927C349.481 222.957 349.343 222.979 349.203 222.995" fill="#78AECF"/>
<path d="M349.619 222.927L347.449 221.67C347.597 221.639 347.744 221.599 347.887 221.549L350.05 222.79C349.909 222.845 349.765 222.891 349.619 222.927Z" fill="#7AB0D0"/>
<path d="M350.05 222.79L347.887 221.549C348.047 221.497 348.204 221.436 348.357 221.367L350.527 222.609C350.365 222.677 350.211 222.737 350.05 222.79Z" fill="#7CB1D1"/>
<path d="M350.527 222.609L348.357 221.367C348.531 221.29 348.7 221.205 348.865 221.11L351.035 222.344C350.87 222.441 350.701 222.529 350.527 222.609Z" fill="#7EB3D2"/>
<path d="M347.641 222.677L345.471 221.413C345.577 221.473 345.688 221.526 345.802 221.572L347.972 222.813C347.858 222.768 347.747 222.715 347.641 222.654" fill="#71A8CA"/>
<path d="M347.202 221.413L345.032 220.179L345.294 220.3L347.464 221.541C347.373 221.506 347.286 221.463 347.202 221.413Z" fill="#92B3D3"/>
<path d="M347.464 221.541L345.294 220.3C345.404 220.338 345.517 220.369 345.632 220.391L347.803 221.632C347.688 221.61 347.574 221.58 347.464 221.541Z" fill="#96B5D5"/>
<path d="M347.802 221.632L345.632 220.391C345.747 220.412 345.862 220.424 345.979 220.429L348.156 221.67C348.04 221.666 347.925 221.653 347.81 221.632" fill="#99B8D6"/>
<path d="M348.157 221.67L345.979 220.429C346.099 220.436 346.22 220.436 346.34 220.429L348.511 221.67C348.39 221.678 348.269 221.678 348.149 221.67" fill="#9DBBD8"/>
<path d="M348.511 221.655L346.34 220.414C346.475 220.4 346.608 220.38 346.741 220.353L348.926 221.587L348.526 221.655" fill="#A1BDDA"/>
<path d="M348.926 221.587L346.741 220.353L347.195 220.224L349.365 221.466C349.216 221.515 349.064 221.555 348.911 221.587" fill="#A6C0DB"/>
<path d="M349.365 221.466L347.195 220.224C347.372 220.164 347.556 220.096 347.749 220.012L349.919 221.246C349.739 221.33 349.554 221.403 349.365 221.466Z" fill="#AAC3DD"/>
<path d="M349.919 221.246L347.749 220.012C347.956 219.914 348.18 219.8 348.418 219.664H348.457L350.627 220.905H350.588C350.372 221.031 350.148 221.144 349.919 221.246Z" fill="#AEC6DF"/>
<path d="M350.627 220.883L348.457 219.641H348.465L350.635 220.875L350.627 220.883Z" fill="#B3C9E1"/>
<path d="M350.635 220.875L348.464 219.641L348.703 219.52L350.873 220.762C350.791 220.798 350.712 220.838 350.635 220.883" fill="#AEC6DF"/>
<path d="M350.881 220.754L348.711 219.513L348.926 219.445L351.058 220.656L350.881 220.724" fill="#AAC3DD"/>
<path d="M351.058 220.656L348.926 219.445H349.065L351.235 220.656L351.089 220.701" fill="#A6C0DB"/>
<path d="M351.235 220.656L349.034 219.407C349.072 219.403 349.111 219.403 349.149 219.407L351.32 220.656H351.235Z" fill="#A1BDDA"/>
<path d="M351.32 220.656L349.149 219.384C349.183 219.38 349.216 219.38 349.249 219.384L351.42 220.656H351.32Z" fill="#9DBBD8"/>
<path d="M351.42 220.656L349.249 219.384H349.334L351.504 220.656H351.42Z" fill="#99B8D6"/>
<path d="M351.504 220.656L349.334 219.392H349.419L351.589 220.656C351.561 220.648 351.532 220.648 351.504 220.656Z" fill="#96B5D5"/>
<path d="M351.589 220.656L349.419 219.414H349.48L351.651 220.656H351.589Z" fill="#92B3D3"/>
<path d="M347.202 221.413L345.032 220.179C344.768 220.015 344.547 219.793 344.385 219.53C344.224 219.267 344.126 218.971 344.101 218.665L346.263 219.899C346.289 220.206 346.387 220.503 346.55 220.766C346.713 221.029 346.936 221.25 347.202 221.413Z" fill="#70A7C9"/>
<path d="M354.967 206.531L352.774 205.289L353.798 205.865L355.968 207.106L354.944 206.531" fill="#71A8CA"/>
<path d="M347.641 222.677L345.471 221.413C345.074 221.154 344.745 220.806 344.511 220.398C344.277 219.991 344.144 219.534 344.124 219.066L346.287 220.308C346.308 220.776 346.442 221.233 346.678 221.641C346.913 222.048 347.243 222.396 347.641 222.654" fill="#8EB1D2"/>
<path d="M346.287 220.33L344.124 219.089C344.093 218.871 344.077 218.651 344.078 218.43L346.248 219.672C346.249 219.892 346.262 220.112 346.287 220.33Z" fill="#92B3D3"/>
<path d="M347.202 221.413L345.032 220.179C344.768 220.015 344.547 219.793 344.385 219.53C344.224 219.267 344.126 218.971 344.101 218.665L346.263 219.899C346.289 220.206 346.387 220.503 346.55 220.766C346.713 221.029 346.936 221.25 347.202 221.413Z" fill="#70A7C9"/>
<path d="M346.263 219.899L344.101 218.688C344.093 218.602 344.093 218.516 344.101 218.43L346.248 219.672C346.248 219.755 346.248 219.838 346.248 219.929" fill="#71A8CA"/>
<path d="M346.248 219.672C346.248 220.959 347.456 222.7 350.588 220.906H350.642C352.235 219.997 352.182 221.746 351.035 222.374C348.395 223.843 346.256 222.647 346.248 219.672Z" fill="#CAE7FA"/>
<path d="M346.333 224.698L344.163 223.457C343.545 223.054 343.033 222.513 342.668 221.879C342.303 221.245 342.095 220.536 342.062 219.808L344.232 221.049C344.266 221.777 344.474 222.487 344.839 223.121C345.204 223.755 345.716 224.295 346.333 224.698Z" fill="#4B82B4"/>
<path d="M344.232 221.049L342.062 219.808C342.021 219.466 342 219.122 342 218.778V218.597L344.17 219.838V220.02C344.171 220.364 344.191 220.708 344.232 221.049Z" fill="#4B82B4"/>
<path d="M344.17 219.838L342 218.597C342 218.022 342.031 217.446 342.092 216.871L344.263 218.112C344.211 218.688 344.18 219.263 344.17 219.838Z" fill="#4B82B4"/>
<path d="M344.263 218.112L342.092 216.871C342.146 216.341 342.223 215.819 342.316 215.281L344.486 216.523C344.386 217.053 344.316 217.583 344.263 218.112Z" fill="#4B82B4"/>
<path d="M344.486 216.523L342.316 215.281C342.408 214.759 342.516 214.229 342.647 213.699L344.817 214.941C344.686 215.471 344.578 216.001 344.486 216.523Z" fill="#4B82B4"/>
<path d="M344.817 214.941L342.646 213.699C342.785 213.132 342.946 212.564 343.123 211.989L345.294 213.23C345.117 213.805 344.955 214.373 344.817 214.941Z" fill="#4B82B4"/>
<path d="M345.294 213.23L343.124 211.989C343.331 211.338 343.555 210.671 343.809 210.005L345.979 211.247C345.725 211.913 345.502 212.571 345.294 213.23Z" fill="#4B82B4"/>
<path d="M345.979 211.247L343.809 210.005C344.132 209.158 344.486 208.302 344.878 207.439L347.048 208.681C346.656 209.544 346.279 210.399 345.979 211.247Z" fill="#4B82B4"/>
<path d="M347.048 208.681L344.878 207.439C345.502 206.046 346.21 204.631 346.979 203.185L349.142 204.426C348.372 205.872 347.672 207.288 347.048 208.681Z" fill="#4B82B4"/>
<path d="M349.142 204.426L346.979 203.185C348.01 201.24 349.157 199.249 350.365 197.19L352.536 198.431C351.327 200.49 350.181 202.489 349.142 204.426Z" fill="#4B82B4"/>
<path d="M352.536 198.431C349.457 208.491 358.985 205.002 359 211.595C359 216.228 355.706 221.859 351.612 224.183C347.518 226.507 344.186 224.653 344.17 220.02C344.147 213.359 347.887 206.349 352.536 198.431ZM351.035 222.344C352.151 221.716 352.235 219.967 350.658 220.868H350.588C347.456 222.647 346.256 220.921 346.248 219.634C346.248 222.609 348.395 223.805 351.035 222.306" fill="#75C2E8"/>
</g>
<path fill-rule="evenodd" clip-rule="evenodd" d="M145 85.712L174.699 68.567L174.699 68.567L237.71 32.1906L237.71 32.1906L237.711 32.19L298.995 67.5693L298.994 67.57L422.401 138.813L422.328 138.855L422.393 138.892L330.397 192.002L269.345 156.757L298.403 139.982L235.983 103.946L206.284 121.091L145 85.712Z" fill="#232B56" fill-opacity="0.9"/>
<path d="M174.699 68.567L175.132 68.817L175.565 68.567L175.132 68.3171L174.699 68.567ZM145 85.712L144.567 85.462L144.134 85.712L144.567 85.962L145 85.712ZM174.699 68.567L174.266 68.317L173.832 68.567L174.266 68.817L174.699 68.567ZM237.71 32.1906L238.143 31.9406L237.71 31.6906L237.277 31.9406L237.71 32.1906ZM237.71 32.1906L237.277 32.4406L237.71 32.6906L238.143 32.4406L237.71 32.1906ZM237.711 32.19L238.144 31.94L237.711 31.69L237.278 31.94L237.711 32.19ZM298.995 67.5693L299.428 67.8193L299.861 67.5693L299.428 67.3193L298.995 67.5693ZM298.994 67.57L298.561 67.32L298.128 67.57L298.561 67.82L298.994 67.57ZM422.401 138.813L422.834 139.063L423.267 138.813L422.834 138.563L422.401 138.813ZM422.328 138.855L421.895 138.605L421.462 138.855L421.895 139.105L422.328 138.855ZM422.393 138.892L422.826 139.142L423.259 138.892L422.826 138.642L422.393 138.892ZM330.397 192.002L329.964 192.252L330.397 192.502L330.83 192.252L330.397 192.002ZM269.345 156.757L268.912 156.507L268.479 156.757L268.912 157.007L269.345 156.757ZM298.403 139.982L298.836 140.232L299.269 139.982L298.836 139.732L298.403 139.982ZM235.983 103.946L236.416 103.696L235.983 103.446L235.55 103.696L235.983 103.946ZM206.284 121.091L205.851 121.341L206.284 121.591L206.717 121.341L206.284 121.091ZM174.266 68.3171L144.567 85.462L145.433 85.962L175.132 68.817L174.266 68.3171ZM174.266 68.817L174.266 68.817L175.132 68.3171L175.132 68.317L174.266 68.817ZM237.277 31.9406L174.266 68.317L175.132 68.817L238.143 32.4406L237.277 31.9406ZM238.143 31.9407L238.143 31.9406L237.277 32.4406L237.277 32.4406L238.143 31.9407ZM237.278 31.94L237.277 31.9407L238.143 32.4406L238.144 32.44L237.278 31.94ZM299.428 67.3193L238.144 31.94L237.278 32.44L298.562 67.8193L299.428 67.3193ZM299.427 67.82L299.428 67.8193L298.562 67.3193L298.561 67.32L299.427 67.82ZM422.834 138.563L299.427 67.32L298.561 67.82L421.968 139.063L422.834 138.563ZM422.761 139.105L422.834 139.063L421.968 138.563L421.895 138.605L422.761 139.105ZM421.895 139.105L421.96 139.142L422.826 138.642L422.761 138.605L421.895 139.105ZM421.96 138.642L329.964 191.752L330.83 192.252L422.826 139.142L421.96 138.642ZM330.83 191.752L269.778 156.507L268.912 157.007L329.964 192.252L330.83 191.752ZM269.778 157.007L298.836 140.232L297.97 139.732L268.912 156.507L269.778 157.007ZM235.55 104.196L297.97 140.232L298.836 139.732L236.416 103.696L235.55 104.196ZM206.717 121.341L236.416 104.196L235.55 103.696L205.851 120.841L206.717 121.341ZM144.567 85.962L205.851 121.341L206.717 120.841L145.433 85.462L144.567 85.962Z" fill="white"/>
<path d="M330 191.69L423 138.69V240.19L330 293.19V191.69Z" fill="url(#paint9_linear_4478_4389)"/>
<circle cx="7.78329" cy="7.78329" r="7.78329" transform="matrix(0.866044 0.499967 -0.866044 0.499967 350.996 237.837)" fill="#42A4F5"/>
<circle cx="11.2472" cy="11.2472" r="10.7472" transform="matrix(0.866044 0.499967 -0.866044 0.499967 350.996 234.374)" stroke="#42A4F5" stroke-opacity="0.6"/>
<circle cx="14.4312" cy="14.4312" r="13.9312" transform="matrix(0.866044 0.499967 -0.866044 0.499967 350.996 231.19)" stroke="#42A4F5" stroke-opacity="0.3"/>
<path d="M206 121.19L236 103.69V205.19L206 222.69V121.19Z" fill="url(#paint10_linear_4478_4389)"/>
<path d="M206 121.19L145 86.1899V186.19L206 222.19V121.19Z" fill="url(#paint11_linear_4478_4389)"/>
<path d="M298.5 139.19L236 104.19V205.19L298.5 241.19V139.19Z" fill="url(#paint12_linear_4478_4389)"/>
<path d="M330 192.19L269 157.19V257.69L330 293.19V192.19Z" fill="url(#paint13_linear_4478_4389)"/>
<path d="M145 85.1899V186.69" stroke="url(#paint14_linear_4478_4389)"/>
<path d="M206 121.19V222.69" stroke="url(#paint15_linear_4478_4389)"/>
<path d="M236 104.19V205.69" stroke="url(#paint16_linear_4478_4389)"/>
<path d="M269 157.19V258.69" stroke="url(#paint17_linear_4478_4389)"/>
<path d="M330 192.19V293.69" stroke="url(#paint18_linear_4478_4389)"/>
<path d="M423 138.69V240.69" stroke="url(#paint19_linear_4478_4389)"/>
<g filter="url(#filter25_i_4478_4389)">
<rect width="25.1028" height="56.2782" transform="matrix(0.866044 0.499967 -0.866044 0.499967 236.515 38.1021)" fill="#232B56" fill-opacity="0.8"/>
</g>
<rect y="0.499967" width="24.1028" height="55.2782" transform="matrix(0.866044 0.499967 -0.866044 0.499967 236.948 38.3521)" stroke="white" stroke-opacity="0.5"/>
<path fill-rule="evenodd" clip-rule="evenodd" d="M221 17.1899H222V48.1899H221V17.1899ZM225 27.1899H226V46.1899H225V27.1899ZM218 32.1899H217V51.1899H218V32.1899Z" fill="white"/>
<g filter="url(#filter26_i_4478_4389)">
<rect width="26.1273" height="26.1273" rx="4" transform="matrix(0.866044 0.499967 -0.866044 0.499967 310.627 299.19)" fill="#283267" fill-opacity="0.8"/>
</g>
<path d="M310.5 312.69V298.69" stroke="#1D1B3A"/>
<g filter="url(#filter27_i_4478_4389)">
<path fill-rule="evenodd" clip-rule="evenodd" d="M320.648 286.389C320.876 285.698 321 284.958 321 284.19C321 280.324 317.866 277.19 314 277.19C312.217 277.19 310.589 277.857 309.353 278.955C308.693 278.474 307.879 278.19 307 278.19C304.791 278.19 303 279.981 303 282.19C303 282.657 303.08 283.106 303.227 283.522C300.062 285.79 298 289.499 298 293.69C298 300.594 303.596 306.19 310.5 306.19C317.404 306.19 323 300.594 323 293.69C323 290.965 322.128 288.443 320.648 286.389Z" fill="#1D1B3A"/>
</g>
<ellipse cx="2.70417" cy="2.70417" rx="2.70417" ry="2.70417" transform="matrix(-0.589935 0.807451 -0.518444 -0.855112 223.791 145.51)" fill="#FEC007"/>
<path d="M217.899 149.345C216.493 147.026 216.65 143.373 218.25 141.184C219.849 138.995 222.284 139.1 223.69 141.418C225.095 143.736 224.938 147.39 223.339 149.578C221.74 151.767 219.304 151.663 217.899 149.345Z" stroke="#FEC007" stroke-opacity="0.8"/>
<circle cx="8.26615" cy="8.26615" r="7.76615" transform="matrix(-0.589935 0.807451 -0.518444 -0.855112 229.956 145.775)" stroke="#FEC007" stroke-opacity="0.5"/>
<circle cx="11.5325" cy="11.5325" r="11.0325" transform="matrix(-0.589935 0.807451 -0.518444 -0.855112 233.577 145.931)" stroke="#FEC007" stroke-opacity="0.2"/>
<g clip-path="url(#clip1_4478_4389)" filter="url(#filter28_d_4478_4389)">
<path d="M219.697 129.19L217.138 127.747L222.773 111.793L225.323 113.236L219.697 129.19Z" fill="#CA9953"/>
<path d="M223.227 110.746L220.668 109.302L230.45 103.829L233 105.263L223.227 110.746Z" fill="#DAA55F"/>
<path d="M220.423 101.567L217.864 100.124L230.241 93.1899L232.8 94.6331L220.423 101.567Z" fill="#DAA55F"/>
<path d="M215.559 118.709L213 117.266L217.864 100.124L220.423 101.567L215.559 118.709Z" fill="#CA9953"/>
<path d="M233 105.263L219.697 129.19L225.323 113.236L215.559 118.709L220.423 101.567L232.8 94.6331L223.227 110.746L233 105.263Z" fill="#F6CF54"/>
</g>
<g filter="url(#filter29_d_4478_4389)">
<path d="M221 145.69V178.69L236 169.69L257.5 182.19V217.19L166.5 269.19" stroke="#FEC007"/>
</g>
<rect x="166" y="269.19" width="1" height="73" stroke="url(#paint20_linear_4478_4389)"/>
<g filter="url(#filter30_i_4478_4389)">
<rect width="26.1273" height="26.1273" rx="4" transform="matrix(0.866044 0.499967 -0.866044 0.499967 417.627 69)" fill="#283267" fill-opacity="0.8"/>
</g>
<path d="M417.5 82.5V68.5" stroke="#1D1B3A"/>
<g filter="url(#filter31_i_4478_4389)">
<path fill-rule="evenodd" clip-rule="evenodd" d="M417.235 48L422 57H420.353L423 62H421.353L424 67H422.353L425 72H423.353L426 77H409L411.353 72H410L412.353 67H411L413.353 62H412L414.353 57H413L417.235 48Z" fill="#1D1B3A"/>
</g>
<g filter="url(#filter32_i_4478_4389)">
<rect width="26.1273" height="26.1273" rx="4" transform="matrix(0.866044 0.499967 -0.866044 0.499967 368.627 27)" fill="#283267" fill-opacity="0.8"/>
</g>
<path d="M368.5 40.5V26.5" stroke="#1D1B3A"/>
<g filter="url(#filter33_i_4478_4389)">
<path fill-rule="evenodd" clip-rule="evenodd" d="M368.235 6L373 15H371.353L374 20H372.353L375 25H373.353L376 30H374.353L377 35H360L362.353 30H361L363.353 25H362L364.353 20H363L365.353 15H364L368.235 6Z" fill="#1D1B3A"/>
</g>
<defs>
<filter id="filter0_i_4478_4389" x="45" y="87.1897" width="494.138" height="124.362" filterUnits="userSpaceOnUse" color-interpolation-filters="sRGB">
<feFlood flood-opacity="0" result="BackgroundImageFix"/>
<feBlend mode="normal" in="SourceGraphic" in2="BackgroundImageFix" result="shape"/>
<feColorMatrix in="SourceAlpha" type="matrix" values="0 0 0 0 0 0 0 0 0 0 0 0 0 0 0 0 0 0 127 0" result="hardAlpha"/>
<feOffset dy="2"/>
<feComposite in2="hardAlpha" operator="arithmetic" k2="-1" k3="1"/>
<feColorMatrix type="matrix" values="0 0 0 0 0 0 0 0 0 0 0 0 0 0 0 0 0 0 0.25 0"/>
<feBlend mode="normal" in2="shape" result="effect1_innerShadow_4478_4389"/>
</filter>
<filter id="filter1_i_4478_4389" x="82.0293" y="198.361" width="41.1963" height="23.7826" filterUnits="userSpaceOnUse" color-interpolation-filters="sRGB">
<feFlood flood-opacity="0" result="BackgroundImageFix"/>
<feBlend mode="normal" in="SourceGraphic" in2="BackgroundImageFix" result="shape"/>
<feColorMatrix in="SourceAlpha" type="matrix" values="0 0 0 0 0 0 0 0 0 0 0 0 0 0 0 0 0 0 127 0" result="hardAlpha"/>
<feOffset dy="-1"/>
<feComposite in2="hardAlpha" operator="arithmetic" k2="-1" k3="1"/>
<feColorMatrix type="matrix" values="0 0 0 0 1 0 0 0 0 1 0 0 0 0 1 0 0 0 0.1 0"/>
<feBlend mode="normal" in2="shape" result="effect1_innerShadow_4478_4389"/>
</filter>
<filter id="filter2_i_4478_4389" x="90" y="175.19" width="25" height="29" filterUnits="userSpaceOnUse" color-interpolation-filters="sRGB">
<feFlood flood-opacity="0" result="BackgroundImageFix"/>
<feBlend mode="normal" in="SourceGraphic" in2="BackgroundImageFix" result="shape"/>
<feColorMatrix in="SourceAlpha" type="matrix" values="0 0 0 0 0 0 0 0 0 0 0 0 0 0 0 0 0 0 127 0" result="hardAlpha"/>
<feOffset dx="-1" dy="1"/>
<feComposite in2="hardAlpha" operator="arithmetic" k2="-1" k3="1"/>
<feColorMatrix type="matrix" values="0 0 0 0 0.301961 0 0 0 0 0.34902 0 0 0 0 0.631373 0 0 0 1 0"/>
<feBlend mode="normal" in2="shape" result="effect1_innerShadow_4478_4389"/>
</filter>
<filter id="filter3_i_4478_4389" x="262.029" y="26.3615" width="41.1963" height="23.7826" filterUnits="userSpaceOnUse" color-interpolation-filters="sRGB">
<feFlood flood-opacity="0" result="BackgroundImageFix"/>
<feBlend mode="normal" in="SourceGraphic" in2="BackgroundImageFix" result="shape"/>
<feColorMatrix in="SourceAlpha" type="matrix" values="0 0 0 0 0 0 0 0 0 0 0 0 0 0 0 0 0 0 127 0" result="hardAlpha"/>
<feOffset dy="-1"/>
<feComposite in2="hardAlpha" operator="arithmetic" k2="-1" k3="1"/>
<feColorMatrix type="matrix" values="0 0 0 0 1 0 0 0 0 1 0 0 0 0 1 0 0 0 0.1 0"/>
<feBlend mode="normal" in2="shape" result="effect1_innerShadow_4478_4389"/>
</filter>
<filter id="filter4_i_4478_4389" x="270" y="3.18994" width="25" height="29" filterUnits="userSpaceOnUse" color-interpolation-filters="sRGB">
<feFlood flood-opacity="0" result="BackgroundImageFix"/>
<feBlend mode="normal" in="SourceGraphic" in2="BackgroundImageFix" result="shape"/>
<feColorMatrix in="SourceAlpha" type="matrix" values="0 0 0 0 0 0 0 0 0 0 0 0 0 0 0 0 0 0 127 0" result="hardAlpha"/>
<feOffset dx="-1" dy="1"/>
<feComposite in2="hardAlpha" operator="arithmetic" k2="-1" k3="1"/>
<feColorMatrix type="matrix" values="0 0 0 0 0.301961 0 0 0 0 0.34902 0 0 0 0 0.631373 0 0 0 1 0"/>
<feBlend mode="normal" in2="shape" result="effect1_innerShadow_4478_4389"/>
</filter>
<filter id="filter5_i_4478_4389" x="238.029" y="41.3615" width="41.1963" height="23.7826" filterUnits="userSpaceOnUse" color-interpolation-filters="sRGB">
<feFlood flood-opacity="0" result="BackgroundImageFix"/>
<feBlend mode="normal" in="SourceGraphic" in2="BackgroundImageFix" result="shape"/>
<feColorMatrix in="SourceAlpha" type="matrix" values="0 0 0 0 0 0 0 0 0 0 0 0 0 0 0 0 0 0 127 0" result="hardAlpha"/>
<feOffset dy="-1"/>
<feComposite in2="hardAlpha" operator="arithmetic" k2="-1" k3="1"/>
<feColorMatrix type="matrix" values="0 0 0 0 1 0 0 0 0 1 0 0 0 0 1 0 0 0 0.1 0"/>
<feBlend mode="normal" in2="shape" result="effect1_innerShadow_4478_4389"/>
</filter>
<filter id="filter6_i_4478_4389" x="246" y="18.1899" width="25" height="29" filterUnits="userSpaceOnUse" color-interpolation-filters="sRGB">
<feFlood flood-opacity="0" result="BackgroundImageFix"/>
<feBlend mode="normal" in="SourceGraphic" in2="BackgroundImageFix" result="shape"/>
<feColorMatrix in="SourceAlpha" type="matrix" values="0 0 0 0 0 0 0 0 0 0 0 0 0 0 0 0 0 0 127 0" result="hardAlpha"/>
<feOffset dx="-1" dy="1"/>
<feComposite in2="hardAlpha" operator="arithmetic" k2="-1" k3="1"/>
<feColorMatrix type="matrix" values="0 0 0 0 0.301961 0 0 0 0 0.34902 0 0 0 0 0.631373 0 0 0 1 0"/>
<feBlend mode="normal" in2="shape" result="effect1_innerShadow_4478_4389"/>
</filter>
<filter id="filter7_i_4478_4389" x="137.029" y="97.3615" width="41.1963" height="23.7826" filterUnits="userSpaceOnUse" color-interpolation-filters="sRGB">
<feFlood flood-opacity="0" result="BackgroundImageFix"/>
<feBlend mode="normal" in="SourceGraphic" in2="BackgroundImageFix" result="shape"/>
<feColorMatrix in="SourceAlpha" type="matrix" values="0 0 0 0 0 0 0 0 0 0 0 0 0 0 0 0 0 0 127 0" result="hardAlpha"/>
<feOffset dy="-1"/>
<feComposite in2="hardAlpha" operator="arithmetic" k2="-1" k3="1"/>
<feColorMatrix type="matrix" values="0 0 0 0 1 0 0 0 0 1 0 0 0 0 1 0 0 0 0.1 0"/>
<feBlend mode="normal" in2="shape" result="effect1_innerShadow_4478_4389"/>
</filter>
<filter id="filter8_i_4478_4389" x="145" y="74.1899" width="25" height="29" filterUnits="userSpaceOnUse" color-interpolation-filters="sRGB">
<feFlood flood-opacity="0" result="BackgroundImageFix"/>
<feBlend mode="normal" in="SourceGraphic" in2="BackgroundImageFix" result="shape"/>
<feColorMatrix in="SourceAlpha" type="matrix" values="0 0 0 0 0 0 0 0 0 0 0 0 0 0 0 0 0 0 127 0" result="hardAlpha"/>
<feOffset dx="-1" dy="1"/>
<feComposite in2="hardAlpha" operator="arithmetic" k2="-1" k3="1"/>
<feColorMatrix type="matrix" values="0 0 0 0 0.301961 0 0 0 0 0.34902 0 0 0 0 0.631373 0 0 0 1 0"/>
<feBlend mode="normal" in2="shape" result="effect1_innerShadow_4478_4389"/>
</filter>
<filter id="filter9_i_4478_4389" x="107.029" y="110.361" width="41.1963" height="23.7826" filterUnits="userSpaceOnUse" color-interpolation-filters="sRGB">
<feFlood flood-opacity="0" result="BackgroundImageFix"/>
<feBlend mode="normal" in="SourceGraphic" in2="BackgroundImageFix" result="shape"/>
<feColorMatrix in="SourceAlpha" type="matrix" values="0 0 0 0 0 0 0 0 0 0 0 0 0 0 0 0 0 0 127 0" result="hardAlpha"/>
<feOffset dy="-1"/>
<feComposite in2="hardAlpha" operator="arithmetic" k2="-1" k3="1"/>
<feColorMatrix type="matrix" values="0 0 0 0 1 0 0 0 0 1 0 0 0 0 1 0 0 0 0.1 0"/>
<feBlend mode="normal" in2="shape" result="effect1_innerShadow_4478_4389"/>
</filter>
<filter id="filter10_i_4478_4389" x="115" y="87.1899" width="25" height="29" filterUnits="userSpaceOnUse" color-interpolation-filters="sRGB">
<feFlood flood-opacity="0" result="BackgroundImageFix"/>
<feBlend mode="normal" in="SourceGraphic" in2="BackgroundImageFix" result="shape"/>
<feColorMatrix in="SourceAlpha" type="matrix" values="0 0 0 0 0 0 0 0 0 0 0 0 0 0 0 0 0 0 127 0" result="hardAlpha"/>
<feOffset dx="-1" dy="1"/>
<feComposite in2="hardAlpha" operator="arithmetic" k2="-1" k3="1"/>
<feColorMatrix type="matrix" values="0 0 0 0 0.301961 0 0 0 0 0.34902 0 0 0 0 0.631373 0 0 0 1 0"/>
<feBlend mode="normal" in2="shape" result="effect1_innerShadow_4478_4389"/>
</filter>
<filter id="filter11_i_4478_4389" x="440.029" y="124.361" width="41.1963" height="23.7826" filterUnits="userSpaceOnUse" color-interpolation-filters="sRGB">
<feFlood flood-opacity="0" result="BackgroundImageFix"/>
<feBlend mode="normal" in="SourceGraphic" in2="BackgroundImageFix" result="shape"/>
<feColorMatrix in="SourceAlpha" type="matrix" values="0 0 0 0 0 0 0 0 0 0 0 0 0 0 0 0 0 0 127 0" result="hardAlpha"/>
<feOffset dy="-1"/>
<feComposite in2="hardAlpha" operator="arithmetic" k2="-1" k3="1"/>
<feColorMatrix type="matrix" values="0 0 0 0 1 0 0 0 0 1 0 0 0 0 1 0 0 0 0.25 0"/>
<feBlend mode="normal" in2="shape" result="effect1_innerShadow_4478_4389"/>
</filter>
<filter id="filter12_i_4478_4389" x="452" y="102.19" width="17" height="29" filterUnits="userSpaceOnUse" color-interpolation-filters="sRGB">
<feFlood flood-opacity="0" result="BackgroundImageFix"/>
<feBlend mode="normal" in="SourceGraphic" in2="BackgroundImageFix" result="shape"/>
<feColorMatrix in="SourceAlpha" type="matrix" values="0 0 0 0 0 0 0 0 0 0 0 0 0 0 0 0 0 0 127 0" result="hardAlpha"/>
<feOffset dx="-1"/>
<feComposite in2="hardAlpha" operator="arithmetic" k2="-1" k3="1"/>
<feColorMatrix type="matrix" values="0 0 0 0 0.301961 0 0 0 0 0.34902 0 0 0 0 0.631373 0 0 0 1 0"/>
<feBlend mode="normal" in2="shape" result="effect1_innerShadow_4478_4389"/>
</filter>
<filter id="filter13_i_4478_4389" x="521.029" y="146.361" width="41.1963" height="23.7826" filterUnits="userSpaceOnUse" color-interpolation-filters="sRGB">
<feFlood flood-opacity="0" result="BackgroundImageFix"/>
<feBlend mode="normal" in="SourceGraphic" in2="BackgroundImageFix" result="shape"/>
<feColorMatrix in="SourceAlpha" type="matrix" values="0 0 0 0 0 0 0 0 0 0 0 0 0 0 0 0 0 0 127 0" result="hardAlpha"/>
<feOffset dy="-1"/>
<feComposite in2="hardAlpha" operator="arithmetic" k2="-1" k3="1"/>
<feColorMatrix type="matrix" values="0 0 0 0 1 0 0 0 0 1 0 0 0 0 1 0 0 0 0.1 0"/>
<feBlend mode="normal" in2="shape" result="effect1_innerShadow_4478_4389"/>
</filter>
<filter id="filter14_i_4478_4389" x="529" y="123.19" width="25" height="29" filterUnits="userSpaceOnUse" color-interpolation-filters="sRGB">
<feFlood flood-opacity="0" result="BackgroundImageFix"/>
<feBlend mode="normal" in="SourceGraphic" in2="BackgroundImageFix" result="shape"/>
<feColorMatrix in="SourceAlpha" type="matrix" values="0 0 0 0 0 0 0 0 0 0 0 0 0 0 0 0 0 0 127 0" result="hardAlpha"/>
<feOffset dx="-1" dy="1"/>
<feComposite in2="hardAlpha" operator="arithmetic" k2="-1" k3="1"/>
<feColorMatrix type="matrix" values="0 0 0 0 0.301961 0 0 0 0 0.34902 0 0 0 0 0.631373 0 0 0 1 0"/>
<feBlend mode="normal" in2="shape" result="effect1_innerShadow_4478_4389"/>
</filter>
<filter id="filter15_i_4478_4389" x="388.029" y="152.361" width="41.1963" height="23.7826" filterUnits="userSpaceOnUse" color-interpolation-filters="sRGB">
<feFlood flood-opacity="0" result="BackgroundImageFix"/>
<feBlend mode="normal" in="SourceGraphic" in2="BackgroundImageFix" result="shape"/>
<feColorMatrix in="SourceAlpha" type="matrix" values="0 0 0 0 0 0 0 0 0 0 0 0 0 0 0 0 0 0 127 0" result="hardAlpha"/>
<feOffset dy="-1"/>
<feComposite in2="hardAlpha" operator="arithmetic" k2="-1" k3="1"/>
<feColorMatrix type="matrix" values="0 0 0 0 1 0 0 0 0 1 0 0 0 0 1 0 0 0 0.25 0"/>
<feBlend mode="normal" in2="shape" result="effect1_innerShadow_4478_4389"/>
</filter>
<filter id="filter16_i_4478_4389" x="400" y="130.19" width="17" height="29" filterUnits="userSpaceOnUse" color-interpolation-filters="sRGB">
<feFlood flood-opacity="0" result="BackgroundImageFix"/>
<feBlend mode="normal" in="SourceGraphic" in2="BackgroundImageFix" result="shape"/>
<feColorMatrix in="SourceAlpha" type="matrix" values="0 0 0 0 0 0 0 0 0 0 0 0 0 0 0 0 0 0 127 0" result="hardAlpha"/>
<feOffset dx="-1"/>
<feComposite in2="hardAlpha" operator="arithmetic" k2="-1" k3="1"/>
<feColorMatrix type="matrix" values="0 0 0 0 0.301961 0 0 0 0 0.34902 0 0 0 0 0.631373 0 0 0 1 0"/>
<feBlend mode="normal" in2="shape" result="effect1_innerShadow_4478_4389"/>
</filter>
<filter id="filter17_i_4478_4389" x="81.0293" y="124.361" width="41.1963" height="23.7826" filterUnits="userSpaceOnUse" color-interpolation-filters="sRGB">
<feFlood flood-opacity="0" result="BackgroundImageFix"/>
<feBlend mode="normal" in="SourceGraphic" in2="BackgroundImageFix" result="shape"/>
<feColorMatrix in="SourceAlpha" type="matrix" values="0 0 0 0 0 0 0 0 0 0 0 0 0 0 0 0 0 0 127 0" result="hardAlpha"/>
<feOffset dy="-1"/>
<feComposite in2="hardAlpha" operator="arithmetic" k2="-1" k3="1"/>
<feColorMatrix type="matrix" values="0 0 0 0 1 0 0 0 0 1 0 0 0 0 1 0 0 0 0.25 0"/>
<feBlend mode="normal" in2="shape" result="effect1_innerShadow_4478_4389"/>
</filter>
<filter id="filter18_i_4478_4389" x="93" y="102.19" width="17" height="29" filterUnits="userSpaceOnUse" color-interpolation-filters="sRGB">
<feFlood flood-opacity="0" result="BackgroundImageFix"/>
<feBlend mode="normal" in="SourceGraphic" in2="BackgroundImageFix" result="shape"/>
<feColorMatrix in="SourceAlpha" type="matrix" values="0 0 0 0 0 0 0 0 0 0 0 0 0 0 0 0 0 0 127 0" result="hardAlpha"/>
<feOffset dx="-1"/>
<feComposite in2="hardAlpha" operator="arithmetic" k2="-1" k3="1"/>
<feColorMatrix type="matrix" values="0 0 0 0 0.301961 0 0 0 0 0.34902 0 0 0 0 0.631373 0 0 0 1 0"/>
<feBlend mode="normal" in2="shape" result="effect1_innerShadow_4478_4389"/>
</filter>
<filter id="filter19_i_4478_4389" x="496.029" y="162.361" width="41.1963" height="23.7826" filterUnits="userSpaceOnUse" color-interpolation-filters="sRGB">
<feFlood flood-opacity="0" result="BackgroundImageFix"/>
<feBlend mode="normal" in="SourceGraphic" in2="BackgroundImageFix" result="shape"/>
<feColorMatrix in="SourceAlpha" type="matrix" values="0 0 0 0 0 0 0 0 0 0 0 0 0 0 0 0 0 0 127 0" result="hardAlpha"/>
<feOffset dy="-1"/>
<feComposite in2="hardAlpha" operator="arithmetic" k2="-1" k3="1"/>
<feColorMatrix type="matrix" values="0 0 0 0 1 0 0 0 0 1 0 0 0 0 1 0 0 0 0.1 0"/>
<feBlend mode="normal" in2="shape" result="effect1_innerShadow_4478_4389"/>
</filter>
<filter id="filter20_i_4478_4389" x="504" y="139.19" width="25" height="29" filterUnits="userSpaceOnUse" color-interpolation-filters="sRGB">
<feFlood flood-opacity="0" result="BackgroundImageFix"/>
<feBlend mode="normal" in="SourceGraphic" in2="BackgroundImageFix" result="shape"/>
<feColorMatrix in="SourceAlpha" type="matrix" values="0 0 0 0 0 0 0 0 0 0 0 0 0 0 0 0 0 0 127 0" result="hardAlpha"/>
<feOffset dx="-1" dy="1"/>
<feComposite in2="hardAlpha" operator="arithmetic" k2="-1" k3="1"/>
<feColorMatrix type="matrix" values="0 0 0 0 0.301961 0 0 0 0 0.34902 0 0 0 0 0.631373 0 0 0 1 0"/>
<feBlend mode="normal" in2="shape" result="effect1_innerShadow_4478_4389"/>
</filter>
<filter id="filter21_i_4478_4389" x="414.029" y="138.361" width="41.1963" height="23.7826" filterUnits="userSpaceOnUse" color-interpolation-filters="sRGB">
<feFlood flood-opacity="0" result="BackgroundImageFix"/>
<feBlend mode="normal" in="SourceGraphic" in2="BackgroundImageFix" result="shape"/>
<feColorMatrix in="SourceAlpha" type="matrix" values="0 0 0 0 0 0 0 0 0 0 0 0 0 0 0 0 0 0 127 0" result="hardAlpha"/>
<feOffset dy="-1"/>
<feComposite in2="hardAlpha" operator="arithmetic" k2="-1" k3="1"/>
<feColorMatrix type="matrix" values="0 0 0 0 1 0 0 0 0 1 0 0 0 0 1 0 0 0 0.1 0"/>
<feBlend mode="normal" in2="shape" result="effect1_innerShadow_4478_4389"/>
</filter>
<filter id="filter22_i_4478_4389" x="422" y="115.19" width="25" height="29" filterUnits="userSpaceOnUse" color-interpolation-filters="sRGB">
<feFlood flood-opacity="0" result="BackgroundImageFix"/>
<feBlend mode="normal" in="SourceGraphic" in2="BackgroundImageFix" result="shape"/>
<feColorMatrix in="SourceAlpha" type="matrix" values="0 0 0 0 0 0 0 0 0 0 0 0 0 0 0 0 0 0 127 0" result="hardAlpha"/>
<feOffset dx="-1" dy="1"/>
<feComposite in2="hardAlpha" operator="arithmetic" k2="-1" k3="1"/>
<feColorMatrix type="matrix" values="0 0 0 0 0.301961 0 0 0 0 0.34902 0 0 0 0 0.631373 0 0 0 1 0"/>
<feBlend mode="normal" in2="shape" result="effect1_innerShadow_4478_4389"/>
</filter>
<filter id="filter23_i_4478_4389" x="467.029" y="177.361" width="41.1963" height="23.7826" filterUnits="userSpaceOnUse" color-interpolation-filters="sRGB">
<feFlood flood-opacity="0" result="BackgroundImageFix"/>
<feBlend mode="normal" in="SourceGraphic" in2="BackgroundImageFix" result="shape"/>
<feColorMatrix in="SourceAlpha" type="matrix" values="0 0 0 0 0 0 0 0 0 0 0 0 0 0 0 0 0 0 127 0" result="hardAlpha"/>
<feOffset dy="-1"/>
<feComposite in2="hardAlpha" operator="arithmetic" k2="-1" k3="1"/>
<feColorMatrix type="matrix" values="0 0 0 0 1 0 0 0 0 1 0 0 0 0 1 0 0 0 0.25 0"/>
<feBlend mode="normal" in2="shape" result="effect1_innerShadow_4478_4389"/>
</filter>
<filter id="filter24_i_4478_4389" x="479" y="155.19" width="17" height="29" filterUnits="userSpaceOnUse" color-interpolation-filters="sRGB">
<feFlood flood-opacity="0" result="BackgroundImageFix"/>
<feBlend mode="normal" in="SourceGraphic" in2="BackgroundImageFix" result="shape"/>
<feColorMatrix in="SourceAlpha" type="matrix" values="0 0 0 0 0 0 0 0 0 0 0 0 0 0 0 0 0 0 127 0" result="hardAlpha"/>
<feOffset dx="-1"/>
<feComposite in2="hardAlpha" operator="arithmetic" k2="-1" k3="1"/>
<feColorMatrix type="matrix" values="0 0 0 0 0.301961 0 0 0 0 0.34902 0 0 0 0 0.631373 0 0 0 1 0"/>
<feBlend mode="normal" in2="shape" result="effect1_innerShadow_4478_4389"/>
</filter>
<filter id="filter25_i_4478_4389" x="187.775" y="38.1021" width="70.4795" height="40.6879" filterUnits="userSpaceOnUse" color-interpolation-filters="sRGB">
<feFlood flood-opacity="0" result="BackgroundImageFix"/>
<feBlend mode="normal" in="SourceGraphic" in2="BackgroundImageFix" result="shape"/>
<feColorMatrix in="SourceAlpha" type="matrix" values="0 0 0 0 0 0 0 0 0 0 0 0 0 0 0 0 0 0 127 0" result="hardAlpha"/>
<feOffset dx="-4"/>
<feComposite in2="hardAlpha" operator="arithmetic" k2="-1" k3="1"/>
<feColorMatrix type="matrix" values="0 0 0 0 0.0979941 0 0 0 0 0.0885937 0 0 0 0 0.2625 0 0 0 1 0"/>
<feBlend mode="normal" in2="shape" result="effect1_innerShadow_4478_4389"/>
</filter>
<filter id="filter26_i_4478_4389" x="290.029" y="300.361" width="41.1963" height="23.7826" filterUnits="userSpaceOnUse" color-interpolation-filters="sRGB">
<feFlood flood-opacity="0" result="BackgroundImageFix"/>
<feBlend mode="normal" in="SourceGraphic" in2="BackgroundImageFix" result="shape"/>
<feColorMatrix in="SourceAlpha" type="matrix" values="0 0 0 0 0 0 0 0 0 0 0 0 0 0 0 0 0 0 127 0" result="hardAlpha"/>
<feOffset dy="-1"/>
<feComposite in2="hardAlpha" operator="arithmetic" k2="-1" k3="1"/>
<feColorMatrix type="matrix" values="0 0 0 0 1 0 0 0 0 1 0 0 0 0 1 0 0 0 0.1 0"/>
<feBlend mode="normal" in2="shape" result="effect1_innerShadow_4478_4389"/>
</filter>
<filter id="filter27_i_4478_4389" x="298" y="277.19" width="25" height="29" filterUnits="userSpaceOnUse" color-interpolation-filters="sRGB">
<feFlood flood-opacity="0" result="BackgroundImageFix"/>
<feBlend mode="normal" in="SourceGraphic" in2="BackgroundImageFix" result="shape"/>
<feColorMatrix in="SourceAlpha" type="matrix" values="0 0 0 0 0 0 0 0 0 0 0 0 0 0 0 0 0 0 127 0" result="hardAlpha"/>
<feOffset dx="-1" dy="1"/>
<feComposite in2="hardAlpha" operator="arithmetic" k2="-1" k3="1"/>
<feColorMatrix type="matrix" values="0 0 0 0 0.301961 0 0 0 0 0.34902 0 0 0 0 0.631373 0 0 0 1 0"/>
<feBlend mode="normal" in2="shape" result="effect1_innerShadow_4478_4389"/>
</filter>
<filter id="filter28_d_4478_4389" x="203" y="83.1899" width="40" height="56" filterUnits="userSpaceOnUse" color-interpolation-filters="sRGB">
<feFlood flood-opacity="0" result="BackgroundImageFix"/>
<feColorMatrix in="SourceAlpha" type="matrix" values="0 0 0 0 0 0 0 0 0 0 0 0 0 0 0 0 0 0 127 0" result="hardAlpha"/>
<feOffset/>
<feGaussianBlur stdDeviation="5"/>
<feColorMatrix type="matrix" values="0 0 0 0 0.996078 0 0 0 0 0.752941 0 0 0 0 0.027451 0 0 0 0.4 0"/>
<feBlend mode="normal" in2="BackgroundImageFix" result="effect1_dropShadow_4478_4389"/>
<feBlend mode="normal" in="SourceGraphic" in2="effect1_dropShadow_4478_4389" result="shape"/>
</filter>
<filter id="filter29_d_4478_4389" x="160.252" y="139.69" width="103.748" height="135.934" filterUnits="userSpaceOnUse" color-interpolation-filters="sRGB">
<feFlood flood-opacity="0" result="BackgroundImageFix"/>
<feColorMatrix in="SourceAlpha" type="matrix" values="0 0 0 0 0 0 0 0 0 0 0 0 0 0 0 0 0 0 127 0" result="hardAlpha"/>
<feOffset/>
<feGaussianBlur stdDeviation="3"/>
<feColorMatrix type="matrix" values="0 0 0 0 0.996078 0 0 0 0 0.752941 0 0 0 0 0.027451 0 0 0 0.8 0"/>
<feBlend mode="normal" in2="BackgroundImageFix" result="effect1_dropShadow_4478_4389"/>
<feBlend mode="normal" in="SourceGraphic" in2="effect1_dropShadow_4478_4389" result="shape"/>
</filter>
<filter id="filter30_i_4478_4389" x="397.029" y="70.1715" width="41.1963" height="23.7826" filterUnits="userSpaceOnUse" color-interpolation-filters="sRGB">
<feFlood flood-opacity="0" result="BackgroundImageFix"/>
<feBlend mode="normal" in="SourceGraphic" in2="BackgroundImageFix" result="shape"/>
<feColorMatrix in="SourceAlpha" type="matrix" values="0 0 0 0 0 0 0 0 0 0 0 0 0 0 0 0 0 0 127 0" result="hardAlpha"/>
<feOffset dy="-1"/>
<feComposite in2="hardAlpha" operator="arithmetic" k2="-1" k3="1"/>
<feColorMatrix type="matrix" values="0 0 0 0 1 0 0 0 0 1 0 0 0 0 1 0 0 0 0.25 0"/>
<feBlend mode="normal" in2="shape" result="effect1_innerShadow_4478_4389"/>
</filter>
<filter id="filter31_i_4478_4389" x="409" y="48" width="17" height="29" filterUnits="userSpaceOnUse" color-interpolation-filters="sRGB">
<feFlood flood-opacity="0" result="BackgroundImageFix"/>
<feBlend mode="normal" in="SourceGraphic" in2="BackgroundImageFix" result="shape"/>
<feColorMatrix in="SourceAlpha" type="matrix" values="0 0 0 0 0 0 0 0 0 0 0 0 0 0 0 0 0 0 127 0" result="hardAlpha"/>
<feOffset dx="-1"/>
<feComposite in2="hardAlpha" operator="arithmetic" k2="-1" k3="1"/>
<feColorMatrix type="matrix" values="0 0 0 0 0.301961 0 0 0 0 0.34902 0 0 0 0 0.631373 0 0 0 1 0"/>
<feBlend mode="normal" in2="shape" result="effect1_innerShadow_4478_4389"/>
</filter>
<filter id="filter32_i_4478_4389" x="348.029" y="28.1715" width="41.1963" height="23.7826" filterUnits="userSpaceOnUse" color-interpolation-filters="sRGB">
<feFlood flood-opacity="0" result="BackgroundImageFix"/>
<feBlend mode="normal" in="SourceGraphic" in2="BackgroundImageFix" result="shape"/>
<feColorMatrix in="SourceAlpha" type="matrix" values="0 0 0 0 0 0 0 0 0 0 0 0 0 0 0 0 0 0 127 0" result="hardAlpha"/>
<feOffset dy="-1"/>
<feComposite in2="hardAlpha" operator="arithmetic" k2="-1" k3="1"/>
<feColorMatrix type="matrix" values="0 0 0 0 1 0 0 0 0 1 0 0 0 0 1 0 0 0 0.25 0"/>
<feBlend mode="normal" in2="shape" result="effect1_innerShadow_4478_4389"/>
</filter>
<filter id="filter33_i_4478_4389" x="360" y="6" width="17" height="29" filterUnits="userSpaceOnUse" color-interpolation-filters="sRGB">
<feFlood flood-opacity="0" result="BackgroundImageFix"/>
<feBlend mode="normal" in="SourceGraphic" in2="BackgroundImageFix" result="shape"/>
<feColorMatrix in="SourceAlpha" type="matrix" values="0 0 0 0 0 0 0 0 0 0 0 0 0 0 0 0 0 0 127 0" result="hardAlpha"/>
<feOffset dx="-1"/>
<feComposite in2="hardAlpha" operator="arithmetic" k2="-1" k3="1"/>
<feColorMatrix type="matrix" values="0 0 0 0 0.301961 0 0 0 0 0.34902 0 0 0 0 0.631373 0 0 0 1 0"/>
<feBlend mode="normal" in2="shape" result="effect1_innerShadow_4478_4389"/>
</filter>
<linearGradient id="paint0_linear_4478_4389" x1="295.5" y1="346.19" x2="145.665" y2="86.7126" gradientUnits="userSpaceOnUse">
<stop stop-color="#192250"/>
<stop offset="1" stop-color="#192250" stop-opacity="0.4"/>
</linearGradient>
<linearGradient id="paint1_linear_4478_4389" x1="299.5" y1="-117.81" x2="299.5" y2="419.19" gradientUnits="userSpaceOnUse">
<stop stop-color="#272F5A"/>
<stop offset="1" stop-color="#B0BDFF"/>
</linearGradient>
<linearGradient id="paint2_linear_4478_4389" x1="308.13" y1="48.7729" x2="308.13" y2="146.779" gradientUnits="userSpaceOnUse">
<stop stop-color="white" stop-opacity="0.15"/>
<stop offset="1" stop-color="white" stop-opacity="0"/>
</linearGradient>
<linearGradient id="paint3_linear_4478_4389" x1="359.189" y1="19.7818" x2="359.189" y2="117.788" gradientUnits="userSpaceOnUse">
<stop stop-color="white" stop-opacity="0.3"/>
<stop offset="1" stop-color="white" stop-opacity="0"/>
</linearGradient>
<linearGradient id="paint4_linear_4478_4389" x1="367.41" y1="-28.464" x2="367.41" y2="69.5424" gradientUnits="userSpaceOnUse">
<stop stop-color="white" stop-opacity="0.15"/>
<stop offset="1" stop-color="white" stop-opacity="0"/>
</linearGradient>
<linearGradient id="paint5_linear_4478_4389" x1="380.391" y1="98.5332" x2="380.391" y2="146.779" gradientUnits="userSpaceOnUse">
<stop stop-color="white" stop-opacity="0.3"/>
<stop offset="1" stop-color="white" stop-opacity="0"/>
</linearGradient>
<linearGradient id="paint6_linear_4478_4389" x1="389.045" y1="44.4456" x2="389.045" y2="98.3166" gradientUnits="userSpaceOnUse">
<stop stop-color="white" stop-opacity="0.3"/>
<stop offset="1" stop-color="white" stop-opacity="0"/>
</linearGradient>
<linearGradient id="paint7_linear_4478_4389" x1="308.347" y1="7.23346" x2="308.347" y2="105.24" gradientUnits="userSpaceOnUse">
<stop stop-color="white" stop-opacity="0.15"/>
<stop offset="1" stop-color="white" stop-opacity="0"/>
</linearGradient>
<linearGradient id="paint8_linear_4478_4389" x1="510" y1="225.69" x2="510" y2="363.19" gradientUnits="userSpaceOnUse">
<stop stop-color="#42A4F5"/>
<stop offset="1" stop-color="#12193D" stop-opacity="0"/>
</linearGradient>
<linearGradient id="paint9_linear_4478_4389" x1="209.557" y1="138.69" x2="209.557" y2="293.19" gradientUnits="userSpaceOnUse">
<stop stop-color="#189EE9" stop-opacity="0.3"/>
<stop offset="1" stop-color="white" stop-opacity="0"/>
</linearGradient>
<linearGradient id="paint10_linear_4478_4389" x1="167.148" y1="103.69" x2="167.148" y2="222.69" gradientUnits="userSpaceOnUse">
<stop stop-color="#189EE9" stop-opacity="0.3"/>
<stop offset="1" stop-color="white" stop-opacity="0"/>
</linearGradient>
<linearGradient id="paint11_linear_4478_4389" x1="150.903" y1="85.7498" x2="150.903" y2="222.19" gradientUnits="userSpaceOnUse">
<stop stop-color="#4D59A1" stop-opacity="0.2"/>
<stop offset="1" stop-color="white" stop-opacity="0"/>
</linearGradient>
<linearGradient id="paint12_linear_4478_4389" x1="242.048" y1="103.747" x2="242.048" y2="241.19" gradientUnits="userSpaceOnUse">
<stop stop-color="#4D59A1" stop-opacity="0.2"/>
<stop offset="1" stop-color="white" stop-opacity="0"/>
</linearGradient>
<linearGradient id="paint13_linear_4478_4389" x1="274.903" y1="156.75" x2="274.903" y2="293.19" gradientUnits="userSpaceOnUse">
<stop stop-color="#4D59A1" stop-opacity="0.2"/>
<stop offset="1" stop-color="white" stop-opacity="0"/>
</linearGradient>
<linearGradient id="paint14_linear_4478_4389" x1="145.5" y1="85.1899" x2="145.5" y2="186.69" gradientUnits="userSpaceOnUse">
<stop stop-color="white"/>
<stop offset="1" stop-color="white" stop-opacity="0"/>
</linearGradient>
<linearGradient id="paint15_linear_4478_4389" x1="206.5" y1="121.19" x2="206.5" y2="222.69" gradientUnits="userSpaceOnUse">
<stop stop-color="white"/>
<stop offset="1" stop-color="white" stop-opacity="0"/>
</linearGradient>
<linearGradient id="paint16_linear_4478_4389" x1="236.5" y1="104.19" x2="236.5" y2="205.69" gradientUnits="userSpaceOnUse">
<stop stop-color="white"/>
<stop offset="1" stop-color="white" stop-opacity="0"/>
</linearGradient>
<linearGradient id="paint17_linear_4478_4389" x1="269.5" y1="157.19" x2="269.5" y2="258.69" gradientUnits="userSpaceOnUse">
<stop stop-color="white"/>
<stop offset="1" stop-color="white" stop-opacity="0"/>
</linearGradient>
<linearGradient id="paint18_linear_4478_4389" x1="330.5" y1="192.19" x2="330.5" y2="293.69" gradientUnits="userSpaceOnUse">
<stop stop-color="white"/>
<stop offset="1" stop-color="white" stop-opacity="0"/>
</linearGradient>
<linearGradient id="paint19_linear_4478_4389" x1="423.5" y1="139.19" x2="423.5" y2="240.69" gradientUnits="userSpaceOnUse">
<stop stop-color="white"/>
<stop offset="1" stop-color="white" stop-opacity="0"/>
</linearGradient>
<linearGradient id="paint20_linear_4478_4389" x1="166.5" y1="269.19" x2="166.5" y2="342.19" gradientUnits="userSpaceOnUse">
<stop stop-color="#FEC007"/>
<stop offset="1" stop-color="#12193D"/>
</linearGradient>
<clipPath id="clip0_4478_4389">
<rect width="17" height="28" fill="white" transform="translate(342 197.19)"/>
</clipPath>
<clipPath id="clip1_4478_4389">
<rect width="20" height="36" fill="white" transform="translate(213 93.1899)"/>
</clipPath>
</defs>
</svg>
