<svg width="16" height="16" viewBox="0 0 16 16" fill="none" xmlns="http://www.w3.org/2000/svg">
<path fill-rule="evenodd" clip-rule="evenodd" d="M4 2.5C4 2.22386 4.22386 2 4.5 2C4.77614 2 5 2.22386 5 2.5V3H10V4H5V4.5C5 4.77614 4.77614 5 4.5 5C4.22386 5 4 4.77614 4 4.5V2.5ZM11 2.5C11 2.22386 11.2239 2 11.5 2C11.7761 2 12 2.22386 12 2.5V3H14C14.5523 3 15 3.44772 15 4V13C15 13.5523 14.5523 14 14 14H2C1.44772 14 1 13.5523 1 13V4C1 3.44772 1.44772 3 2 3H3V4H2V13H14V4H12V4.5C12 4.77614 11.7761 5 11.5 5C11.2239 5 11 4.77614 11 4.5V2.5ZM5 7.5C5 7.77614 5.22386 8 5.5 8H10.5C10.7761 8 11 7.77614 11 7.5C11 7.22386 10.7761 7 10.5 7H5.5C5.22386 7 5 7.22386 5 7.5ZM5.5 10C5.22386 10 5 9.77614 5 9.5C5 9.22386 5.22386 9 5.5 9H10.5C10.7761 9 11 9.22386 11 9.5C11 9.77614 10.7761 10 10.5 10H5.5Z" fill="#272F5A" fill-opacity="0.6"/>
</svg>
