<svg width="32" height="32" viewBox="0 0 32 32" fill="none" xmlns="http://www.w3.org/2000/svg">
<circle cx="16" cy="16" r="16" fill="#F3F5F6"/>
<path fill-rule="evenodd" clip-rule="evenodd" d="M12 12.5C12 11.1193 13.1193 10 14.5 10H19.5C19.7761 10 20 10.2239 20 10.5V11.5C20 12.3284 19.3284 13 18.5 13H17H14.5C13.1193 13 12 14.1193 12 15.5V12.5ZM12 16.9146C11.4174 16.7087 11 16.1531 11 15.5V12.5C11 10.567 12.567 9 14.5 9H19.5C20.3284 9 21 9.67157 21 10.5V11.5V15.5C21 16.1531 20.5826 16.7087 20 16.9146V17C20 19.2091 18.2091 21 16 21C13.7909 21 12 19.2091 12 17V16.9146ZM19.5 16C19.7761 16 20 15.7761 20 15.5V13.5002C19.5822 13.814 19.0628 14 18.5 14H17H14.5C13.6716 14 13 14.6716 13 15.5V17C13 18.6569 14.3431 20 16 20C17.6569 20 19 18.6569 19 17V16H19.5ZM12.8322 21.227C12.6682 21.3402 12.4344 21.4317 12.1504 21.5326C11.9824 21.5923 11.8084 21.6816 11.6802 21.8217C11.54 21.9748 11.429 22.2311 11.5437 22.5109C11.6398 22.7451 11.8442 22.8609 11.9856 22.9152C12.1416 22.9751 12.3188 23 12.4994 23H12.5035H12.5077H12.5119H12.5161H12.5203H12.5244H12.5287H12.5329H12.5371H12.5413H12.5455H12.5497H12.554H12.5582H12.5625H12.5667H12.571H12.5752H12.5795H12.5838H12.5881H12.5924H12.5966H12.6009H12.6052H12.6096H12.6139H12.6182H12.6225H12.6268H12.6312H12.6355H12.6399H12.6442H12.6486H12.6529H12.6573H12.6617H12.6661H12.6704H12.6748H12.6792H12.6836H12.688H12.6924H12.6968H12.7013H12.7057H12.7101H12.7146H12.719H12.7234H12.7279H12.7323H12.7368H12.7413H12.7457H12.7502H12.7547H12.7592H12.7637H12.7682H12.7727H12.7772H12.7817H12.7862H12.7907H12.7952H12.7997H12.8043H12.8088H12.8134H12.8179H12.8224H12.827H12.8316H12.8361H12.8407H12.8453H12.8498H12.8544H12.859H12.8636H12.8682H12.8728H12.8774H12.882H12.8866H12.8912H12.8959H12.9005H12.9051H12.9097H12.9144H12.919H12.9237H12.9283H12.933H12.9376H12.9423H12.947H12.9516H12.9563H12.961H12.9657H12.9704H12.9751H12.9798H12.9845H12.9892H12.9939H12.9986H13.0033H13.008H13.0127H13.0175H13.0222H13.0269H13.0317H13.0364H13.0412H13.0459H13.0507H13.0554H13.0602H13.0649H13.0697H13.0745H13.0792H13.084H13.0888H13.0936H13.0984H13.1032H13.108H13.1128H13.1176H13.1224H13.1272H13.132H13.1368H13.1416H13.1465H13.1513H13.1561H13.161H13.1658H13.1706H13.1755H13.1803H13.1852H13.19H13.1949H13.1997H13.2046H13.2095H13.2143H13.2192H13.2241H13.229H13.2338H13.2387H13.2436H13.2485H13.2534H13.2583H13.2632H13.2681H13.273H13.2779H13.2828H13.2877H13.2926H13.2975H13.3025H13.3074H13.3123H13.3172H13.3222H13.3271H13.332H13.337H13.3419H13.3469H13.3518H13.3568H13.3617H13.3667H13.3716H13.3766H13.3816H13.3865H13.3915H13.3965H13.4014H13.4064H13.4114H13.4164H13.4213H13.4263H13.4313H13.4363H13.4413H13.4463H13.4513H13.4563H13.4613H13.4663H13.4713H13.4763H13.4813H13.4863H13.4913H13.4963H13.5013H13.5064H13.5114H13.5164H13.5214H13.5264H13.5315H13.5365H13.5415H13.5466H13.5516H13.5566H13.5617H13.5667H13.5718H13.5768H13.5819H13.5869H13.5919H13.597H13.6021H13.6071H13.6122H13.6172H13.6223H13.6273H13.6324H13.6375H13.6425H13.6476H13.6527H13.6577H13.6628H13.6679H13.673H13.678H13.6831H13.6882H13.6933H13.6983H13.7034H13.7085H13.7136H13.7187H13.7238H13.7288H13.7339H13.739H13.7441H13.7492H13.7543H13.7594H13.7645H13.7696H13.7747H13.7798H13.7849H13.79H13.7951H13.8002H13.8053H13.8104H13.8155H13.8206H13.8257H13.8308H13.8359H13.8411H13.8462H13.8513H13.8564H13.8615H13.8666H13.8717H13.8768H13.882H13.8871H13.8922H13.8973H13.9024H13.9075H13.9127H13.9178H13.9229H13.928H13.9331H13.9383H13.9434H13.9485H13.9536H13.9588H13.9639H13.969H13.9741H13.9793H13.9844H13.9895H13.9946H13.9998H14.0049H14.01H14.0151H14.0203H14.0254H14.0305H14.0356H14.0408H14.0459H14.051H14.0561H14.0613H14.0664H14.0715H14.0767H14.0818H14.0869H14.092H14.0972H14.1023H14.1074H14.1125H14.1177H14.1228H14.1279H14.133H14.1382H14.1433H14.1484H14.1535H14.1587H14.1638H14.1689H14.174H14.1792H14.1843H14.1894H14.1945H14.1996H14.2048H14.2099H14.215H14.2201H14.2252H14.2303H14.2355H14.2406H14.2457H14.2508H14.2559H14.261H14.2661H14.2713H14.2764H14.2815H14.2866H14.2917H14.2968H14.3019H14.307H14.3121H14.3172H14.3223H14.3274H14.3325H14.3376H14.3427H14.3478H14.3529H14.358H14.3631H14.3682H14.3733H14.3784H14.3835H14.3886H14.3937H14.3988H14.4038H14.4089H14.414H14.4191H14.4242H14.4293H14.4343H14.4394H14.4445H14.4496H14.4546H14.4597H14.4648H14.4698H14.4749H14.48H14.485H14.4901H14.4952H14.5002H14.5053H14.5103H14.5154H14.5205H14.5255H14.5306H14.5356H14.5406H14.5457H14.5507H14.5558H14.5608H14.5659H14.5709H14.5759H14.581H14.586H14.591H14.596H14.6011H14.6061H14.6111H14.6161H14.6211H14.6262H14.6312H14.6362H14.6412H14.6462H14.6512H14.6562H14.6612H14.6662H14.6712H14.6762H14.6812H14.6862H14.6912H14.6961H14.7011H14.7061H14.7111H14.7161H14.721H14.726H14.731H14.7359H14.7409H14.7459H14.7508H14.7558H14.7607H14.7657H14.7706H14.7756H14.7805H14.7855H14.7904H14.7953H14.8003H14.8052H14.8101H14.8151H14.82H14.8249H14.8298H14.8347H14.8396H14.8445H14.8494H14.8543H14.8592H14.8641H14.869H14.8739H14.8788H14.8837H14.8886H14.8935H14.8983H14.9032H14.9081H14.9129H14.9178H14.9227H14.9275H14.9324H14.9372H14.9421H14.9469H14.9518H14.9566H14.9614H14.9663H14.9711H14.9759H14.9807H14.9856H14.9904H14.9952H15H15.0032H15.0064H15.0096H15.0128H15.016H15.0192H15.0223H15.0254H15.0286H15.0317H15.0348H15.0379H15.0409H15.044H15.047H15.05H15.0531H15.0561H15.059H15.062H15.065H15.0679H15.0709H15.0738H15.0767H15.0796H15.0825H15.0854H15.0882H15.0911H15.0939H15.0968H15.0996H15.1024H15.1052H15.1079H15.1107H15.1135H15.1162H15.1189H15.1216H15.1243H15.127H15.1297H15.1324H15.1351H15.1377H15.1403H15.143H15.1456H15.1482H15.1508H15.1534H15.1559H15.1585H15.161H15.1636H15.1661H15.1686H15.1711H15.1736H15.1761H15.1786H15.181H15.1835H15.1859H15.1883H15.1908H15.1932H15.1956H15.198H15.2003H15.2027H15.2051H15.2074H15.2098H15.2121H15.2144H15.2167H15.219H15.2213H15.2236H15.2259H15.2281H15.2304H15.2326H15.2348H15.2371H15.2393H15.2415H15.2437H15.2459H15.248H15.2502H15.2524H15.2545H15.2567H15.2588H15.2609H15.263H15.2651H15.2672H15.2693H15.2714H15.2735H15.2755H15.2776H15.2797H15.2817H15.2837H15.2857H15.2878H15.2898H15.2918H15.2938H15.2957H15.2977H15.2997H15.3016H15.3036H15.3055H15.3075H15.3094H15.3113H15.3132H15.3151H15.317H15.3189H15.3208H15.3227H15.3246H15.3264H15.3283H15.3301H15.332H15.3338H15.3356H15.3375H15.3393H15.3411H15.3429H15.3447H15.3465H15.3483H15.35H15.3518H15.3536H15.3553H15.3571H15.3588H15.3606H15.3623H15.364H15.3657H15.3675H15.3692H15.3709H15.3726H15.3743H15.376H15.3776H15.3793H15.381H15.3826H15.3843H15.386H15.3876H15.3892H15.3909H15.3925H15.3942H15.3958H15.3974H15.399H15.4006H15.4022H15.4038H15.4054H15.407H15.4086H15.4102H15.4117H15.4133H15.4149H15.4164H15.418H15.4196H15.4211H15.4227H15.4242H15.4257H15.4273H15.4288H15.4303H15.4319H15.4334H15.4349H15.4364H15.4379H15.4394H15.4409H15.4424H15.4439H15.4454H15.4469H15.4484H15.4499H15.4513H15.4528H15.4543H15.4557H15.4572H15.4587H15.4601H15.4616H15.463H15.4645H15.4659H15.4674H15.4688H15.4703H15.4717H15.4732H15.4746H15.476H15.4775H15.4789H15.4803H15.4817H15.4832H15.4846H15.486H15.4874H15.4888H15.4902H15.4917H15.4931H15.4945H15.4959H15.4973H15.4987H15.5001H15.5015H15.5029H15.5043H15.5057H15.5071H15.5085H15.5099H15.5113H15.5127H15.514H15.5154H15.5168H15.5182H15.5196H15.521H15.5224H15.5238H15.5252H15.5265H15.5279H15.5293H15.5307H15.5321H15.5335H15.5349H15.5362H15.5376H15.539H15.5404H15.5418H15.5432H15.5445H15.5459H15.5473H15.5487H15.5501H15.5515H15.5529H15.5543H15.5557H15.557H15.5584H15.5598H15.5612H15.5626H15.564H15.5654H15.5668H15.5682H15.5696H15.571H15.5724H15.5738H15.5752H15.5766H15.578H15.5794H15.5808H15.5823H15.5837H15.5851H15.5865H15.5879H15.5893H15.5908H15.5922H15.5936H15.5951H15.5965H15.5979H15.5994H15.6008H15.6022H15.6037H15.6051H15.6066H15.608H15.6095H15.6109H15.6124H15.6139H15.6153H15.6168H15.6183H15.6197H15.6212H15.6227H15.6242H15.6257H15.6272H15.6287H15.6302H15.6317H15.6332H15.6347H15.6362H15.6377H15.6392H15.6407H15.6423H15.6438H15.6453H15.6469H15.6484H15.65H15.6515H15.6531H15.6546H15.6562H15.6577H15.6593H15.6609H15.6625H15.6641H15.6656H15.6672H15.6688H15.6704H15.6721H15.6737H15.6753H15.6769H15.6785H15.6802H15.6818H15.6834H15.6851H15.6867H15.6884H15.6901H15.6917H15.6934H15.6951H15.6968H15.6985H15.7002H15.7019H15.7036H15.7053H15.707H15.7087H15.7105H15.7122H15.714H15.7157H15.7175H15.7192H15.721H15.7228H15.7246H15.7263H15.7281H15.7299H15.7318H15.7336H15.7354H15.7372H15.739H15.7409H15.7427H15.7446H15.7465H15.7483H15.7502H15.7521H15.754H15.7559H15.7578H15.7597H15.7616H15.7635H15.7655H15.7674H15.7694H15.7713H15.7733H15.7753H15.7773H15.7792H15.7812H15.7832H15.7853H15.7873H15.7893H15.7913H15.7934H15.7954H15.7975H15.7996H15.8017H15.8038H15.8058H15.808H15.8101H15.8122H15.8143H15.8165H15.8186H15.8208H15.8229H15.8251H15.8273H15.8295H15.8317H15.8339H15.8361H15.8384H15.8406H15.8429H15.8451H15.8474H15.8497H15.8519H15.8542H15.8566H15.8589H15.8612H15.8635H15.8659H15.8682H15.8706H15.873H15.8754H15.8778H15.8802H15.8826H15.885H15.8875H15.8899H15.8924H15.8948H15.8973H15.8998H15.9023H15.9048H15.9074H15.9099H15.9124H15.915H15.9176H15.9201H15.9227H15.9253H15.9279H15.9306H15.9332H15.9359H15.9385H15.9412H15.9439H15.9466H15.9493H15.952H15.9547H15.9574H15.9602H15.963H15.9657H15.9685H15.9713H15.9741H15.977H15.9798H15.9826H15.9855H15.9884H15.9913H15.9942H15.9971H16H16.0029H16.0058H16.0087H16.0116H16.0145H16.0174H16.0202H16.023H16.0259H16.0287H16.0315H16.0343H16.037H16.0398H16.0426H16.0453H16.048H16.0507H16.0534H16.0561H16.0588H16.0615H16.0641H16.0668H16.0694H16.0721H16.0747H16.0773H16.0799H16.0824H16.085H16.0876H16.0901H16.0926H16.0952H16.0977H16.1002H16.1027H16.1052H16.1076H16.1101H16.1125H16.115H16.1174H16.1198H16.1222H16.1246H16.127H16.1294H16.1318H16.1341H16.1365H16.1388H16.1411H16.1434H16.1458H16.1481H16.1503H16.1526H16.1549H16.1571H16.1594H16.1616H16.1639H16.1661H16.1683H16.1705H16.1727H16.1749H16.1771H16.1792H16.1814H16.1835H16.1857H16.1878H16.1899H16.192H16.1942H16.1962H16.1983H16.2004H16.2025H16.2046H16.2066H16.2087H16.2107H16.2127H16.2147H16.2168H16.2188H16.2208H16.2227H16.2247H16.2267H16.2287H16.2306H16.2326H16.2345H16.2365H16.2384H16.2403H16.2422H16.2441H16.246H16.2479H16.2498H16.2517H16.2535H16.2554H16.2573H16.2591H16.261H16.2628H16.2646H16.2664H16.2682H16.2701H16.2719H16.2737H16.2754H16.2772H16.279H16.2808H16.2825H16.2843H16.286H16.2878H16.2895H16.2913H16.293H16.2947H16.2964H16.2981H16.2998H16.3015H16.3032H16.3049H16.3066H16.3083H16.3099H16.3116H16.3133H16.3149H16.3166H16.3182H16.3198H16.3215H16.3231H16.3247H16.3263H16.3279H16.3296H16.3312H16.3328H16.3344H16.3359H16.3375H16.3391H16.3407H16.3423H16.3438H16.3454H16.3469H16.3485H16.35H16.3516H16.3531H16.3547H16.3562H16.3577H16.3593H16.3608H16.3623H16.3638H16.3653H16.3668H16.3683H16.3698H16.3713H16.3728H16.3743H16.3758H16.3773H16.3788H16.3803H16.3817H16.3832H16.3847H16.3861H16.3876H16.3891H16.3905H16.392H16.3934H16.3949H16.3963H16.3978H16.3992H16.4006H16.4021H16.4035H16.4049H16.4064H16.4078H16.4092H16.4107H16.4121H16.4135H16.4149H16.4163H16.4177H16.4192H16.4206H16.422H16.4234H16.4248H16.4262H16.4276H16.429H16.4304H16.4318H16.4332H16.4346H16.436H16.4374H16.4388H16.4402H16.4416H16.443H16.4443H16.4457H16.4471H16.4485H16.4499H16.4513H16.4527H16.4541H16.4555H16.4568H16.4582H16.4596H16.461H16.4624H16.4638H16.4651H16.4665H16.4679H16.4693H16.4707H16.4721H16.4735H16.4748H16.4762H16.4776H16.479H16.4804H16.4818H16.4832H16.4846H16.486H16.4873H16.4887H16.4901H16.4915H16.4929H16.4943H16.4957H16.4971H16.4985H16.4999H16.5013H16.5027H16.5041H16.5055H16.5069H16.5083H16.5098H16.5112H16.5126H16.514H16.5154H16.5168H16.5183H16.5197H16.5211H16.5225H16.524H16.5254H16.5268H16.5283H16.5297H16.5312H16.5326H16.5341H16.5355H16.537H16.5384H16.5399H16.5413H16.5428H16.5443H16.5457H16.5472H16.5487H16.5501H16.5516H16.5531H16.5546H16.5561H16.5576H16.5591H16.5606H16.5621H16.5636H16.5651H16.5666H16.5681H16.5697H16.5712H16.5727H16.5743H16.5758H16.5773H16.5789H16.5804H16.582H16.5836H16.5851H16.5867H16.5883H16.5898H16.5914H16.593H16.5946H16.5962H16.5978H16.5994H16.601H16.6026H16.6042H16.6058H16.6075H16.6091H16.6108H16.6124H16.614H16.6157H16.6174H16.619H16.6207H16.6224H16.624H16.6257H16.6274H16.6291H16.6308H16.6325H16.6343H16.636H16.6377H16.6394H16.6412H16.6429H16.6447H16.6464H16.6482H16.65H16.6517H16.6535H16.6553H16.6571H16.6589H16.6607H16.6625H16.6644H16.6662H16.668H16.6699H16.6717H16.6736H16.6754H16.6773H16.6792H16.6811H16.683H16.6849H16.6868H16.6887H16.6906H16.6925H16.6945H16.6964H16.6984H16.7003H16.7023H16.7043H16.7062H16.7082H16.7102H16.7122H16.7143H16.7163H16.7183H16.7203H16.7224H16.7245H16.7265H16.7286H16.7307H16.7328H16.7349H16.737H16.7391H16.7412H16.7433H16.7455H16.7476H16.7498H16.752H16.7541H16.7563H16.7585H16.7607H16.7629H16.7652H16.7674H16.7696H16.7719H16.7741H16.7764H16.7787H16.781H16.7833H16.7856H16.7879H16.7902H16.7926H16.7949H16.7973H16.7997H16.802H16.8044H16.8068H16.8092H16.8117H16.8141H16.8165H16.819H16.8214H16.8239H16.8264H16.8289H16.8314H16.8339H16.8364H16.839H16.8415H16.8441H16.8466H16.8492H16.8518H16.8544H16.857H16.8597H16.8623H16.8649H16.8676H16.8703H16.873H16.8757H16.8784H16.8811H16.8838H16.8865H16.8893H16.8921H16.8948H16.8976H16.9004H16.9032H16.9061H16.9089H16.9118H16.9146H16.9175H16.9204H16.9233H16.9262H16.9291H16.9321H16.935H16.938H16.941H16.9439H16.9469H16.95H16.953H16.956H16.9591H16.9621H16.9652H16.9683H16.9714H16.9746H16.9777H16.9808H16.984H16.9872H16.9904H16.9936H16.9968H17H17.0048H17.0096H17.0144H17.0193H17.0241H17.0289H17.0337H17.0386H17.0434H17.0482H17.0531H17.0579H17.0628H17.0676H17.0725H17.0773H17.0822H17.0871H17.0919H17.0968H17.1017H17.1065H17.1114H17.1163H17.1212H17.1261H17.131H17.1359H17.1408H17.1457H17.1506H17.1555H17.1604H17.1653H17.1702H17.1751H17.18H17.1849H17.1899H17.1948H17.1997H17.2047H17.2096H17.2145H17.2195H17.2244H17.2294H17.2343H17.2393H17.2442H17.2492H17.2541H17.2591H17.2641H17.269H17.274H17.279H17.2839H17.2889H17.2939H17.2989H17.3039H17.3088H17.3138H17.3188H17.3238H17.3288H17.3338H17.3388H17.3438H17.3488H17.3538H17.3588H17.3638H17.3688H17.3738H17.3789H17.3839H17.3889H17.3939H17.3989H17.404H17.409H17.414H17.419H17.4241H17.4291H17.4341H17.4392H17.4442H17.4493H17.4543H17.4594H17.4644H17.4694H17.4745H17.4795H17.4846H17.4897H17.4947H17.4998H17.5048H17.5099H17.515H17.52H17.5251H17.5302H17.5352H17.5403H17.5454H17.5504H17.5555H17.5606H17.5657H17.5707H17.5758H17.5809H17.586H17.5911H17.5962H17.6012H17.6063H17.6114H17.6165H17.6216H17.6267H17.6318H17.6369H17.642H17.6471H17.6522H17.6573H17.6624H17.6675H17.6726H17.6777H17.6828H17.6879H17.693H17.6981H17.7032H17.7083H17.7134H17.7185H17.7236H17.7287H17.7339H17.739H17.7441H17.7492H17.7543H17.7594H17.7645H17.7697H17.7748H17.7799H17.785H17.7901H17.7952H17.8004H17.8055H17.8106H17.8157H17.8208H17.826H17.8311H17.8362H17.8413H17.8465H17.8516H17.8567H17.8618H17.867H17.8721H17.8772H17.8823H17.8875H17.8926H17.8977H17.9028H17.908H17.9131H17.9182H17.9233H17.9285H17.9336H17.9387H17.9439H17.949H17.9541H17.9592H17.9644H17.9695H17.9746H17.9797H17.9849H17.99H17.9951H18.0002H18.0054H18.0105H18.0156H18.0207H18.0259H18.031H18.0361H18.0412H18.0464H18.0515H18.0566H18.0617H18.0669H18.072H18.0771H18.0822H18.0873H18.0925H18.0976H18.1027H18.1078H18.1129H18.118H18.1232H18.1283H18.1334H18.1385H18.1436H18.1487H18.1538H18.1589H18.1641H18.1692H18.1743H18.1794H18.1845H18.1896H18.1947H18.1998H18.2049H18.21H18.2151H18.2202H18.2253H18.2304H18.2355H18.2406H18.2457H18.2508H18.2559H18.261H18.2661H18.2712H18.2762H18.2813H18.2864H18.2915H18.2966H18.3017H18.3067H18.3118H18.3169H18.322H18.3271H18.3321H18.3372H18.3423H18.3473H18.3524H18.3575H18.3625H18.3676H18.3727H18.3777H18.3828H18.3878H18.3929H18.3979H18.403H18.4081H18.4131H18.4181H18.4232H18.4282H18.4333H18.4383H18.4434H18.4484H18.4534H18.4585H18.4635H18.4685H18.4736H18.4786H18.4836H18.4886H18.4936H18.4987H18.5037H18.5087H18.5137H18.5187H18.5237H18.5287H18.5337H18.5387H18.5437H18.5487H18.5537H18.5587H18.5637H18.5687H18.5737H18.5787H18.5836H18.5886H18.5936H18.5986H18.6035H18.6085H18.6135H18.6184H18.6234H18.6284H18.6333H18.6383H18.6432H18.6482H18.6531H18.6581H18.663H18.668H18.6729H18.6778H18.6828H18.6877H18.6926H18.6975H18.7025H18.7074H18.7123H18.7172H18.7221H18.727H18.7319H18.7368H18.7417H18.7466H18.7515H18.7564H18.7613H18.7662H18.771H18.7759H18.7808H18.7857H18.7905H18.7954H18.8003H18.8051H18.81H18.8148H18.8197H18.8245H18.8294H18.8342H18.839H18.8439H18.8487H18.8535H18.8584H18.8632H18.868H18.8728H18.8776H18.8824H18.8872H18.892H18.8968H18.9016H18.9064H18.9112H18.916H18.9208H18.9255H18.9303H18.9351H18.9398H18.9446H18.9493H18.9541H18.9588H18.9636H18.9683H18.9731H18.9778H18.9825H18.9873H18.992H18.9967H19.0014H19.0061H19.0108H19.0155H19.0202H19.0249H19.0296H19.0343H19.039H19.0437H19.0484H19.053H19.0577H19.0624H19.067H19.0717H19.0763H19.081H19.0856H19.0903H19.0949H19.0995H19.1041H19.1088H19.1134H19.118H19.1226H19.1272H19.1318H19.1364H19.141H19.1456H19.1502H19.1547H19.1593H19.1639H19.1684H19.173H19.1776H19.1821H19.1866H19.1912H19.1957H19.2003H19.2048H19.2093H19.2138H19.2183H19.2228H19.2273H19.2318H19.2363H19.2408H19.2453H19.2498H19.2543H19.2587H19.2632H19.2677H19.2721H19.2766H19.281H19.2854H19.2899H19.2943H19.2987H19.3032H19.3076H19.312H19.3164H19.3208H19.3252H19.3296H19.3339H19.3383H19.3427H19.3471H19.3514H19.3558H19.3601H19.3645H19.3688H19.3732H19.3775H19.3818H19.3861H19.3904H19.3948H19.3991H19.4034H19.4076H19.4119H19.4162H19.4205H19.4248H19.429H19.4333H19.4375H19.4418H19.446H19.4503H19.4545H19.4587H19.4629H19.4671H19.4713H19.4756H19.4797H19.4839H19.4881H19.4923H19.4965H19.5006C19.6812 23 19.8584 22.9751 20.0144 22.9152C20.1558 22.8609 20.3602 22.7451 20.4563 22.5109C20.571 22.2311 20.46 21.9748 20.3198 21.8217C20.1916 21.6816 20.0176 21.5923 19.8496 21.5326C19.5656 21.4317 19.3318 21.3402 19.1678 21.227C19.0171 21.123 19 21.0551 19 21H18C18 21.4672 18.2539 21.7892 18.5307 22H18.5287H18.5237H18.5187H18.5137H18.5087H18.5037H18.4987H18.4936H18.4886H18.4836H18.4786H18.4736H18.4685H18.4635H18.4585H18.4534H18.4484H18.4434H18.4383H18.4333H18.4282H18.4232H18.4181H18.4131H18.4081H18.403H18.3979H18.3929H18.3878H18.3828H18.3777H18.3727H18.3676H18.3625H18.3575H18.3524H18.3473H18.3423H18.3372H18.3321H18.3271H18.322H18.3169H18.3118H18.3067H18.3017H18.2966H18.2915H18.2864H18.2813H18.2762H18.2712H18.2661H18.261H18.2559H18.2508H18.2457H18.2406H18.2355H18.2304H18.2253H18.2202H18.2151H18.21H18.2049H18.1998H18.1947H18.1896H18.1845H18.1794H18.1743H18.1692H18.1641H18.1589H18.1538H18.1487H18.1436H18.1385H18.1334H18.1283H18.1232H18.118H18.1129H18.1078H18.1027H18.0976H18.0925H18.0873H18.0822H18.0771H18.072H18.0669H18.0617H18.0566H18.0515H18.0464H18.0412H18.0361H18.031H18.0259H18.0207H18.0156H18.0105H18.0054H18.0002H17.9951H17.99H17.9849H17.9797H17.9746H17.9695H17.9644H17.9592H17.9541H17.949H17.9439H17.9387H17.9336H17.9285H17.9233H17.9182H17.9131H17.908H17.9028H17.8977H17.8926H17.8875H17.8823H17.8772H17.8721H17.867H17.8618H17.8567H17.8516H17.8465H17.8413H17.8362H17.8311H17.826H17.8208H17.8157H17.8106H17.8055H17.8004H17.7952H17.7901H17.785H17.7799H17.7748H17.7697H17.7645H17.7594H17.7543H17.7492H17.7441H17.739H17.7339H17.7287H17.7236H17.7185H17.7134H17.7083H17.7032H17.6981H17.693H17.6879H17.6828H17.6777H17.6726H17.6675H17.6624H17.6573H17.6522H17.6471H17.642H17.6369H17.6318H17.6267H17.6216H17.6165H17.6114H17.6063H17.6012H17.5962H17.5911H17.586H17.5809H17.5758H17.5707H17.5657H17.5606H17.5555H17.5504H17.5454H17.5403H17.5352H17.5302H17.5251H17.52H17.515H17.5099H17.5048H17.4998H17.4947H17.4897H17.4846H17.4795H17.4745H17.4694H17.4644H17.4594H17.4543H17.4493H17.4442H17.4392H17.4341H17.4291H17.4241H17.419H17.414H17.409H17.404H17.3989H17.3939H17.3889H17.3839H17.3789H17.3738H17.3688H17.3638H17.3588H17.3538H17.3488H17.3438H17.3388H17.3338H17.3288H17.3238H17.3188H17.3138H17.3088H17.3039H17.2989H17.2939H17.2889H17.2839H17.279H17.274H17.269H17.2641H17.2591H17.2541H17.2492H17.2442H17.2393H17.2343H17.2294H17.2244H17.2195H17.2145H17.2096H17.2047H17.1997H17.1948H17.1899H17.1849H17.18H17.1751H17.1702H17.1653H17.1604H17.1555H17.1506H17.1457H17.1408H17.1359H17.131H17.1261H17.1212H17.1163H17.1114H17.1065H17.1017H17.0968H17.0919H17.0871H17.0822H17.0773H17.0725H17.0676H17.0628H17.0579H17.0531H17.0482H17.0434H17.0386H17.0337H17.0289H17.0241H17.0193H17.0144H17.0096H17.0048H17H16.9968H16.9936H16.9904H16.9872H16.984H16.9808H16.9777H16.9746H16.9714H16.9683H16.9652H16.9621H16.9591H16.956H16.953H16.95H16.9469H16.9439H16.941H16.938H16.935H16.9321H16.9291H16.9262H16.9233H16.9204H16.9175H16.9146H16.9118H16.9089H16.9061H16.9032H16.9004H16.8976H16.8948H16.8921H16.8893H16.8865H16.8838H16.8811H16.8784H16.8757H16.873H16.8703H16.8676H16.8649H16.8623H16.8597H16.857H16.8544H16.8518H16.8492H16.8466H16.8441H16.8415H16.839H16.8364H16.8339H16.8314H16.8289H16.8264H16.8239H16.8214H16.819H16.8165H16.8141H16.8117H16.8092H16.8068H16.8044H16.802H16.7997H16.7973H16.7949H16.7926H16.7902H16.7879H16.7856H16.7833H16.781H16.7787H16.7764H16.7741H16.7719H16.7696H16.7674H16.7652H16.7629H16.7607H16.7585H16.7563H16.7541H16.752H16.7498H16.7476H16.7455H16.7433H16.7412H16.7391H16.737H16.7349H16.7328H16.7307H16.7286H16.7265H16.7245H16.7224H16.7203H16.7183H16.7163H16.7143H16.7122H16.7102H16.7082H16.7062H16.7043H16.7023H16.7003H16.6984H16.6964H16.6945H16.6925H16.6906H16.6887H16.6868H16.6849H16.683H16.6811H16.6792H16.6773H16.6754H16.6736H16.6717H16.6699H16.668H16.6662H16.6644H16.6625H16.6607H16.6589H16.6571H16.6553H16.6535H16.6517H16.65H16.6482H16.6464H16.6447H16.6429H16.6412H16.6394H16.6377H16.636H16.6343H16.6325H16.6308H16.6291H16.6274H16.6257H16.624H16.6224H16.6207H16.619H16.6174H16.6157H16.614H16.6124H16.6108H16.6091H16.6075H16.6058H16.6042H16.6026H16.601H16.5994H16.5978H16.5962H16.5946H16.593H16.5914H16.5898H16.5883H16.5867H16.5851H16.5836H16.582H16.5804H16.5789H16.5773H16.5758H16.5743H16.5727H16.5712H16.5697H16.5681H16.5666H16.5651H16.5636H16.5621H16.5606H16.5591H16.5576H16.5561H16.5546H16.5531H16.5516H16.5501H16.5487H16.5472H16.5457H16.5443H16.5428H16.5413H16.5399H16.5384H16.537H16.5355H16.5341H16.5326H16.5312H16.5297H16.5283H16.5268H16.5254H16.524H16.5225H16.5211H16.5197H16.5183H16.5168H16.5154H16.514H16.5126H16.5112H16.5098H16.5083H16.5069H16.5055H16.5041H16.5027H16.5013H16.4999H16.4985H16.4971H16.4957H16.4943H16.4929H16.4915H16.4901H16.4887H16.4873H16.486H16.4846H16.4832H16.4818H16.4804H16.479H16.4776H16.4762H16.4748H16.4735H16.4721H16.4707H16.4693H16.4679H16.4665H16.4651H16.4638H16.4624H16.461H16.4596H16.4582H16.4568H16.4555H16.4541H16.4527H16.4513H16.4499H16.4485H16.4471H16.4457H16.4443H16.443H16.4416H16.4402H16.4388H16.4374H16.436H16.4346H16.4332H16.4318H16.4304H16.429H16.4276H16.4262H16.4248H16.4234H16.422H16.4206H16.4192H16.4177H16.4163H16.4149H16.4135H16.4121H16.4107H16.4092H16.4078H16.4064H16.4049H16.4035H16.4021H16.4006H16.3992H16.3978H16.3963H16.3949H16.3934H16.392H16.3905H16.3891H16.3876H16.3861H16.3847H16.3832H16.3817H16.3803H16.3788H16.3773H16.3758H16.3743H16.3728H16.3713H16.3698H16.3683H16.3668H16.3653H16.3638H16.3623H16.3608H16.3593H16.3577H16.3562H16.3547H16.3531H16.3516H16.35H16.3485H16.3469H16.3454H16.3438H16.3423H16.3407H16.3391H16.3375H16.3359H16.3344H16.3328H16.3312H16.3296H16.3279H16.3263H16.3247H16.3231H16.3215H16.3198H16.3182H16.3166H16.3149H16.3133H16.3116H16.3099H16.3083H16.3066H16.3049H16.3032H16.3015H16.2998H16.2981H16.2964H16.2947H16.293H16.2913H16.2895H16.2878H16.286H16.2843H16.2825H16.2808H16.279H16.2772H16.2754H16.2737H16.2719H16.2701H16.2682H16.2664H16.2646H16.2628H16.261H16.2591H16.2573H16.2554H16.2535H16.2517H16.2498H16.2479H16.246H16.2441H16.2422H16.2403H16.2384H16.2365H16.2345H16.2326H16.2306H16.2287H16.2267H16.2247H16.2227H16.2208H16.2188H16.2168H16.2147H16.2127H16.2107H16.2087H16.2066H16.2046H16.2025H16.2004H16.1983H16.1962H16.1942H16.192H16.1899H16.1878H16.1857H16.1835H16.1814H16.1792H16.1771H16.1749H16.1727H16.1705H16.1683H16.1661H16.1639H16.1616H16.1594H16.1571H16.1549H16.1526H16.1503H16.1481H16.1458H16.1434H16.1411H16.1388H16.1365H16.1341H16.1318H16.1294H16.127H16.1246H16.1222H16.1198H16.1174H16.115H16.1125H16.1101H16.1076H16.1052H16.1027H16.1002H16.0977H16.0952H16.0926H16.0901H16.0876H16.085H16.0824H16.0799H16.0773H16.0747H16.0721H16.0694H16.0668H16.0641H16.0615H16.0588H16.0561H16.0534H16.0507H16.048H16.0453H16.0426H16.0398H16.037H16.0343H16.0315H16.0287H16.0259H16.023H16.0202H16.0174H16.0145H16.0116H16.0087H16.0058H16.0029H16H15.9971H15.9942H15.9913H15.9884H15.9855H15.9826H15.9798H15.977H15.9741H15.9713H15.9685H15.9657H15.963H15.9602H15.9574H15.9547H15.952H15.9493H15.9466H15.9439H15.9412H15.9385H15.9359H15.9332H15.9306H15.9279H15.9253H15.9227H15.9201H15.9176H15.915H15.9124H15.9099H15.9074H15.9048H15.9023H15.8998H15.8973H15.8948H15.8924H15.8899H15.8875H15.885H15.8826H15.8802H15.8778H15.8754H15.873H15.8706H15.8682H15.8659H15.8635H15.8612H15.8589H15.8566H15.8542H15.8519H15.8497H15.8474H15.8451H15.8429H15.8406H15.8384H15.8361H15.8339H15.8317H15.8295H15.8273H15.8251H15.8229H15.8208H15.8186H15.8165H15.8143H15.8122H15.8101H15.808H15.8058H15.8038H15.8017H15.7996H15.7975H15.7954H15.7934H15.7913H15.7893H15.7873H15.7853H15.7832H15.7812H15.7792H15.7773H15.7753H15.7733H15.7713H15.7694H15.7674H15.7655H15.7635H15.7616H15.7597H15.7578H15.7559H15.754H15.7521H15.7502H15.7483H15.7465H15.7446H15.7427H15.7409H15.739H15.7372H15.7354H15.7336H15.7318H15.7299H15.7281H15.7263H15.7246H15.7228H15.721H15.7192H15.7175H15.7157H15.714H15.7122H15.7105H15.7087H15.707H15.7053H15.7036H15.7019H15.7002H15.6985H15.6968H15.6951H15.6934H15.6917H15.6901H15.6884H15.6867H15.6851H15.6834H15.6818H15.6802H15.6785H15.6769H15.6753H15.6737H15.6721H15.6704H15.6688H15.6672H15.6656H15.6641H15.6625H15.6609H15.6593H15.6577H15.6562H15.6546H15.6531H15.6515H15.65H15.6484H15.6469H15.6453H15.6438H15.6423H15.6407H15.6392H15.6377H15.6362H15.6347H15.6332H15.6317H15.6302H15.6287H15.6272H15.6257H15.6242H15.6227H15.6212H15.6197H15.6183H15.6168H15.6153H15.6139H15.6124H15.6109H15.6095H15.608H15.6066H15.6051H15.6037H15.6022H15.6008H15.5994H15.5979H15.5965H15.5951H15.5936H15.5922H15.5908H15.5893H15.5879H15.5865H15.5851H15.5837H15.5823H15.5808H15.5794H15.578H15.5766H15.5752H15.5738H15.5724H15.571H15.5696H15.5682H15.5668H15.5654H15.564H15.5626H15.5612H15.5598H15.5584H15.557H15.5557H15.5543H15.5529H15.5515H15.5501H15.5487H15.5473H15.5459H15.5445H15.5432H15.5418H15.5404H15.539H15.5376H15.5362H15.5349H15.5335H15.5321H15.5307H15.5293H15.5279H15.5265H15.5252H15.5238H15.5224H15.521H15.5196H15.5182H15.5168H15.5154H15.514H15.5127H15.5113H15.5099H15.5085H15.5071H15.5057H15.5043H15.5029H15.5015H15.5001H15.4987H15.4973H15.4959H15.4945H15.4931H15.4917H15.4902H15.4888H15.4874H15.486H15.4846H15.4832H15.4817H15.4803H15.4789H15.4775H15.476H15.4746H15.4732H15.4717H15.4703H15.4688H15.4674H15.4659H15.4645H15.463H15.4616H15.4601H15.4587H15.4572H15.4557H15.4543H15.4528H15.4513H15.4499H15.4484H15.4469H15.4454H15.4439H15.4424H15.4409H15.4394H15.4379H15.4364H15.4349H15.4334H15.4319H15.4303H15.4288H15.4273H15.4257H15.4242H15.4227H15.4211H15.4196H15.418H15.4164H15.4149H15.4133H15.4117H15.4102H15.4086H15.407H15.4054H15.4038H15.4022H15.4006H15.399H15.3974H15.3958H15.3942H15.3925H15.3909H15.3892H15.3876H15.386H15.3843H15.3826H15.381H15.3793H15.3776H15.376H15.3743H15.3726H15.3709H15.3692H15.3675H15.3657H15.364H15.3623H15.3606H15.3588H15.3571H15.3553H15.3536H15.3518H15.35H15.3483H15.3465H15.3447H15.3429H15.3411H15.3393H15.3375H15.3356H15.3338H15.332H15.3301H15.3283H15.3264H15.3246H15.3227H15.3208H15.3189H15.317H15.3151H15.3132H15.3113H15.3094H15.3075H15.3055H15.3036H15.3016H15.2997H15.2977H15.2957H15.2938H15.2918H15.2898H15.2878H15.2857H15.2837H15.2817H15.2797H15.2776H15.2755H15.2735H15.2714H15.2693H15.2672H15.2651H15.263H15.2609H15.2588H15.2567H15.2545H15.2524H15.2502H15.248H15.2459H15.2437H15.2415H15.2393H15.2371H15.2348H15.2326H15.2304H15.2281H15.2259H15.2236H15.2213H15.219H15.2167H15.2144H15.2121H15.2098H15.2074H15.2051H15.2027H15.2003H15.198H15.1956H15.1932H15.1908H15.1883H15.1859H15.1835H15.181H15.1786H15.1761H15.1736H15.1711H15.1686H15.1661H15.1636H15.161H15.1585H15.1559H15.1534H15.1508H15.1482H15.1456H15.143H15.1403H15.1377H15.1351H15.1324H15.1297H15.127H15.1243H15.1216H15.1189H15.1162H15.1135H15.1107H15.1079H15.1052H15.1024H15.0996H15.0968H15.0939H15.0911H15.0882H15.0854H15.0825H15.0796H15.0767H15.0738H15.0709H15.0679H15.065H15.062H15.059H15.0561H15.0531H15.05H15.047H15.044H15.0409H15.0379H15.0348H15.0317H15.0286H15.0254H15.0223H15.0192H15.016H15.0128H15.0096H15.0064H15.0032H15H14.9952H14.9904H14.9856H14.9807H14.9759H14.9711H14.9663H14.9614H14.9566H14.9518H14.9469H14.9421H14.9372H14.9324H14.9275H14.9227H14.9178H14.9129H14.9081H14.9032H14.8983H14.8935H14.8886H14.8837H14.8788H14.8739H14.869H14.8641H14.8592H14.8543H14.8494H14.8445H14.8396H14.8347H14.8298H14.8249H14.82H14.8151H14.8101H14.8052H14.8003H14.7953H14.7904H14.7855H14.7805H14.7756H14.7706H14.7657H14.7607H14.7558H14.7508H14.7459H14.7409H14.7359H14.731H14.726H14.721H14.7161H14.7111H14.7061H14.7011H14.6961H14.6912H14.6862H14.6812H14.6762H14.6712H14.6662H14.6612H14.6562H14.6512H14.6462H14.6412H14.6362H14.6312H14.6262H14.6211H14.6161H14.6111H14.6061H14.6011H14.596H14.591H14.586H14.581H14.5759H14.5709H14.5659H14.5608H14.5558H14.5507H14.5457H14.5406H14.5356H14.5306H14.5255H14.5205H14.5154H14.5103H14.5053H14.5002H14.4952H14.4901H14.485H14.48H14.4749H14.4698H14.4648H14.4597H14.4546H14.4496H14.4445H14.4394H14.4343H14.4293H14.4242H14.4191H14.414H14.4089H14.4038H14.3988H14.3937H14.3886H14.3835H14.3784H14.3733H14.3682H14.3631H14.358H14.3529H14.3478H14.3427H14.3376H14.3325H14.3274H14.3223H14.3172H14.3121H14.307H14.3019H14.2968H14.2917H14.2866H14.2815H14.2764H14.2713H14.2661H14.261H14.2559H14.2508H14.2457H14.2406H14.2355H14.2303H14.2252H14.2201H14.215H14.2099H14.2048H14.1996H14.1945H14.1894H14.1843H14.1792H14.174H14.1689H14.1638H14.1587H14.1535H14.1484H14.1433H14.1382H14.133H14.1279H14.1228H14.1177H14.1125H14.1074H14.1023H14.0972H14.092H14.0869H14.0818H14.0767H14.0715H14.0664H14.0613H14.0561H14.051H14.0459H14.0408H14.0356H14.0305H14.0254H14.0203H14.0151H14.01H14.0049H13.9998H13.9946H13.9895H13.9844H13.9793H13.9741H13.969H13.9639H13.9588H13.9536H13.9485H13.9434H13.9383H13.9331H13.928H13.9229H13.9178H13.9127H13.9075H13.9024H13.8973H13.8922H13.8871H13.882H13.8768H13.8717H13.8666H13.8615H13.8564H13.8513H13.8462H13.8411H13.8359H13.8308H13.8257H13.8206H13.8155H13.8104H13.8053H13.8002H13.7951H13.79H13.7849H13.7798H13.7747H13.7696H13.7645H13.7594H13.7543H13.7492H13.7441H13.739H13.7339H13.7288H13.7238H13.7187H13.7136H13.7085H13.7034H13.6983H13.6933H13.6882H13.6831H13.678H13.673H13.6679H13.6628H13.6577H13.6527H13.6476H13.6425H13.6375H13.6324H13.6273H13.6223H13.6172H13.6122H13.6071H13.6021H13.597H13.5919H13.5869H13.5819H13.5768H13.5718H13.5667H13.5617H13.5566H13.5516H13.5466H13.5415H13.5365H13.5315H13.5264H13.5214H13.5164H13.5114H13.5064H13.5013H13.4963H13.4913H13.4863H13.4813H13.4763H13.4713H13.4693C13.7461 21.7892 14 21.4672 14 21H13C13 21.0551 12.9829 21.123 12.8322 21.227Z" fill="#272F5A"/>
</svg>
