<svg
  width="16"
  height="10"
  viewBox="0 0 16 10"
  fill="none"
  xmlns="http://www.w3.org/2000/svg"
>
    <path
    fill-rule="evenodd"
    clip-rule="evenodd"
    d="M3 1C3.55228 1 4 1.44772 4 2V8C4 8.55228 3.55228 9 3 9C2.44772 9 2 8.55228 2 8V7V3V2C2 1.44772 2.44772 1 3 1ZM1 7V3H0V2H1C1 0.895432 1.89542 0 3 0C3.59735 0 4.13354 0.261879 4.5 0.677086C4.86646 0.261879 5.40265 0 6 0C6.59735 0 7.13354 0.261879 7.5 0.677086C7.86646 0.261879 8.40265 0 9 0C9.59735 0 10.1335 0.261879 10.5 0.677086C10.8665 0.261879 11.4026 0 12 0C13.1046 0 14 0.895432 14 2H14.5C15.3284 2 16 2.67157 16 3.5V5H15V3.5C15 3.22385 14.7762 3 14.5 3H14V7H16V8H14C14 9.10457 13.1046 10 12 10C11.4026 10 10.8665 9.73812 10.5 9.32291C10.1335 9.73812 9.59735 10 9 10C8.40265 10 7.86646 9.73812 7.5 9.32291C7.13354 9.73812 6.59735 10 6 10C5.40265 10 4.86646 9.73812 4.5 9.32291C4.13354 9.73812 3.59735 10 3 10C1.89542 10 1 9.10457 1 8H0V7H1ZM10 8V2C10 1.44772 9.55228 1 9 1C8.44772 1 8 1.44772 8 2V8C8 8.55228 8.44772 9 9 9C9.55228 9 10 8.55228 10 8ZM11 2V8C11 8.55228 11.4477 9 12 9C12.5523 9 13 8.55228 13 8V2C13 1.44772 12.5523 1 12 1C11.4477 1 11 1.44772 11 2ZM6 1C6.55228 1 7 1.44772 7 2V8C7 8.55228 6.55228 9 6 9C5.44772 9 5 8.55228 5 8V2C5 1.44772 5.44772 1 6 1Z"
    fill="#A269E9"
  />
    </svg>
