<svg width="640" height="178" viewBox="0 0 640 178" fill="none" xmlns="http://www.w3.org/2000/svg">
<path d="M147.414 108.4L146.577 107.853L146.414 108.102V108.4H147.414ZM205.814 19V18H205.273L204.977 18.4531L205.814 19ZM237.414 19H238.414V18H237.414V19ZM237.414 108.4H236.414V109.4H237.414V108.4ZM253.414 108.4H254.414V107.4H253.414V108.4ZM253.414 129.6V130.6H254.414V129.6H253.414ZM237.414 129.6V128.6H236.414V129.6H237.414ZM237.414 159V160H238.414V159H237.414ZM213.414 159H212.414V160H213.414V159ZM213.414 129.6H214.414V128.6H213.414V129.6ZM147.414 129.6H146.414V130.6H147.414V129.6ZM213.414 108.4V109.4H214.414V108.4H213.414ZM213.414 45.6H214.414V42.183L212.572 45.0609L213.414 45.6ZM173.214 108.4L172.372 107.861L171.387 109.4H173.214V108.4ZM148.251 108.947L206.651 19.5469L204.977 18.4531L146.577 107.853L148.251 108.947ZM205.814 20H237.414V18H205.814V20ZM236.414 19V108.4H238.414V19H236.414ZM237.414 109.4H253.414V107.4H237.414V109.4ZM252.414 108.4V129.6H254.414V108.4H252.414ZM253.414 128.6H237.414V130.6H253.414V128.6ZM236.414 129.6V159H238.414V129.6H236.414ZM237.414 158H213.414V160H237.414V158ZM214.414 159V129.6H212.414V159H214.414ZM213.414 128.6H147.414V130.6H213.414V128.6ZM148.414 129.6V108.4H146.414V129.6H148.414ZM214.414 108.4V45.6H212.414V108.4H214.414ZM212.572 45.0609L172.372 107.861L174.056 108.939L214.256 46.1391L212.572 45.0609ZM173.214 109.4H213.414V107.4H173.214V109.4ZM297.5 157.4L297.118 158.324L297.13 158.329L297.142 158.334L297.5 157.4ZM281.9 145.6L281.119 146.225L281.9 145.6ZM271.9 125L270.934 125.257L270.936 125.266L270.938 125.275L271.9 125ZM271.9 53.4L270.937 53.1292L270.935 53.1395L271.9 53.4ZM281.9 32.6L281.121 31.973L281.119 31.9753L281.9 32.6ZM297.7 20.8L298.064 21.7312L298.073 21.7278L298.082 21.7243L297.7 20.8ZM339.3 20.8L338.918 21.7243L338.93 21.7292L338.942 21.7338L339.3 20.8ZM355.1 32.4L354.319 33.0247L354.324 33.0306L354.329 33.0364L355.1 32.4ZM365.1 53.2L364.134 53.4567L364.135 53.4605L365.1 53.2ZM364.9 124.8L363.937 124.529L363.935 124.539L364.9 124.8ZM354.9 145.6L354.121 144.973L354.119 144.975L354.9 145.6ZM339.3 157.4L339.664 158.331L339.673 158.328L339.682 158.324L339.3 157.4ZM328.9 136.6L329.299 137.517L328.9 136.6ZM336.7 129.6L337.542 130.139L336.7 129.6ZM341.5 116L340.521 115.795L340.519 115.806L340.517 115.817L341.5 116ZM341.5 62.2L342.479 61.9951L341.5 62.2ZM336.5 48.6L335.648 49.1241L335.653 49.1316L335.658 49.139L336.5 48.6ZM328.7 41.4L328.301 42.3171L328.7 41.4ZM308.1 41.4L308.499 42.3171L308.1 41.4ZM300.3 48.4L299.458 47.8609L300.3 48.4ZM295.3 62L294.321 61.7951L294.319 61.8061L294.317 61.8171L295.3 62ZM295.3 115.8L294.317 115.983L294.319 115.994L294.321 116.005L295.3 115.8ZM300.3 129.6L299.448 130.124L299.46 130.143L299.473 130.162L300.3 129.6ZM308.1 136.6L307.686 137.51L307.694 137.514L307.701 137.517L308.1 136.6ZM318.5 160C310.871 160 303.994 158.816 297.858 156.466L297.142 158.334C303.539 160.784 310.663 162 318.5 162V160ZM297.882 156.476C291.909 154.009 286.845 150.181 282.681 144.975L281.119 146.225C285.488 151.686 290.824 155.724 297.118 158.324L297.882 156.476ZM282.681 144.975C278.517 139.77 275.235 133.032 272.862 124.725L270.938 125.275C273.365 133.768 276.75 140.763 281.119 146.225L282.681 144.975ZM272.866 124.743C270.628 116.318 269.5 106.142 269.5 94.2H267.5C267.5 106.258 268.638 116.616 270.934 125.257L272.866 124.743ZM269.5 94.2V83.8H267.5V94.2H269.5ZM269.5 83.8C269.5 71.9918 270.628 61.9511 272.865 53.6605L270.935 53.1395C268.638 61.6489 267.5 71.8749 267.5 83.8H269.5ZM272.863 53.6707C275.237 45.2297 278.519 38.4273 282.681 33.2247L281.119 31.9753C276.748 37.4394 273.363 44.5036 270.937 53.1293L272.863 53.6707ZM282.679 33.227C286.977 27.8869 292.104 24.0635 298.064 21.7312L297.336 19.8687C291.029 22.3365 285.623 26.3797 281.121 31.973L282.679 33.227ZM298.082 21.7243C304.076 19.2485 310.876 18 318.5 18V16C310.657 16 303.591 17.2848 297.318 19.8757L298.082 21.7243ZM318.5 18C326.124 18 332.924 19.2485 338.918 21.7243L339.682 19.8757C333.409 17.2848 326.343 16 318.5 16V18ZM338.942 21.7338C345.04 24.0691 350.161 27.8276 354.319 33.0247L355.881 31.7753C351.505 26.3057 346.093 22.3309 339.658 19.8661L338.942 21.7338ZM354.329 33.0364C358.615 38.2324 361.894 45.0253 364.134 53.4567L366.066 52.9433C363.773 44.308 360.385 37.2342 355.871 31.7636L354.329 33.0364ZM364.135 53.4605C366.371 61.7503 367.5 71.8573 367.5 83.8H369.5C369.5 71.7427 368.362 61.4497 366.065 52.9395L364.135 53.4605ZM367.5 83.8V94.2H369.5V83.8H367.5ZM367.5 94.2C367.5 106.004 366.306 116.108 363.937 124.529L365.863 125.071C368.294 116.425 369.5 106.129 369.5 94.2H367.5ZM363.935 124.539C361.696 132.837 358.416 139.637 354.121 144.973L355.679 146.227C360.184 140.63 363.571 133.563 365.865 125.061L363.935 124.539ZM354.119 144.975C349.955 150.181 344.891 154.009 338.918 156.476L339.682 158.324C345.976 155.724 351.312 151.686 355.681 146.225L354.119 144.975ZM338.936 156.469C332.937 158.816 326.13 160 318.5 160V162C326.337 162 333.397 160.784 339.664 158.331L338.936 156.469ZM318.5 139.6C322.483 139.6 326.088 138.913 329.299 137.517L328.501 135.683C325.579 136.954 322.251 137.6 318.5 137.6V139.6ZM329.299 137.517C332.579 136.091 335.322 133.608 337.542 130.139L335.858 129.061C333.811 132.258 331.355 134.442 328.501 135.683L329.299 137.517ZM337.542 130.139C339.77 126.659 341.403 121.988 342.483 116.183L340.517 115.817C339.464 121.478 337.897 125.875 335.858 129.061L337.542 130.139ZM342.479 116.205C343.698 110.38 344.3 103.038 344.3 94.2H342.3C342.3 102.962 341.702 110.154 340.521 115.795L342.479 116.205ZM344.3 94.2V83.8H342.3V94.2H344.3ZM344.3 83.8C344.3 75.0939 343.698 67.8196 342.479 61.9951L340.521 62.4049C341.702 68.0471 342.3 75.1727 342.3 83.8H344.3ZM342.479 61.9951C341.265 56.1947 339.564 51.5331 337.342 48.0609L335.658 49.139C337.702 52.3336 339.335 56.7386 340.521 62.4049L342.479 61.9951ZM337.352 48.0759C335.135 44.4734 332.391 41.9142 329.099 40.4829L328.301 42.3171C331.143 43.5525 333.599 45.7932 335.648 49.1241L337.352 48.0759ZM329.099 40.4829C325.892 39.0888 322.355 38.4 318.5 38.4V40.4C322.112 40.4 325.374 41.0445 328.301 42.3171L329.099 40.4829ZM318.5 38.4C314.517 38.4 310.912 39.087 307.701 40.4829L308.499 42.3171C311.421 41.0463 314.749 40.4 318.5 40.4V38.4ZM307.701 40.4829C304.421 41.9091 301.678 44.3917 299.458 47.8609L301.142 48.939C303.189 45.7417 305.646 43.5576 308.499 42.3171L307.701 40.4829ZM299.458 47.8609C297.236 51.3331 295.535 55.9947 294.321 61.7951L296.279 62.2049C297.465 56.5386 299.098 52.1336 301.142 48.939L299.458 47.8609ZM294.317 61.8171C293.235 67.6329 292.7 74.9662 292.7 83.8H294.7C294.7 75.0338 295.232 67.8338 296.283 62.1829L294.317 61.8171ZM292.7 83.8V94.2H294.7V83.8H292.7ZM292.7 94.2C292.7 102.902 293.235 110.168 294.317 115.983L296.283 115.617C295.232 109.965 294.7 102.832 294.7 94.2H292.7ZM294.321 116.005C295.535 121.806 297.234 126.526 299.448 130.124L301.152 129.076C299.099 125.74 297.465 121.261 296.279 115.595L294.321 116.005ZM299.473 130.162C301.817 133.61 304.549 136.084 307.686 137.51L308.514 135.69C305.785 134.449 303.316 132.257 301.127 129.038L299.473 130.162ZM307.701 137.517C310.912 138.913 314.517 139.6 318.5 139.6V137.6C314.749 137.6 311.421 136.954 308.499 135.683L307.701 137.517ZM399.97 148.4L399.269 149.113L399.274 149.118L399.97 148.4ZM386.57 112V111H385.553L385.57 112.017L386.57 112ZM411.77 112L412.77 111.971L412.742 111H411.77V112ZM418.37 132.2L417.652 132.896L418.37 132.2ZM455.17 133L455.841 133.742L455.847 133.736L455.853 133.73L455.17 133ZM455.37 103.2L454.676 103.919L454.682 103.925L454.688 103.931L455.37 103.2ZM419.57 97.6H418.57V98.6H419.57V97.6ZM419.57 76.4V75.4H418.57V76.4H419.57ZM452.77 44.6L452.077 45.3203L452.083 45.3266L452.09 45.3328L452.77 44.6ZM414.77 62V63H415.694L415.767 62.0794L414.77 62ZM389.57 62L388.57 61.9811L388.551 63H389.57V62ZM402.17 29L402.866 29.7188L402.866 29.7186L402.17 29ZM456.97 20L456.648 20.9465L456.657 20.9498L456.667 20.9529L456.97 20ZM471.57 28.2L470.889 28.9319L470.902 28.944L470.915 28.9557L471.57 28.2ZM480.57 40.8L479.644 41.1757L479.647 41.1846L480.57 40.8ZM479.37 74.2L478.49 73.7259V73.7259L479.37 74.2ZM466.37 86.8L465.891 85.9221L464.195 86.8474L465.93 87.6979L466.37 86.8ZM481.57 100.2L482.43 99.6885L481.57 100.2ZM483.37 136.2L484.292 136.588L483.37 136.2ZM473.77 149.4L473.112 148.647L473.106 148.653L473.1 148.658L473.77 149.4ZM458.17 158L457.866 157.047L457.86 157.049L458.17 158ZM436.57 160C421.015 160 409.095 155.851 400.666 147.682L399.274 149.118C408.179 157.749 420.659 162 436.57 162V160ZM400.672 147.687C392.242 139.387 387.834 127.535 387.57 111.983L385.57 112.017C385.84 127.932 390.365 140.346 399.269 149.113L400.672 147.687ZM386.57 113H411.77V111H386.57V113ZM410.771 112.029C411.041 121.347 413.271 128.373 417.652 132.896L419.089 131.504C415.203 127.493 413.033 121.053 412.77 111.971L410.771 112.029ZM417.652 132.896C422.032 137.417 428.397 139.6 436.57 139.6V137.6C428.744 137.6 422.975 135.516 419.089 131.504L417.652 132.896ZM436.57 139.6C444.967 139.6 451.452 137.706 455.841 133.742L454.5 132.258C450.622 135.761 444.707 137.6 436.57 137.6V139.6ZM455.853 133.73C460.221 129.645 462.37 124.163 462.37 117.4H460.37C460.37 123.703 458.387 128.622 454.487 132.27L455.853 133.73ZM462.37 117.4C462.37 111.404 460.266 106.401 456.053 102.469L454.688 103.931C458.475 107.465 460.37 111.929 460.37 117.4H462.37ZM456.065 102.481C451.944 98.5014 445.849 96.6 437.97 96.6V98.6C445.558 98.6 451.064 100.432 454.676 103.919L456.065 102.481ZM437.97 96.6H419.57V98.6H437.97V96.6ZM420.57 97.6V76.4H418.57V97.6H420.57ZM419.57 77.4H437.97V75.4H419.57V77.4ZM437.97 77.4C444.543 77.4 449.814 75.6852 453.65 72.1338L452.291 70.6662C448.926 73.7814 444.197 75.4 437.97 75.4V77.4ZM453.65 72.1338C457.473 68.5935 459.37 63.9848 459.37 58.4H457.37C457.37 63.4818 455.667 67.5398 452.291 70.6662L453.65 72.1338ZM459.37 58.4C459.37 52.4271 457.414 47.5478 453.451 43.8672L452.09 45.3328C455.593 48.5855 457.37 52.9062 457.37 58.4H459.37ZM453.464 43.8797C449.609 40.1677 443.915 38.4 436.57 38.4V40.4C443.625 40.4 448.731 42.099 452.077 45.3203L453.464 43.8797ZM436.57 38.4C429.711 38.4 424.271 40.3436 420.401 44.3557C416.548 48.3493 414.384 54.2564 413.773 61.9206L415.767 62.0794C416.357 54.6769 418.426 49.284 421.84 45.7442C425.237 42.223 430.097 40.4 436.57 40.4V38.4ZM414.77 61H389.57V63H414.77V61ZM390.57 62.0189C390.833 48.0804 394.967 37.3583 402.866 29.7188L401.475 28.2812C393.107 36.375 388.841 47.653 388.57 61.9811L390.57 62.0189ZM402.866 29.7186C410.898 21.945 422.089 18 436.57 18V16C421.719 16 409.975 20.055 401.475 28.2814L402.866 29.7186ZM436.57 18C444.22 18 450.907 18.9894 456.648 20.9465L457.293 19.0535C451.3 17.0105 444.387 16 436.57 16V18ZM456.667 20.9529C462.416 22.7821 467.147 25.448 470.889 28.9319L472.252 27.4681C468.26 23.752 463.258 20.9512 457.274 19.0471L456.667 20.9529ZM470.915 28.9557C474.795 32.3183 477.703 36.3878 479.644 41.1757L481.497 40.4243C479.438 35.3455 476.345 31.015 472.225 27.4443L470.915 28.9557ZM479.647 41.1846C481.59 45.8481 482.57 51.0485 482.57 56.8H484.57C484.57 50.8182 483.55 45.3519 481.493 40.4154L479.647 41.1846ZM482.57 56.8C482.57 63.0487 481.205 68.6836 478.49 73.7259L480.251 74.6741C483.136 69.3164 484.57 63.3513 484.57 56.8H482.57ZM478.49 73.7259C475.793 78.7335 471.611 82.8023 465.891 85.9221L466.849 87.6779C472.863 84.3976 477.347 80.0665 480.251 74.6741L478.49 73.7259ZM465.93 87.6979C472.585 90.96 477.492 95.3039 480.711 100.711L482.43 99.6885C478.982 93.8961 473.756 89.3067 466.81 85.9021L465.93 87.6979ZM480.711 100.711C483.945 106.144 485.57 112.298 485.57 119.2H487.57C487.57 111.969 485.863 105.456 482.43 99.6885L480.711 100.711ZM485.57 119.2C485.57 125.352 484.524 130.884 482.449 135.812L484.292 136.588C486.484 131.383 487.57 125.581 487.57 119.2H485.57ZM482.449 135.812C480.376 140.734 477.268 145.011 473.112 148.647L474.429 150.153C478.806 146.323 482.098 141.799 484.292 136.588L482.449 135.812ZM473.1 148.658C469.09 152.28 464.022 155.083 457.866 157.047L458.474 158.953C464.852 156.917 470.184 153.987 474.441 150.142L473.1 148.658ZM457.86 157.049C451.851 159.009 444.76 160 436.57 160V162C444.914 162 452.223 160.991 458.48 158.951L457.86 157.049Z" fill="url(#paint0_linear_4027_8613)" fill-opacity="0.9"/>
<defs>
<linearGradient id="paint0_linear_4027_8613" x1="495.5" y1="5.1747e-05" x2="236.404" y2="336.223" gradientUnits="userSpaceOnUse">
<stop stop-color="#272F5A"/>
<stop offset="1" stop-color="#189EE9" stop-opacity="0.73"/>
</linearGradient>
</defs>
</svg>
