<svg width="32" height="44" viewBox="0 0 32 44" fill="none" xmlns="http://www.w3.org/2000/svg">
<path d="M32 16.5C32 25.6127 16 44 16 44C16 44 0 25.6127 0 16.5C0 7.3873 7.16344 0 16 0C24.8366 0 32 7.3873 32 16.5Z" fill="#F1F1F1"/>
<path d="M31.5 16.5C31.5 18.6568 30.5452 21.4275 29.0526 24.418C27.5678 27.393 25.5828 30.5235 23.5899 33.3813C21.5982 36.2372 19.6056 38.811 18.1103 40.6714C17.3629 41.6013 16.7402 42.3523 16.3047 42.8704C16.1897 43.0073 16.0877 43.1279 16 43.2313C15.9123 43.1279 15.8103 43.0073 15.6953 42.8704C15.2598 42.3523 14.6372 41.6013 13.8897 40.6714C12.3944 38.811 10.4018 36.2372 8.41012 33.3813C6.41725 30.5235 4.43224 27.393 2.94737 24.418C1.45477 21.4275 0.5 18.6568 0.5 16.5C0.5 7.64883 7.45398 0.5 16 0.5C24.546 0.5 31.5 7.64883 31.5 16.5Z" stroke="#28305C" stroke-opacity="0.7"/>
<circle cx="16" cy="13.5" r="3.5" fill="#E2B104"/>
<circle cx="12" cy="21" r="3.5" fill="#79AFFF"/>
<circle cx="20" cy="21" r="3.5" fill="#FF8C68"/>
</svg>

<svg width="38" height="44" viewBox="0 0 38 44" fill="none" xmlns="http://www.w3.org/2000/svg">
<path d="M31.8147 16.5C31.8147 18.6568 30.86 21.4275 29.3674 24.418C27.8825 27.393 25.8975 30.5235 23.9046 33.3813C21.913 36.2372 19.9203 38.811 18.425 40.6714C17.6776 41.6013 17.0549 42.3523 16.6195 42.8704C16.5044 43.0073 16.4025 43.1279 16.3147 43.2313C16.227 43.1279 16.125 43.0073 16.01 42.8704C15.5745 42.3523 14.9519 41.6013 14.2044 40.6714C12.7092 38.811 10.7165 36.2372 8.72485 33.3813C6.73198 30.5235 4.74697 27.393 3.2621 24.418C1.7695 21.4275 0.814728 18.6568 0.814728 16.5C0.814728 7.64883 7.76871 0.5 16.3147 0.5C24.8608 0.5 31.8147 7.64883 31.8147 16.5Z" fill="#FF8C68" stroke="white"/>
<path d="M22.3147 8.5C22.3147 4.35786 25.6726 1 29.8147 1V1C33.9569 1 37.3147 4.35786 37.3147 8.5V8.5C37.3147 12.6421 33.9569 16 29.8147 16V16C25.6726 16 22.3147 12.6421 22.3147 8.5V8.5Z" fill="#272F5A" stroke="white"/>
</svg>
