<svg width="41" height="55" viewBox="0 0 41 55" fill="none" xmlns="http://www.w3.org/2000/svg">
<path d="M39.8885 20.625C39.8885 23.3513 38.6838 26.8365 36.8162 30.5783C34.9563 34.3046 32.4713 38.2233 29.9784 41.7981C27.4868 45.371 24.9941 48.5906 23.1238 50.9175C22.1889 52.0807 21.41 53.0202 20.8651 53.6685C20.6774 53.8919 20.5175 54.0806 20.3885 54.2321C20.2596 54.0806 20.0997 53.8919 19.9119 53.6685C19.3671 53.0202 18.5882 52.0807 17.6533 50.9175C15.783 48.5906 13.2903 45.371 10.7987 41.7981C8.3058 38.2233 5.82079 34.3046 3.96092 30.5783C2.09332 26.8365 0.88855 23.3513 0.88855 20.625C0.88855 9.49565 9.63339 0.5 20.3885 0.5C31.1437 0.5 39.8885 9.49565 39.8885 20.625Z" fill="#28305C" stroke="white"/>
<circle cx="20.3886" cy="14.4655" r="4.46552" fill="#E2B104"/>
<circle cx="15.2851" cy="24.0345" r="4.46552" fill="#79AFFF"/>
<circle cx="25.492" cy="24.0345" r="4.46552" fill="#FF8C68"/>
</svg>
