<svg width="32" height="44" viewBox="0 0 41 55" fill="none" xmlns="http://www.w3.org/2000/svg">
<path d="M39.8886 20.625C39.8886 23.3513 38.6838 26.8365 36.8162 30.5783C34.9564 34.3046 32.4714 38.2233 29.9785 41.7981C27.4868 45.371 24.9942 48.5906 23.1239 50.9175C22.189 52.0807 21.41 53.0202 20.8652 53.6685C20.6775 53.8919 20.5175 54.0806 20.3886 54.2321C20.2597 54.0806 20.0997 53.8919 19.912 53.6685C19.3672 53.0202 18.5883 52.0807 17.6533 50.9175C15.783 48.5906 13.2904 45.371 10.7987 41.7981C8.30586 38.2233 5.82085 34.3046 3.96098 30.5783C2.09338 26.8365 0.888611 23.3513 0.888611 20.625C0.888611 9.49565 9.63345 0.5 20.3886 0.5C31.1438 0.5 39.8886 9.49565 39.8886 20.625Z" fill="#28305C" stroke="white"/>
<path fill-rule="evenodd" clip-rule="evenodd" d="M28.1886 15.3345H12.5886V25.7345H28.1886V15.3345ZM12.5886 14.0345C11.8707 14.0345 11.2886 14.6165 11.2886 15.3345V25.7345C11.2886 26.4525 11.8707 27.0345 12.5886 27.0345H28.1886C28.9066 27.0345 29.4886 26.4525 29.4886 25.7345V15.3345C29.4886 14.6165 28.9066 14.0345 28.1886 14.0345H12.5886ZM25.5886 16.6345H15.1886V20.5345H25.5886V16.6345ZM24.2886 17.9345H16.4886V19.2345H24.2886V17.9345ZM16.4886 21.8345H17.7886V23.1345H16.4886V21.8345ZM19.0886 21.8345H20.3886H21.6886V23.1345H20.3886H19.0886V21.8345ZM22.9886 21.8345H24.2886V23.1345H22.9886V21.8345Z" fill="white"/>
</svg>
