<svg width="12" height="12" viewBox="0 0 12 12" fill="none" xmlns="http://www.w3.org/2000/svg">
    <path fill-rule="evenodd" clip-rule="evenodd" d="M1 1.5C1 1.22386 1.22386 1 1.5 1H10.5C10.7761 1 11 1.22386 11 1.5C11 1.77614 10.7761 2 10.5 2H1.5C1.22386 2 1 1.77614 1 1.5ZM0 1C0 0.447715 0.447715 0 1 0H11C11.5523 0 12 0.447715 12 1V2C12 2.37855 11.7897 2.70797 11.4795 2.87776C11.2034 3.0289 10.8889 3.14819 10.7 3.4L8 7L7.99998 10.8604L4 12L3.99998 7L1.3 3.4C1.11115 3.1482 0.796609 3.0289 0.520512 2.87776C0.210336 2.70797 0 2.37855 0 2V1ZM2.375 3L4.99998 6.5V10.5L6.99998 10V6.5L9.625 3H2.375Z" fill="#272F5A" />
</svg>
    