<svg width="13" height="13" viewBox="0 0 13 13" fill="none" xmlns="http://www.w3.org/2000/svg">
<path fill-rule="evenodd" clip-rule="evenodd" d="M4 1.5C4 1.22386 4.22386 1 4.5 1H8.5C8.77614 1 9 1.22386 9 1.5V2H4V1.5ZM3 2V1.5C3 0.671573 3.67157 0 4.5 0H8.5C9.32843 0 10 0.671573 10 1.5V2H13V3H0V2H3ZM2 11.5V4H3V11.5C3 11.7761 3.22386 12 3.5 12H9.5C9.77614 12 10 11.7761 10 11.5V4H11V11.5C11 12.3284 10.3284 13 9.5 13H3.5C2.67157 13 2 12.3284 2 11.5ZM5 10V5.5H6V10H5ZM7 5.5V10H8V5.5H7Z" fill="#FC525B"/>
</svg>
