<svg width="17" height="17" viewBox="0 0 17 17" fill="none" xmlns="http://www.w3.org/2000/svg">
<rect x="0.745972" y="1.10327" width="15.5116" height="15.5" rx="7.75" fill="#189EE9" stroke="white" stroke-width="0.5"/>
<path fill-rule="evenodd" clip-rule="evenodd" d="M7.34642 5.35327C6.79413 5.35327 6.34642 5.80099 6.34642 6.35327V8.58404H5.72986C5.17757 8.58404 4.72986 9.03176 4.72986 9.58404V12.3533H12.2738V8.23789C12.2738 7.6856 11.8261 7.23789 11.2738 7.23789H10.6572V6.35327C10.6572 5.80099 10.2095 5.35327 9.65724 5.35327H7.34642ZM10.6572 7.77635V11.8148H11.7349V7.77635H10.6572ZM5.26871 9.1225H6.34642V11.8148H5.26871V9.1225ZM10.1184 5.89173H6.88527V11.8148H7.96297V10.7379H9.04068V11.8148H10.1184V5.89173ZM9.04068 8.04558H7.96297V8.58404H9.04068V8.04558ZM7.96297 6.96866H9.04068V7.50712H7.96297V6.96866ZM9.04068 9.1225H7.96297V9.66096H9.04068V9.1225Z" fill="white"/>
</svg>
