<svg width="17" height="17" viewBox="0 0 17 17" fill="none" xmlns="http://www.w3.org/2000/svg">
<rect x="0.911499" y="1.10333" width="15.5" height="15.5" rx="7.75" fill="#252A48" stroke="white" stroke-width="0.5"/>
<path fill-rule="evenodd" clip-rule="evenodd" d="M7.5076 5.35333C6.95531 5.35333 6.5076 5.80105 6.5076 6.35333V8.5841H5.89221C5.33993 8.5841 4.89221 9.03182 4.89221 9.5841V12.3533H12.4307V8.23795C12.4307 7.68566 11.983 7.23795 11.4307 7.23795H10.8153V6.35333C10.8153 5.80105 10.3676 5.35333 9.81529 5.35333H7.5076ZM10.8153 7.77641V11.8149H11.8922V7.77641H10.8153ZM5.43067 9.12256H6.5076V11.8149H5.43067V9.12256ZM10.2768 5.89179H7.04606V11.8149H8.12298V10.7379H9.1999V11.8149H10.2768V5.89179ZM9.1999 8.04564H8.12298V8.5841H9.1999V8.04564ZM8.12298 6.96872H9.1999V7.50718H8.12298V6.96872ZM9.1999 9.12256H8.12298V9.66103H9.1999V9.12256Z" fill="white"/>
</svg>
