<svg width="32" height="44" viewBox="0 0 32 44" fill="none" xmlns="http://www.w3.org/2000/svg">
    <path d="M31.5 16.5C31.5 18.6568 30.5452 21.4275 29.0526 24.418C27.5678 27.393 25.5828 30.5235 23.5899 33.3813C21.5982 36.2372 19.6056 38.811 18.1103 40.6714C17.3628 41.6013 16.7402 42.3523 16.3047 42.8704C16.1897 43.0073 16.0877 43.1279 16 43.2313C15.9123 43.1279 15.8103 43.0073 15.6953 42.8704C15.2598 42.3523 14.6372 41.6013 13.8897 40.6714C12.3944 38.811 10.4018 36.2372 8.41012 33.3813C6.41725 30.5235 4.43224 27.393 2.94737 24.418C1.45477 21.4275 0.5 18.6568 0.5 16.5C0.5 7.64883 7.45398 0.5 16 0.5C24.546 0.5 31.5 7.64883 31.5 16.5Z" fill="#9097B6" stroke="white"/>
    <path fill-rule="evenodd" clip-rule="evenodd" d="M13 11C12.4477 11 12 11.4477 12 12V17H10C9.44772 17 9 17.4477 9 18V24H23V15.5C23 14.9477 22.5523 14.5 22 14.5H20V12C20 11.4477 19.5523 11 19 11H13ZM20 15.5V23H22V15.5H20ZM10 18H12V23H10V18ZM19 12H13V23H15V21H17V23H19V12ZM17 16H15V17H17V16ZM15 14H17V15H15V14ZM17 18H15V19H17V18Z" fill="white"/>
</svg>