<svg width="32" height="44" viewBox="0 0 32 44" fill="none" xmlns="http://www.w3.org/2000/svg">
<path d="M31.5 16.5C31.5 18.6568 30.5452 21.4275 29.0526 24.418C27.5678 27.393 25.5828 30.5235 23.5899 33.3813C21.5982 36.2372 19.6056 38.811 18.1103 40.6714C17.3628 41.6013 16.7402 42.3523 16.3047 42.8704C16.1897 43.0073 16.0877 43.1279 16 43.2313C15.9123 43.1279 15.8103 43.0073 15.6953 42.8704C15.2598 42.3523 14.6372 41.6013 13.8897 40.6714C12.3944 38.811 10.4018 36.2372 8.41012 33.3813C6.41725 30.5235 4.43224 27.393 2.94737 24.418C1.45477 21.4275 0.5 18.6568 0.5 16.5C0.5 7.64883 7.45398 0.5 16 0.5C24.546 0.5 31.5 7.64883 31.5 16.5Z" fill="#272F5A" stroke="white"/>
<path fill-rule="evenodd" clip-rule="evenodd" d="M22.0075 23.04L16 12.96L9.99246 23.04L22.0075 23.04ZM16.8582 12.48C16.4768 11.84 15.5232 11.84 15.1418 12.48L9.13425 22.56C8.75281 23.2 9.2296 24 9.99246 24H22.0075C22.7704 24 23.2472 23.2 22.8658 22.56L16.8582 12.48ZM16 15.5C16.2761 15.5 16.5 15.7239 16.5 16V19.5C16.5 19.7761 16.2761 20 16 20C15.7239 20 15.5 19.7761 15.5 19.5V16C15.5 15.7239 15.7239 15.5 16 15.5ZM16 22C16.2761 22 16.5 21.7761 16.5 21.5C16.5 21.2239 16.2761 21 16 21C15.7239 21 15.5 21.2239 15.5 21.5C15.5 21.7761 15.7239 22 16 22Z" fill="white"/>
</svg>
