<svg width="600" height="361" viewBox="0 0 600 361" fill="none" xmlns="http://www.w3.org/2000/svg">
<path d="M300 14.3795L600 187.379L300 360.379L-1.47622e-06 187.379L300 14.3795Z" fill="#189EE9" fill-opacity="0.05"/>
<path d="M300 0.190012L600 173.19L300 346.19L-1.47622e-06 173.19L300 0.190012Z" fill="url(#paint0_linear)"/>
<mask id="mask0" mask-type="alpha" maskUnits="userSpaceOnUse" x="0" y="0" width="600" height="347">
<path d="M300 0.379466L600 173.379L300 346.379L-1.47622e-06 173.379L300 0.379466Z" fill="#192250"/>
</mask>
<g mask="url(#mask0)">
<path opacity="0.3" fill-rule="evenodd" clip-rule="evenodd" d="M299.5 -117.811L-164.59 150.961L-165 151.198L-164.589 151.435L299.5 419.189L763.589 151.435L764 151.198L763.59 150.961L299.5 -117.811ZM-133.381 168.806L-163.905 151.197L-132.881 133.246L-102.309 150.885L-133.23 168.73L-133.381 168.806ZM-132.823 169.128L-102.604 186.56L-102.008 186.262L-71.5041 168.658L-101.761 151.201L-132.823 169.128ZM-102.003 186.907L-71.5718 204.461L-71.3333 204.342L-40.4984 186.547L-70.956 168.974L-101.734 186.737L-102.003 186.907ZM-71.0078 204.787L-40.7943 222.216L-40.111 221.874L-9.69363 204.32L-39.9504 186.863L-71.0078 204.787ZM-40.1834 222.568L-9.76234 240.117L-9.43646 239.954L21.312 222.209L-9.14554 204.636L-39.8373 222.349L-40.1834 222.568ZM-9.20337 240.44L21.0152 257.872L21.7858 257.486L52.1168 239.982L21.8601 222.525L-9.16272 240.429L-9.20337 240.44ZM21.6357 258.23L52.0471 275.773L52.4604 275.566L83.1224 257.871L52.6649 240.298L22.0596 257.961L21.6357 258.23ZM52.6281 276.108L82.5739 293.383L83.1349 293.098L113.653 275.486L83.6705 258.187L52.7341 276.041L52.6281 276.108ZM83.168 293.726L113.89 311.448L114.357 311.178L144.933 293.533L114.201 275.802L83.4087 293.573L83.168 293.726ZM114.447 311.77L144.888 329.33L145.032 329.258L175.938 311.422L145.481 293.849L114.631 311.653L114.447 311.77ZM145.446 329.652L175.395 346.928L206.469 329.037L176.487 311.738L145.446 329.652ZM175.978 347.265L206.166 364.679L237.238 346.789L207.017 329.353L175.98 347.265L175.978 347.265ZM206.75 365.016L237.209 382.587L268.04 364.56L237.786 347.105L206.75 365.016ZM237.755 382.902L267.807 400.238L298.952 382.395L268.588 364.877L237.755 382.902ZM268.356 400.555L299.5 418.642L330.472 400.654L299.5 382.711L268.356 400.555ZM331.02 400.338L361.428 382.796L361.123 382.603L330.412 364.877L300.048 382.395L331.02 400.338ZM362.029 382.449L392.25 365.016L361.214 347.105L330.96 364.56L361.397 382.129L362.029 382.449ZM392.811 364.692L423.02 347.265L391.982 329.353L361.762 346.789L392.619 364.597L392.811 364.692ZM423.588 346.938L453.554 329.652L422.513 311.738L392.531 329.037L423.294 346.791L423.588 346.938ZM454.112 329.33L484.553 311.77L484.369 311.653L453.519 293.849L423.061 311.422L453.968 329.258L454.112 329.33ZM485.143 311.429L515.832 293.726L515.591 293.573L484.798 275.802L454.067 293.533L484.643 311.178L485.143 311.429ZM516.409 293.393L546.372 276.108L546.266 276.041L515.329 258.187L485.347 275.486L515.865 293.098L516.409 293.393ZM546.953 275.773L577.364 258.23L576.94 257.961L546.335 240.298L515.877 257.871L546.539 275.566L546.953 275.773ZM577.985 257.872L608.203 240.44L608.163 240.429L577.14 222.525L546.883 239.982L577.214 257.486L577.985 257.872ZM608.762 240.117L639.183 222.568L638.837 222.349L608.145 204.636L577.688 222.209L608.436 239.954L608.762 240.117ZM639.794 222.216L670.008 204.787L638.95 186.863L608.693 204.32L639.111 221.874L639.794 222.216ZM670.572 204.461L701.003 186.907L700.734 186.737L669.956 168.974L639.498 186.547L670.333 204.342L670.572 204.461ZM701.604 186.56L731.823 169.128L700.761 151.201L670.504 168.658L701.008 186.262L701.604 186.56ZM732.381 168.806L762.905 151.198L731.881 133.246L701.309 150.885L732.23 168.73L732.381 168.806ZM731.334 132.929L700.921 115.331L670.314 132.997L700.761 150.569L731.334 132.929ZM700.373 115.014L670.197 97.5532L639.548 115.241L669.766 132.681L700.373 115.014ZM669.65 97.2365L639.473 79.7754L608.784 97.487L639 114.925L669.65 97.2365ZM638.926 79.4587L608.987 62.1348L578.257 79.8696L608.236 97.1708L638.926 79.4587ZM608.44 61.8181L578.026 44.2198L547.256 61.9782L577.709 79.5533L608.44 61.8181ZM577.479 43.9031L546.792 26.1466L515.98 43.9287L546.708 61.6619L577.479 43.9031ZM546.245 25.8299L516.306 8.50596L485.454 26.3113L515.432 43.6125L546.245 25.8299ZM515.759 8.18926L485.345 -9.40898L454.452 8.4199L484.906 25.995L515.759 8.18926ZM484.798 -9.72567L454.585 -27.2079L423.652 -9.35561L453.904 8.10363L484.798 -9.72567ZM454.038 -27.5246L423.625 -45.1228L392.65 -27.247L423.104 -9.67188L454.038 -27.5246ZM423.078 -45.4395L392.865 -62.9217L361.85 -45.0225L392.102 -27.5633L423.078 -45.4395ZM392.318 -63.2384L361.904 -80.8367L330.848 -62.9139L361.302 -45.3388L392.318 -63.2384ZM361.357 -81.1534L331.144 -98.6356L300.048 -80.6894L330.301 -63.2301L361.357 -81.1534ZM330.597 -98.9523L299.5 -117.263L268.403 -98.9522L299.5 -81.0057L330.597 -98.9523ZM267.856 -98.6356L237.643 -81.1533L268.699 -63.2301L298.952 -80.6894L267.856 -98.6356ZM237.096 -80.8367L206.682 -63.2384L237.698 -45.3388L268.151 -62.9139L237.096 -80.8367ZM206.135 -62.9217L175.922 -45.4395L206.897 -27.5633L237.15 -45.0225L206.135 -62.9217ZM175.375 -45.1228L144.962 -27.5245L175.896 -9.67187L206.349 -27.247L175.375 -45.1228ZM144.415 -27.2079L114.202 -9.72563L145.096 8.10364L175.348 -9.3556L144.415 -27.2079ZM113.655 -9.40895L83.2413 8.18932L114.094 25.995L144.548 8.41991L113.655 -9.40895ZM82.694 8.50599L52.7548 25.83L83.5675 43.6125L113.546 26.3113L82.694 8.50599ZM52.2075 26.1466L21.5208 43.9032L52.2923 61.6619L83.0195 43.9287L52.2075 26.1466ZM20.9735 44.2198L-9.43977 61.8181L21.291 79.5533L51.7443 61.9782L20.9735 44.2198ZM-9.98706 62.1348L-39.9263 79.4587L-9.23573 97.1708L20.743 79.8696L-9.98706 62.1348ZM-40.4735 79.7754L-70.6498 97.2365L-39.9997 114.925L-9.78374 97.487L-40.4735 79.7754ZM-71.1971 97.5532L-101.373 115.014L-70.7662 132.681L-40.5477 115.241L-71.1971 97.5532ZM-101.921 115.331L-132.334 132.929L-101.761 150.569L-71.3142 132.997L-101.921 115.331ZM269.247 -62.9139L299.5 -80.3731L329.752 -62.9139L299.5 -45.4546L269.247 -62.9139ZM300.048 -45.1384L330.301 -62.5976L360.754 -45.0225L330.501 -27.5633L300.048 -45.1384ZM331.049 -27.247L361.302 -44.7062L391.554 -27.247L361.302 -9.78774L331.049 -27.247ZM361.85 -9.47148L392.102 -26.9307L422.556 -9.35561L392.303 8.10363L361.85 -9.47148ZM392.851 8.4199L423.104 -9.03934L453.356 8.4199L423.104 25.8792L392.851 8.4199ZM423.652 26.1954L453.904 8.73617L484.358 26.3113L454.105 43.7705L423.652 26.1954ZM454.653 44.0868L484.906 26.6275L514.884 43.9287L484.632 61.388L454.653 44.0868ZM485.18 61.7043L515.432 44.245L546.16 61.9782L515.907 79.4374L485.18 61.7043ZM516.455 79.7537L546.708 62.2944L577.161 79.8696L546.908 97.3288L516.455 79.7537ZM547.456 97.6451L577.709 80.1859L607.688 97.487L577.435 114.946L547.456 97.6451ZM577.983 115.263L608.236 97.8033L638.452 115.241L608.199 132.701L577.983 115.263ZM608.747 133.017L639 115.558L669.218 132.997L638.968 150.458L608.747 133.017ZM639.516 150.774L669.766 133.314L700.213 150.885L669.956 168.342L639.516 150.774ZM638.968 151.09L669.408 168.658L638.95 186.23L608.517 168.667L638.968 151.09ZM607.969 168.983L638.402 186.547L608.145 204.004L577.719 186.444L607.969 168.983ZM577.171 186.76L607.597 204.32L577.14 221.892L546.72 204.337L577.171 186.76ZM546.172 204.653L576.592 222.209L546.335 239.666L515.922 222.114L546.172 204.653ZM515.374 222.43L545.787 239.982L515.329 257.554L484.923 240.006L515.374 222.43ZM484.375 240.323L514.781 257.871L484.799 275.169L454.399 257.625L484.375 240.323ZM453.851 257.942L484.25 275.486L453.519 293.216L423.126 275.676L453.851 257.942ZM422.578 275.992L452.971 293.533L422.513 311.105L392.127 293.569L422.578 275.992ZM391.579 293.885L421.965 311.422L391.982 328.72L361.603 311.188L391.579 293.885ZM361.055 311.504L391.434 329.037L361.214 346.472L330.841 328.944L361.055 311.504ZM330.293 329.26L360.666 346.789L330.412 364.244L300.048 346.718L330.293 329.26ZM299.5 347.034L329.864 364.56L299.5 382.079L269.136 364.56L299.5 347.034ZM298.952 346.718L268.588 364.244L238.334 346.789L268.707 329.26L298.952 346.718ZM268.159 328.944L237.786 346.472L207.565 329.037L237.945 311.504L268.159 328.944ZM237.397 311.188L207.017 328.72L177.035 311.422L207.421 293.885L237.397 311.188ZM206.873 293.569L176.486 311.105L146.029 293.533L176.422 275.992L206.873 293.569ZM175.874 275.676L145.481 293.216L114.749 275.486L145.149 257.942L175.874 275.676ZM144.601 257.625L114.201 275.169L84.2185 257.871L114.625 240.323L144.601 257.625ZM114.077 240.006L83.6704 257.554L53.2129 239.982L83.6259 222.43L114.077 240.006ZM83.078 222.114L52.6648 239.666L22.4081 222.209L52.8278 204.653L83.078 222.114ZM52.2798 204.337L21.86 221.892L-8.5975 204.32L21.8289 186.76L52.2798 204.337ZM21.2809 186.444L-9.14558 204.004L-39.4023 186.547L-8.96924 168.983L21.2809 186.444ZM-9.5172 168.667L-39.9504 186.23L-70.4079 168.658L-39.9681 151.09L-9.5172 168.667ZM-40.5161 150.774L-70.956 168.342L-101.213 150.885L-70.7663 133.314L-40.5161 150.774ZM-39.9681 150.458L-70.2183 132.997L-39.9997 115.558L-9.74719 133.017L-39.9681 150.458ZM-9.19919 132.701L-39.4517 115.241L-9.23573 97.8033L21.0168 115.263L-9.19919 132.701ZM21.5648 114.946L-8.68771 97.487L21.291 80.1859L51.5435 97.6451L21.5648 114.946ZM52.0915 97.3288L21.8389 79.8696L52.2923 62.2944L82.5449 79.7537L52.0915 97.3288ZM83.0929 79.4374L52.8403 61.9782L83.5675 44.245L113.82 61.7043L83.0929 79.4374ZM114.368 61.388L84.1155 43.9287L114.094 26.6276L144.347 44.0868L114.368 61.388ZM144.895 43.7705L114.642 26.3113L145.096 8.73618L175.348 26.1954L144.895 43.7705ZM175.896 25.8792L145.644 8.41991L175.896 -9.03934L206.149 8.41991L175.896 25.8792ZM206.697 8.10364L176.444 -9.3556L206.897 -26.9307L237.15 -9.47148L206.697 8.10364ZM237.698 -9.78774L207.445 -27.247L237.698 -44.7062L267.951 -27.247L237.698 -9.78774ZM268.499 -27.5633L238.246 -45.0225L268.699 -62.5976L298.952 -45.1384L268.499 -27.5633ZM269.047 -27.247L299.5 -44.8221L329.953 -27.247L299.5 -9.67187L269.047 -27.247ZM300.048 -9.3556L330.501 -26.9307L360.754 -9.47148L330.301 8.10364L300.048 -9.3556ZM330.848 8.41991L361.302 -9.15521L391.755 8.4199L361.302 25.995L330.848 8.41991ZM361.85 26.3113L392.303 8.73617L422.556 26.1954L392.102 43.7705L361.85 26.3113ZM392.65 44.0868L423.104 26.5117L453.557 44.0868L423.104 61.6619L392.65 44.0868ZM423.652 61.9782L454.105 44.4031L484.084 61.7043L453.63 79.2794L423.652 61.9782ZM454.178 79.5956L484.632 62.0205L515.359 79.7537L484.906 97.3288L454.178 79.5956ZM485.454 97.6451L515.907 80.07L546.36 97.6451L515.907 115.22L485.454 97.6451ZM516.455 115.536L546.908 97.9613L576.887 115.263L546.434 132.838L516.455 115.536ZM546.982 133.154L577.435 115.579L607.651 133.017L577.198 150.592L546.982 133.154ZM577.746 150.908L608.199 133.333L638.42 150.774L607.969 168.351L577.746 150.908ZM577.198 151.225L607.421 168.667L577.171 186.128L546.945 168.684L577.198 151.225ZM546.397 169L576.623 186.444L546.172 204.02L515.944 186.575L546.397 169ZM515.396 186.891L545.624 204.337L515.374 221.797L485.143 204.351L515.396 186.891ZM484.595 204.667L514.826 222.114L484.375 239.69L454.142 222.242L484.595 204.667ZM453.594 222.558L483.827 240.006L453.851 257.309L423.615 239.86L453.594 222.558ZM423.067 240.176L453.303 257.625L422.578 275.36L392.34 257.909L423.067 240.176ZM391.792 258.225L422.03 275.676L391.579 293.253L361.339 275.8L391.792 258.225ZM360.791 276.117L391.031 293.569L361.055 310.871L330.812 293.418L360.791 276.117ZM330.264 293.734L360.507 311.188L330.293 328.627L300.048 311.172L330.264 293.734ZM299.5 311.489L329.745 328.944L299.5 346.401L269.255 328.944L299.5 311.489ZM298.952 311.172L268.707 328.627L238.493 311.188L268.736 293.734L298.952 311.172ZM268.188 293.418L237.945 310.871L207.969 293.569L238.209 276.117L268.188 293.418ZM237.661 275.8L207.421 293.253L176.97 275.676L207.208 258.225L237.661 275.8ZM206.66 257.909L176.422 275.36L145.697 257.625L175.933 240.176L206.66 257.909ZM175.385 239.86L145.149 257.309L115.173 240.006L145.406 222.558L175.385 239.86ZM144.858 222.242L114.625 239.69L84.1739 222.114L114.405 204.667L144.858 222.242ZM113.857 204.351L83.626 221.797L53.3758 204.337L83.6041 186.891L113.857 204.351ZM83.0561 186.575L52.8278 204.02L22.3769 186.444L52.6027 169L83.0561 186.575ZM52.0547 168.684L21.8289 186.128L-8.42123 168.667L21.8022 151.225L52.0547 168.684ZM21.2542 150.908L-8.96919 168.351L-39.4201 150.774L-9.19919 133.333L21.2542 150.908ZM21.8022 150.592L-8.65118 133.017L21.5648 115.579L52.0182 133.154L21.8022 150.592ZM52.5662 132.838L22.1128 115.263L52.0915 97.9613L82.5449 115.536L52.5662 132.838ZM83.0928 115.22L52.6395 97.6451L83.0929 80.07L113.546 97.6451L83.0928 115.22ZM114.094 97.3288L83.6409 79.7537L114.368 62.0205L144.821 79.5956L114.094 97.3288ZM145.369 79.2794L114.916 61.7043L144.895 44.4031L175.348 61.9782L145.369 79.2794ZM175.896 61.6619L145.443 44.0868L175.896 26.5117L206.349 44.0868L175.896 61.6619ZM206.897 43.7705L176.444 26.1954L206.697 8.73618L237.15 26.3113L206.897 43.7705ZM237.698 25.995L207.245 8.41991L237.698 -9.15521L268.151 8.41991L237.698 25.995ZM268.699 8.10364L238.246 -9.47148L268.499 -26.9307L298.952 -9.3556L268.699 8.10364ZM269.247 8.41991L299.5 -9.03934L329.752 8.41991L299.5 25.8792L269.247 8.41991ZM300.048 26.1954L330.301 8.73618L360.754 26.3113L330.501 43.7705L300.048 26.1954ZM331.049 44.0868L361.302 26.6276L391.554 44.0868L361.302 61.5461L331.049 44.0868ZM361.85 61.8623L392.102 44.4031L422.556 61.9782L392.303 79.4374L361.85 61.8623ZM392.851 79.7537L423.104 62.2944L453.082 79.5956L422.83 97.0549L392.851 79.7537ZM423.378 97.3711L453.63 79.9119L484.358 97.6451L454.105 115.104L423.378 97.3711ZM454.653 115.421L484.906 97.9613L515.359 115.536L485.106 132.996L454.653 115.421ZM485.654 133.312L515.907 115.853L545.886 133.154L515.633 150.613L485.654 133.312ZM516.181 150.929L546.434 133.47L576.65 150.908L546.397 168.368L516.181 150.929ZM515.633 151.246L545.849 168.684L515.396 186.259L485.18 168.821L515.633 151.246ZM484.632 169.137L514.848 186.575L484.595 204.035L454.379 186.596L484.632 169.137ZM453.831 186.913L484.047 204.351L453.594 221.926L423.378 204.488L453.831 186.913ZM422.83 204.804L453.046 222.242L423.067 239.543L392.851 222.105L422.83 204.804ZM392.303 222.421L422.519 239.86L391.792 257.593L361.576 240.155L392.303 222.421ZM361.028 240.471L391.244 257.909L360.791 275.484L330.575 258.046L361.028 240.471ZM330.027 258.362L360.243 275.8L330.264 293.102L300.048 275.663L330.027 258.362ZM299.5 275.98L329.716 293.418L299.5 310.856L269.284 293.418L299.5 275.98ZM298.952 275.663L268.736 293.102L238.757 275.8L268.973 258.362L298.952 275.663ZM268.425 258.046L238.209 275.484L207.756 257.909L237.972 240.471L268.425 258.046ZM237.424 240.155L207.208 257.593L176.481 239.86L206.697 222.421L237.424 240.155ZM206.149 222.105L175.933 239.543L145.954 222.242L176.17 204.804L206.149 222.105ZM175.622 204.488L145.406 221.926L114.953 204.351L145.169 186.913L175.622 204.488ZM144.621 186.596L114.405 204.034L84.1521 186.575L114.368 169.137L144.621 186.596ZM113.82 168.821L83.6041 186.259L53.1507 168.684L83.3667 151.246L113.82 168.821ZM82.8187 150.929L52.6027 168.368L22.3502 150.908L52.5662 133.47L82.8187 150.929ZM83.3667 150.613L53.1142 133.154L83.0929 115.853L113.345 133.312L83.3667 150.613ZM113.893 132.996L83.6409 115.536L114.094 97.9613L144.347 115.421L113.893 132.996ZM144.895 115.104L114.642 97.6451L145.369 79.9119L175.622 97.3712L144.895 115.104ZM176.17 97.0549L145.917 79.5956L175.896 62.2944L206.149 79.7537L176.17 97.0549ZM206.697 79.4374L176.444 61.9782L206.897 44.4031L237.15 61.8623L206.697 79.4374ZM237.698 61.5461L207.445 44.0868L237.698 26.6276L267.951 44.0868L237.698 61.5461ZM268.499 43.7705L238.246 26.3113L268.699 8.73618L298.952 26.1954L268.499 43.7705ZM269.047 44.0868L299.5 26.5117L329.953 44.0868L299.5 61.6619L269.047 44.0868ZM300.048 61.9782L330.501 44.4031L360.754 61.8623L330.3 79.4374L300.048 61.9782ZM330.848 79.7537L361.302 62.1786L391.755 79.7537L361.302 97.3288L330.848 79.7537ZM361.85 97.6451L392.303 80.07L422.282 97.3711L391.828 114.946L361.85 97.6451ZM392.377 115.263L422.83 97.6874L453.557 115.421L423.104 132.996L392.377 115.263ZM423.652 133.312L454.105 115.737L484.558 133.312L454.105 150.887L423.652 133.312ZM454.653 151.203L485.106 133.628L515.085 150.929L484.632 168.505L454.653 151.203ZM454.105 151.52L484.084 168.821L453.831 186.28L423.853 168.979L454.105 151.52ZM423.305 169.295L453.283 186.596L422.83 204.171L392.851 186.87L423.305 169.295ZM392.303 187.187L422.282 204.488L392.303 221.789L362.325 204.488L392.303 187.187ZM361.776 204.804L391.755 222.105L361.028 239.838L331.049 222.537L361.776 204.804ZM330.501 222.853L360.48 240.155L330.027 257.73L300.048 240.429L330.501 222.853ZM299.5 240.745L329.479 258.046L299.5 275.347L269.521 258.046L299.5 240.745ZM298.952 240.429L268.973 257.73L238.52 240.155L268.499 222.853L298.952 240.429ZM267.951 222.537L237.972 239.838L207.245 222.105L237.223 204.804L267.951 222.537ZM236.675 204.488L206.697 221.789L176.718 204.488L206.697 187.187L236.675 204.488ZM206.149 186.87L176.17 204.171L145.717 186.596L175.695 169.295L206.149 186.87ZM175.147 168.979L145.169 186.28L114.916 168.821L144.895 151.52L175.147 168.979ZM144.347 151.203L114.368 168.505L83.9147 150.929L113.893 133.628L144.347 151.203ZM144.895 150.887L114.441 133.312L144.895 115.737L175.348 133.312L144.895 150.887ZM175.896 132.996L145.443 115.421L176.17 97.6874L206.623 115.263L175.896 132.996ZM207.171 114.946L176.718 97.3712L206.697 80.07L237.15 97.6451L207.171 114.946ZM237.698 97.3288L207.245 79.7537L237.698 62.1786L268.151 79.7537L237.698 97.3288ZM268.699 79.4374L238.246 61.8623L268.499 44.4031L298.952 61.9782L268.699 79.4374ZM269.247 79.7537L299.5 62.2944L329.752 79.7537L299.5 97.2129L269.247 79.7537ZM300.048 97.5292L330.3 80.07L360.754 97.6451L330.501 115.104L300.048 97.5292ZM331.049 115.421L361.302 97.9613L391.28 115.263L361.028 132.722L331.049 115.421ZM361.576 133.038L391.828 115.579L422.556 133.312L392.303 150.771L361.576 133.038ZM392.851 151.087L423.104 133.628L453.557 151.203L423.305 168.663L392.851 151.087ZM392.303 151.404L422.757 168.979L392.303 186.554L361.85 168.979L392.303 151.404ZM361.302 169.295L391.755 186.87L361.776 204.171L331.323 186.596L361.302 169.295ZM330.775 186.913L361.229 204.488L330.501 222.221L300.048 204.646L330.775 186.913ZM299.5 204.962L329.953 222.537L299.5 240.112L269.047 222.537L299.5 204.962ZM298.952 204.646L268.499 222.221L237.771 204.488L268.225 186.913L298.952 204.646ZM267.677 186.596L237.223 204.171L207.245 186.87L237.698 169.295L267.677 186.596ZM237.15 168.979L206.697 186.554L176.243 168.979L206.697 151.404L237.15 168.979ZM206.149 151.087L175.695 168.663L145.443 151.203L175.896 133.628L206.149 151.087ZM206.697 150.771L176.444 133.312L207.171 115.579L237.424 133.038L206.697 150.771ZM237.972 132.722L207.719 115.263L237.698 97.9613L267.951 115.421L237.972 132.722ZM268.499 115.104L238.246 97.6451L268.699 80.07L298.952 97.5292L268.499 115.104ZM269.047 115.421L299.5 97.8455L329.953 115.421L299.5 132.996L269.047 115.421ZM300.048 133.312L330.501 115.737L360.48 133.038L330.027 150.613L300.048 133.312ZM330.575 150.929L361.028 133.354L391.755 151.087L361.302 168.663L330.575 150.929ZM330.027 151.246L360.754 168.979L330.775 186.28L300.048 168.547L330.027 151.246ZM299.5 168.863L330.227 186.596L299.5 204.329L268.773 186.596L299.5 168.863ZM298.952 168.547L268.225 186.28L238.246 168.979L268.973 151.246L298.952 168.547ZM268.425 150.929L237.698 168.663L207.245 151.087L237.972 133.354L268.425 150.929ZM268.973 150.613L238.52 133.038L268.499 115.737L298.952 133.312L268.973 150.613ZM269.521 150.929L299.5 133.628L329.479 150.929L299.5 168.231L269.521 150.929Z" fill="url(#paint1_linear)"/>
</g>
<path d="M600 173.189L300 346.189V347.189L600 174.189V173.189Z" fill="#189EE9"/>
<mask id="mask1" mask-type="alpha" maskUnits="userSpaceOnUse" x="0" y="0" width="600" height="347">
<path d="M300 0.190012L600 173.19L300 346.19L-1.47622e-06 173.19L300 0.190012Z" fill="url(#paint2_linear)"/>
</mask>
<g mask="url(#mask1)">
<g filter="url(#filter0_i)">
<path fill-rule="evenodd" clip-rule="evenodd" d="M101.918 154.327C107.21 157.997 115.535 162.104 123.616 163.123C130.184 163.951 136.432 165.839 141.539 168.787C150.532 173.979 153.83 181.213 151.434 187.903C149.944 192.062 152.578 197.036 157.78 200.039C169.989 207.087 171.2 217.815 160.487 224C160.021 224.268 160.157 224.733 160.758 224.888C167.606 226.649 174.393 229.318 180.466 232.824C191.532 239.213 197.784 246.969 198.487 253.814C198.563 254.553 198.793 255.283 199.054 256.007C200.064 258.807 199.054 262.041 196.178 265.029C194.789 266.471 195.423 268.386 197.444 269.553C204.67 273.724 205.074 280.254 198.347 284.138C191.619 288.021 180.309 287.788 173.083 283.617C170.244 281.978 168.458 279.974 167.744 277.91C166.881 275.417 164.198 272.915 161.083 271.117C159.19 270.023 157.156 268.954 154.677 268.369C147.28 266.624 139.894 263.815 133.34 260.031C126.586 256.132 121.626 251.724 118.625 247.324C117.738 246.023 116.336 244.86 114.614 243.877C114.566 243.85 114.518 243.822 114.47 243.795C112.156 242.459 110.237 240.99 108.72 239.446C105.675 236.348 100.27 233.913 94.2811 233.054C88.0137 232.154 82.0061 230.261 77.0259 227.386C74.1696 225.737 69.4479 225.419 65.9231 226.558C52.8362 230.787 35.483 229.447 23.7914 222.698C17.1948 218.89 13.5815 214.041 13.0006 209.181C12.578 205.646 9.47897 202.154 4.65048 199.966C3.4678 199.43 2.32641 198.847 1.23442 198.217C-12.7184 190.162 -13.3243 177.452 -0.118999 169.828C2.49518 168.319 3.04613 165.821 1.32101 163.933C-4.14426 157.953 -2.51894 150.378 6.19695 145.346C15.1631 140.17 28.7913 139.326 39.2784 142.813C42.3826 143.845 45.8963 144.489 49.4772 144.547C58.3676 144.692 67.3493 146.793 74.319 150.817C74.6025 150.98 75.0396 151.016 75.3945 150.908C83.2533 148.526 93.5144 149.397 100.485 153.421C100.992 153.713 101.469 154.016 101.918 154.327Z" fill="#189EE9"/>
</g>
</g>
<g filter="url(#filter1_i)">
<path fill-rule="evenodd" clip-rule="evenodd" d="M196 85.8177L322.166 12.9824L343.379 25.2288L236.93 86.6816L459.392 215.109L459.235 215.2L459.313 215.245L265.213 327.299L244 315.053L417.045 215.154L194.521 86.6913L196.017 85.8274L196 85.8177Z" fill="#2A3260"/>
</g>
<path d="M333 19.5L216.5 87L437.5 216L256.5 321.5" stroke="#4D547E" stroke-dasharray="6 6"/>
<g filter="url(#filter2_i)">
<rect width="18.3903" height="18.3903" rx="4" transform="matrix(0.866044 0.499967 -0.866044 0.499967 270.927 19.4844)" fill="#283267" fill-opacity="0.8"/>
</g>
<path d="M270.837 28.9871V19.1328" stroke="#1D1B3A"/>
<g filter="url(#filter3_i)">
<path fill-rule="evenodd" clip-rule="evenodd" d="M277.98 10.4751C278.141 9.98832 278.228 9.46789 278.228 8.92712C278.228 6.20595 276.022 4 273.301 4C272.046 4 270.9 4.46941 270.03 5.24228C269.565 4.90366 268.993 4.70387 268.374 4.70387C266.819 4.70387 265.558 5.96442 265.558 7.51937C265.558 7.84818 265.615 8.16383 265.718 8.45717C263.49 10.0535 262.039 12.6642 262.039 15.6139C262.039 20.4732 265.978 24.4124 270.837 24.4124C275.696 24.4124 279.636 20.4732 279.636 15.6139C279.636 13.6957 279.022 11.9209 277.98 10.4751Z" fill="#1D1B3A"/>
</g>
<g opacity="0.6">
<path d="M249 82.5918L321.261 124.564V98.6016L249 57.0625V82.5918Z" fill="url(#paint3_linear)"/>
<path d="M300.059 53.5991L372.319 95.5709V69.3926L300.059 27.8535V53.5991Z" fill="url(#paint4_linear)"/>
<path d="M380.541 47.326V21.1477L345.492 1V26.9684L380.541 47.326Z" fill="url(#paint5_linear)"/>
<path d="M372.103 95.1386L321.261 124.562V98.6002L372.103 69.6094V95.1386Z" fill="url(#paint6_linear)"/>
<path d="M380.757 46.6757L329.915 76.0993V50.1373L380.757 21.1465V46.6757Z" fill="url(#paint7_linear)"/>
<path d="M249.216 83.0232V57.2776L345.492 1.53906V26.8624L249.216 83.0232Z" fill="url(#paint8_linear)"/>
<path d="M249 57.0612L321.261 98.6003L372.319 69.6094L300.059 28.0703L249 57.0612Z" fill="#222B56"/>
<path d="M300.059 27.6115L334.242 47.5156L380.757 21.121L346.574 1.2168L300.059 27.6115Z" fill="#222B56"/>
</g>
<path d="M0 173.189L300 346.189V347.189L0 174.189V173.189Z" fill="#0C51A2"/>
<path d="M351.5 236.5L355 239L362 232.5L364 244L362 249.5L366 244L363.5 226.5L351.5 236.5Z" fill="#189EE9" fill-opacity="0.3"/>
<path d="M364 244L362 249.5L363 243.5L360 234L362 232.5L364 244Z" fill="#596189"/>
<path d="M348 234.5L351.5 236.5L363.5 226.5L361 226L348 234.5Z" fill="#596189"/>
<path d="M305.5 236.5L302 239L295 232.5L293 244L295 249.5L291 244L293.5 226.5L305.5 236.5Z" fill="#189EE9" fill-opacity="0.3"/>
<path d="M293 244L295 249.5L294 243.5L297 234L295 232.5L293 244Z" fill="#596189"/>
<path d="M309 234.5L305.5 236.5L293.5 226.5L296 226L309 234.5Z" fill="#596189"/>
<path d="M328.5 241.382C333.746 241.382 339.024 240.29 342.999 238.075L356.017 245.514C352.483 247.794 350.642 250.86 350.642 254C350.642 257.14 352.483 260.206 356.017 262.486L342.999 269.925C339.024 267.71 333.746 266.618 328.5 266.618C323.254 266.618 317.976 267.71 314.001 269.925L300.983 262.486C304.517 260.206 306.358 257.14 306.358 254C306.358 250.86 304.517 247.794 300.983 245.514L314.001 238.075C317.976 240.29 323.254 241.382 328.5 241.382Z" stroke="white" stroke-opacity="0.1"/>
<path d="M343 270.499C335.19 265.99 321.81 265.99 314 270.499V264.499C321.81 259.99 335.19 259.99 343 264.499V270.499Z" fill="url(#paint9_linear)"/>
<path d="M328.5 235.382C333.746 235.382 339.024 234.29 342.999 232.075L356.017 239.514C352.483 241.794 350.642 244.86 350.642 248C350.642 251.14 352.483 254.206 356.017 256.486L342.999 263.925C339.024 261.71 333.746 260.618 328.5 260.618C323.254 260.618 317.976 261.71 314.001 263.925L300.983 256.486C304.517 254.206 306.358 251.14 306.358 248C306.358 244.86 304.517 241.794 300.983 239.514L314.001 232.075C317.976 234.29 323.254 235.382 328.5 235.382Z" fill="white" fill-opacity="0.2" stroke="white"/>
<path d="M343 264.5L357 256.5V262.5L343 270.5V264.5Z" fill="url(#paint10_linear)"/>
<path d="M314 264.5L300 256.5V262.5L314 270.5V264.5Z" fill="#283267" fill-opacity="0.8"/>
<path d="M300 245.5V239.5C308.5 244.5 305.238 251.049 305.238 251.049C304.389 249.266 302.758 246.726 300 245.5Z" fill="#283267" fill-opacity="0.8"/>
<path d="M348 267.5L361.5 259.5L368 264.5V280.5L365 284.5L370.5 280.5V264L363 254.5L348 261.612C348 263.5 348 265.5 348 267.5Z" fill="url(#paint11_linear)"/>
<path d="M372 278.5L370.5 280.5V264L363 254.5L348 261.5L357 256.5L365.5 253.5L373 263.5L372 278.5Z" fill="#189EE9" fill-opacity="0.3"/>
<path d="M309 267.5L295.5 259.5L289 264.5V280.5L292 284.5L286.5 280.5V264L294 254.5L309 261.612C309 263.5 309 265.5 309 267.5Z" fill="url(#paint12_linear)"/>
<path d="M285 278.5L286.5 280.5V264L294 254.5L309 261.5L300 256.5L291.5 253.5L284 263.5L285 278.5Z" fill="#189EE9" fill-opacity="0.3"/>
<path d="M357 245.5V239.5C348.5 244.5 351.762 251.049 351.762 251.049C352.611 249.266 354.242 246.726 357 245.5Z" fill="url(#paint13_linear)"/>
<g filter="url(#filter4_i)">
<circle r="11.6705" transform="matrix(0.866044 0.499967 -0.866044 0.499967 329.213 247.748)" fill="#272F5A"/>
</g>
<circle r="12.9087" transform="matrix(0.866044 0.499967 -0.866044 0.499967 329.213 245.17)" fill="#405984"/>
<circle r="13.2709" transform="matrix(0.866044 0.499967 -0.866044 0.499967 329.213 243.408)" fill="url(#paint14_linear)" stroke="white" stroke-width="1.10868"/>
<g filter="url(#filter5_i)">
<circle r="5.826" transform="matrix(0.866044 0.499967 -0.866044 0.499967 329.213 238.326)" fill="#272F5A"/>
</g>
<circle r="5.326" transform="matrix(0.866044 0.499967 -0.866044 0.499967 329.213 238.326)" stroke="white"/>
<path d="M325.256 240.851C324.827 240.055 325.159 239.151 326.251 238.521C327.82 237.615 330.363 237.615 331.932 238.521C333.11 239.201 333.403 240.199 332.812 241.037C331.753 241.478 330 242.001 329 242.001C328.074 242.001 325.93 241.203 325.256 240.851Z" fill="#189EE9"/>
<g filter="url(#filter6_i)">
<rect width="26.1273" height="26.1273" rx="4" transform="matrix(0.866044 0.499967 -0.866044 0.499967 501.627 124)" fill="#283267" fill-opacity="0.8"/>
</g>
<path d="M501.5 137.5V123.5" stroke="#1D1B3A"/>
<g filter="url(#filter7_i)">
<path fill-rule="evenodd" clip-rule="evenodd" d="M501.235 103L506 112H504.353L507 117H505.353L508 122H506.353L509 127H507.353L510 132H493L495.353 127H494L496.353 122H495L497.353 117H496L498.353 112H497L501.235 103Z" fill="#1D1B3A"/>
</g>
<g filter="url(#filter8_i)">
<rect width="26.1273" height="26.1273" rx="4" transform="matrix(0.866044 0.499967 -0.866044 0.499967 568.627 159)" fill="#283267" fill-opacity="0.8"/>
</g>
<path d="M568.5 172.5V158.5" stroke="#1D1B3A"/>
<g filter="url(#filter9_i)">
<path fill-rule="evenodd" clip-rule="evenodd" d="M568.235 138L573 147H571.353L574 152H572.353L575 157H573.353L576 162H574.353L577 167H560L562.353 162H561L563.353 157H562L564.353 152H563L565.353 147H564L568.235 138Z" fill="#1D1B3A"/>
</g>
<g filter="url(#filter10_i)">
<rect width="26.1273" height="26.1273" rx="4" transform="matrix(0.866044 0.499967 -0.866044 0.499967 533.627 150)" fill="#283267" fill-opacity="0.8"/>
</g>
<path d="M533.5 163.5V149.5" stroke="#1D1B3A"/>
<g filter="url(#filter11_i)">
<path fill-rule="evenodd" clip-rule="evenodd" d="M533.235 129L538 138H536.353L539 143H537.353L540 148H538.353L541 153H539.353L542 158H525L527.353 153H526L528.353 148H527L529.353 143H528L530.353 138H529L533.235 129Z" fill="#1D1B3A"/>
</g>
<g filter="url(#filter12_i)">
<rect width="26.1273" height="26.1273" rx="4" transform="matrix(0.866044 0.499967 -0.866044 0.499967 204.627 101)" fill="#283267" fill-opacity="0.8"/>
</g>
<path d="M204.5 114.5V100.5" stroke="#1D1B3A"/>
<g filter="url(#filter13_i)">
<path fill-rule="evenodd" clip-rule="evenodd" d="M214.648 88.1993C214.876 87.5077 215 86.7683 215 86C215 82.134 211.866 79 208 79C206.217 79 204.589 79.6669 203.353 80.7649C202.693 80.2838 201.879 80 201 80C198.791 80 197 81.7909 197 84C197 84.4671 197.08 84.9156 197.227 85.3323C194.062 87.6003 192 91.3093 192 95.5C192 102.404 197.596 108 204.5 108C211.404 108 217 102.404 217 95.5C217 92.7748 216.128 90.2532 214.648 88.1993Z" fill="#1D1B3A"/>
</g>
<g filter="url(#filter14_i)">
<rect width="26.1273" height="26.1273" rx="4" transform="matrix(0.866044 0.499967 -0.866044 0.499967 237.627 120)" fill="#283267" fill-opacity="0.8"/>
</g>
<path d="M237.5 133.5V119.5" stroke="#1D1B3A"/>
<g filter="url(#filter15_i)">
<path fill-rule="evenodd" clip-rule="evenodd" d="M247.648 107.199C247.876 106.508 248 105.768 248 105C248 101.134 244.866 98 241 98C239.217 98 237.589 98.6669 236.353 99.7649C235.693 99.2838 234.879 99 234 99C231.791 99 230 100.791 230 103C230 103.467 230.08 103.916 230.227 104.332C227.062 106.6 225 110.309 225 114.5C225 121.404 230.596 127 237.5 127C244.404 127 250 121.404 250 114.5C250 111.775 249.128 109.253 247.648 107.199Z" fill="#1D1B3A"/>
</g>
<g filter="url(#filter16_i)">
<rect width="26.1273" height="26.1273" rx="4" transform="matrix(0.866044 0.499967 -0.866044 0.499967 112.627 125)" fill="#283267" fill-opacity="0.8"/>
</g>
<path d="M112.5 138.5V124.5" stroke="#1D1B3A"/>
<g filter="url(#filter17_i)">
<path fill-rule="evenodd" clip-rule="evenodd" d="M112.235 104L117 113H115.353L118 118H116.353L119 123H117.353L120 128H118.353L121 133H104L106.353 128H105L107.353 123H106L108.353 118H107L109.353 113H108L112.235 104Z" fill="#1D1B3A"/>
</g>
<g filter="url(#filter18_i)">
<rect width="26.1273" height="26.1273" rx="4" transform="matrix(0.866044 0.499967 -0.866044 0.499967 265.627 172)" fill="#283267" fill-opacity="0.8"/>
</g>
<path d="M265.5 185.5V171.5" stroke="#1D1B3A"/>
<g filter="url(#filter19_i)">
<path fill-rule="evenodd" clip-rule="evenodd" d="M265.235 151L270 160H268.353L271 165H269.353L272 170H270.353L273 175H271.353L274 180H257L259.353 175H258L260.353 170H259L261.353 165H260L262.353 160H261L265.235 151Z" fill="#1D1B3A"/>
</g>
<g filter="url(#filter20_i)">
<rect width="26.1273" height="26.1273" rx="4" transform="matrix(0.866044 0.499967 -0.866044 0.499967 358.627 117)" fill="#283267" fill-opacity="0.8"/>
</g>
<path d="M358.5 130.5V116.5" stroke="#1D1B3A"/>
<g filter="url(#filter21_i)">
<path fill-rule="evenodd" clip-rule="evenodd" d="M368.648 104.199C368.876 103.508 369 102.768 369 102C369 98.134 365.866 95 362 95C360.217 95 358.589 95.6669 357.353 96.7649C356.693 96.2838 355.879 96 355 96C352.791 96 351 97.7909 351 100C351 100.467 351.08 100.916 351.227 101.332C348.062 103.6 346 107.309 346 111.5C346 118.404 351.596 124 358.5 124C365.404 124 371 118.404 371 111.5C371 108.775 370.128 106.253 368.648 104.199Z" fill="#1D1B3A"/>
</g>
<path d="M191.5 195.5L171 184L198.5 168.5L218 180L191.5 195.5Z" stroke="white" stroke-opacity="0.3"/>
<path d="M170 72V88.5L161 99.5L135 114.5L170 72Z" fill="#283267" fill-opacity="0.8"/>
<path d="M191.5 146L217.5 131L231 139L205 154L191.5 146Z" fill="#189EE9" fill-opacity="0.1"/>
<path d="M135.5 114L161.5 99L170.5 104.5V134L135.5 114Z" fill="#189EE9" fill-opacity="0.1"/>
<path d="M135.5 114L161.5 99M161.5 99L170.5 104.5M161.5 99L170.5 88" stroke="white" stroke-opacity="0.4"/>
<path d="M191.5 58L217.5 42.5V130.5L191.5 145.5V58Z" fill="url(#paint15_linear)"/>
<path d="M205.5 154L231.5 138.5V160L205.5 175V154Z" fill="url(#paint16_linear)"/>
<path fill-rule="evenodd" clip-rule="evenodd" d="M191.5 57V146L205 154V174.5L191.5 167.5V196L171 184V154.5L114 122V101.5L164 42L191.5 57ZM170.5 72V134L135.5 114L170.5 72Z" fill="url(#paint17_linear)"/>
<path d="M191.5 168L217.5 152.5V181L191.5 196V168Z" fill="url(#paint18_linear)" fill-opacity="0.5"/>
<path d="M191.5 57.5L164 42L190 27L217 42.5L191.5 57.5Z" fill="#232B56" fill-opacity="0.9" stroke="white"/>
<path d="M191.5 57V146L205 154V175.5L191.5 167.5V196" stroke="url(#paint19_linear)"/>
<path d="M217.5 42.5V131L231 139V159.5L217.5 152.5V181" stroke="url(#paint20_linear)"/>
<path d="M164 42L114 101.5V122L171 154.5V184" stroke="url(#paint21_linear)"/>
<path d="M170.5 134V71.5L135.5 114L170.5 134Z" stroke="url(#paint22_linear)"/>
<path d="M205 175.5V154L231 139V160.5L205 175.5Z" stroke="white" stroke-opacity="0.4"/>
<path d="M302.068 179.591C314.339 171.246 319.739 152.201 319.739 134.923C319.902 123.142 321.211 109.398 318.266 98.5996" stroke="url(#paint23_linear)" stroke-width="1.10868"/>
<path fill-rule="evenodd" clip-rule="evenodd" d="M308.697 50.9133C310.541 50.2762 312.431 49.7811 314.35 49.4323C318.048 48.6714 321.882 48.9182 325.452 50.1472L325.453 50.1481C326.34 50.5003 327.195 50.9272 328.009 51.4243L354.915 66.9554C354.307 66.6088 353.608 66.2039 352.489 65.8388L352.487 65.8381C348.919 64.6095 345.085 64.3627 341.387 65.1236C337.78 65.7824 334.317 66.998 330.977 68.4945C321.205 72.8924 311.885 79.6532 304.63 87.5312C300.063 92.4102 296.294 97.7205 293.004 103.631C284.053 119.843 278.938 140.829 279.038 167.455L279.051 178.27C279.126 205.085 284.184 220.249 293.239 225.981L266.798 210.649C257.385 205.184 252.116 189.953 252.001 162.579L252.001 151.765C251.924 125.157 256.938 104.167 265.967 87.927L265.973 87.9301C268.676 83.0738 271.839 78.4829 275.445 74.2524C278.18 70.963 281.423 67.7509 284.711 65.0386L284.704 65.0343C287.838 62.3983 291.185 60.073 294.603 57.821L294.615 57.8281C299.089 55.144 303.76 52.6219 308.697 50.9518L308.697 50.9133ZM293.239 225.981C293.828 226.354 293.835 226.343 293.239 225.981V225.981ZM354.915 66.9554C355.066 67.0418 355.066 67.0427 354.915 66.9554V66.9554Z" fill="url(#paint24_linear)"/>
<path d="M293.24 225.981L266.799 210.649C257.386 205.184 252.117 189.953 252.002 162.579L252.002 151.765C251.925 125.157 256.938 104.167 265.968 87.927L265.973 87.9301C268.677 83.0738 271.84 78.4829 275.445 74.2524C278.181 70.963 281.424 67.7509 284.712 65.0386L284.705 65.0343C287.839 62.3983 291.186 60.073 294.604 57.821L294.616 57.8281C299.089 55.144 303.761 52.6219 308.698 50.9518L308.698 50.9133C310.542 50.2762 312.431 49.7811 314.351 49.4323C318.049 48.6714 321.883 48.9182 325.452 50.1472L325.454 50.1481C326.341 50.5003 327.196 50.9272 328.01 51.4243L355.08 67.6764M293.24 225.981C293.836 226.343 293.828 226.354 293.24 225.981Z" stroke="url(#paint25_linear)" stroke-width="1.10868"/>
<path d="M324.488 72.4865L324.488 72.4863C338.612 64.3376 349.663 62.8663 357.207 69.23C361.008 72.4363 364.003 77.6877 366.051 85.2806C368.098 92.87 369.188 102.753 369.213 115.162L369.213 125.975L369.213 125.976C369.353 175.178 352.049 204.981 324.318 220.958C310.376 228.99 299.331 230.465 291.745 224.125C287.924 220.931 284.898 215.699 282.82 208.124C280.744 200.551 279.627 190.681 279.592 178.27L279.592 167.457L279.592 167.455C279.414 118.266 296.757 88.463 324.488 72.4865ZM347.492 128.337L347.492 128.335C347.467 119.312 346.889 112.217 345.815 106.773C344.743 101.338 343.168 97.4954 341.11 95.0255C339.028 92.5276 336.469 91.4577 333.547 91.547C330.662 91.6353 327.458 92.8514 324.024 94.8265L324.3 95.307L324.024 94.8265C316.836 98.9613 311.124 104.685 307.231 113.974C303.349 123.241 301.287 136.029 301.326 154.282L301.326 165.095L301.326 165.096C301.352 174.119 301.917 181.221 302.974 186.674C304.029 192.119 305.584 195.973 307.628 198.452C309.697 200.959 312.249 202.034 315.181 201.938C318.074 201.844 321.301 200.611 324.782 198.605C331.779 194.571 337.499 188.848 341.445 179.537C345.382 170.247 347.544 157.411 347.492 139.162L347.492 128.337Z" fill="url(#paint26_linear)" stroke="url(#paint27_linear)" stroke-width="1.10868"/>
<path d="M347.351 139.163V128.336C347.249 92.3186 338.217 87.2179 324.609 95.0444C322.357 96.34 320.357 97.3565 318.411 99.0291C321.51 106.556 320.624 128.336 319.296 144.631C318.083 159.511 311.785 173.852 302.472 179.164C304.675 202.303 313.171 204.895 324.918 198.124C338.718 190.169 347.453 175.589 347.351 139.163Z" fill="url(#paint28_linear)"/>
<path d="M457.15 168.79L436 156.5L452.64 147L473.78 159.29L457.15 168.79Z" stroke="white" stroke-opacity="0.3"/>
<path d="M473.99 118.16L452.85 105.87L464.2 99.3203L485.34 111.61L473.99 118.16Z" fill="#189EE9" fill-opacity="0.2"/>
<path d="M457.08 169.24L435.94 156.95L435.87 132.98L457.01 145.27L457.08 169.24Z" fill="#283267" fill-opacity="0.8"/>
<path d="M428.45 144.449L407.3 132.169L435.82 115.699L456.96 127.989L428.45 144.449Z" fill="#189EE9" fill-opacity="0.2"/>
<path d="M456.96 127.99L435.82 115.7L435.67 64.5098L456.82 76.7998L456.96 127.99Z" fill="#283267" fill-opacity="0.8"/>
<path d="M410.19 172.3L389.05 160.01L389 142.73L410.14 155.02L410.19 172.3Z" fill="#283267" fill-opacity="0.8"/>
<path d="M409.641 155.309L409.687 171.43L389.549 159.722L389.503 143.601L409.641 155.309Z" stroke="white" stroke-opacity="0.4"/>
<path d="M451.371 57.6522L431.218 45.9415L452.639 33.5778L472.783 45.2885L451.371 57.6522Z" fill="#232B56" fill-opacity="0.9" stroke="white"/>
<path d="M410.14 155.021L389 142.731L430.22 45.9414L451.37 58.2314L410.14 155.021Z" fill="#283267" fill-opacity="0.6"/>
<path d="M474 118.159L485.35 111.609V128.879L474 135.439L474.07 159.439L457.07 169.269L457 145.269L410.18 172.269L410.14 154.999L451.37 58.2291L473.78 45.2891L474 118.159ZM457 127.999L456.82 76.7991L428.45 144.449L457 127.999Z" fill="url(#paint29_linear)"/>
<path d="M473.5 45.5V105M485 112L473.5 118.5V105M485 112V129L474 136V159.5M485 112L473.5 105" stroke="url(#paint30_linear)"/>
<path d="M457 128.5L428.5 144.5L439.689 118M457 128.5V77L439.689 118M457 128.5L439.689 118" stroke="url(#paint31_linear)"/>
<path d="M451.5 57.5L409.5 155.5" stroke="url(#paint32_linear)"/>
<path d="M431 46L389 144" stroke="url(#paint33_linear)"/>
<path d="M410.5 171.5L457 145V169.5" stroke="url(#paint34_linear)"/>
<g filter="url(#filter22_i)">
<rect width="26.1273" height="26.1273" rx="4" transform="matrix(0.866044 0.499967 -0.866044 0.499967 404.627 251)" fill="#283267" fill-opacity="0.8"/>
</g>
<path d="M404.5 264.5V250.5" stroke="#1D1B3A"/>
<g filter="url(#filter23_i)">
<path fill-rule="evenodd" clip-rule="evenodd" d="M404.235 230L409 239H407.353L410 244H408.353L411 249H409.353L412 254H410.353L413 259H396L398.353 254H397L399.353 249H398L400.353 244H399L401.353 239H400L404.235 230Z" fill="#1D1B3A"/>
</g>
<g filter="url(#filter24_i)">
<rect width="26.1273" height="26.1273" rx="4" transform="matrix(0.866044 0.499967 -0.866044 0.499967 311.627 304)" fill="#283267" fill-opacity="0.8"/>
</g>
<path d="M311.5 317.5V303.5" stroke="#1D1B3A"/>
<g filter="url(#filter25_i)">
<path fill-rule="evenodd" clip-rule="evenodd" d="M311.235 283L316 292H314.353L317 297H315.353L318 302H316.353L319 307H317.353L320 312H303L305.353 307H304L306.353 302H305L307.353 297H306L308.353 292H307L311.235 283Z" fill="#1D1B3A"/>
</g>
<g filter="url(#filter26_i)">
<rect width="26.1273" height="26.1273" rx="4" transform="matrix(0.866044 0.499967 -0.866044 0.499967 383.627 201)" fill="#283267" fill-opacity="0.8"/>
</g>
<path d="M383.5 214.5V200.5" stroke="#1D1B3A"/>
<g filter="url(#filter27_i)">
<path fill-rule="evenodd" clip-rule="evenodd" d="M393.648 188.199C393.876 187.508 394 186.768 394 186C394 182.134 390.866 179 387 179C385.217 179 383.589 179.667 382.353 180.765C381.693 180.284 380.879 180 380 180C377.791 180 376 181.791 376 184C376 184.467 376.08 184.916 376.227 185.332C373.062 187.6 371 191.309 371 195.5C371 202.404 376.596 208 383.5 208C390.404 208 396 202.404 396 195.5C396 192.775 395.128 190.253 393.648 188.199Z" fill="#1D1B3A"/>
</g>
<g filter="url(#filter28_i)">
<rect width="26.1273" height="26.1273" rx="4" transform="matrix(0.866044 0.499967 -0.866044 0.499967 546.627 173)" fill="#283267" fill-opacity="0.8"/>
</g>
<path d="M546.5 186.5V172.5" stroke="#1D1B3A"/>
<g filter="url(#filter29_i)">
<path fill-rule="evenodd" clip-rule="evenodd" d="M556.648 160.199C556.876 159.508 557 158.768 557 158C557 154.134 553.866 151 550 151C548.217 151 546.589 151.667 545.353 152.765C544.693 152.284 543.879 152 543 152C540.791 152 539 153.791 539 156C539 156.467 539.08 156.916 539.227 157.332C536.062 159.6 534 163.309 534 167.5C534 174.404 539.596 180 546.5 180C553.404 180 559 174.404 559 167.5C559 164.775 558.128 162.253 556.648 160.199Z" fill="#1D1B3A"/>
</g>
<g filter="url(#filter30_i)">
<rect width="26.1273" height="26.1273" rx="4" transform="matrix(0.866044 0.499967 -0.866044 0.499967 511.627 165)" fill="#283267" fill-opacity="0.8"/>
</g>
<path d="M511.5 178.5V164.5" stroke="#1D1B3A"/>
<g filter="url(#filter31_i)">
<path fill-rule="evenodd" clip-rule="evenodd" d="M521.648 152.199C521.876 151.508 522 150.768 522 150C522 146.134 518.866 143 515 143C513.217 143 511.589 143.667 510.353 144.765C509.693 144.284 508.879 144 508 144C505.791 144 504 145.791 504 148C504 148.467 504.08 148.916 504.227 149.332C501.062 151.6 499 155.309 499 159.5C499 166.404 504.596 172 511.5 172C518.404 172 524 166.404 524 159.5C524 156.775 523.128 154.253 521.648 152.199Z" fill="#1D1B3A"/>
</g>
<g filter="url(#filter32_i)">
<rect width="26.1273" height="26.1273" rx="4" transform="matrix(0.866044 0.499967 -0.866044 0.499967 190.627 203)" fill="#283267" fill-opacity="0.8"/>
</g>
<path d="M190.5 216.5V202.5" stroke="#1D1B3A"/>
<g filter="url(#filter33_i)">
<path fill-rule="evenodd" clip-rule="evenodd" d="M200.648 190.199C200.876 189.508 201 188.768 201 188C201 184.134 197.866 181 194 181C192.217 181 190.589 181.667 189.353 182.765C188.693 182.284 187.879 182 187 182C184.791 182 183 183.791 183 186C183 186.467 183.08 186.916 183.227 187.332C180.062 189.6 178 193.309 178 197.5C178 204.404 183.596 210 190.5 210C197.404 210 203 204.404 203 197.5C203 194.775 202.128 192.253 200.648 190.199Z" fill="#1D1B3A"/>
</g>
<g filter="url(#filter34_i)">
<rect width="26.1273" height="26.1273" rx="4" transform="matrix(0.866044 0.499967 -0.866044 0.499967 261.627 254)" fill="#283267" fill-opacity="0.8"/>
</g>
<path d="M261.5 267.5V253.5" stroke="#1D1B3A"/>
<g filter="url(#filter35_i)">
<path fill-rule="evenodd" clip-rule="evenodd" d="M271.648 241.199C271.876 240.508 272 239.768 272 239C272 235.134 268.866 232 265 232C263.217 232 261.589 232.667 260.353 233.765C259.693 233.284 258.879 233 258 233C255.791 233 254 234.791 254 237C254 237.467 254.08 237.916 254.227 238.332C251.062 240.6 249 244.309 249 248.5C249 255.404 254.596 261 261.5 261C268.404 261 274 255.404 274 248.5C274 245.775 273.128 243.253 271.648 241.199Z" fill="#1D1B3A"/>
</g>
<g filter="url(#filter36_i)">
<rect width="26.1273" height="26.1273" rx="4" transform="matrix(0.866044 0.499967 -0.866044 0.499967 521.627 187)" fill="#283267" fill-opacity="0.8"/>
</g>
<path d="M521.5 200.5V186.5" stroke="#1D1B3A"/>
<g filter="url(#filter37_i)">
<path fill-rule="evenodd" clip-rule="evenodd" d="M521.235 166L526 175H524.353L527 180H525.353L528 185H526.353L529 190H527.353L530 195H513L515.353 190H514L516.353 185H515L517.353 180H516L518.353 175H517L521.235 166Z" fill="#1D1B3A"/>
</g>
<g filter="url(#filter38_i)">
<rect width="26.1273" height="26.1273" rx="4" transform="matrix(0.866044 0.499967 -0.866044 0.499967 487.627 179)" fill="#283267" fill-opacity="0.8"/>
</g>
<path d="M487.5 192.5V178.5" stroke="#1D1B3A"/>
<g filter="url(#filter39_i)">
<path fill-rule="evenodd" clip-rule="evenodd" d="M487.235 158L492 167H490.353L493 172H491.353L494 177H492.353L495 182H493.353L496 187H479L481.353 182H480L482.353 177H481L483.353 172H482L484.353 167H483L487.235 158Z" fill="#1D1B3A"/>
</g>
<g filter="url(#filter40_i)">
<rect width="26.1273" height="26.1273" rx="4" transform="matrix(0.866044 0.499967 -0.866044 0.499967 237.627 280)" fill="#283267" fill-opacity="0.8"/>
</g>
<path d="M237.5 293.5V279.5" stroke="#1D1B3A"/>
<g filter="url(#filter41_i)">
<path fill-rule="evenodd" clip-rule="evenodd" d="M247.648 267.199C247.876 266.508 248 265.768 248 265C248 261.134 244.866 258 241 258C239.217 258 237.589 258.667 236.353 259.765C235.693 259.284 234.879 259 234 259C231.791 259 230 260.791 230 263C230 263.467 230.08 263.916 230.227 264.332C227.062 266.6 225 270.309 225 274.5C225 281.404 230.596 287 237.5 287C244.404 287 250 281.404 250 274.5C250 271.775 249.128 269.253 247.648 267.199Z" fill="#1D1B3A"/>
</g>
<defs>
<filter id="filter0_i" x="-9.63989" y="140.707" width="212.779" height="150.197" filterUnits="userSpaceOnUse" color-interpolation-filters="sRGB">
<feFlood flood-opacity="0" result="BackgroundImageFix"/>
<feBlend mode="normal" in="SourceGraphic" in2="BackgroundImageFix" result="shape"/>
<feColorMatrix in="SourceAlpha" type="matrix" values="0 0 0 0 0 0 0 0 0 0 0 0 0 0 0 0 0 0 127 0" result="hardAlpha"/>
<feOffset dy="4"/>
<feGaussianBlur stdDeviation="10"/>
<feComposite in2="hardAlpha" operator="arithmetic" k2="-1" k3="1"/>
<feColorMatrix type="matrix" values="0 0 0 0 0.204167 0 0 0 0 0.9045 0 0 0 0 1 0 0 0 0.25 0"/>
<feBlend mode="normal" in2="shape" result="effect1_innerShadow"/>
</filter>
<filter id="filter1_i" x="194.521" y="12.9824" width="264.872" height="314.317" filterUnits="userSpaceOnUse" color-interpolation-filters="sRGB">
<feFlood flood-opacity="0" result="BackgroundImageFix"/>
<feBlend mode="normal" in="SourceGraphic" in2="BackgroundImageFix" result="shape"/>
<feColorMatrix in="SourceAlpha" type="matrix" values="0 0 0 0 0 0 0 0 0 0 0 0 0 0 0 0 0 0 127 0" result="hardAlpha"/>
<feOffset dy="2"/>
<feComposite in2="hardAlpha" operator="arithmetic" k2="-1" k3="1"/>
<feColorMatrix type="matrix" values="0 0 0 0 0 0 0 0 0 0 0 0 0 0 0 0 0 0 0.25 0"/>
<feBlend mode="normal" in2="shape" result="effect1_innerShadow"/>
</filter>
<filter id="filter2_i" x="257.029" y="20.6562" width="27.7952" height="16.0462" filterUnits="userSpaceOnUse" color-interpolation-filters="sRGB">
<feFlood flood-opacity="0" result="BackgroundImageFix"/>
<feBlend mode="normal" in="SourceGraphic" in2="BackgroundImageFix" result="shape"/>
<feColorMatrix in="SourceAlpha" type="matrix" values="0 0 0 0 0 0 0 0 0 0 0 0 0 0 0 0 0 0 127 0" result="hardAlpha"/>
<feOffset dy="-1"/>
<feComposite in2="hardAlpha" operator="arithmetic" k2="-1" k3="1"/>
<feColorMatrix type="matrix" values="0 0 0 0 1 0 0 0 0 1 0 0 0 0 1 0 0 0 0.1 0"/>
<feBlend mode="normal" in2="shape" result="effect1_innerShadow"/>
</filter>
<filter id="filter3_i" x="262.039" y="4" width="17.5969" height="20.4124" filterUnits="userSpaceOnUse" color-interpolation-filters="sRGB">
<feFlood flood-opacity="0" result="BackgroundImageFix"/>
<feBlend mode="normal" in="SourceGraphic" in2="BackgroundImageFix" result="shape"/>
<feColorMatrix in="SourceAlpha" type="matrix" values="0 0 0 0 0 0 0 0 0 0 0 0 0 0 0 0 0 0 127 0" result="hardAlpha"/>
<feOffset dx="-1" dy="1"/>
<feComposite in2="hardAlpha" operator="arithmetic" k2="-1" k3="1"/>
<feColorMatrix type="matrix" values="0 0 0 0 0.301961 0 0 0 0 0.34902 0 0 0 0 0.631373 0 0 0 1 0"/>
<feBlend mode="normal" in2="shape" result="effect1_innerShadow"/>
</filter>
<filter id="filter4_i" x="314.92" y="239.496" width="28.5873" height="16.5034" filterUnits="userSpaceOnUse" color-interpolation-filters="sRGB">
<feFlood flood-opacity="0" result="BackgroundImageFix"/>
<feBlend mode="normal" in="SourceGraphic" in2="BackgroundImageFix" result="shape"/>
<feColorMatrix in="SourceAlpha" type="matrix" values="0 0 0 0 0 0 0 0 0 0 0 0 0 0 0 0 0 0 127 0" result="hardAlpha"/>
<feOffset dy="4"/>
<feComposite in2="hardAlpha" operator="arithmetic" k2="-1" k3="1"/>
<feColorMatrix type="matrix" values="0 0 0 0 0 0 0 0 0 0 0 0 0 0 0 0 0 0 0.25 0"/>
<feBlend mode="normal" in2="shape" result="effect1_innerShadow"/>
</filter>
<filter id="filter5_i" x="322.078" y="234.207" width="14.271" height="8.23867" filterUnits="userSpaceOnUse" color-interpolation-filters="sRGB">
<feFlood flood-opacity="0" result="BackgroundImageFix"/>
<feBlend mode="normal" in="SourceGraphic" in2="BackgroundImageFix" result="shape"/>
<feColorMatrix in="SourceAlpha" type="matrix" values="0 0 0 0 0 0 0 0 0 0 0 0 0 0 0 0 0 0 127 0" result="hardAlpha"/>
<feOffset dy="2"/>
<feComposite in2="hardAlpha" operator="arithmetic" k2="-1" k3="1"/>
<feColorMatrix type="matrix" values="0 0 0 0 0 0 0 0 0 0 0 0 0 0 0 0 0 0 0.25 0"/>
<feBlend mode="normal" in2="shape" result="effect1_innerShadow"/>
</filter>
<filter id="filter6_i" x="481.029" y="125.172" width="41.1963" height="23.7826" filterUnits="userSpaceOnUse" color-interpolation-filters="sRGB">
<feFlood flood-opacity="0" result="BackgroundImageFix"/>
<feBlend mode="normal" in="SourceGraphic" in2="BackgroundImageFix" result="shape"/>
<feColorMatrix in="SourceAlpha" type="matrix" values="0 0 0 0 0 0 0 0 0 0 0 0 0 0 0 0 0 0 127 0" result="hardAlpha"/>
<feOffset dy="-1"/>
<feComposite in2="hardAlpha" operator="arithmetic" k2="-1" k3="1"/>
<feColorMatrix type="matrix" values="0 0 0 0 1 0 0 0 0 1 0 0 0 0 1 0 0 0 0.25 0"/>
<feBlend mode="normal" in2="shape" result="effect1_innerShadow"/>
</filter>
<filter id="filter7_i" x="493" y="103" width="17" height="29" filterUnits="userSpaceOnUse" color-interpolation-filters="sRGB">
<feFlood flood-opacity="0" result="BackgroundImageFix"/>
<feBlend mode="normal" in="SourceGraphic" in2="BackgroundImageFix" result="shape"/>
<feColorMatrix in="SourceAlpha" type="matrix" values="0 0 0 0 0 0 0 0 0 0 0 0 0 0 0 0 0 0 127 0" result="hardAlpha"/>
<feOffset dx="-1"/>
<feComposite in2="hardAlpha" operator="arithmetic" k2="-1" k3="1"/>
<feColorMatrix type="matrix" values="0 0 0 0 0.301961 0 0 0 0 0.34902 0 0 0 0 0.631373 0 0 0 1 0"/>
<feBlend mode="normal" in2="shape" result="effect1_innerShadow"/>
</filter>
<filter id="filter8_i" x="548.029" y="160.172" width="41.1963" height="23.7826" filterUnits="userSpaceOnUse" color-interpolation-filters="sRGB">
<feFlood flood-opacity="0" result="BackgroundImageFix"/>
<feBlend mode="normal" in="SourceGraphic" in2="BackgroundImageFix" result="shape"/>
<feColorMatrix in="SourceAlpha" type="matrix" values="0 0 0 0 0 0 0 0 0 0 0 0 0 0 0 0 0 0 127 0" result="hardAlpha"/>
<feOffset dy="-1"/>
<feComposite in2="hardAlpha" operator="arithmetic" k2="-1" k3="1"/>
<feColorMatrix type="matrix" values="0 0 0 0 1 0 0 0 0 1 0 0 0 0 1 0 0 0 0.25 0"/>
<feBlend mode="normal" in2="shape" result="effect1_innerShadow"/>
</filter>
<filter id="filter9_i" x="560" y="138" width="17" height="29" filterUnits="userSpaceOnUse" color-interpolation-filters="sRGB">
<feFlood flood-opacity="0" result="BackgroundImageFix"/>
<feBlend mode="normal" in="SourceGraphic" in2="BackgroundImageFix" result="shape"/>
<feColorMatrix in="SourceAlpha" type="matrix" values="0 0 0 0 0 0 0 0 0 0 0 0 0 0 0 0 0 0 127 0" result="hardAlpha"/>
<feOffset dx="-1"/>
<feComposite in2="hardAlpha" operator="arithmetic" k2="-1" k3="1"/>
<feColorMatrix type="matrix" values="0 0 0 0 0.301961 0 0 0 0 0.34902 0 0 0 0 0.631373 0 0 0 1 0"/>
<feBlend mode="normal" in2="shape" result="effect1_innerShadow"/>
</filter>
<filter id="filter10_i" x="513.029" y="151.172" width="41.1963" height="23.7826" filterUnits="userSpaceOnUse" color-interpolation-filters="sRGB">
<feFlood flood-opacity="0" result="BackgroundImageFix"/>
<feBlend mode="normal" in="SourceGraphic" in2="BackgroundImageFix" result="shape"/>
<feColorMatrix in="SourceAlpha" type="matrix" values="0 0 0 0 0 0 0 0 0 0 0 0 0 0 0 0 0 0 127 0" result="hardAlpha"/>
<feOffset dy="-1"/>
<feComposite in2="hardAlpha" operator="arithmetic" k2="-1" k3="1"/>
<feColorMatrix type="matrix" values="0 0 0 0 1 0 0 0 0 1 0 0 0 0 1 0 0 0 0.25 0"/>
<feBlend mode="normal" in2="shape" result="effect1_innerShadow"/>
</filter>
<filter id="filter11_i" x="525" y="129" width="17" height="29" filterUnits="userSpaceOnUse" color-interpolation-filters="sRGB">
<feFlood flood-opacity="0" result="BackgroundImageFix"/>
<feBlend mode="normal" in="SourceGraphic" in2="BackgroundImageFix" result="shape"/>
<feColorMatrix in="SourceAlpha" type="matrix" values="0 0 0 0 0 0 0 0 0 0 0 0 0 0 0 0 0 0 127 0" result="hardAlpha"/>
<feOffset dx="-1"/>
<feComposite in2="hardAlpha" operator="arithmetic" k2="-1" k3="1"/>
<feColorMatrix type="matrix" values="0 0 0 0 0.301961 0 0 0 0 0.34902 0 0 0 0 0.631373 0 0 0 1 0"/>
<feBlend mode="normal" in2="shape" result="effect1_innerShadow"/>
</filter>
<filter id="filter12_i" x="184.029" y="102.172" width="41.1963" height="23.7826" filterUnits="userSpaceOnUse" color-interpolation-filters="sRGB">
<feFlood flood-opacity="0" result="BackgroundImageFix"/>
<feBlend mode="normal" in="SourceGraphic" in2="BackgroundImageFix" result="shape"/>
<feColorMatrix in="SourceAlpha" type="matrix" values="0 0 0 0 0 0 0 0 0 0 0 0 0 0 0 0 0 0 127 0" result="hardAlpha"/>
<feOffset dy="-1"/>
<feComposite in2="hardAlpha" operator="arithmetic" k2="-1" k3="1"/>
<feColorMatrix type="matrix" values="0 0 0 0 1 0 0 0 0 1 0 0 0 0 1 0 0 0 0.1 0"/>
<feBlend mode="normal" in2="shape" result="effect1_innerShadow"/>
</filter>
<filter id="filter13_i" x="192" y="79" width="25" height="29" filterUnits="userSpaceOnUse" color-interpolation-filters="sRGB">
<feFlood flood-opacity="0" result="BackgroundImageFix"/>
<feBlend mode="normal" in="SourceGraphic" in2="BackgroundImageFix" result="shape"/>
<feColorMatrix in="SourceAlpha" type="matrix" values="0 0 0 0 0 0 0 0 0 0 0 0 0 0 0 0 0 0 127 0" result="hardAlpha"/>
<feOffset dx="-1" dy="1"/>
<feComposite in2="hardAlpha" operator="arithmetic" k2="-1" k3="1"/>
<feColorMatrix type="matrix" values="0 0 0 0 0.301961 0 0 0 0 0.34902 0 0 0 0 0.631373 0 0 0 1 0"/>
<feBlend mode="normal" in2="shape" result="effect1_innerShadow"/>
</filter>
<filter id="filter14_i" x="217.029" y="121.172" width="41.1963" height="23.7826" filterUnits="userSpaceOnUse" color-interpolation-filters="sRGB">
<feFlood flood-opacity="0" result="BackgroundImageFix"/>
<feBlend mode="normal" in="SourceGraphic" in2="BackgroundImageFix" result="shape"/>
<feColorMatrix in="SourceAlpha" type="matrix" values="0 0 0 0 0 0 0 0 0 0 0 0 0 0 0 0 0 0 127 0" result="hardAlpha"/>
<feOffset dy="-1"/>
<feComposite in2="hardAlpha" operator="arithmetic" k2="-1" k3="1"/>
<feColorMatrix type="matrix" values="0 0 0 0 1 0 0 0 0 1 0 0 0 0 1 0 0 0 0.1 0"/>
<feBlend mode="normal" in2="shape" result="effect1_innerShadow"/>
</filter>
<filter id="filter15_i" x="225" y="98" width="25" height="29" filterUnits="userSpaceOnUse" color-interpolation-filters="sRGB">
<feFlood flood-opacity="0" result="BackgroundImageFix"/>
<feBlend mode="normal" in="SourceGraphic" in2="BackgroundImageFix" result="shape"/>
<feColorMatrix in="SourceAlpha" type="matrix" values="0 0 0 0 0 0 0 0 0 0 0 0 0 0 0 0 0 0 127 0" result="hardAlpha"/>
<feOffset dx="-1" dy="1"/>
<feComposite in2="hardAlpha" operator="arithmetic" k2="-1" k3="1"/>
<feColorMatrix type="matrix" values="0 0 0 0 0.301961 0 0 0 0 0.34902 0 0 0 0 0.631373 0 0 0 1 0"/>
<feBlend mode="normal" in2="shape" result="effect1_innerShadow"/>
</filter>
<filter id="filter16_i" x="92.0293" y="126.172" width="41.1963" height="23.7826" filterUnits="userSpaceOnUse" color-interpolation-filters="sRGB">
<feFlood flood-opacity="0" result="BackgroundImageFix"/>
<feBlend mode="normal" in="SourceGraphic" in2="BackgroundImageFix" result="shape"/>
<feColorMatrix in="SourceAlpha" type="matrix" values="0 0 0 0 0 0 0 0 0 0 0 0 0 0 0 0 0 0 127 0" result="hardAlpha"/>
<feOffset dy="-1"/>
<feComposite in2="hardAlpha" operator="arithmetic" k2="-1" k3="1"/>
<feColorMatrix type="matrix" values="0 0 0 0 1 0 0 0 0 1 0 0 0 0 1 0 0 0 0.25 0"/>
<feBlend mode="normal" in2="shape" result="effect1_innerShadow"/>
</filter>
<filter id="filter17_i" x="104" y="104" width="17" height="29" filterUnits="userSpaceOnUse" color-interpolation-filters="sRGB">
<feFlood flood-opacity="0" result="BackgroundImageFix"/>
<feBlend mode="normal" in="SourceGraphic" in2="BackgroundImageFix" result="shape"/>
<feColorMatrix in="SourceAlpha" type="matrix" values="0 0 0 0 0 0 0 0 0 0 0 0 0 0 0 0 0 0 127 0" result="hardAlpha"/>
<feOffset dx="-1"/>
<feComposite in2="hardAlpha" operator="arithmetic" k2="-1" k3="1"/>
<feColorMatrix type="matrix" values="0 0 0 0 0.301961 0 0 0 0 0.34902 0 0 0 0 0.631373 0 0 0 1 0"/>
<feBlend mode="normal" in2="shape" result="effect1_innerShadow"/>
</filter>
<filter id="filter18_i" x="245.029" y="173.172" width="41.1963" height="23.7826" filterUnits="userSpaceOnUse" color-interpolation-filters="sRGB">
<feFlood flood-opacity="0" result="BackgroundImageFix"/>
<feBlend mode="normal" in="SourceGraphic" in2="BackgroundImageFix" result="shape"/>
<feColorMatrix in="SourceAlpha" type="matrix" values="0 0 0 0 0 0 0 0 0 0 0 0 0 0 0 0 0 0 127 0" result="hardAlpha"/>
<feOffset dy="-1"/>
<feComposite in2="hardAlpha" operator="arithmetic" k2="-1" k3="1"/>
<feColorMatrix type="matrix" values="0 0 0 0 1 0 0 0 0 1 0 0 0 0 1 0 0 0 0.25 0"/>
<feBlend mode="normal" in2="shape" result="effect1_innerShadow"/>
</filter>
<filter id="filter19_i" x="257" y="151" width="17" height="29" filterUnits="userSpaceOnUse" color-interpolation-filters="sRGB">
<feFlood flood-opacity="0" result="BackgroundImageFix"/>
<feBlend mode="normal" in="SourceGraphic" in2="BackgroundImageFix" result="shape"/>
<feColorMatrix in="SourceAlpha" type="matrix" values="0 0 0 0 0 0 0 0 0 0 0 0 0 0 0 0 0 0 127 0" result="hardAlpha"/>
<feOffset dx="-1"/>
<feComposite in2="hardAlpha" operator="arithmetic" k2="-1" k3="1"/>
<feColorMatrix type="matrix" values="0 0 0 0 0.301961 0 0 0 0 0.34902 0 0 0 0 0.631373 0 0 0 1 0"/>
<feBlend mode="normal" in2="shape" result="effect1_innerShadow"/>
</filter>
<filter id="filter20_i" x="338.029" y="118.172" width="41.1963" height="23.7826" filterUnits="userSpaceOnUse" color-interpolation-filters="sRGB">
<feFlood flood-opacity="0" result="BackgroundImageFix"/>
<feBlend mode="normal" in="SourceGraphic" in2="BackgroundImageFix" result="shape"/>
<feColorMatrix in="SourceAlpha" type="matrix" values="0 0 0 0 0 0 0 0 0 0 0 0 0 0 0 0 0 0 127 0" result="hardAlpha"/>
<feOffset dy="-1"/>
<feComposite in2="hardAlpha" operator="arithmetic" k2="-1" k3="1"/>
<feColorMatrix type="matrix" values="0 0 0 0 1 0 0 0 0 1 0 0 0 0 1 0 0 0 0.1 0"/>
<feBlend mode="normal" in2="shape" result="effect1_innerShadow"/>
</filter>
<filter id="filter21_i" x="346" y="95" width="25" height="29" filterUnits="userSpaceOnUse" color-interpolation-filters="sRGB">
<feFlood flood-opacity="0" result="BackgroundImageFix"/>
<feBlend mode="normal" in="SourceGraphic" in2="BackgroundImageFix" result="shape"/>
<feColorMatrix in="SourceAlpha" type="matrix" values="0 0 0 0 0 0 0 0 0 0 0 0 0 0 0 0 0 0 127 0" result="hardAlpha"/>
<feOffset dx="-1" dy="1"/>
<feComposite in2="hardAlpha" operator="arithmetic" k2="-1" k3="1"/>
<feColorMatrix type="matrix" values="0 0 0 0 0.301961 0 0 0 0 0.34902 0 0 0 0 0.631373 0 0 0 1 0"/>
<feBlend mode="normal" in2="shape" result="effect1_innerShadow"/>
</filter>
<filter id="filter22_i" x="384.029" y="252.172" width="41.1963" height="23.7826" filterUnits="userSpaceOnUse" color-interpolation-filters="sRGB">
<feFlood flood-opacity="0" result="BackgroundImageFix"/>
<feBlend mode="normal" in="SourceGraphic" in2="BackgroundImageFix" result="shape"/>
<feColorMatrix in="SourceAlpha" type="matrix" values="0 0 0 0 0 0 0 0 0 0 0 0 0 0 0 0 0 0 127 0" result="hardAlpha"/>
<feOffset dy="-1"/>
<feComposite in2="hardAlpha" operator="arithmetic" k2="-1" k3="1"/>
<feColorMatrix type="matrix" values="0 0 0 0 1 0 0 0 0 1 0 0 0 0 1 0 0 0 0.25 0"/>
<feBlend mode="normal" in2="shape" result="effect1_innerShadow"/>
</filter>
<filter id="filter23_i" x="396" y="230" width="17" height="29" filterUnits="userSpaceOnUse" color-interpolation-filters="sRGB">
<feFlood flood-opacity="0" result="BackgroundImageFix"/>
<feBlend mode="normal" in="SourceGraphic" in2="BackgroundImageFix" result="shape"/>
<feColorMatrix in="SourceAlpha" type="matrix" values="0 0 0 0 0 0 0 0 0 0 0 0 0 0 0 0 0 0 127 0" result="hardAlpha"/>
<feOffset dx="-1"/>
<feComposite in2="hardAlpha" operator="arithmetic" k2="-1" k3="1"/>
<feColorMatrix type="matrix" values="0 0 0 0 0.301961 0 0 0 0 0.34902 0 0 0 0 0.631373 0 0 0 1 0"/>
<feBlend mode="normal" in2="shape" result="effect1_innerShadow"/>
</filter>
<filter id="filter24_i" x="291.029" y="305.172" width="41.1963" height="23.7826" filterUnits="userSpaceOnUse" color-interpolation-filters="sRGB">
<feFlood flood-opacity="0" result="BackgroundImageFix"/>
<feBlend mode="normal" in="SourceGraphic" in2="BackgroundImageFix" result="shape"/>
<feColorMatrix in="SourceAlpha" type="matrix" values="0 0 0 0 0 0 0 0 0 0 0 0 0 0 0 0 0 0 127 0" result="hardAlpha"/>
<feOffset dy="-1"/>
<feComposite in2="hardAlpha" operator="arithmetic" k2="-1" k3="1"/>
<feColorMatrix type="matrix" values="0 0 0 0 1 0 0 0 0 1 0 0 0 0 1 0 0 0 0.25 0"/>
<feBlend mode="normal" in2="shape" result="effect1_innerShadow"/>
</filter>
<filter id="filter25_i" x="303" y="283" width="17" height="29" filterUnits="userSpaceOnUse" color-interpolation-filters="sRGB">
<feFlood flood-opacity="0" result="BackgroundImageFix"/>
<feBlend mode="normal" in="SourceGraphic" in2="BackgroundImageFix" result="shape"/>
<feColorMatrix in="SourceAlpha" type="matrix" values="0 0 0 0 0 0 0 0 0 0 0 0 0 0 0 0 0 0 127 0" result="hardAlpha"/>
<feOffset dx="-1"/>
<feComposite in2="hardAlpha" operator="arithmetic" k2="-1" k3="1"/>
<feColorMatrix type="matrix" values="0 0 0 0 0.301961 0 0 0 0 0.34902 0 0 0 0 0.631373 0 0 0 1 0"/>
<feBlend mode="normal" in2="shape" result="effect1_innerShadow"/>
</filter>
<filter id="filter26_i" x="363.029" y="202.172" width="41.1963" height="23.7826" filterUnits="userSpaceOnUse" color-interpolation-filters="sRGB">
<feFlood flood-opacity="0" result="BackgroundImageFix"/>
<feBlend mode="normal" in="SourceGraphic" in2="BackgroundImageFix" result="shape"/>
<feColorMatrix in="SourceAlpha" type="matrix" values="0 0 0 0 0 0 0 0 0 0 0 0 0 0 0 0 0 0 127 0" result="hardAlpha"/>
<feOffset dy="-1"/>
<feComposite in2="hardAlpha" operator="arithmetic" k2="-1" k3="1"/>
<feColorMatrix type="matrix" values="0 0 0 0 1 0 0 0 0 1 0 0 0 0 1 0 0 0 0.1 0"/>
<feBlend mode="normal" in2="shape" result="effect1_innerShadow"/>
</filter>
<filter id="filter27_i" x="371" y="179" width="25" height="29" filterUnits="userSpaceOnUse" color-interpolation-filters="sRGB">
<feFlood flood-opacity="0" result="BackgroundImageFix"/>
<feBlend mode="normal" in="SourceGraphic" in2="BackgroundImageFix" result="shape"/>
<feColorMatrix in="SourceAlpha" type="matrix" values="0 0 0 0 0 0 0 0 0 0 0 0 0 0 0 0 0 0 127 0" result="hardAlpha"/>
<feOffset dx="-1" dy="1"/>
<feComposite in2="hardAlpha" operator="arithmetic" k2="-1" k3="1"/>
<feColorMatrix type="matrix" values="0 0 0 0 0.301961 0 0 0 0 0.34902 0 0 0 0 0.631373 0 0 0 1 0"/>
<feBlend mode="normal" in2="shape" result="effect1_innerShadow"/>
</filter>
<filter id="filter28_i" x="526.029" y="174.172" width="41.1963" height="23.7826" filterUnits="userSpaceOnUse" color-interpolation-filters="sRGB">
<feFlood flood-opacity="0" result="BackgroundImageFix"/>
<feBlend mode="normal" in="SourceGraphic" in2="BackgroundImageFix" result="shape"/>
<feColorMatrix in="SourceAlpha" type="matrix" values="0 0 0 0 0 0 0 0 0 0 0 0 0 0 0 0 0 0 127 0" result="hardAlpha"/>
<feOffset dy="-1"/>
<feComposite in2="hardAlpha" operator="arithmetic" k2="-1" k3="1"/>
<feColorMatrix type="matrix" values="0 0 0 0 1 0 0 0 0 1 0 0 0 0 1 0 0 0 0.1 0"/>
<feBlend mode="normal" in2="shape" result="effect1_innerShadow"/>
</filter>
<filter id="filter29_i" x="534" y="151" width="25" height="29" filterUnits="userSpaceOnUse" color-interpolation-filters="sRGB">
<feFlood flood-opacity="0" result="BackgroundImageFix"/>
<feBlend mode="normal" in="SourceGraphic" in2="BackgroundImageFix" result="shape"/>
<feColorMatrix in="SourceAlpha" type="matrix" values="0 0 0 0 0 0 0 0 0 0 0 0 0 0 0 0 0 0 127 0" result="hardAlpha"/>
<feOffset dx="-1" dy="1"/>
<feComposite in2="hardAlpha" operator="arithmetic" k2="-1" k3="1"/>
<feColorMatrix type="matrix" values="0 0 0 0 0.301961 0 0 0 0 0.34902 0 0 0 0 0.631373 0 0 0 1 0"/>
<feBlend mode="normal" in2="shape" result="effect1_innerShadow"/>
</filter>
<filter id="filter30_i" x="491.029" y="166.172" width="41.1963" height="23.7826" filterUnits="userSpaceOnUse" color-interpolation-filters="sRGB">
<feFlood flood-opacity="0" result="BackgroundImageFix"/>
<feBlend mode="normal" in="SourceGraphic" in2="BackgroundImageFix" result="shape"/>
<feColorMatrix in="SourceAlpha" type="matrix" values="0 0 0 0 0 0 0 0 0 0 0 0 0 0 0 0 0 0 127 0" result="hardAlpha"/>
<feOffset dy="-1"/>
<feComposite in2="hardAlpha" operator="arithmetic" k2="-1" k3="1"/>
<feColorMatrix type="matrix" values="0 0 0 0 1 0 0 0 0 1 0 0 0 0 1 0 0 0 0.1 0"/>
<feBlend mode="normal" in2="shape" result="effect1_innerShadow"/>
</filter>
<filter id="filter31_i" x="499" y="143" width="25" height="29" filterUnits="userSpaceOnUse" color-interpolation-filters="sRGB">
<feFlood flood-opacity="0" result="BackgroundImageFix"/>
<feBlend mode="normal" in="SourceGraphic" in2="BackgroundImageFix" result="shape"/>
<feColorMatrix in="SourceAlpha" type="matrix" values="0 0 0 0 0 0 0 0 0 0 0 0 0 0 0 0 0 0 127 0" result="hardAlpha"/>
<feOffset dx="-1" dy="1"/>
<feComposite in2="hardAlpha" operator="arithmetic" k2="-1" k3="1"/>
<feColorMatrix type="matrix" values="0 0 0 0 0.301961 0 0 0 0 0.34902 0 0 0 0 0.631373 0 0 0 1 0"/>
<feBlend mode="normal" in2="shape" result="effect1_innerShadow"/>
</filter>
<filter id="filter32_i" x="170.029" y="204.172" width="41.1963" height="23.7826" filterUnits="userSpaceOnUse" color-interpolation-filters="sRGB">
<feFlood flood-opacity="0" result="BackgroundImageFix"/>
<feBlend mode="normal" in="SourceGraphic" in2="BackgroundImageFix" result="shape"/>
<feColorMatrix in="SourceAlpha" type="matrix" values="0 0 0 0 0 0 0 0 0 0 0 0 0 0 0 0 0 0 127 0" result="hardAlpha"/>
<feOffset dy="-1"/>
<feComposite in2="hardAlpha" operator="arithmetic" k2="-1" k3="1"/>
<feColorMatrix type="matrix" values="0 0 0 0 1 0 0 0 0 1 0 0 0 0 1 0 0 0 0.1 0"/>
<feBlend mode="normal" in2="shape" result="effect1_innerShadow"/>
</filter>
<filter id="filter33_i" x="178" y="181" width="25" height="29" filterUnits="userSpaceOnUse" color-interpolation-filters="sRGB">
<feFlood flood-opacity="0" result="BackgroundImageFix"/>
<feBlend mode="normal" in="SourceGraphic" in2="BackgroundImageFix" result="shape"/>
<feColorMatrix in="SourceAlpha" type="matrix" values="0 0 0 0 0 0 0 0 0 0 0 0 0 0 0 0 0 0 127 0" result="hardAlpha"/>
<feOffset dx="-1" dy="1"/>
<feComposite in2="hardAlpha" operator="arithmetic" k2="-1" k3="1"/>
<feColorMatrix type="matrix" values="0 0 0 0 0.301961 0 0 0 0 0.34902 0 0 0 0 0.631373 0 0 0 1 0"/>
<feBlend mode="normal" in2="shape" result="effect1_innerShadow"/>
</filter>
<filter id="filter34_i" x="241.029" y="255.172" width="41.1963" height="23.7826" filterUnits="userSpaceOnUse" color-interpolation-filters="sRGB">
<feFlood flood-opacity="0" result="BackgroundImageFix"/>
<feBlend mode="normal" in="SourceGraphic" in2="BackgroundImageFix" result="shape"/>
<feColorMatrix in="SourceAlpha" type="matrix" values="0 0 0 0 0 0 0 0 0 0 0 0 0 0 0 0 0 0 127 0" result="hardAlpha"/>
<feOffset dy="-1"/>
<feComposite in2="hardAlpha" operator="arithmetic" k2="-1" k3="1"/>
<feColorMatrix type="matrix" values="0 0 0 0 1 0 0 0 0 1 0 0 0 0 1 0 0 0 0.1 0"/>
<feBlend mode="normal" in2="shape" result="effect1_innerShadow"/>
</filter>
<filter id="filter35_i" x="249" y="232" width="25" height="29" filterUnits="userSpaceOnUse" color-interpolation-filters="sRGB">
<feFlood flood-opacity="0" result="BackgroundImageFix"/>
<feBlend mode="normal" in="SourceGraphic" in2="BackgroundImageFix" result="shape"/>
<feColorMatrix in="SourceAlpha" type="matrix" values="0 0 0 0 0 0 0 0 0 0 0 0 0 0 0 0 0 0 127 0" result="hardAlpha"/>
<feOffset dx="-1" dy="1"/>
<feComposite in2="hardAlpha" operator="arithmetic" k2="-1" k3="1"/>
<feColorMatrix type="matrix" values="0 0 0 0 0.301961 0 0 0 0 0.34902 0 0 0 0 0.631373 0 0 0 1 0"/>
<feBlend mode="normal" in2="shape" result="effect1_innerShadow"/>
</filter>
<filter id="filter36_i" x="501.029" y="188.172" width="41.1963" height="23.7826" filterUnits="userSpaceOnUse" color-interpolation-filters="sRGB">
<feFlood flood-opacity="0" result="BackgroundImageFix"/>
<feBlend mode="normal" in="SourceGraphic" in2="BackgroundImageFix" result="shape"/>
<feColorMatrix in="SourceAlpha" type="matrix" values="0 0 0 0 0 0 0 0 0 0 0 0 0 0 0 0 0 0 127 0" result="hardAlpha"/>
<feOffset dy="-1"/>
<feComposite in2="hardAlpha" operator="arithmetic" k2="-1" k3="1"/>
<feColorMatrix type="matrix" values="0 0 0 0 1 0 0 0 0 1 0 0 0 0 1 0 0 0 0.25 0"/>
<feBlend mode="normal" in2="shape" result="effect1_innerShadow"/>
</filter>
<filter id="filter37_i" x="513" y="166" width="17" height="29" filterUnits="userSpaceOnUse" color-interpolation-filters="sRGB">
<feFlood flood-opacity="0" result="BackgroundImageFix"/>
<feBlend mode="normal" in="SourceGraphic" in2="BackgroundImageFix" result="shape"/>
<feColorMatrix in="SourceAlpha" type="matrix" values="0 0 0 0 0 0 0 0 0 0 0 0 0 0 0 0 0 0 127 0" result="hardAlpha"/>
<feOffset dx="-1"/>
<feComposite in2="hardAlpha" operator="arithmetic" k2="-1" k3="1"/>
<feColorMatrix type="matrix" values="0 0 0 0 0.301961 0 0 0 0 0.34902 0 0 0 0 0.631373 0 0 0 1 0"/>
<feBlend mode="normal" in2="shape" result="effect1_innerShadow"/>
</filter>
<filter id="filter38_i" x="467.029" y="180.172" width="41.1963" height="23.7826" filterUnits="userSpaceOnUse" color-interpolation-filters="sRGB">
<feFlood flood-opacity="0" result="BackgroundImageFix"/>
<feBlend mode="normal" in="SourceGraphic" in2="BackgroundImageFix" result="shape"/>
<feColorMatrix in="SourceAlpha" type="matrix" values="0 0 0 0 0 0 0 0 0 0 0 0 0 0 0 0 0 0 127 0" result="hardAlpha"/>
<feOffset dy="-1"/>
<feComposite in2="hardAlpha" operator="arithmetic" k2="-1" k3="1"/>
<feColorMatrix type="matrix" values="0 0 0 0 1 0 0 0 0 1 0 0 0 0 1 0 0 0 0.25 0"/>
<feBlend mode="normal" in2="shape" result="effect1_innerShadow"/>
</filter>
<filter id="filter39_i" x="479" y="158" width="17" height="29" filterUnits="userSpaceOnUse" color-interpolation-filters="sRGB">
<feFlood flood-opacity="0" result="BackgroundImageFix"/>
<feBlend mode="normal" in="SourceGraphic" in2="BackgroundImageFix" result="shape"/>
<feColorMatrix in="SourceAlpha" type="matrix" values="0 0 0 0 0 0 0 0 0 0 0 0 0 0 0 0 0 0 127 0" result="hardAlpha"/>
<feOffset dx="-1"/>
<feComposite in2="hardAlpha" operator="arithmetic" k2="-1" k3="1"/>
<feColorMatrix type="matrix" values="0 0 0 0 0.301961 0 0 0 0 0.34902 0 0 0 0 0.631373 0 0 0 1 0"/>
<feBlend mode="normal" in2="shape" result="effect1_innerShadow"/>
</filter>
<filter id="filter40_i" x="217.029" y="281.172" width="41.1963" height="23.7826" filterUnits="userSpaceOnUse" color-interpolation-filters="sRGB">
<feFlood flood-opacity="0" result="BackgroundImageFix"/>
<feBlend mode="normal" in="SourceGraphic" in2="BackgroundImageFix" result="shape"/>
<feColorMatrix in="SourceAlpha" type="matrix" values="0 0 0 0 0 0 0 0 0 0 0 0 0 0 0 0 0 0 127 0" result="hardAlpha"/>
<feOffset dy="-1"/>
<feComposite in2="hardAlpha" operator="arithmetic" k2="-1" k3="1"/>
<feColorMatrix type="matrix" values="0 0 0 0 1 0 0 0 0 1 0 0 0 0 1 0 0 0 0.1 0"/>
<feBlend mode="normal" in2="shape" result="effect1_innerShadow"/>
</filter>
<filter id="filter41_i" x="225" y="258" width="25" height="29" filterUnits="userSpaceOnUse" color-interpolation-filters="sRGB">
<feFlood flood-opacity="0" result="BackgroundImageFix"/>
<feBlend mode="normal" in="SourceGraphic" in2="BackgroundImageFix" result="shape"/>
<feColorMatrix in="SourceAlpha" type="matrix" values="0 0 0 0 0 0 0 0 0 0 0 0 0 0 0 0 0 0 127 0" result="hardAlpha"/>
<feOffset dx="-1" dy="1"/>
<feComposite in2="hardAlpha" operator="arithmetic" k2="-1" k3="1"/>
<feColorMatrix type="matrix" values="0 0 0 0 0.301961 0 0 0 0 0.34902 0 0 0 0 0.631373 0 0 0 1 0"/>
<feBlend mode="normal" in2="shape" result="effect1_innerShadow"/>
</filter>
<linearGradient id="paint0_linear" x1="295.5" y1="346.19" x2="145.665" y2="86.7126" gradientUnits="userSpaceOnUse">
<stop stop-color="#192250"/>
<stop offset="1" stop-color="#192250" stop-opacity="0.4"/>
</linearGradient>
<linearGradient id="paint1_linear" x1="299.5" y1="-117.811" x2="299.5" y2="419.189" gradientUnits="userSpaceOnUse">
<stop stop-color="#272F5A"/>
<stop offset="1" stop-color="#B0BDFF"/>
</linearGradient>
<linearGradient id="paint2_linear" x1="295.5" y1="346.19" x2="145.665" y2="86.7126" gradientUnits="userSpaceOnUse">
<stop stop-color="#192250"/>
<stop offset="1" stop-color="#192250" stop-opacity="0.4"/>
</linearGradient>
<linearGradient id="paint3_linear" x1="285.13" y1="26.7735" x2="285.13" y2="124.78" gradientUnits="userSpaceOnUse">
<stop stop-color="white" stop-opacity="0.15"/>
<stop offset="1" stop-color="white" stop-opacity="0"/>
</linearGradient>
<linearGradient id="paint4_linear" x1="336.189" y1="-2.21909" x2="336.189" y2="95.7873" gradientUnits="userSpaceOnUse">
<stop stop-color="white" stop-opacity="0.3"/>
<stop offset="1" stop-color="white" stop-opacity="0"/>
</linearGradient>
<linearGradient id="paint5_linear" x1="344.41" y1="-50.464" x2="344.41" y2="47.5424" gradientUnits="userSpaceOnUse">
<stop stop-color="white" stop-opacity="0.15"/>
<stop offset="1" stop-color="white" stop-opacity="0"/>
</linearGradient>
<linearGradient id="paint6_linear" x1="357.391" y1="76.5326" x2="357.391" y2="124.779" gradientUnits="userSpaceOnUse">
<stop stop-color="white" stop-opacity="0.3"/>
<stop offset="1" stop-color="white" stop-opacity="0"/>
</linearGradient>
<linearGradient id="paint7_linear" x1="366.045" y1="22.4446" x2="366.045" y2="76.3157" gradientUnits="userSpaceOnUse">
<stop stop-color="white" stop-opacity="0.3"/>
<stop offset="1" stop-color="white" stop-opacity="0"/>
</linearGradient>
<linearGradient id="paint8_linear" x1="285.347" y1="-14.7669" x2="285.347" y2="83.2395" gradientUnits="userSpaceOnUse">
<stop stop-color="white" stop-opacity="0.15"/>
<stop offset="1" stop-color="white" stop-opacity="0"/>
</linearGradient>
<linearGradient id="paint9_linear" x1="343" y1="266.999" x2="314" y2="266.999" gradientUnits="userSpaceOnUse">
<stop stop-color="#4D59A1" stop-opacity="0.4"/>
<stop offset="1" stop-color="#189EE9" stop-opacity="0.2"/>
</linearGradient>
<linearGradient id="paint10_linear" x1="343" y1="256.568" x2="343" y2="270.568" gradientUnits="userSpaceOnUse">
<stop stop-color="#189EE9" stop-opacity="0.3"/>
<stop offset="1" stop-color="white" stop-opacity="0"/>
</linearGradient>
<linearGradient id="paint11_linear" x1="365" y1="257.5" x2="348" y2="266.5" gradientUnits="userSpaceOnUse">
<stop stop-color="#757DA7"/>
<stop offset="1" stop-color="#757DA7" stop-opacity="0"/>
</linearGradient>
<linearGradient id="paint12_linear" x1="292" y1="255" x2="309" y2="265" gradientUnits="userSpaceOnUse">
<stop stop-color="#757DA7"/>
<stop offset="1" stop-color="#757DA7" stop-opacity="0"/>
</linearGradient>
<linearGradient id="paint13_linear" x1="357" y1="239.556" x2="357" y2="251.105" gradientUnits="userSpaceOnUse">
<stop stop-color="#189EE9" stop-opacity="0.3"/>
<stop offset="1" stop-color="white" stop-opacity="0"/>
</linearGradient>
<linearGradient id="paint14_linear" x1="4.69048" y1="25.1435" x2="17.6356" y2="2.19492" gradientUnits="userSpaceOnUse">
<stop stop-color="#274875"/>
<stop offset="0.661458" stop-color="#838DCA"/>
<stop offset="1" stop-color="#1F4677"/>
</linearGradient>
<linearGradient id="paint15_linear" x1="191.5" y1="43" x2="191.5" y2="146" gradientUnits="userSpaceOnUse">
<stop stop-color="#189EE9" stop-opacity="0.3"/>
<stop offset="1" stop-color="white" stop-opacity="0"/>
</linearGradient>
<linearGradient id="paint16_linear" x1="205.5" y1="138.5" x2="205.5" y2="175" gradientUnits="userSpaceOnUse">
<stop stop-color="#189EE9" stop-opacity="0.3"/>
<stop offset="1" stop-color="white" stop-opacity="0"/>
</linearGradient>
<linearGradient id="paint17_linear" x1="196.193" y1="41.5016" x2="196.193" y2="196" gradientUnits="userSpaceOnUse">
<stop stop-color="#4D59A1" stop-opacity="0.2"/>
<stop offset="1" stop-color="white" stop-opacity="0"/>
</linearGradient>
<linearGradient id="paint18_linear" x1="191.5" y1="159" x2="191.5" y2="195.5" gradientUnits="userSpaceOnUse">
<stop stop-color="#189EE9" stop-opacity="0.3"/>
<stop offset="1" stop-color="white" stop-opacity="0"/>
</linearGradient>
<linearGradient id="paint19_linear" x1="198.25" y1="57" x2="198.25" y2="196" gradientUnits="userSpaceOnUse">
<stop stop-color="white"/>
<stop offset="1" stop-color="white" stop-opacity="0"/>
</linearGradient>
<linearGradient id="paint20_linear" x1="224.25" y1="42" x2="224.25" y2="181" gradientUnits="userSpaceOnUse">
<stop stop-color="white"/>
<stop offset="1" stop-color="white" stop-opacity="0"/>
</linearGradient>
<linearGradient id="paint21_linear" x1="142.5" y1="42" x2="142.5" y2="184" gradientUnits="userSpaceOnUse">
<stop stop-color="white"/>
<stop offset="1" stop-color="white" stop-opacity="0"/>
</linearGradient>
<linearGradient id="paint22_linear" x1="153" y1="43.5" x2="153" y2="183" gradientUnits="userSpaceOnUse">
<stop stop-color="white"/>
<stop offset="1" stop-color="white" stop-opacity="0"/>
</linearGradient>
<linearGradient id="paint23_linear" x1="311.118" y1="51.4537" x2="311.118" y2="227.67" gradientUnits="userSpaceOnUse">
<stop stop-color="white"/>
<stop offset="1" stop-color="white" stop-opacity="0"/>
</linearGradient>
<linearGradient id="paint24_linear" x1="345.058" y1="48.4264" x2="345.058" y2="226.257" gradientUnits="userSpaceOnUse">
<stop stop-color="#4D59A1" stop-opacity="0.2"/>
<stop offset="1" stop-color="white" stop-opacity="0"/>
</linearGradient>
<linearGradient id="paint25_linear" x1="303.54" y1="49" x2="303.54" y2="226.257" gradientUnits="userSpaceOnUse">
<stop stop-color="white"/>
<stop offset="1" stop-color="white" stop-opacity="0"/>
</linearGradient>
<linearGradient id="paint26_linear" x1="279.037" y1="65.5125" x2="279.037" y2="229.422" gradientUnits="userSpaceOnUse">
<stop stop-color="#189EE9" stop-opacity="0.3"/>
<stop offset="1" stop-color="white" stop-opacity="0"/>
</linearGradient>
<linearGradient id="paint27_linear" x1="324.402" y1="64.7168" x2="324.402" y2="228.626" gradientUnits="userSpaceOnUse">
<stop stop-color="white"/>
<stop offset="1" stop-color="white" stop-opacity="0"/>
</linearGradient>
<linearGradient id="paint28_linear" x1="302.472" y1="92.4086" x2="302.472" y2="201.92" gradientUnits="userSpaceOnUse">
<stop stop-color="#189EE9" stop-opacity="0.3"/>
<stop offset="1" stop-color="white" stop-opacity="0"/>
</linearGradient>
<linearGradient id="paint29_linear" x1="410.14" y1="45.9055" x2="410.14" y2="172.885" gradientUnits="userSpaceOnUse">
<stop stop-color="#189EE9" stop-opacity="0.3"/>
<stop offset="1" stop-color="white" stop-opacity="0"/>
</linearGradient>
<linearGradient id="paint30_linear" x1="479.25" y1="45.5" x2="479.25" y2="159.5" gradientUnits="userSpaceOnUse">
<stop stop-color="white"/>
<stop offset="1" stop-color="white" stop-opacity="0"/>
</linearGradient>
<linearGradient id="paint31_linear" x1="442.75" y1="46" x2="442.75" y2="173.5" gradientUnits="userSpaceOnUse">
<stop stop-color="white"/>
<stop offset="1" stop-color="white" stop-opacity="0"/>
</linearGradient>
<linearGradient id="paint32_linear" x1="430.5" y1="31" x2="430.5" y2="180" gradientUnits="userSpaceOnUse">
<stop stop-color="white"/>
<stop offset="1" stop-color="white" stop-opacity="0"/>
</linearGradient>
<linearGradient id="paint33_linear" x1="410" y1="19.5" x2="410" y2="168.5" gradientUnits="userSpaceOnUse">
<stop stop-color="white"/>
<stop offset="1" stop-color="white" stop-opacity="0"/>
</linearGradient>
<linearGradient id="paint34_linear" x1="433.75" y1="33.5" x2="433.75" y2="172" gradientUnits="userSpaceOnUse">
<stop stop-color="white"/>
<stop offset="1" stop-color="white" stop-opacity="0"/>
</linearGradient>
</defs>
</svg>
