<svg width="12" height="12" viewBox="0 0 12 12" fill="none" xmlns="http://www.w3.org/2000/svg">
<path fill-rule="evenodd" clip-rule="evenodd" d="M11.2929 3.70711C11.6834 3.31658 11.6834 2.68342 11.2929 2.29289L9.70711 0.707107C9.31658 0.316582 8.68342 0.316582 8.29289 0.707106L0 9V12H3L11.2929 3.70711ZM1 11V9.41421L7.35355 3.06066L8.93934 4.64645L2.58579 11H1ZM9.64645 3.93934L8.06066 2.35355L9 1.41421L10.5858 3L9.64645 3.93934ZM8 11H7V12H8V11ZM10 11H9V12H10V11ZM11 11H12V12H11V11Z" fill="#272F5A" fill-opacity="0.7"/>
</svg>