<svg width="14" height="14" viewBox="0 0 14 14" fill="none" xmlns="http://www.w3.org/2000/svg">
<path fill-rule="evenodd" clip-rule="evenodd" d="M1 11L6.05833 5.94167C5.8917 5.52704 5.8 5.07423 5.8 4.6C5.8 2.61177 7.41178 1 9.4 1C11.3882 1 13 2.61177 13 4.6C13 6.58822 11.3882 8.2 9.4 8.2C8.92577 8.2 8.47296 8.1083 8.05832 7.94168L6 10H5V11L4 12H3L2 13H1V11ZM3.41421 13L2.41421 14H0V10.5858L4.9235 5.66229C4.84267 5.32067 4.8 4.96487 4.8 4.6C4.8 2.05949 6.85949 0 9.4 0C11.9405 0 14 2.05949 14 4.6C14 7.14051 11.9405 9.2 9.4 9.2C9.03513 9.2 8.67933 9.15733 8.33771 9.0765L6.41421 11H6V11.4142L4.41421 13H3.41421ZM12 4C12 4.55228 11.5523 5 11 5C10.4477 5 10 4.55228 10 4C10 3.44772 10.4477 3 11 3C11.5523 3 12 3.44772 12 4ZM7.17531 12.5933L7 13L5 14L5.61096 13.0125L6 13L7 11.5H7.5L8 10.5L9.00003 10H10L9.00003 11L8 12.5L7.17531 12.5933Z" fill="#272F5A"/>
</svg>
<svg width="14" height="14" viewBox="0 0 14 14" fill="none" xmlns="http://www.w3.org/2000/svg">
<path fill-rule="evenodd" clip-rule="evenodd" d="M1 11L6.05833 5.94167C5.8917 5.52704 5.8 5.07423 5.8 4.6C5.8 2.61177 7.41178 1 9.4 1C11.3882 1 13 2.61177 13 4.6C13 6.58822 11.3882 8.2 9.4 8.2C8.92577 8.2 8.47296 8.1083 8.05832 7.94168L6 10H5V11L4 12H3L2 13H1V11ZM3.41421 13L2.41421 14H0V10.5858L4.9235 5.66229C4.84267 5.32067 4.8 4.96487 4.8 4.6C4.8 2.05949 6.85949 0 9.4 0C11.9405 0 14 2.05949 14 4.6C14 7.14051 11.9405 9.2 9.4 9.2C9.03513 9.2 8.67933 9.15733 8.33771 9.0765L6.41421 11H6V11.4142L4.41421 13H3.41421ZM12 4C12 4.55228 11.5523 5 11 5C10.4477 5 10 4.55228 10 4C10 3.44772 10.4477 3 11 3C11.5523 3 12 3.44772 12 4ZM7.17531 12.5933L7 13L5 14L5.61096 13.0125L6 13L7 11.5H7.5L8 10.5L9.00003 10H10L9.00003 11L8 12.5L7.17531 12.5933Z" fill="#272F5A"/>
</svg>
