<svg width="24" height="24" viewBox="0 0 24 24" fill="none" xmlns="http://www.w3.org/2000/svg">
<path fill-rule="evenodd" clip-rule="evenodd" d="M22.5858 7.41421C23.3668 6.63316 23.3668 5.36683 22.5858 4.58579L19.4142 1.41421C18.6332 0.633165 17.3668 0.633163 16.5858 1.41421L0 18V24H6L22.5858 7.41421ZM2 22V18.8284L14.7071 6.12132L17.8787 9.29289L5.17157 22H2ZM19.2929 7.87868L16.1213 4.70711L18 2.82843L21.1716 6L19.2929 7.87868ZM16 22H14V24H16V22ZM20 22H18V24H20V22ZM22 22H24V24H22V22Z" fill="#272F5A"/>
</svg>
